{
    "asset" : {
        "generator" : "Khronos glTF Blender I/O v1.6.16",
        "version" : "2.0"
    },
    "scene" : 0,
    "scenes" : [
        {
            "name" : "Scene",
            "nodes" : [
                0,
                1,
                2
            ]
        }
    ],
    "nodes" : [
        {
            "mesh" : 0,
            "name" : "about_us_1",
            "scale" : [
                1,
                0.19974541664123535,
                1
            ],
            "translation" : [
                -0.01215505599975586,
                0.23517347872257233,
                0
            ]
        },
        {
            "mesh" : 1,
            "name" : "about_us_2",
            "rotation" : [
                0,
                -0.7071068286895752,
                0,
                0.7071068286895752
            ],
            "scale" : [
                8.48164176940918,
                8.48164176940918,
                8.48164176940918
            ],
            "translation" : [
                -0.5859429836273193,
                0.5292388200759888,
                -0.7730671763420105
            ]
        },
        {
            "mesh" : 2,
            "name" : "about_us_3",
            "rotation" : [
                0,
                -0.7071068286895752,
                0,
                0.7071068286895752
            ],
            "scale" : [
                8.48164176940918,
                8.48164176940918,
                8.48164176940918
            ],
            "translation" : [
                -0.5859429836273193,
                -0.056704163551330566,
                -0.7730671763420105
            ]
        }
    ],
    "materials" : [
        {
            "doubleSided" : true,
            "name" : "black",
            "pbrMetallicRoughness" : {
                "baseColorFactor" : [
                    0,
                    0,
                    0,
                    1
                ],
                "metallicFactor" : 0,
                "roughnessFactor" : 0.4000000059604645
            }
        },
        {
            "doubleSided" : true,
            "name" : "white",
            "pbrMetallicRoughness" : {
                "metallicFactor" : 0,
                "roughnessFactor" : 0.4000000059604645
            }
        }
    ],
    "meshes" : [
        {
            "name" : "about_us",
            "primitives" : [
                {
                    "attributes" : {
                        "POSITION" : 0,
                        "NORMAL" : 1,
                        "TEXCOORD_0" : 2
                    },
                    "indices" : 3,
                    "material" : 0
                }
            ]
        },
        {
            "name" : "Curve.001",
            "primitives" : [
                {
                    "attributes" : {
                        "POSITION" : 4,
                        "NORMAL" : 5,
                        "TEXCOORD_0" : 6
                    },
                    "indices" : 7,
                    "material" : 1
                }
            ]
        },
        {
            "name" : "Curve.002",
            "primitives" : [
                {
                    "attributes" : {
                        "POSITION" : 8,
                        "NORMAL" : 9,
                        "TEXCOORD_0" : 10
                    },
                    "indices" : 7,
                    "material" : 1
                }
            ]
        }
    ],
    "accessors" : [
        {
            "bufferView" : 0,
            "componentType" : 5126,
            "count" : 192,
            "max" : [
                1,
                1,
                1
            ],
            "min" : [
                -1,
                -1,
                -1
            ],
            "type" : "VEC3"
        },
        {
            "bufferView" : 1,
            "componentType" : 5126,
            "count" : 192,
            "type" : "VEC3"
        },
        {
            "bufferView" : 2,
            "componentType" : 5126,
            "count" : 192,
            "type" : "VEC2"
        },
        {
            "bufferView" : 3,
            "componentType" : 5123,
            "count" : 372,
            "type" : "SCALAR"
        },
        {
            "bufferView" : 4,
            "componentType" : 5126,
            "count" : 536,
            "max" : [
                0.18062591552734375,
                0,
                -0.009029388427734375
            ],
            "min" : [
                0,
                0,
                -0.13544082641601562
            ],
            "type" : "VEC3"
        },
        {
            "bufferView" : 5,
            "componentType" : 5126,
            "count" : 536,
            "type" : "VEC3"
        },
        {
            "bufferView" : 6,
            "componentType" : 5126,
            "count" : 536,
            "type" : "VEC2"
        },
        {
            "bufferView" : 7,
            "componentType" : 5123,
            "count" : 1230,
            "type" : "SCALAR"
        },
        {
            "bufferView" : 8,
            "componentType" : 5126,
            "count" : 536,
            "max" : [
                0.18062591552734375,
                0,
                -0.009029388427734375
            ],
            "min" : [
                0,
                0,
                -0.13544082641601562
            ],
            "type" : "VEC3"
        },
        {
            "bufferView" : 9,
            "componentType" : 5126,
            "count" : 536,
            "type" : "VEC3"
        },
        {
            "bufferView" : 10,
            "componentType" : 5126,
            "count" : 536,
            "type" : "VEC2"
        }
    ],
    "bufferViews" : [
        {
            "buffer" : 0,
            "byteLength" : 2304,
            "byteOffset" : 0
        },
        {
            "buffer" : 0,
            "byteLength" : 2304,
            "byteOffset" : 2304
        },
        {
            "buffer" : 0,
            "byteLength" : 1536,
            "byteOffset" : 4608
        },
        {
            "buffer" : 0,
            "byteLength" : 744,
            "byteOffset" : 6144
        },
        {
            "buffer" : 0,
            "byteLength" : 6432,
            "byteOffset" : 6888
        },
        {
            "buffer" : 0,
            "byteLength" : 6432,
            "byteOffset" : 13320
        },
        {
            "buffer" : 0,
            "byteLength" : 4288,
            "byteOffset" : 19752
        },
        {
            "buffer" : 0,
            "byteLength" : 2460,
            "byteOffset" : 24040
        },
        {
            "buffer" : 0,
            "byteLength" : 6432,
            "byteOffset" : 26500
        },
        {
            "buffer" : 0,
            "byteLength" : 6432,
            "byteOffset" : 32932
        },
        {
            "buffer" : 0,
            "byteLength" : 4288,
            "byteOffset" : 39364
        }
    ],
    "buffers" : [
        {
            "byteLength" : 43652,
            "uri" : "data:application/octet-stream;base64,"
        }
    ]
}
