{
    "asset" : {
        "generator" : "Khronos glTF Blender I/O v1.6.16",
        "version" : "2.0"
    },
    "scene" : 0,
    "scenes" : [
        {
            "name" : "Scene",
            "nodes" : [
                0,
                1,
                2
            ]
        }
    ],
    "nodes" : [
        {
            "mesh" : 0,
            "name" : "dev_1",
            "scale" : [
                1,
                0.19974541664123535,
                1
            ],
            "translation" : [
                -0.01215505599975586,
                0.23517347872257233,
                0
            ]
        },
        {
            "mesh" : 1,
            "name" : "dev_2",
            "rotation" : [
                0,
                0.7071068286895752,
                0,
                -0.7071068286895752
            ],
            "scale" : [
                10.680355072021484,
                1,
                10.327993392944336
            ],
            "translation" : [
                -0.7518929243087769,
                0.4921877980232239,
                -0.7542362809181213
            ]
        },
        {
            "mesh" : 2,
            "name" : "dev_3",
            "rotation" : [
                0,
                0.7071068286895752,
                0,
                -0.7071068286895752
            ],
            "scale" : [
                10.680355072021484,
                1,
                10.327993392944336
            ],
            "translation" : [
                -0.7518929243087769,
                -0.03285069763660431,
                -0.7542362809181213
            ]
        }
    ],
    "materials" : [
        {
            "doubleSided" : true,
            "name" : "white",
            "pbrMetallicRoughness" : {
                "metallicFactor" : 0,
                "roughnessFactor" : 0.4000000059604645
            }
        },
        {
            "doubleSided" : true,
            "name" : "black",
            "pbrMetallicRoughness" : {
                "baseColorFactor" : [
                    0,
                    0,
                    0,
                    1
                ],
                "metallicFactor" : 0,
                "roughnessFactor" : 0.4000000059604645
            }
        }
    ],
    "meshes" : [
        {
            "name" : "dev_1",
            "primitives" : [
                {
                    "attributes" : {
                        "POSITION" : 0,
                        "NORMAL" : 1,
                        "TEXCOORD_0" : 2
                    },
                    "indices" : 3,
                    "material" : 0
                }
            ]
        },
        {
            "name" : "dev_2",
            "primitives" : [
                {
                    "attributes" : {
                        "POSITION" : 4,
                        "NORMAL" : 5,
                        "TEXCOORD_0" : 6
                    },
                    "indices" : 7,
                    "material" : 1
                }
            ]
        },
        {
            "name" : "dev_3",
            "primitives" : [
                {
                    "attributes" : {
                        "POSITION" : 8,
                        "NORMAL" : 9,
                        "TEXCOORD_0" : 10
                    },
                    "indices" : 7,
                    "material" : 1
                }
            ]
        }
    ],
    "accessors" : [
        {
            "bufferView" : 0,
            "componentType" : 5126,
            "count" : 267,
            "max" : [
                1,
                1,
                1
            ],
            "min" : [
                -1,
                -1,
                -1
            ],
            "type" : "VEC3"
        },
        {
            "bufferView" : 1,
            "componentType" : 5126,
            "count" : 267,
            "type" : "VEC3"
        },
        {
            "bufferView" : 2,
            "componentType" : 5126,
            "count" : 267,
            "type" : "VEC2"
        },
        {
            "bufferView" : 3,
            "componentType" : 5123,
            "count" : 372,
            "type" : "SCALAR"
        },
        {
            "bufferView" : 4,
            "componentType" : 5126,
            "count" : 1701,
            "max" : [
                0.13660231232643127,
                0,
                -0.021127359941601753
            ],
            "min" : [
                0.004459199029952288,
                0,
                -0.1199568510055542
            ],
            "type" : "VEC3"
        },
        {
            "bufferView" : 5,
            "componentType" : 5126,
            "count" : 1701,
            "type" : "VEC3"
        },
        {
            "bufferView" : 6,
            "componentType" : 5126,
            "count" : 1701,
            "type" : "VEC2"
        },
        {
            "bufferView" : 7,
            "componentType" : 5123,
            "count" : 3762,
            "type" : "SCALAR"
        },
        {
            "bufferView" : 8,
            "componentType" : 5126,
            "count" : 1701,
            "max" : [
                0.13660231232643127,
                0,
                -0.021127359941601753
            ],
            "min" : [
                0.004459199029952288,
                0,
                -0.1199568510055542
            ],
            "type" : "VEC3"
        },
        {
            "bufferView" : 9,
            "componentType" : 5126,
            "count" : 1701,
            "type" : "VEC3"
        },
        {
            "bufferView" : 10,
            "componentType" : 5126,
            "count" : 1701,
            "type" : "VEC2"
        }
    ],
    "bufferViews" : [
        {
            "buffer" : 0,
            "byteLength" : 3204,
            "byteOffset" : 0
        },
        {
            "buffer" : 0,
            "byteLength" : 3204,
            "byteOffset" : 3204
        },
        {
            "buffer" : 0,
            "byteLength" : 2136,
            "byteOffset" : 6408
        },
        {
            "buffer" : 0,
            "byteLength" : 744,
            "byteOffset" : 8544
        },
        {
            "buffer" : 0,
            "byteLength" : 20412,
            "byteOffset" : 9288
        },
        {
            "buffer" : 0,
            "byteLength" : 20412,
            "byteOffset" : 29700
        },
        {
            "buffer" : 0,
            "byteLength" : 13608,
            "byteOffset" : 50112
        },
        {
            "buffer" : 0,
            "byteLength" : 7524,
            "byteOffset" : 63720
        },
        {
            "buffer" : 0,
            "byteLength" : 20412,
            "byteOffset" : 71244
        },
        {
            "buffer" : 0,
            "byteLength" : 20412,
            "byteOffset" : 91656
        },
        {
            "buffer" : 0,
            "byteLength" : 13608,
            "byteOffset" : 112068
        }
    ],
    "buffers" : [
        {
            "byteLength" : 125676,
            "uri" : "data:application/octet-stream;base64,"
        }
    ]
}
