{
    "asset" : {
        "generator" : "Khronos glTF Blender I/O v1.6.16",
        "version" : "2.0"
    },
    "scene" : 0,
    "scenes" : [
        {
            "name" : "Scene",
            "nodes" : [
                0,
                1,
                2
            ]
        }
    ],
    "nodes" : [
        {
            "mesh" : 0,
            "name" : "dev_1",
            "scale" : [
                1,
                0.19974541664123535,
                1
            ],
            "translation" : [
                -0.01215505599975586,
                0.23517347872257233,
                0
            ]
        },
        {
            "mesh" : 1,
            "name" : "dev_2",
            "scale" : [
                8.309039115905762,
                8.309039115905762,
                8.309039115905762
            ],
            "translation" : [
                -0.6169281005859375,
                0.5230364203453064,
                0.5834140181541443
            ]
        },
        {
            "mesh" : 2,
            "name" : "dev_3",
            "scale" : [
                8.309039115905762,
                8.309039115905762,
                8.309039115905762
            ],
            "translation" : [
                -0.6169281005859375,
                -0.06726032495498657,
                0.5834140181541443
            ]
        }
    ],
    "materials" : [
        {
            "doubleSided" : true,
            "name" : "white",
            "pbrMetallicRoughness" : {
                "metallicFactor" : 0,
                "roughnessFactor" : 0.4000000059604645
            }
        },
        {
            "doubleSided" : true,
            "name" : "black",
            "pbrMetallicRoughness" : {
                "baseColorFactor" : [
                    0,
                    0,
                    0,
                    1
                ],
                "metallicFactor" : 0,
                "roughnessFactor" : 0.4000000059604645
            }
        }
    ],
    "meshes" : [
        {
            "name" : "dev_1",
            "primitives" : [
                {
                    "attributes" : {
                        "POSITION" : 0,
                        "NORMAL" : 1,
                        "TEXCOORD_0" : 2
                    },
                    "indices" : 3,
                    "material" : 0
                }
            ]
        },
        {
            "name" : "Curve.010",
            "primitives" : [
                {
                    "attributes" : {
                        "POSITION" : 4,
                        "NORMAL" : 5,
                        "TEXCOORD_0" : 6
                    },
                    "indices" : 7,
                    "material" : 1
                }
            ]
        },
        {
            "name" : "Curve.011",
            "primitives" : [
                {
                    "attributes" : {
                        "POSITION" : 8,
                        "NORMAL" : 9,
                        "TEXCOORD_0" : 10
                    },
                    "indices" : 7,
                    "material" : 1
                }
            ]
        }
    ],
    "accessors" : [
        {
            "bufferView" : 0,
            "componentType" : 5126,
            "count" : 192,
            "max" : [
                1,
                1,
                1
            ],
            "min" : [
                -1,
                -1,
                -1
            ],
            "type" : "VEC3"
        },
        {
            "bufferView" : 1,
            "componentType" : 5126,
            "count" : 192,
            "type" : "VEC3"
        },
        {
            "bufferView" : 2,
            "componentType" : 5126,
            "count" : 192,
            "type" : "VEC2"
        },
        {
            "bufferView" : 3,
            "componentType" : 5123,
            "count" : 372,
            "type" : "SCALAR"
        },
        {
            "bufferView" : 4,
            "componentType" : 5126,
            "count" : 353,
            "max" : [
                0.1445007473230362,
                0,
                5.091133061796427e-06
            ],
            "min" : [
                -5.09578239871189e-06,
                0,
                -0.14449843764305115
            ],
            "type" : "VEC3"
        },
        {
            "bufferView" : 5,
            "componentType" : 5126,
            "count" : 353,
            "type" : "VEC3"
        },
        {
            "bufferView" : 6,
            "componentType" : 5126,
            "count" : 353,
            "type" : "VEC2"
        },
        {
            "bufferView" : 7,
            "componentType" : 5123,
            "count" : 810,
            "type" : "SCALAR"
        },
        {
            "bufferView" : 8,
            "componentType" : 5126,
            "count" : 353,
            "max" : [
                0.1445007473230362,
                0,
                5.091133061796427e-06
            ],
            "min" : [
                -5.09578239871189e-06,
                0,
                -0.14449843764305115
            ],
            "type" : "VEC3"
        },
        {
            "bufferView" : 9,
            "componentType" : 5126,
            "count" : 353,
            "type" : "VEC3"
        },
        {
            "bufferView" : 10,
            "componentType" : 5126,
            "count" : 353,
            "type" : "VEC2"
        }
    ],
    "bufferViews" : [
        {
            "buffer" : 0,
            "byteLength" : 2304,
            "byteOffset" : 0
        },
        {
            "buffer" : 0,
            "byteLength" : 2304,
            "byteOffset" : 2304
        },
        {
            "buffer" : 0,
            "byteLength" : 1536,
            "byteOffset" : 4608
        },
        {
            "buffer" : 0,
            "byteLength" : 744,
            "byteOffset" : 6144
        },
        {
            "buffer" : 0,
            "byteLength" : 4236,
            "byteOffset" : 6888
        },
        {
            "buffer" : 0,
            "byteLength" : 4236,
            "byteOffset" : 11124
        },
        {
            "buffer" : 0,
            "byteLength" : 2824,
            "byteOffset" : 15360
        },
        {
            "buffer" : 0,
            "byteLength" : 1620,
            "byteOffset" : 18184
        },
        {
            "buffer" : 0,
            "byteLength" : 4236,
            "byteOffset" : 19804
        },
        {
            "buffer" : 0,
            "byteLength" : 4236,
            "byteOffset" : 24040
        },
        {
            "buffer" : 0,
            "byteLength" : 2824,
            "byteOffset" : 28276
        }
    ],
    "buffers" : [
        {
            "byteLength" : 31100,
            "uri" : "data:application/octet-stream;base64,"
        }
    ]
}
