{
    "asset" : {
        "generator" : "Khronos glTF Blender I/O v1.6.16",
        "version" : "2.0"
    },
    "scene" : 0,
    "scenes" : [
        {
            "name" : "Scene",
            "nodes" : [
                0,
                1,
                2
            ]
        }
    ],
    "nodes" : [
        {
            "mesh" : 0,
            "name" : "grow_1",
            "scale" : [
                1,
                0.19974541664123535,
                1
            ],
            "translation" : [
                -0.01215505599975586,
                0.23517347872257233,
                0
            ]
        },
        {
            "mesh" : 1,
            "name" : "grow_3",
            "rotation" : [
                0,
                -0.7071068286895752,
                0,
                0.7071068286895752
            ],
            "scale" : [
                8.828413009643555,
                8.828413009643555,
                8.828413009643555
            ],
            "translation" : [
                -0.620227038860321,
                0.49401962757110596,
                -0.5888869762420654
            ]
        },
        {
            "mesh" : 2,
            "name" : "grow_2",
            "rotation" : [
                0.7071068286895752,
                0,
                -0.7071068286895752,
                -1.9949604279645428e-07
            ],
            "scale" : [
                8.828413009643555,
                8.828413009643555,
                8.828413009643555
            ],
            "translation" : [
                -0.6202270984649658,
                -0.02801850438117981,
                0.6932256817817688
            ]
        }
    ],
    "materials" : [
        {
            "doubleSided" : true,
            "name" : "black",
            "pbrMetallicRoughness" : {
                "baseColorFactor" : [
                    0,
                    0,
                    0,
                    1
                ],
                "metallicFactor" : 0,
                "roughnessFactor" : 0.4000000059604645
            }
        },
        {
            "doubleSided" : true,
            "name" : "white",
            "pbrMetallicRoughness" : {
                "metallicFactor" : 0,
                "roughnessFactor" : 0.4000000059604645
            }
        }
    ],
    "meshes" : [
        {
            "name" : "grow_1",
            "primitives" : [
                {
                    "attributes" : {
                        "POSITION" : 0,
                        "NORMAL" : 1,
                        "TEXCOORD_0" : 2
                    },
                    "indices" : 3,
                    "material" : 0
                }
            ]
        },
        {
            "name" : "Curve.012",
            "primitives" : [
                {
                    "attributes" : {
                        "POSITION" : 4,
                        "NORMAL" : 5,
                        "TEXCOORD_0" : 6
                    },
                    "indices" : 7,
                    "material" : 1
                }
            ]
        },
        {
            "name" : "Curve.014",
            "primitives" : [
                {
                    "attributes" : {
                        "POSITION" : 8,
                        "NORMAL" : 9,
                        "TEXCOORD_0" : 10
                    },
                    "indices" : 7,
                    "material" : 1
                }
            ]
        }
    ],
    "accessors" : [
        {
            "bufferView" : 0,
            "componentType" : 5126,
            "count" : 192,
            "max" : [
                1,
                1,
                1
            ],
            "min" : [
                -1,
                -1,
                -1
            ],
            "type" : "VEC3"
        },
        {
            "bufferView" : 1,
            "componentType" : 5126,
            "count" : 192,
            "type" : "VEC3"
        },
        {
            "bufferView" : 2,
            "componentType" : 5126,
            "count" : 192,
            "type" : "VEC2"
        },
        {
            "bufferView" : 3,
            "componentType" : 5123,
            "count" : 372,
            "type" : "SCALAR"
        },
        {
            "bufferView" : 4,
            "componentType" : 5126,
            "count" : 373,
            "max" : [
                0.144500732421875,
                0,
                -0.01805877685546875
            ],
            "min" : [
                0,
                0,
                -0.12641143798828125
            ],
            "type" : "VEC3"
        },
        {
            "bufferView" : 5,
            "componentType" : 5126,
            "count" : 373,
            "type" : "VEC3"
        },
        {
            "bufferView" : 6,
            "componentType" : 5126,
            "count" : 373,
            "type" : "VEC2"
        },
        {
            "bufferView" : 7,
            "componentType" : 5123,
            "count" : 801,
            "type" : "SCALAR"
        },
        {
            "bufferView" : 8,
            "componentType" : 5126,
            "count" : 373,
            "max" : [
                0.144500732421875,
                0,
                -0.01805877685546875
            ],
            "min" : [
                0,
                0,
                -0.12641143798828125
            ],
            "type" : "VEC3"
        },
        {
            "bufferView" : 9,
            "componentType" : 5126,
            "count" : 373,
            "type" : "VEC3"
        },
        {
            "bufferView" : 10,
            "componentType" : 5126,
            "count" : 373,
            "type" : "VEC2"
        }
    ],
    "bufferViews" : [
        {
            "buffer" : 0,
            "byteLength" : 2304,
            "byteOffset" : 0
        },
        {
            "buffer" : 0,
            "byteLength" : 2304,
            "byteOffset" : 2304
        },
        {
            "buffer" : 0,
            "byteLength" : 1536,
            "byteOffset" : 4608
        },
        {
            "buffer" : 0,
            "byteLength" : 744,
            "byteOffset" : 6144
        },
        {
            "buffer" : 0,
            "byteLength" : 4476,
            "byteOffset" : 6888
        },
        {
            "buffer" : 0,
            "byteLength" : 4476,
            "byteOffset" : 11364
        },
        {
            "buffer" : 0,
            "byteLength" : 2984,
            "byteOffset" : 15840
        },
        {
            "buffer" : 0,
            "byteLength" : 1602,
            "byteOffset" : 18824
        },
        {
            "buffer" : 0,
            "byteLength" : 4476,
            "byteOffset" : 20428
        },
        {
            "buffer" : 0,
            "byteLength" : 4476,
            "byteOffset" : 24904
        },
        {
            "buffer" : 0,
            "byteLength" : 2984,
            "byteOffset" : 29380
        }
    ],
    "buffers" : [
        {
            "byteLength" : 32364,
            "uri" : "data:application/octet-stream;base64,"
        }
    ]
}
