{
    "asset" : {
        "generator" : "Khronos glTF Blender I/O v1.6.16",
        "version" : "2.0"
    },
    "scene" : 0,
    "scenes" : [
        {
            "name" : "Scene",
            "nodes" : [
                0,
                1,
                2
            ]
        }
    ],
    "nodes" : [
        {
            "mesh" : 0,
            "name" : "portfolio_1",
            "scale" : [
                1,
                0.19974541664123535,
                1
            ],
            "translation" : [
                -0.01215505599975586,
                0.23517347872257233,
                0
            ]
        },
        {
            "mesh" : 1,
            "name" : "portfolio_3",
            "rotation" : [
                0,
                -0.7071068286895752,
                0,
                0.7071068286895752
            ],
            "scale" : [
                8.9554443359375,
                8.9554443359375,
                8.9554443359375
            ],
            "translation" : [
                -0.5933268070220947,
                0.5213624835014343,
                -0.6732891798019409
            ]
        },
        {
            "mesh" : 2,
            "name" : "portfolio_2",
            "rotation" : [
                0,
                -0.7071068286895752,
                0,
                0.7071068286895752
            ],
            "scale" : [
                8.9554443359375,
                8.9554443359375,
                8.9554443359375
            ],
            "translation" : [
                -0.5933268070220947,
                -0.05253666639328003,
                -0.6732891798019409
            ]
        }
    ],
    "materials" : [
        {
            "doubleSided" : true,
            "name" : "black",
            "pbrMetallicRoughness" : {
                "baseColorFactor" : [
                    0,
                    0,
                    0,
                    1
                ],
                "metallicFactor" : 0,
                "roughnessFactor" : 0.4000000059604645
            }
        },
        {
            "doubleSided" : true,
            "name" : "white",
            "pbrMetallicRoughness" : {
                "metallicFactor" : 0,
                "roughnessFactor" : 0.4000000059604645
            }
        }
    ],
    "meshes" : [
        {
            "name" : "portfolio_1",
            "primitives" : [
                {
                    "attributes" : {
                        "POSITION" : 0,
                        "NORMAL" : 1,
                        "TEXCOORD_0" : 2
                    },
                    "indices" : 3,
                    "material" : 0
                }
            ]
        },
        {
            "name" : "Curve.005",
            "primitives" : [
                {
                    "attributes" : {
                        "POSITION" : 4,
                        "NORMAL" : 5,
                        "TEXCOORD_0" : 6
                    },
                    "indices" : 7,
                    "material" : 1
                }
            ]
        },
        {
            "name" : "Curve.006",
            "primitives" : [
                {
                    "attributes" : {
                        "POSITION" : 8,
                        "NORMAL" : 9,
                        "TEXCOORD_0" : 10
                    },
                    "indices" : 7,
                    "material" : 1
                }
            ]
        }
    ],
    "accessors" : [
        {
            "bufferView" : 0,
            "componentType" : 5126,
            "count" : 192,
            "max" : [
                1,
                1,
                1
            ],
            "min" : [
                -1,
                -1,
                -1
            ],
            "type" : "VEC3"
        },
        {
            "bufferView" : 1,
            "componentType" : 5126,
            "count" : 192,
            "type" : "VEC3"
        },
        {
            "bufferView" : 2,
            "componentType" : 5126,
            "count" : 192,
            "type" : "VEC2"
        },
        {
            "bufferView" : 3,
            "componentType" : 5123,
            "count" : 372,
            "type" : "SCALAR"
        },
        {
            "bufferView" : 4,
            "componentType" : 5126,
            "count" : 158,
            "max" : [
                0.1445007175207138,
                0,
                -0.009029388427734375
            ],
            "min" : [
                0,
                0,
                -0.13544082641601562
            ],
            "type" : "VEC3"
        },
        {
            "bufferView" : 5,
            "componentType" : 5126,
            "count" : 158,
            "type" : "VEC3"
        },
        {
            "bufferView" : 6,
            "componentType" : 5126,
            "count" : 158,
            "type" : "VEC2"
        },
        {
            "bufferView" : 7,
            "componentType" : 5123,
            "count" : 384,
            "type" : "SCALAR"
        },
        {
            "bufferView" : 8,
            "componentType" : 5126,
            "count" : 158,
            "max" : [
                0.1445007175207138,
                0,
                -0.009029388427734375
            ],
            "min" : [
                0,
                0,
                -0.13544082641601562
            ],
            "type" : "VEC3"
        },
        {
            "bufferView" : 9,
            "componentType" : 5126,
            "count" : 158,
            "type" : "VEC3"
        },
        {
            "bufferView" : 10,
            "componentType" : 5126,
            "count" : 158,
            "type" : "VEC2"
        }
    ],
    "bufferViews" : [
        {
            "buffer" : 0,
            "byteLength" : 2304,
            "byteOffset" : 0
        },
        {
            "buffer" : 0,
            "byteLength" : 2304,
            "byteOffset" : 2304
        },
        {
            "buffer" : 0,
            "byteLength" : 1536,
            "byteOffset" : 4608
        },
        {
            "buffer" : 0,
            "byteLength" : 744,
            "byteOffset" : 6144
        },
        {
            "buffer" : 0,
            "byteLength" : 1896,
            "byteOffset" : 6888
        },
        {
            "buffer" : 0,
            "byteLength" : 1896,
            "byteOffset" : 8784
        },
        {
            "buffer" : 0,
            "byteLength" : 1264,
            "byteOffset" : 10680
        },
        {
            "buffer" : 0,
            "byteLength" : 768,
            "byteOffset" : 11944
        },
        {
            "buffer" : 0,
            "byteLength" : 1896,
            "byteOffset" : 12712
        },
        {
            "buffer" : 0,
            "byteLength" : 1896,
            "byteOffset" : 14608
        },
        {
            "buffer" : 0,
            "byteLength" : 1264,
            "byteOffset" : 16504
        }
    ],
    "buffers" : [
        {
            "byteLength" : 17768,
            "uri" : "data:application/octet-stream;base64,"
        }
    ]
}
