<svg id="Capa_1" data-name="Capa 1" xmlns="http://www.w3.org/2000/svg" viewBox="0 0 3000 450"><defs><style>.cls-1{fill:#0c0b10;}.cls-2{fill:#e7bb70;}.cls-3{fill:#0c1324;}.cls-4{fill:#18100e;}.cls-5{fill:#160e10;}.cls-6{fill:#181718;}.cls-7{fill:#0c0d11;}</style></defs><title>30Mesa de trabajo 5</title><rect class="cls-1" x="1282.19" y="123.83" width="6.18" height="121.08"/><rect class="cls-1" x="1279.46" y="238.83" width="12" height="6.08"/><ellipse class="cls-2" cx="1285.28" cy="122.33" rx="7.67" ry="7"/><rect class="cls-1" x="933.61" y="123.83" width="6.18" height="121.08"/><rect class="cls-1" x="930.89" y="238.83" width="12" height="6.08"/><ellipse class="cls-2" cx="936.71" cy="122.33" rx="7.67" ry="7"/><rect class="cls-1" x="2043.92" y="123.83" width="6.18" height="121.08"/><rect class="cls-1" x="2041.19" y="238.83" width="12" height="6.08"/><ellipse class="cls-2" cx="2047.01" cy="122.33" rx="7.67" ry="7"/><rect class="cls-1" x="1685.48" y="123.83" width="6.18" height="121.08"/><rect class="cls-1" x="1682.75" y="238.83" width="12" height="6.08"/><ellipse class="cls-2" cx="1688.57" cy="122.33" rx="7.67" ry="7"/><rect class="cls-3" x="971.75" y="195.58" width="49.84" height="49.33"/><polygon class="cls-1" points="1021.59 177.21 1021.59 195.96 971.75 195.96 961.75 195.96 961.75 191.83 1021.59 177.21"/><rect class="cls-2" x="975.24" y="199.9" width="17.82" height="17.25"/><rect class="cls-3" x="1021.21" y="195.5" width="49.7" height="49.33" transform="translate(2092.12 440.34) rotate(-180)"/><polygon class="cls-1" points="1021.21 177.13 1021.21 195.88 1070.91 195.88 1080.88 195.88 1080.88 191.75 1021.21 177.13"/><rect class="cls-2" x="1049.36" y="199.81" width="17.82" height="17.25" transform="translate(2116.55 416.88) rotate(-180)"/><rect class="cls-3" x="1138.24" y="195.58" width="49.84" height="49.33"/><rect class="cls-2" x="1141.73" y="199.9" width="17.82" height="17.25"/><rect class="cls-3" x="1187.7" y="195.5" width="49.7" height="49.33" transform="translate(2425.11 440.34) rotate(-180)"/><rect class="cls-2" x="1215.85" y="199.81" width="17.82" height="17.25" transform="translate(2449.53 416.88) rotate(-180)"/><rect class="cls-3" x="1345.73" y="195.58" width="49.84" height="49.33"/><rect class="cls-2" x="1349.23" y="199.9" width="17.82" height="17.25"/><rect class="cls-3" x="1395.2" y="195.5" width="49.7" height="49.33" transform="translate(2840.09 440.34) rotate(-180)"/><rect class="cls-2" x="1423.35" y="199.81" width="17.82" height="17.25" transform="translate(2864.51 416.88) rotate(-180)"/><rect class="cls-3" x="2085.61" y="195.58" width="49.84" height="49.33"/><polygon class="cls-1" points="2135.45 177.21 2135.45 195.96 2085.61 195.96 2075.61 195.96 2075.61 191.83 2135.45 177.21"/><rect class="cls-2" x="2089.1" y="199.9" width="17.82" height="17.25"/><rect class="cls-3" x="2135.07" y="195.5" width="49.7" height="49.33" transform="translate(4319.85 440.34) rotate(-180)"/><polygon class="cls-1" points="2135.07 177.13 2135.07 195.88 2184.77 195.88 2194.74 195.88 2194.74 191.75 2135.07 177.13"/><rect class="cls-2" x="2163.22" y="199.81" width="17.82" height="17.25" transform="translate(4344.27 416.88) rotate(-180)"/><rect class="cls-3" x="1749.63" y="195.58" width="49.84" height="49.33"/><polygon class="cls-1" points="1799.47 177.21 1799.47 195.96 1749.63 195.96 1739.63 195.96 1739.63 191.83 1799.47 177.21"/><rect class="cls-2" x="1753.12" y="199.9" width="17.82" height="17.25"/><rect class="cls-3" x="1799.09" y="195.5" width="49.7" height="49.33" transform="translate(3647.88 440.34) rotate(-180)"/><polygon class="cls-1" points="1799.09 177.13 1799.09 195.88 1848.79 195.88 1858.76 195.88 1858.76 191.75 1799.09 177.13"/><rect class="cls-2" x="1827.24" y="199.81" width="17.82" height="17.25" transform="translate(3672.3 416.88) rotate(-180)"/><rect class="cls-4" x="801.61" y="150.49" width="49.84" height="94.42"/><rect class="cls-2" x="805.1" y="199.9" width="17.82" height="17.25"/><rect class="cls-4" x="851.07" y="150.71" width="49.7" height="94.42" transform="translate(1751.84 395.84) rotate(-180)"/><rect class="cls-2" x="879.22" y="158.31" width="17.82" height="17.25" transform="translate(1776.26 333.88) rotate(-180)"/><rect class="cls-5" x="627.89" y="136.83" width="128.72" height="108.08"/><rect class="cls-4" x="638.31" y="131.58" width="107.89" height="5.25"/><rect class="cls-1" x="444.7" y="123.83" width="6.18" height="121.08"/><rect class="cls-1" x="441.98" y="238.83" width="12" height="6.08"/><ellipse class="cls-2" cx="447.79" cy="122.33" rx="7.67" ry="7"/><rect class="cls-2" x="647.66" y="147.83" width="17.82" height="17.25"/><rect class="cls-2" x="647.66" y="198.03" width="17.82" height="17.25"/><rect class="cls-1" x="2549.11" y="123.83" width="6.18" height="121.08"/><rect class="cls-1" x="2546.39" y="238.83" width="12" height="6.08"/><ellipse class="cls-2" cx="2552.21" cy="122.33" rx="7.67" ry="7"/><rect class="cls-4" x="2417.11" y="150.49" width="49.84" height="94.42"/><polygon class="cls-1" points="2466.95 132.04 2466.95 150.79 2417.11 150.79 2407.11 150.79 2407.11 146.67 2466.95 132.04"/><rect class="cls-2" x="2420.6" y="199.9" width="17.82" height="17.25"/><rect class="cls-4" x="2466.57" y="150.71" width="49.7" height="94.42" transform="translate(4982.84 395.84) rotate(-180)"/><polygon class="cls-1" points="2466.57 131.96 2466.57 150.71 2516.27 150.71 2526.24 150.71 2526.24 146.58 2466.57 131.96"/><rect class="cls-2" x="2494.72" y="158.31" width="17.82" height="17.25" transform="translate(5007.26 333.88) rotate(-180)"/><rect class="cls-6" x="2227.39" y="136.83" width="128.72" height="108.08"/><rect class="cls-4" x="2237.81" y="131.58" width="107.89" height="5.25"/><rect class="cls-2" x="2247.16" y="147.83" width="17.82" height="17.25"/><rect class="cls-2" x="2247.16" y="198.03" width="17.82" height="17.25"/><rect class="cls-6" x="1505.03" y="136.83" width="128.72" height="108.08"/><rect class="cls-4" x="1515.44" y="131.58" width="107.89" height="5.25"/><rect class="cls-2" x="1524.79" y="147.83" width="17.82" height="17.25"/><rect class="cls-2" x="1524.79" y="198.03" width="17.82" height="17.25"/><rect class="cls-3" x="482.84" y="195.58" width="49.84" height="49.33"/><polygon class="cls-1" points="532.68 177.21 532.68 195.96 482.84 195.96 472.84 195.96 472.84 191.83 532.68 177.21"/><rect class="cls-2" x="486.33" y="199.9" width="17.82" height="17.25"/><rect class="cls-3" x="532.3" y="195.5" width="49.7" height="49.33" transform="translate(1114.3 440.34) rotate(-180)"/><polygon class="cls-1" points="532.3 177.13 532.3 195.88 582 195.88 591.97 195.88 591.97 191.75 532.3 177.13"/><rect class="cls-2" x="560.45" y="199.81" width="17.82" height="17.25" transform="translate(1138.72 416.88) rotate(-180)"/><rect class="cls-5" x="1905.35" y="150.49" width="49.84" height="94.42"/><polygon class="cls-1" points="1955.18 132.04 1955.18 150.79 1905.35 150.79 1895.35 150.79 1895.35 146.67 1955.18 132.04"/><rect class="cls-2" x="1908.84" y="199.9" width="17.82" height="17.25"/><rect class="cls-5" x="1954.81" y="150.71" width="49.7" height="94.42" transform="translate(3959.31 395.84) rotate(-180)"/><polygon class="cls-1" points="1954.81 131.96 1954.81 150.71 2004.5 150.71 2014.47 150.71 2014.47 146.58 1954.81 131.96"/><rect class="cls-2" x="1982.96" y="158.31" width="17.82" height="17.25" transform="translate(3983.73 333.88) rotate(-180)"/><rect class="cls-3" x="105.46" y="195.58" width="49.84" height="49.33"/><polygon class="cls-1" points="155.3 177.21 155.3 195.96 105.46 195.96 95.47 195.96 95.47 191.83 155.3 177.21"/><rect class="cls-2" x="108.96" y="199.9" width="17.82" height="17.25"/><rect class="cls-3" x="154.93" y="195.5" width="49.7" height="49.33" transform="translate(359.55 440.34) rotate(-180)"/><polygon class="cls-1" points="154.93 177.13 154.93 195.88 204.62 195.88 214.59 195.88 214.59 191.75 154.93 177.13"/><rect class="cls-2" x="183.08" y="199.81" width="17.82" height="17.25" transform="translate(383.97 416.88) rotate(-180)"/><rect class="cls-5" x="261.18" y="150.49" width="49.84" height="94.42"/><polygon class="cls-1" points="311.02 132.04 311.02 150.79 261.18 150.79 251.18 150.79 251.18 146.67 311.02 132.04"/><rect class="cls-2" x="264.67" y="199.9" width="17.82" height="17.25"/><rect class="cls-5" x="310.64" y="150.71" width="49.7" height="94.42" transform="translate(670.98 395.84) rotate(-180)"/><polygon class="cls-1" points="310.64 131.96 310.64 150.71 360.34 150.71 370.31 150.71 370.31 146.58 310.64 131.96"/><rect class="cls-2" x="338.79" y="158.31" width="17.82" height="17.25" transform="translate(695.41 333.88) rotate(-180)"/><rect class="cls-6" y="244.92" width="3000" height="205.08"/><rect class="cls-7" x="1136.01" y="193.05" width="103.37" height="3.82"/><rect class="cls-7" x="799.5" y="147.37" width="103.37" height="3.82"/><rect class="cls-7" x="1343.01" y="188.05" width="103.37" height="3.82"/><rect class="cls-3" x="1345.73" y="147.09" width="49.84" height="49.33"/><rect class="cls-2" x="1349.23" y="151.4" width="17.82" height="17.25"/><rect class="cls-3" x="1395.2" y="147" width="49.7" height="49.33" transform="translate(2840.09 343.34) rotate(-180)"/><rect class="cls-2" x="1423.35" y="151.32" width="17.82" height="17.25" transform="translate(2864.51 319.88) rotate(-180)"/><rect class="cls-7" x="1343.01" y="144.55" width="103.37" height="3.82"/><rect class="cls-3" x="2622.82" y="195.58" width="49.84" height="49.33"/><rect class="cls-2" x="2626.31" y="199.9" width="17.82" height="17.25"/><rect class="cls-3" x="2672.28" y="195.5" width="49.7" height="49.33" transform="translate(5394.25 440.34) rotate(-180)"/><rect class="cls-2" x="2700.43" y="199.81" width="17.82" height="17.25" transform="translate(5418.67 416.88) rotate(-180)"/><rect class="cls-6" x="2782.11" y="136.83" width="128.72" height="108.08"/><rect class="cls-4" x="2792.52" y="131.58" width="107.89" height="5.25"/><rect class="cls-2" x="2801.87" y="147.83" width="17.82" height="17.25"/><rect class="cls-2" x="2801.87" y="198.03" width="17.82" height="17.25"/><rect class="cls-7" x="2620.09" y="193.05" width="103.37" height="3.82"/><rect class="cls-3" x="2622.82" y="146.09" width="49.84" height="49.33"/><rect class="cls-2" x="2626.31" y="150.4" width="17.82" height="17.25"/><rect class="cls-3" x="2672.28" y="146" width="49.7" height="49.33" transform="translate(5394.25 341.34) rotate(-180)"/><rect class="cls-2" x="2700.43" y="150.32" width="17.82" height="17.25" transform="translate(5418.67 317.88) rotate(-180)"/><rect class="cls-7" x="2620.09" y="143.55" width="103.37" height="3.82"/></svg>