<?xml version="1.0" encoding="utf-8"?>
<!-- Generator: Adobe Illustrator 26.0.0, SVG Export Plug-In . SVG Version: 6.00 Build 0)  -->
<svg version="1.1" id="Capa_1" xmlns="http://www.w3.org/2000/svg" xmlns:xlink="http://www.w3.org/1999/xlink" x="0px" y="0px"
	 viewBox="0 0 51.8 51.8" style="enable-background:new 0 0 51.8 51.8;" xml:space="preserve">
<style type="text/css">
	.st0{fill:#303030;}
	.st1{fill:#41562B;}
	.st2{fill:#343434;}
	.st3{fill:#353535;}
	.st4{fill:#323232;}
	.st5{fill:#375120;}
	.st6{fill:#171717;}
	.st7{fill:#161616;}
	.st8{fill:#393939;}
	.st9{fill:#2B2B2B;}
</style>
<rect class="st0" width="51.8" height="51.8"/>
<rect x="29.4" y="16.8" class="st1" width="22.4" height="35"/>
<path class="st2" d="M52.1,9.3c0,2.3,0,4.7,0,7c-1,0.7-2.1,0.3-3.1,0.3c-3.8,0-7.6,0-11.5,0c-2.5,0-5.1,0-7.6,0.2
	c-1.7,0.1-3.4-0.1-5.2-0.2c-3.8-0.1-7.7-0.1-11.5,0c-3.9,0-7.9,0.1-11.8,0c-0.8,0-1.6,0.2-2.2-0.5c0-4.6,0-9.2,0-13.7
	C-0.4,0.9,1.1,1,2,0.3c0.2-0.1,0.6-0.1,0.8,0C3.5,0.8,4.1,1,4.9,0.5C5.2,0.3,5.6,0.6,5.7,1c0.1,0.5-0.1,0.9-0.6,1
	C4.6,2.2,4,2.3,3.7,2.5c-0.3,0.1-0.1-0.1-0.1,0s0,0.1,0.1,0c1.5-0.8,3.1-1.3,4.7-1.9C9,0.5,9.8,0.5,10.5,0.3
	c0.6-0.1,1.1-0.1,1.6,0.5c0.6,0.6,1.5,0.5,2-0.1c0.6-0.8,1.4-0.3,2.1-0.4c0.4,0,0.7,0.4,0.6,0.7c-0.1,0.6,0,1.3-0.7,1.7
	c-1.4,0.8-2.8,1.6-4.5,1.2C10,3.6,8.4,3.7,6.9,4.3c-0.2,0-0.4,0.1-0.7,0.1C5.1,4.5,3.9,4.7,3.3,5.5c0.7-0.3,1.5-0.9,2.6-1
	c0.5,0,1-0.2,1.3,0.2c0.3,0.4,0.6,0.1,0.9,0.1c0.6,0,0.8,0.3,0.9,0.8c0.1,0.5-0.3,0.7-0.7,0.8C7.3,6.7,6.4,6.9,5.4,7
	c1.2,0.3,2.2-0.5,3.3-0.8C10,5.8,11.2,5,12.6,4.6c0.8-0.2,1.3-1,2.2-1.3c1-0.3,1.9-0.9,3.1-1c0.9-0.1,1.6-1,2.7-1
	c0.5,0,0.8,0.1,1.1,0.4c-0.2-0.3-0.5-0.4-0.3-0.9c0.2-0.6,0.6-0.6,1.1-0.6c2.8,0.1,5.7,0,8.5,0c1.4,0,2.8,0,4.1,0
	c1.5,0,1.5,0,1.5,1.4c0-1.2,0.3-1.5,1.5-1.2c0.2,0,0.4,0.1,0.6,0.1c1.9-0.4,3.1,0.6,3.9,2.2c0,0.1,0.1,0.1,0.2,0.2
	c0.4,0.3,2.8,0,3.2-0.3c0.3-0.3,0-0.6,0.1-0.9c0.1-0.5-0.2-1.3,0.8-1.3c1.3,0.1,2.6,0,3.9,0c0.5,0,1,0,1.4,0.5c0,1.2,0,2.4,0,3.6
	C51.7,5,51,5.3,50.4,5.2c-2.2-0.3-4.3-0.1-6.5-0.2c-0.9,0-1.8-0.3-2.7-0.5C41.9,5,42.8,5,43.6,5c1.2,0.1,1.6,1,2.2,1.6
	c0.3,0.3,0.1,0.7-0.5,0.9c-1.4,0.4-2.7,0-4.1-0.3c-0.6-0.1-1.1-0.3-1.7,0.1c-0.3,0.2-0.5,0.2-0.8,0.1C38,7,37.3,7.3,36.5,7.6
	C37.3,7.3,38,7,38.9,7.5c0.1,0.1,0.2,0.1,0.4,0.1c1.7-0.9,3.2,0.2,4.9,0.3c0.1,0,0.2,0,0.2-0.1C45.7,7.1,46.8,8,48,8.5
	c0.8,0.4,1.6,0.4,2.4,0.2C51.1,8.6,51.7,8.7,52.1,9.3z"/>
<path class="st3" d="M8.5,51.9c-2.9,0-5.7,0-8.6,0c-0.6,0-0.8-0.1-0.8-0.7c0-6.7,0-13.3,0-20c0.2-0.2,0.3-0.6,0.7-0.7
	c2-0.2,4-0.6,6-0.3c0.1,0,0.3,0,0.4,0c1.7-0.4,3.1,0.5,4.4,1.2c1.4,0.9,2.9,0.9,4.4,1.1c0.1,0,0.2,0,0.4,0c0.7,0.1,1.6-0.2,1.7,0.9
	c0.1,0.7-0.8,1.4-1.8,1.4c-2,0-4,0.3-6,0.1c1.9,0.2,3.8,0,5.7-0.1c0.9,0,1.8-0.3,2.6-0.7c0.3-0.1,0.5-0.3,0.5-0.6s-0.3-0.4-0.5-0.5
	c-0.1,0-0.6-0.1-0.6-0.4c-0.2-1.1-0.6-1.1-1.5-0.5c-0.8,0.5-1.8-0.1-1.9-1.1c-0.1-1.1,0.6-2,0.7-3.1c0-0.2,0.3-0.4,0.6-0.5
	c1-0.4,3.4,0.4,4,1.3c0.2,0.4,0.5,0.6,1,0.7s0.5,0.2,0.8,1.6c-0.2-1,0.2-1.7,1.2-2.1c0.3-0.1,0.5-0.2,0.7-0.4
	c0.2-0.2,0.3-0.3,0.5-0.5c1.3-1.2,1.9-1.1,2.9,0.3c0.5,0.7,0.9,0.7,1.5,0.1c0.5-0.6,1.1-1.2,1.9-0.5c0.2,2,0.2,4,0.1,5.9
	c-0.2,1.9,0.2,3.7,0.1,5.6c-0.2,3.6-0.2,7.3,0,10.9c0,0.8-0.3,1.3-1,1.7c-4,0-8,0-12,0c-0.4-0.3-0.8-0.4-1.2-0.4
	c-0.5,0-0.8-0.2-1.1-0.6c-0.5-0.9-1.4-1.1-2.3-1c-0.8,0-1.6,0.3-2.4,0.5c-0.5,0.1-1,0.2-0.5,0.9C9.1,51.6,8.7,51.7,8.5,51.9z"/>
<path class="st4" d="M22.5,29.3c-1,0.5-1.6,1.2-1.3,2.4c0.1,0.4,0,1.1-0.7,0.9c-0.6-0.1-0.8-0.6-0.6-1.1c0.3-0.9,0.2-1.5-0.9-1.7
	c-0.1,0-0.3-0.2-0.4-0.3c-0.3-1.8-1.8-1.3-3-1.6c-0.2,0-0.5,0-0.7,0.2c-0.2,0.3,0,0.5,0.2,0.6c0.6,0.4,0.4,0.7-0.2,1
	c-0.3,0.2-0.6,0.4-0.7,0.8c-0.1,0.4,0,0.7,0.4,0.9c0.4,0.2,0.6,0,0.8-0.3c0.2-0.2,0.3-0.5,0.5-0.7c0.4-0.3,0.9-0.5,1.4-0.3
	s0.6,0.8,0.4,1.2c-0.3,0.7,0,0.9,0.6,1s1.2,0.2,1.2,1c0,0.7-0.4,1.3-1.2,1.4c-2.3,0.5-4.7,0.8-7,0.6c-0.7-0.1-1.4,0-2.1,0.1
	c-0.5,0.1-1,0.1-1.4-0.3c-0.3-0.2-0.4-0.5-0.3-0.9s0.5-0.4,0.8-0.3c2,1,4,0.3,6,0.3c0.4,0,0.7-0.1,1.1-0.1c0.3-0.1,0.8-0.2,0.7-0.7
	C16,33,15.6,33.1,15.3,33c-0.8,0-1.5-0.1-2.3-0.1c-0.9,0-1.6,0-2.4-0.8c-0.7-0.8-2-0.9-3-1.2c-2.1-0.5-4.3-0.6-6.5,0
	C0.4,31.1-0.3,31-1,31.1c0-0.4,0-0.8,0-1.2c0.5-0.5,0.5-1,0-1.4c0-1.2,0-2.4,0-3.6c0.4-0.7,0.9-0.7,1.6-0.6c1.5,0.2,3,0.6,4.5,1
	c0.2,0.1,0.3,0.2,0.3,0.3c0.4,0.4,0.6,0.6,1,0.6c1.8,0.1,3.6,0.1,5.4,0.1c1.9-0.1,4-0.4,6,0.2c0.6,0.2,0.9,0.7,1.3,1.1
	c0.7,0.6,1.4,1.4,2.5,1.2C21.9,28.7,22.4,28.8,22.5,29.3z"/>
<path class="st5" d="M40.4,28.6c0.5,1,1.2,1.6,2.4,1.3c0.4-0.1,1.1,0,0.9,0.7c-0.1,0.6-0.6,0.8-1.1,0.6c-0.9-0.3-1.5-0.2-1.7,0.9
	c0,0.1-0.2,0.3-0.3,0.4c-1.8,0.3-1.3,1.8-1.6,3c0,0.2,0,0.5,0.2,0.7c0.3,0.2,0.5,0,0.6-0.2c0.4-0.6,0.7-0.4,1,0.2
	c0.2,0.3,0.4,0.6,0.8,0.7c0.4,0.1,0.7,0,0.9-0.4s0-0.6-0.3-0.8c-0.2-0.2-0.5-0.3-0.7-0.5c-0.3-0.4-0.5-0.9-0.3-1.4s0.8-0.6,1.2-0.4
	c0.7,0.3,0.9,0,1-0.6s0.2-1.2,1-1.2c0.7,0,1.3,0.4,1.4,1.2c0.5,2.3,0.8,4.7,0.6,7c-0.1,0.7,0,1.4,0.1,2.1c0.1,0.5,0.1,1-0.3,1.4
	c-0.2,0.3-0.5,0.4-0.9,0.3c-0.4-0.1-0.4-0.5-0.3-0.8c1-2,0.3-4,0.3-6c0-0.4-0.1-0.7-0.1-1.1c-0.1-0.3-0.2-0.8-0.7-0.7
	c-0.4,0.1-0.3,0.5-0.4,0.8c0,0.8-0.1,1.5-0.1,2.3c0,0.9,0,1.6-0.8,2.4c-0.8,0.7-0.9,2-1.2,3c-0.5,2.1-0.6,4.3,0,6.5
	c0.2,0.7,0.1,1.4,0.2,2.1c-0.4,0-0.8,0-1.2,0c-0.5-0.5-1-0.5-1.4,0c-1.2,0-2.4,0-3.6,0c-0.7-0.4-0.7-0.9-0.6-1.6
	c0.2-1.5,0.6-3,1-4.5c0.1-0.2,0.2-0.3,0.3-0.3c0.4-0.1,0.6-0.3,0.6-0.8c0.1-1.8,0.1-3.6,0.1-5.4c-0.1-1.9-0.4-4,0.2-6
	c0.2-0.6,0.7-0.9,1.1-1.3c0.6-0.7,1.4-1.4,1.2-2.5C39.9,29.2,40,28.7,40.4,28.6z"/>
<path class="st6" d="M30.1,18.2c-0.2,0.5-0.2,1.1-0.2,1.7c0,8.3,0,16.6,0,24.9c0,2.4,0,4.8,0,7.2c-0.5,0-1,0-1.5,0
	c0.3-0.7,0.5-1.5,0.5-2.3c-0.5-5.3,0.4-10.7-0.2-16c0.1-2.2,0.3-4.4-0.1-6.5c-0.4-2.2-0.3-4.4-0.1-6.6c0.2-2.1-0.4-2.9-2.5-2.9
	c-6.3,0-12.7-0.2-19,0.1c-2-0.1-4-0.1-6-0.1c-0.6,0-1.3,0-1.7-0.6c0-0.3,0-0.6,0-1c3.4,0.2,6.8,0.3,10.1,0.2
	c7.5-0.2,15.1,0.1,22.6,0c4.9-0.1,9.8,0.2,14.7-0.1c1.8-0.1,3.7,0.1,5.5,0.1c0,0.2,0,0.5,0,0.7c-0.9,0.8-2,0.8-3.4,0
	c-3.7,0-7.4,0-11,0c-0.9,0.2-1.8,0.5-2.8,0.4c-1.3-0.1-2.6,0-3.9,0.1c-0.3,0-0.4,0.1-0.6,0.2C30.3,17.9,30.2,18,30.1,18.2z"/>
<path class="st5" d="M52,25.3c-1.9,0.2-3.7,0.3-5.6-0.5c-2.8-1.2-5.8-1.4-8.8-1c-0.6,0.1-1.2,0.3-1.7,0.6c-0.3,0.2-0.7,0.4-0.9-0.1
	c-0.2-0.4,0.1-0.8,0.4-0.9c1-0.2,2-1.3,3.2-0.4c0.6,0.4,0.9-0.1,0.9-0.6c0-0.3,0-0.6,0.4-0.6c0.3,0,0.4,0.2,0.6,0.4
	c0.8,1,2.9,1.5,4.2,1.1c0.5-0.2,0.7-0.5,0.3-0.9c-0.7-0.7-1.4-1.2-2.6-0.9c-1.6,0.4-2.4-0.2-2.7-1.7c0-0.2-0.2-0.5,0.1-0.7
	s0.5-0.1,0.8,0.1c0.2,0.1,0.4,0.3,0.6,0.4c1.3,0.9,2.7,1.4,4.4,0.8c0.4-0.2,1-0.1,1.5-0.1c1.7,0.2,3.4,0.3,5.1,0.1
	C52,22.1,52,23.7,52,25.3z"/>
<path class="st7" d="M46.8,0.9C31.5,0.3,16.2,0.7,0.9,0.6c-0.6,0-1.1,0.1-1.7,0.2l-0.1-1c17,0,35,0,52,0c1.8,0,1.2,0.2,1,1
	C50.4,0.9,48.6,0.9,46.8,0.9z"/>
<path class="st8" d="M8.5,51.9c-0.2-0.5-0.7-0.6-1.3-0.7C7.8,50.6,8,49.7,9,49.6c1.8-0.1,3.8-1,5.4,0.3c0.7,0.5,1.2,1.4,1.9,2
	C13.8,51.9,11.1,51.9,8.5,51.9z"/>
<path class="st3" d="M-0.8,28.6c0.4,0.2,0.9,0.2,0.9,0.8c0,0.5-0.5,0.5-0.9,0.7C-0.8,29.5-0.8,29-0.8,28.6z"/>
<path class="st9" d="M5.3,25.7c-0.3-0.4-0.6-0.8-1-1.2c0.1-0.1,0.3-0.2,0.3-0.1c1.7,0.8,3.4,0.2,5,0.1c0.5,0,1.3,0.1,1.4-0.6
	c0.1-0.8-0.7-0.9-1.3-1c-0.2,0-0.3-0.1-0.5-0.1c0-0.3,1.3-0.7,0-0.9c-0.8-0.1-1.5-0.6-2.3-0.8C6.3,20.7,6.4,20.4,7,20
	c1.1-0.8,1.1-0.8-0.2-1.4c1.4-1.1,1.4-1.1,0.2-1.7c6.5,0,13,0,19.6,0c2.1,0,2.6,0.4,2.4,2.5c-0.3,4.2-0.1,8.4-0.2,12.6
	c0,0.5,0,1-0.2,1.5c0-1.9,0-3.9,0-5.8c-0.5-0.5-0.9,0-1.1,0.2c-0.3,0.3-0.6,0.9-1.1,0.6s-0.8-0.8-0.8-1.4c0-0.5,0.2-0.9,0.3-1.4
	c0.1-0.2,0.6-0.4,0.3-0.7c-0.3-0.4-0.4,0.1-0.6,0.3c-0.9,0.8-1.7,1.7-2.6,2.5c-1,1-2,1.2-3.2,0c-1.7-1.7-3.6-1.8-5.9-1.7
	c-2.5,0-5,0.5-7.5-0.1C5.9,26.2,5.6,26,5.3,25.7L5.3,25.7z"/>
<path class="st4" d="M22.7,28.8c0.5-1.3,1.8-2,2.8-2.9c0.3-0.3,0.5,0,0.6,0.3c0,0.4,0,0.7,0.1,1.1c0.1,0.7,0.4,1,1.1,0.5
	c0.4-0.3,0.9-0.7,1.3,0.1c-0.6,0.2-1,0.7-1.4,1.1c-0.5,0.5-1,0.4-1.5-0.1C24.4,27.5,24.4,27.5,22.7,28.8z"/>
<path class="st5" d="M32.7,26.4c1.3,0.5,2,1.8,2.9,2.8c0.3,0.3,0,0.5-0.3,0.6c-0.4,0-0.7,0-1.1,0.1c-0.7,0.1-1,0.4-0.5,1.1
	c0.3,0.4,0.7,0.9-0.1,1.3c-0.2-0.6-0.7-1-1.1-1.4c-0.5-0.5-0.4-1,0.1-1.5C34,28,34,28,32.7,26.4z"/>
<path class="st3" d="M4.9,29.8c-1.1-0.1-2.2-0.5-3.1-1.5c-0.5-0.6-0.9-1.2-1.6-1.6C0,26.5-0.2,26.3-0.1,26s0.4-0.3,0.6-0.3
	c0.3,0,0.7,0,1,0.1c1.8,0.7,3.6,1.4,5.1,2.7c0.4,0.4,0.3,0.7-0.1,1C6,29.7,5.5,29.7,4.9,29.8z"/>
<path class="st2" d="M43.5,1.3C44,1.5,45,1.1,45.1,2c0,0.6-0.9,0.6-1.4,0.6c-0.6,0-1.3-0.3-1.3-0.9C42.4,1.1,43.1,1.5,43.5,1.3z"/>
<path class="st2" d="M17.8,1c0.2,0,0.3,0.1,0.3,0.3c0,0.1-0.2,0.2-0.3,0.3c-0.2,0-0.3-0.1-0.3-0.2C17.4,1.1,17.6,1,17.8,1z"/>
<path class="st2" d="M8.6,4.3c0.1,0,0.3,0.1,0.3,0.2C9,4.8,8.7,4.8,8.5,4.8s-0.3,0-0.4-0.2C8.2,4.4,8.3,4.4,8.6,4.3z"/>
<path class="st2" d="M47,5.6c0.6,0.2,1.5-0.1,1.5,0.6s-0.8,0.6-1.4,0.6c-0.6,0.1-1.3-0.3-1.3-0.8C45.9,5.4,46.6,5.8,47,5.6z"/>
</svg>
