<?xml version="1.0" encoding="utf-8"?>
<!-- Generator: Adobe Illustrator 26.0.0, SVG Export Plug-In . SVG Version: 6.00 Build 0)  -->
<svg version="1.1" id="Capa_1" xmlns="http://www.w3.org/2000/svg" xmlns:xlink="http://www.w3.org/1999/xlink" x="0px" y="0px"
	 viewBox="0 0 51.8 51.8" style="enable-background:new 0 0 51.8 51.8;" xml:space="preserve">
<style type="text/css">
	.st0{fill:#303030;}
	.st1{fill:#343434;}
	.st2{fill:#353535;}
	.st3{fill:#323232;}
	.st4{fill:#2F2F2F;}
	.st5{fill:#171717;}
	.st6{fill:#161616;}
	.st7{fill:#383838;}
	.st8{fill:#2E2E2E;}
	.st9{fill:#393939;}
	.st10{fill:#2B2B2B;}
</style>
<rect class="st0" width="51.8" height="51.8"/>
<path class="st1" d="M52.1,9.4c0,2.3,0,4.7,0,7c-1,0.7-2.1,0.3-3.1,0.3c-3.8,0-7.6,0-11.5,0c-2.5,0-5.1,0-7.6,0.2
	c-1.7,0.1-3.4-0.1-5.2-0.2c-3.8-0.1-7.7-0.1-11.5,0c-3.9,0-7.9,0.1-11.8,0c-0.8,0-1.6,0.2-2.2-0.5c0-4.6,0-9.2,0-13.7
	c0.4-1.4,1.9-1.3,2.8-2c0.2-0.1,0.6-0.1,0.8,0C3.5,1,4.1,1.2,4.9,0.7c0.3-0.2,0.8,0.1,0.9,0.4c0.1,0.5-0.1,0.9-0.6,1
	C4.6,2.3,4,2.4,3.7,2.6c-0.3,0.1-0.1-0.1-0.1,0s0,0.1,0.1,0c1.5-0.8,3.1-1.3,4.7-1.9C9,0.6,9.8,0.6,10.5,0.4
	c0.6-0.1,1.1-0.1,1.6,0.5c0.6,0.6,1.5,0.5,2-0.1c0.6-0.8,1.4-0.3,2.1-0.4c0.4,0,0.7,0.4,0.6,0.7c-0.1,0.6,0,1.3-0.7,1.7
	c-1.4,0.8-2.8,1.6-4.5,1.2C10,3.7,8.4,3.8,6.9,4.4C6.7,4.5,6.5,4.6,6.2,4.6C5.1,4.7,3.9,4.9,3.3,5.7c0.7-0.3,1.5-0.9,2.6-1
	c0.5,0,1-0.2,1.3,0.2C7.5,5.3,7.8,5,8.1,5C8.7,5,8.9,5.3,9,5.8c0.1,0.5-0.3,0.7-0.7,0.8c-1,0.3-1.9,0.5-2.9,0.6
	c1.2,0.3,2.2-0.5,3.3-0.8C10,6,11.2,5.2,12.6,4.8c0.8-0.2,1.3-1,2.2-1.3c1-0.3,1.9-0.9,3.1-1c0.9-0.1,1.6-1,2.7-1
	c0.5,0,0.8,0.1,1.1,0.4c-0.2-0.3-0.5-0.4-0.3-0.9c0.2-0.6,0.6-0.6,1.1-0.6c2.8,0.1,5.7,0,8.5,0c1.4,0,2.8,0,4.1,0
	c1.5,0,1.5,0,1.5,1.4c0-1.2,0.3-1.5,1.5-1.2c0.2,0,0.4,0.1,0.6,0.1c1.9-0.4,3.1,0.6,3.9,2.2c0,0.1,0.1,0.1,0.2,0.2
	c0.4,0.3,2.8,0,3.2-0.3s0.1-0.6,0.2-0.9C46.3,1.4,46,0.6,47,0.6c1.3,0.1,2.6,0,3.9,0c0.5,0,1,0,1.4,0.5c0,1.2,0,2.4,0,3.6
	c-0.4,0.6-1.1,0.9-1.7,0.8c-2.2-0.3-4.3-0.1-6.5-0.2c-0.9,0-1.8-0.3-2.7-0.5c0.7,0.5,1.6,0.4,2.3,0.5c1.2,0.1,1.6,1,2.2,1.6
	c0.3,0.3,0.1,0.7-0.5,0.9c-1.4,0.4-2.7,0-4.1-0.3c-0.6-0.1-1.1-0.3-1.7,0.1c-0.3,0.2-0.5,0.2-0.8,0.1c-0.8-0.4-1.5-0.1-2.3,0.2
	c0.8-0.3,1.5-0.6,2.3-0.1c0.1,0.1,0.2,0.1,0.4,0.1c1.7-0.9,3.2,0.2,4.9,0.3c0.1,0,0.2,0,0.2-0.1c1.4-0.7,2.5,0.2,3.7,0.7
	c0.8,0.4,1.6,0.4,2.4,0.2C51.1,8.8,51.7,8.8,52.1,9.4z"/>
<path class="st2" d="M8.5,52.1c-2.9,0-5.7,0-8.6,0c-0.6,0-0.8-0.1-0.8-0.7c0-6.7,0-13.3,0-20c0.2-0.2,0.3-0.6,0.7-0.7
	c2-0.2,4-0.6,6-0.3c0.1,0,0.3,0,0.4,0c1.7-0.4,3.1,0.5,4.4,1.2c1.4,0.9,2.9,0.9,4.4,1.1c0.1,0,0.2,0,0.4,0c0.7,0.1,1.6-0.2,1.7,0.9
	c0.1,0.7-0.8,1.4-1.8,1.4c-2,0-4,0.3-6,0.1c1.9,0.2,3.8,0,5.7-0.1c0.9,0,1.8-0.3,2.6-0.7c0.3-0.1,0.5-0.3,0.5-0.6s-0.3-0.4-0.5-0.5
	c-0.3-0.1-0.7-0.2-0.8-0.5c-0.2-1.1-0.6-1.1-1.5-0.5c-0.8,0.5-1.8-0.1-1.9-1.1c-0.1-1.1,0.6-2,0.7-3.1c0-0.2,0.3-0.4,0.6-0.5
	c1-0.4,3.4,0.4,4,1.3c0.2,0.4,0.5,0.6,1,0.7s0.5,0.2,0.8,1.6c-0.2-1,0.2-1.7,1.2-2.1c0.3-0.1,0.5-0.2,0.7-0.4
	c0.2-0.2,0.3-0.3,0.5-0.5c1.3-1.2,1.9-1.1,2.9,0.3c0.5,0.7,0.9,0.7,1.5,0.1c0.5-0.6,1.1-1.2,1.9-0.5c0.2,2,0.2,4,0.1,5.9
	c-0.2,1.9,0.2,3.7,0.1,5.6c-0.2,3.6-0.2,7.3,0,10.9c0,0.8-0.3,1.3-1,1.7c-4,0-8,0-12,0c-0.4-0.3-0.8-0.4-1.2-0.4
	c-0.5,0-0.8-0.2-1.1-0.6c-0.5-0.9-1.4-1.1-2.3-1c-0.8,0-1.6,0.3-2.4,0.5c-0.5,0.1-1,0.2-0.5,0.9C9.1,51.7,8.7,51.9,8.5,52.1z"/>
<path class="st1" d="M35.7,52.1c-2,0-3.9,0-5.9,0c-0.8-0.6-0.4-1.5-0.5-2.3c-0.1-1.6-0.2-3.1,0-4.7c-0.2-2.4,0.1-4.9,0-7.3
	c0-0.4,0.1-0.6,0.4-0.8c1-0.7,0.9-1.6,0-2.2c-1-0.6-0.3-1.5-0.4-2.2s0.7-0.8,1.2-0.9c0.7-0.2,1.2,0.1,1.5,0.7
	c0.5,1.2,1.5,1.3,2.6,1.4c3,0.3,6-0.3,9,0.7c1.3,0.4,2.8,0.1,4-0.5c0.9-0.5,1.9-0.6,2.8-0.1c0.4,0.2,1,0.4,1,0.9s-0.4,1-1,1.2
	c0.3-0.1,0.6-0.4,0.7-0.7c0.3-0.5,0.6-0.3,0.8,0c0,5.2,0.4,10.2,0.4,15.4c0,1,0.4,1.7-0.7,1.5c-0.2,0-1.5,0-1.8,0
	c-2.6-2-5.4-2.6-8.6-1.9c-0.5,0.1-1.1,0.1-1.6,0c-0.8-0.2-1.5-0.1-2.3,0c-0.7,0.1-1.2,0.4-1.4,1.1C36.2,51.7,36,51.9,35.7,52.1z"/>
<path class="st2" d="M52.1,28.5c0,0.9,0,1.8,0,2.7c-0.4,0.6-0.8,0.4-1.2,0.1c-1.1-0.6-2.4-0.8-3.7-0.6c-0.8,0.1-1.3,0.5-1.4,1.4
	c-0.1,1.3-1.2,2-2.4,1.5c-1-0.4-1.9-0.5-2.9,0c-0.7,0.4-1.2-0.2-1.7-0.6c-0.5-0.5-0.8-1-1.7-0.2c-1.1,1-2.7,0.5-3.5-0.8
	c-0.2-0.3-0.4-0.6-0.5-0.9c-0.5-0.9-0.2-1.9,0.7-2.5c0.6-0.4,1.3-0.5,1.5-1.2c-1.1,0.6-2.2,1.2-2.5,2.6c-0.1,0.7-1.2,1.2-2.2,1.1
	c-0.7-0.1-1.4-0.3-1.3-1.3c0.1-0.6,0.1-1.3,0-2c-0.1-0.5,0-0.8,0.6-1.1c0.7-0.3,0.9-1.4,0.3-1.7c-1.2-0.7-0.9-1.8-0.8-2.7
	c0.1-1.4-0.1-2.8,0.3-4.1c0-0.2,0.2-0.4,0.3-0.6c0.9,0.1,1.8,0.4,2.8,0c0.7-0.3,1.6,0.3,2.4,0.2c0.3,0,0.7,0.1,0.8-0.2
	c0.4-1,1.1-0.7,1.8-0.6c3.3-0.1,6.6,0.1,9.9,0c0.2,0,0.5-0.1,0.8,0.1c0.2-0.1,0.5,0.1,0.5,0.1c0.7,1.4,2.1,2.1,3.1,3.1
	c0,1.8,0,3.5,0,5.3c-0.5,0.4-1,0.4-1.4,0c-1.1-0.8-2.2-1-3.4-0.5c-0.4,0.2-0.8,0-1.2,0c-0.9-0.1-1.6,0.3-2,1.1
	c-0.3,0.5-0.5,1.1,0.1,1.5s1.3,0.1,1.7-0.5c0.3-0.5,0.6-1,1.2-1.2c2.5-0.9,3.4-0.5,4.6,1.9C51.8,27.8,51.9,28.2,52.1,28.5z"/>
<path class="st3" d="M22.5,29.4c-1,0.5-1.6,1.2-1.3,2.4c0.1,0.4,0,1.1-0.7,0.9c-0.6-0.1-0.8-0.6-0.6-1.1c0.3-0.9,0.2-1.5-0.9-1.7
	c-0.1,0-0.3-0.2-0.4-0.3c-0.3-1.8-1.8-1.3-3-1.6c-0.2,0-0.5,0-0.7,0.2c-0.2,0.3,0,0.5,0.2,0.6c0.6,0.4,0.4,0.7-0.2,1
	c-0.3,0.2-0.6,0.4-0.7,0.8c-0.1,0.4,0,0.7,0.4,0.9c0.4,0.2,0.6,0,0.8-0.3c0.2-0.2,0.3-0.5,0.5-0.7c0.4-0.3,0.9-0.5,1.4-0.3
	s0.6,0.8,0.4,1.2c-0.3,0.7,0,0.9,0.6,1s1.2,0.2,1.2,1c0,0.7-0.4,1.3-1.2,1.4c-2.3,0.5-4.7,0.8-7,0.6c-0.7-0.1-1.4,0-2.1,0.1
	c-0.5,0.1-1,0.1-1.4-0.3c-0.3-0.2-0.4-0.5-0.3-0.9S8,33.9,8.3,34c2,1,4,0.3,6,0.3c0.4,0,0.7-0.1,1.1-0.1c0.3-0.1,0.8-0.2,0.7-0.7
	c-0.1-0.4-0.5-0.3-0.8-0.4c-0.8,0-1.5-0.1-2.3-0.1c-0.9,0-1.6,0-2.4-0.8c-0.7-0.8-2-0.9-3-1.2c-2.1-0.5-4.3-0.6-6.5,0
	c-0.7,0.2-1.4,0.1-2.1,0.2c0-0.4,0-0.8,0-1.2c0.5-0.5,0.5-1,0-1.4c0-1.2,0-2.4,0-3.6c0.4-0.7,0.9-0.7,1.6-0.6c1.5,0.2,3,0.6,4.5,1
	c0.2,0.1,0.3,0.2,0.3,0.3c0.1,0.4,0.3,0.6,0.8,0.6c1.8,0.1,3.6,0.1,5.4,0.1c1.9-0.1,4-0.4,6,0.2c0.6,0.2,0.9,0.7,1.3,1.1
	c0.7,0.6,1.4,1.4,2.5,1.2C21.9,28.9,22.4,29,22.5,29.4z"/>
<path class="st4" d="M30.1,18.3c0,1.5,0,3,0,4.4c0,0.8,0.2,1.5,1.3,1.5c0.8,0,0.6,0.4,0.3,0.9c-0.6,1.3-2,2.3-1.6,4
	c0.1,0.6,0.2,1.1,1,1.1c0.7-0.1,1.1-0.3,0.9-1.1c0-0.1,0-0.3,0-0.5c0.5-1.1,3.2-2.5,4.4-2.2c0.3,0.1,0.7,0.4,0.5,0.5
	c-1.1,0.3-0.8,2.1-2.3,2c-1-0.1-1.4,0.8-1,1.7c0.6,1.5,1.2,2,2.2,1.8c0.5-0.1,1-0.3,0.8-0.9c-0.1-0.4-0.1-0.8,0.5-0.9
	c0.5-0.1,0.9,0.1,1.1,0.5c0.1,0.2,0.2,0.5,0.3,0.6c0.7,0.8,1.3,1.6,2.5,0.8c0.7-0.4,1.3-0.1,2,0.2c1.3,0.5,1.7,0.3,1.8-1.1
	c0.1-1.1,0.8-1.5,1.8-1.6c1.9-0.1,3.8-0.1,5.3,1.2c0,1.4,0,2.7,0,4.1c-0.9,0.7-1.6,1.9-3.1,1.8c0.2-0.5,0.8-1.1-0.3-1.2
	c0.4-0.6,1-0.4,1.5-0.6c0.2-0.1,0.5-0.1,0.5-0.4c0-0.2-0.2-0.3-0.4-0.4c-0.8-0.5-1.6-0.4-2.4,0c-1.7,0.9-3.5,0.9-5.3,0.4
	c-1.4-0.4-2.9-0.3-4.4-0.5c-0.6,0-0.9,0.3-1,0.8c-0.1,0.3-0.2,0.5-0.6,0.5c-0.3,0-0.4-0.3-0.5-0.5c-0.2-0.9-0.9-0.9-1.6-0.9
	c-1.3,0-2.6-0.1-3.2-1.7c-0.1-0.3-0.3-0.5-0.7-0.4c-0.3,0-0.5,0.3-0.6,0.6c-0.2,0.9,0,1.5,1,1.8c0.8,0.2,1.7,0.4,0.3,1.4
	c-0.8,0.6-1.4,1.7-1.4,2.9c0,2,0.3,4-0.2,6c-0.7-0.2-0.6-0.7-0.6-1.2c0-2.4,0.1-4.9,0.1-7.3c-0.1-3.9,0.2-7.7-0.1-11.6
	c-0.1-1.9,0.3-3.8,0.2-5.7C29.4,18.7,29.5,18.2,30.1,18.3z"/>
<path class="st5" d="M30.1,18.3c-0.2,0.5-0.2,1.1-0.2,1.7c0,8.3,0,16.6,0,24.9c0,2.4,0,4.8,0,7.2c-0.5,0-1,0-1.5,0
	c0.3-0.7,0.5-1.5,0.5-2.3c-0.5-5.3,0.4-10.7-0.2-16c0.1-2.2,0.3-4.4-0.1-6.5c-0.4-2.2-0.3-4.4-0.1-6.6c0.2-2.1-0.4-2.9-2.5-2.9
	c-6.3,0-12.7-0.2-19,0.1c-2-0.1-4-0.1-6-0.1c-0.6,0-1.3,0-1.7-0.6c0-0.3,0-0.6,0-1c3.4,0.2,6.8,0.3,10.1,0.2
	c7.5-0.2,15.1,0.1,22.6,0c4.9-0.1,9.8,0.2,14.7-0.1c1.8-0.1,3.7,0.1,5.5,0.1c0,0.2,0,0.5,0,0.7c-0.9,0.8-2,0.8-3.4,0
	c-3.7,0-7.4,0-11,0c-0.9,0.2-1.8,0.5-2.8,0.4c-1.3-0.1-2.6,0-3.9,0.1c-0.3,0-0.4,0.1-0.6,0.2C30.3,18,30.2,18.2,30.1,18.3z"/>
<path class="st6" d="M46.8,1C31.5,0.4,16.2,0.9,0.9,0.8C0.3,0.8-0.2,0.9-0.8,1l-0.1-1c17,0,35,0,52,0c1.8,0,1.2,0.2,1,1
	C50.4,1,48.6,1,46.8,1z"/>
<path class="st7" d="M35.7,52.1c0.1-0.8-0.6-1.7-0.1-2.3s1.5,0,2.2-0.3s1.4-0.2,2.2,0c0.4,0.1,0.9,0.2,1.2,0.1
	c2.1-0.8,4.2,0,6.2,0.2c1.4,0.2,2.1,1.2,2.7,2.3C45.4,52.1,40.5,52.1,35.7,52.1z"/>
<path class="st8" d="M52.1,28.5c-0.7-0.8-1.8-1.2-2.4-2.2c-0.3-0.5-1.1-0.5-1.6-0.2s-1.6,0.1-1.4,1.2c0.1,0.6-0.2,0.9-0.8,0.9
	c-0.2,0-0.4,0-0.6,0.1c-0.8,0.2-1.6,0.8-2.2-0.2c-0.6-1-0.2-2.1,0.4-2.8c0.6-0.7,1.4-1.6,2.6-1c0.2,0.1,0.4,0.2,0.6,0.1
	c2.1-0.8,3.7,0.2,5.4,1.1C52.1,26.4,52.1,27.4,52.1,28.5z"/>
<path class="st9" d="M8.5,52.1c-0.2-0.5-0.7-0.6-1.3-0.7C7.8,50.8,8,49.8,9,49.7c1.8-0.1,3.8-1,5.4,0.3c0.7,0.5,1.2,1.4,1.9,2
	C13.8,52.1,11.1,52.1,8.5,52.1z"/>
<path class="st4" d="M48.7,17.2c1.1,0,2.3,0,3.4,0c0,1,0,1.9,0,2.9C50.4,19.8,49.1,19,48.7,17.2z"/>
<path class="st2" d="M-0.8,28.7c0.4,0.2,0.9,0.2,0.9,0.8c0,0.5-0.5,0.5-0.9,0.7C-0.8,29.7-0.8,29.2-0.8,28.7z"/>
<path class="st10" d="M4.9,26.4c-0.3-0.4-0.6-0.8-1-1.2C4,25.1,4.2,25,4.2,25.1c1.7,0.8,3.4,0.2,5,0.1c0.5,0,1.3,0.1,1.4-0.6
	c0.1-0.8-0.7-0.9-1.3-1c-0.2,0-0.3-0.1-0.5-0.1c0-0.3,1.3-0.7,0-0.9C8,22.5,7.3,22,6.5,21.8c-0.8-0.2-0.7-0.5-0.1-0.9
	c1.1-0.8,1.1-0.8-0.2-1.4c1.4-1.1,1.4-1.1,0.2-1.7c6.5,0,13,0,19.6,0c2.1,0,2.6,0.4,2.4,2.5c-0.3,4.2-0.4,10.2-0.4,8.3
	c-0.5-0.5-0.9,0-1.1,0.2c-0.3,0.3-0.6,0.9-1.1,0.6S25,28.6,25,28c0-0.5,0.2-0.9,0.3-1.4c0.1-0.2,0.6-0.4,0.3-0.7
	c-0.3-0.4-0.4,0.1-0.6,0.3c-0.9,0.8-1.7,1.7-2.6,2.5c-1,1-2,1.2-3.2,0c-1.7-1.7-3.6-1.8-5.9-1.7c-2.5,0-5,0.5-7.5-0.1
	C5.5,26.9,5.2,26.7,4.9,26.4L4.9,26.4z"/>
<path class="st3" d="M22.7,28.9c0.5-1.3,1.8-2,2.8-2.9c0.3-0.3,0.5,0,0.6,0.3c0,0.4,0,0.7,0.1,1.1c0.1,0.7,0.4,1,1.1,0.5
	c0.4-0.3,0.9-0.7,1.3,0.1c-0.6,0.2-1,0.7-1.4,1.1c-0.5,0.5-1,0.4-1.5-0.1C24.4,27.6,24.4,27.6,22.7,28.9z"/>
<path class="st2" d="M4.9,29.9c-1.1-0.1-2.2-0.5-3.1-1.5c-0.5-0.6-0.9-1.2-1.6-1.6c-0.2-0.1-0.4-0.3-0.3-0.6
	c0.1-0.3,0.4-0.3,0.6-0.3c0.3,0,0.7,0,1,0.1c1.8,0.7,3.6,1.4,5.1,2.7c0.4,0.4,0.3,0.7-0.1,1C6,29.9,5.5,29.9,4.9,29.9z"/>
<path class="st1" d="M43.5,1.5C44,1.7,45,1.3,45.1,2.2c0,0.6-0.9,0.6-1.4,0.6c-0.6,0-1.3-0.3-1.3-0.9C42.4,1.2,43.1,1.6,43.5,1.5z"
	/>
<path class="st1" d="M17.8,1.2c0.2,0,0.3,0.1,0.3,0.3c0,0.1-0.2,0.2-0.3,0.3c-0.2,0-0.3-0.1-0.3-0.2C17.4,1.3,17.6,1.2,17.8,1.2z"/>
<path class="st1" d="M8.6,4.5c0.1,0,0.3,0.1,0.3,0.2C9,4.9,8.7,5,8.5,5S8.2,5,8.1,4.8C8.2,4.6,8.3,4.5,8.6,4.5z"/>
<path class="st1" d="M47,5.8c0.6,0.2,1.5-0.1,1.5,0.6S47.7,7,47.1,7c-0.6,0.1-1.3-0.3-1.3-0.8C45.9,5.5,46.6,6,47,5.8z"/>
</svg>
