<svg id="Capa_1" data-name="Capa 1" xmlns="http://www.w3.org/2000/svg" viewBox="0 0 3000 450"><defs><style>.cls-1{fill:#325909;}.cls-2{fill:#707016;}.cls-10,.cls-3{fill:#543f02;}.cls-4{fill:#090b26;}.cls-5{fill:#08092d;}.cls-11,.cls-6,.cls-8{fill:#c29d62;}.cls-6,.cls-7,.cls-8{stroke:#000;}.cls-10,.cls-13,.cls-6,.cls-7,.cls-8{stroke-miterlimit:10;}.cls-8{stroke-width:5px;}.cls-9{fill:#050619;}.cls-10{stroke:#08092d;stroke-width:3px;}.cls-12{fill:#456008;}.cls-13{fill:#634908;stroke:#331e3f;stroke-width:10px;}.cls-14{fill:#495906;}.cls-15{fill:#1f1226;}.cls-16{fill:#291933;}.cls-17{fill:#0b0d15;}.cls-18{fill:#e6ba70;}</style></defs><path class="cls-1" d="M222.07,376.7l-10.35,45.24c-.55,2.4,1.53,4.35,4.65,4.35H411.89c3.12,0,6.09-2,6.64-4.35l7.58-26.78c.55-2.4,3.53-4.35,6.65-4.35H504c3.12,0,5.2,1.95,4.65,4.35l-7.58,26.78c-.55,2.4,1.54,4.35,4.66,4.35H648.32c3.12,0,6.09-2,6.64-4.35l10.35-45.24c.55-2.4-1.53-4.35-4.65-4.35H228.71C225.59,372.35,222.62,374.3,222.07,376.7Z"/><ellipse class="cls-2" cx="307.53" cy="317.41" rx="28.11" ry="36.04"/><path class="cls-3" d="M295.53,392.18s5.49,0,9.26-9.26c1.22-3,1.14-12.12,1-18.45,0-1.05-10.32-4.52-10.34-5.6,0-.87,10.26,4.08,10.24,3.2-.25-11.66-.92-23.36-.92-23.36l-11.66-11.32,11.66,8.92v-24l1,19.54,15.08-8.91-14.4,10.28.69,10.63,10.62-4.46-9.94,5.83,1.72,21.25s2.05,24.34,11.31,25S295.53,392.18,295.53,392.18Z"/><rect class="cls-4" x="362.23" y="141.86" width="209.96" height="248.92"/><rect class="cls-5" x="408.89" y="119" width="116.64" height="23.33"/><rect class="cls-6" x="419.62" y="157.96" width="47.44" height="34.99"/><rect class="cls-7" x="467.37" y="157.96" width="47.44" height="34.99"/><rect class="cls-6" x="514.49" y="158.19" width="47.44" height="34.99"/><rect class="cls-8" x="426.15" y="347.39" width="83.05" height="41.99"/><rect class="cls-6" x="467.91" y="349.02" width="40.24" height="41.06"/><rect class="cls-6" x="427.32" y="349.02" width="40.24" height="41.06"/><rect class="cls-9" x="507.1" y="393.81" width="64.85" height="7"/><rect class="cls-10" x="507.1" y="391.48" width="64.85" height="7"/><rect class="cls-6" x="372.5" y="157.96" width="47.44" height="34.99"/><rect class="cls-7" x="419.62" y="204.15" width="47.44" height="34.99"/><rect class="cls-7" x="467.37" y="204.15" width="47.44" height="34.99"/><rect class="cls-11" x="514.49" y="204.38" width="47.44" height="34.99"/><rect class="cls-6" x="372.5" y="204.15" width="47.44" height="34.99"/><rect class="cls-11" x="419.62" y="250.34" width="47.44" height="34.99"/><rect class="cls-7" x="467.37" y="250.34" width="47.44" height="34.99"/><rect class="cls-11" x="514.49" y="250.57" width="47.44" height="34.99"/><rect class="cls-7" x="372.5" y="250.34" width="47.44" height="34.99"/><rect class="cls-7" x="419.62" y="296.53" width="47.44" height="34.99"/><rect class="cls-11" x="467.37" y="296.76" width="47.44" height="34.99"/><rect class="cls-11" x="514.49" y="296.76" width="47.44" height="34.99"/><rect class="cls-6" x="372.5" y="296.53" width="47.44" height="34.99"/><rect class="cls-5" x="417.29" y="341.32" width="100.31" height="7.47"/><rect class="cls-12" x="511.77" y="383.08" width="55.99" height="12.6"/><rect class="cls-9" x="362.46" y="393.81" width="64.85" height="7"/><rect class="cls-10" x="362.46" y="391.48" width="64.85" height="7"/><rect class="cls-12" x="367.13" y="383.08" width="55.99" height="12.6"/><circle class="cls-2" cx="643.35" cy="348.54" r="5.48"/><circle class="cls-2" cx="629.11" cy="302.6" r="38.26"/><path class="cls-3" d="M645.44,393.58s-7.47,0-12.6-12.6c-1.66-4.08-1.56-16.5-1.4-25.12,0-1.43,14.06-6.15,14.08-7.62,0-1.18-14,5.55-13.93,4.35.34-15.86,1.25-31.8,1.25-31.8l15.87-15.4-15.87,12.14V284.87l-1.4,26.59-20.53-12.13,19.6,14-.93,14.46-14.47-6.07,13.53,7.94-2.33,28.92s-2.8,33.13-15.4,34.06S645.44,393.58,645.44,393.58Z"/><path class="cls-1" d="M1283.07,376.7l-10.35,45.24c-.55,2.4,1.53,4.35,4.65,4.35h195.52c3.12,0,6.09-2,6.64-4.35l7.58-26.78c.55-2.4,3.53-4.35,6.65-4.35H1565c3.12,0,5.2,1.95,4.65,4.35l-7.58,26.78c-.55,2.4,1.54,4.35,4.66,4.35h142.58c3.12,0,6.09-2,6.64-4.35l10.35-45.24c.55-2.4-1.53-4.35-4.65-4.35H1289.71C1286.59,372.35,1283.62,374.3,1283.07,376.7Z"/><ellipse class="cls-2" cx="1368.53" cy="317.41" rx="28.11" ry="36.04"/><path class="cls-3" d="M1356.53,392.18s5.49,0,9.26-9.26c1.22-3,1.14-12.12,1-18.45,0-1.05-10.32-4.52-10.34-5.6,0-.87,10.26,4.08,10.24,3.2-.25-11.66-.92-23.36-.92-23.36l-11.66-11.32,11.66,8.92v-24l1,19.54,15.08-8.91-14.4,10.28.69,10.63,10.62-4.46-9.94,5.83,1.72,21.25s2.05,24.34,11.31,25S1356.53,392.18,1356.53,392.18Z"/><rect class="cls-4" x="1423.23" y="141.86" width="209.96" height="248.92"/><rect class="cls-5" x="1469.89" y="119" width="116.64" height="23.33"/><rect class="cls-6" x="1480.62" y="157.96" width="47.44" height="34.99"/><rect class="cls-7" x="1528.37" y="157.96" width="47.44" height="34.99"/><rect class="cls-6" x="1575.49" y="158.19" width="47.44" height="34.99"/><rect class="cls-8" x="1487.15" y="347.39" width="83.05" height="41.99"/><rect class="cls-6" x="1528.91" y="349.02" width="40.24" height="41.06"/><rect class="cls-6" x="1488.32" y="349.02" width="40.24" height="41.06"/><rect class="cls-9" x="1568.1" y="393.81" width="64.85" height="7"/><rect class="cls-10" x="1568.1" y="391.48" width="64.85" height="7"/><rect class="cls-6" x="1433.5" y="157.96" width="47.44" height="34.99"/><rect class="cls-7" x="1480.62" y="204.15" width="47.44" height="34.99"/><rect class="cls-7" x="1528.37" y="204.15" width="47.44" height="34.99"/><rect class="cls-11" x="1575.49" y="204.38" width="47.44" height="34.99"/><rect class="cls-6" x="1433.5" y="204.15" width="47.44" height="34.99"/><rect class="cls-11" x="1480.62" y="250.34" width="47.44" height="34.99"/><rect class="cls-7" x="1528.37" y="250.34" width="47.44" height="34.99"/><rect class="cls-11" x="1575.49" y="250.57" width="47.44" height="34.99"/><rect class="cls-7" x="1433.5" y="250.34" width="47.44" height="34.99"/><rect class="cls-7" x="1480.62" y="296.53" width="47.44" height="34.99"/><rect class="cls-11" x="1528.37" y="296.76" width="47.44" height="34.99"/><rect class="cls-11" x="1575.49" y="296.76" width="47.44" height="34.99"/><rect class="cls-6" x="1433.5" y="296.53" width="47.44" height="34.99"/><rect class="cls-5" x="1478.29" y="341.32" width="100.31" height="7.47"/><rect class="cls-12" x="1572.77" y="383.08" width="55.99" height="12.6"/><rect class="cls-9" x="1423.46" y="393.81" width="64.85" height="7"/><rect class="cls-10" x="1423.46" y="391.48" width="64.85" height="7"/><rect class="cls-12" x="1428.13" y="383.08" width="55.99" height="12.6"/><circle class="cls-2" cx="1704.35" cy="348.54" r="5.48"/><circle class="cls-2" cx="1690.11" cy="302.6" r="38.26"/><path class="cls-3" d="M1706.44,393.58s-7.47,0-12.6-12.6c-1.66-4.08-1.56-16.5-1.4-25.12,0-1.43,14.06-6.15,14.08-7.62,0-1.18-14,5.55-13.93,4.35.34-15.86,1.25-31.8,1.25-31.8l15.87-15.4-15.87,12.14V284.87l-1.4,26.59-20.53-12.13,19.6,14-.93,14.46-14.47-6.07,13.53,7.94-2.33,28.92s-2.8,33.13-15.4,34.06S1706.44,393.58,1706.44,393.58Z"/><path class="cls-1" d="M766.43,379.36l8.29,37.92c1.14,5,2.16,9,8.65,9h158c6.49,0,10.83-4,9.68-9l-8.21-21c-1.14-5,3.19-9,9.68-9h59.7c6.49,0,12.68,4,13.83,9l8.21,21c1.14,5,7.33,9,13.82,9h116.59c6.49,0,10.82-4,9.67-9l-8.28-36c-1.15-5-7.34-9-13.83-9H772.35C765.86,372.23,765.29,374.38,766.43,379.36Z"/><rect class="cls-13" x="882.59" y="388.05" width="52" height="10.03" rx="5.02"/><circle class="cls-14" cx="791.37" cy="358.85" r="5.36"/><circle class="cls-14" cx="802.43" cy="325.67" r="27.48"/><path class="cls-3" d="M790.7,391s5.37,0,9-9c1.2-2.93,1.12-11.85,1-18,0-1-10.1-4.42-10.11-5.47,0-.86,10,4,10,3.12-.24-11.4-.9-22.84-.9-22.84l-11.39-11.06,11.39,8.71V312.94l1,19.1,14.74-8.72-14.07,10.06.67,10.39,10.39-4.36-9.72,5.7,1.67,20.77s2,23.79,11.06,24.46S790.7,391,790.7,391Z"/><rect class="cls-15" x="878.72" y="68.99" width="205.26" height="319.29"/><rect class="cls-16" x="957.63" y="47.09" width="114.03" height="22.81"/><rect class="cls-16" x="957.63" y="37.06" width="34.21" height="22.81"/><rect class="cls-7" x="894.45" y="87.69" width="34.21" height="34.21"/><rect class="cls-11" x="940.98" y="87.69" width="34.21" height="34.21"/><rect class="cls-7" x="987.5" y="87.69" width="34.21" height="34.21"/><rect class="cls-11" x="1034.03" y="87.69" width="34.21" height="34.21"/><rect class="cls-7" x="894.68" y="140.14" width="34.21" height="34.21"/><rect class="cls-7" x="941.21" y="140.14" width="34.21" height="34.21"/><rect class="cls-7" x="987.73" y="140.14" width="34.21" height="34.21"/><rect class="cls-11" x="1034.26" y="140.14" width="34.21" height="34.21"/><rect class="cls-11" x="894.91" y="192.6" width="34.21" height="34.21"/><rect class="cls-7" x="941.43" y="192.6" width="34.21" height="34.21"/><rect class="cls-11" x="987.96" y="192.6" width="34.21" height="34.21"/><rect class="cls-7" x="1034.49" y="192.6" width="34.21" height="34.21"/><rect class="cls-7" x="895.14" y="245.05" width="34.21" height="34.21"/><rect class="cls-11" x="941.66" y="245.05" width="34.21" height="34.21"/><rect class="cls-7" x="988.19" y="245.05" width="34.21" height="34.21"/><rect class="cls-11" x="1034.71" y="245.05" width="34.21" height="34.21"/><rect class="cls-11" x="895.37" y="297.51" width="34.21" height="34.21"/><rect class="cls-7" x="941.89" y="297.51" width="34.21" height="34.21"/><rect class="cls-7" x="988.42" y="297.51" width="34.21" height="34.21"/><rect class="cls-11" x="1034.94" y="297.51" width="34.21" height="34.21"/><rect class="cls-8" x="941.21" y="346.31" width="81.19" height="41.05"/><circle class="cls-14" cx="829.91" cy="305.26" r="37.4"/><path class="cls-3" d="M814,394.21s7.29,0,12.31-12.32,0-58.84,0-58.84L810.75,308l15.51,11.86V287.93l1.37,26,20.07-11.86-19.16,13.68.91,14.14L843.59,324l-13.22,7.76L832.65,360s2.73,32.38,15.05,33.3S814,394.21,814,394.21Z"/><circle class="cls-12" cx="890.8" cy="388.05" r="8.21"/><circle class="cls-12" cx="908.59" cy="388.05" r="8.21"/><circle class="cls-12" cx="926.38" cy="388.05" r="8.21"/><rect class="cls-13" x="1028.56" y="388.05" width="52" height="10.03" rx="5.02"/><circle class="cls-12" cx="1036.77" cy="388.05" r="8.21"/><circle class="cls-12" cx="1054.56" cy="388.05" r="8.21"/><circle class="cls-12" cx="1072.34" cy="388.05" r="8.21"/><rect class="cls-6" x="982.03" y="347.45" width="39.34" height="40.6"/><rect class="cls-6" x="942.35" y="347.45" width="39.34" height="40.6"/><rect class="cls-17" x="712.42" y="274.59" width="7.75" height="151.79"/><rect class="cls-17" x="709" y="418.75" width="15.05" height="7.63"/><ellipse class="cls-18" cx="716.3" cy="272.71" rx="9.61" ry="8.77"/><rect class="cls-17" x="1219.42" y="274.59" width="7.75" height="151.79"/><rect class="cls-17" x="1216" y="418.75" width="15.05" height="7.63"/><ellipse class="cls-18" cx="1223.3" cy="272.71" rx="9.61" ry="8.77"/><path class="cls-1" d="M2343.07,376.7l-10.35,45.24c-.55,2.4,1.53,4.35,4.65,4.35h195.52c3.12,0,6.09-2,6.64-4.35l7.58-26.78c.55-2.4,3.53-4.35,6.65-4.35H2625c3.12,0,5.2,1.95,4.65,4.35l-7.58,26.78c-.55,2.4,1.54,4.35,4.66,4.35h142.58c3.12,0,6.09-2,6.64-4.35l10.35-45.24c.55-2.4-1.53-4.35-4.65-4.35H2349.71C2346.59,372.35,2343.62,374.3,2343.07,376.7Z"/><ellipse class="cls-2" cx="2428.53" cy="317.41" rx="28.11" ry="36.04"/><path class="cls-3" d="M2416.53,392.18s5.49,0,9.26-9.26c1.22-3,1.14-12.12,1-18.45,0-1.05-10.32-4.52-10.34-5.6,0-.87,10.26,4.08,10.24,3.2-.25-11.66-.92-23.36-.92-23.36l-11.66-11.32,11.66,8.92v-24l1,19.54,15.08-8.91-14.4,10.28.69,10.63,10.62-4.46-9.94,5.83,1.72,21.25s2,24.34,11.31,25S2416.53,392.18,2416.53,392.18Z"/><rect class="cls-4" x="2483.23" y="141.86" width="209.96" height="248.92"/><rect class="cls-5" x="2529.89" y="119" width="116.64" height="23.33"/><rect class="cls-6" x="2540.62" y="157.96" width="47.44" height="34.99"/><rect class="cls-7" x="2588.37" y="157.96" width="47.44" height="34.99"/><rect class="cls-6" x="2635.49" y="158.19" width="47.44" height="34.99"/><rect class="cls-8" x="2547.15" y="347.39" width="83.05" height="41.99"/><rect class="cls-6" x="2588.91" y="349.02" width="40.24" height="41.06"/><rect class="cls-6" x="2548.32" y="349.02" width="40.24" height="41.06"/><rect class="cls-9" x="2628.1" y="393.81" width="64.85" height="7"/><rect class="cls-10" x="2628.1" y="391.48" width="64.85" height="7"/><rect class="cls-6" x="2493.5" y="157.96" width="47.44" height="34.99"/><rect class="cls-7" x="2540.62" y="204.15" width="47.44" height="34.99"/><rect class="cls-7" x="2588.37" y="204.15" width="47.44" height="34.99"/><rect class="cls-11" x="2635.49" y="204.38" width="47.44" height="34.99"/><rect class="cls-6" x="2493.5" y="204.15" width="47.44" height="34.99"/><rect class="cls-11" x="2540.62" y="250.34" width="47.44" height="34.99"/><rect class="cls-7" x="2588.37" y="250.34" width="47.44" height="34.99"/><rect class="cls-11" x="2635.49" y="250.57" width="47.44" height="34.99"/><rect class="cls-7" x="2493.5" y="250.34" width="47.44" height="34.99"/><rect class="cls-7" x="2540.62" y="296.53" width="47.44" height="34.99"/><rect class="cls-11" x="2588.37" y="296.76" width="47.44" height="34.99"/><rect class="cls-11" x="2635.49" y="296.76" width="47.44" height="34.99"/><rect class="cls-6" x="2493.5" y="296.53" width="47.44" height="34.99"/><rect class="cls-5" x="2538.29" y="341.32" width="100.31" height="7.47"/><rect class="cls-12" x="2632.77" y="383.08" width="55.99" height="12.6"/><rect class="cls-9" x="2483.46" y="393.81" width="64.85" height="7"/><rect class="cls-10" x="2483.46" y="391.48" width="64.85" height="7"/><rect class="cls-12" x="2488.13" y="383.08" width="55.99" height="12.6"/><circle class="cls-2" cx="2764.35" cy="348.54" r="5.48"/><circle class="cls-2" cx="2750.11" cy="302.6" r="38.26"/><path class="cls-3" d="M2766.44,393.58s-7.47,0-12.6-12.6c-1.66-4.08-1.56-16.5-1.4-25.12,0-1.43,14.06-6.15,14.08-7.62,0-1.18-14,5.55-13.93,4.35.34-15.86,1.25-31.8,1.25-31.8l15.87-15.4-15.87,12.14V284.87l-1.4,26.59-20.53-12.13,19.6,14-.93,14.46-14.47-6.07,13.53,7.94-2.33,28.92s-2.8,33.13-15.4,34.06S2766.44,393.58,2766.44,393.58Z"/><path class="cls-1" d="M1826.43,379.36l8.29,37.92c1.14,5,2.16,9,8.65,9h158c6.49,0,10.83-4,9.68-9l-8.21-21c-1.14-5,3.19-9,9.68-9h59.7c6.49,0,12.68,4,13.83,9l8.21,21c1.14,5,7.33,9,13.82,9h116.59c6.49,0,10.82-4,9.67-9l-8.28-36c-1.15-5-7.34-9-13.83-9H1832.35C1825.86,372.23,1825.29,374.38,1826.43,379.36Z"/><rect class="cls-13" x="1942.59" y="388.05" width="52" height="10.03" rx="5.02"/><circle class="cls-14" cx="1851.37" cy="358.85" r="5.36"/><circle class="cls-14" cx="1862.43" cy="325.67" r="27.48"/><path class="cls-3" d="M1850.7,391s5.37,0,9-9c1.2-2.93,1.12-11.85,1-18,0-1-10.1-4.42-10.11-5.47,0-.86,10,4,10,3.12-.24-11.4-.9-22.84-.9-22.84l-11.39-11.06,11.39,8.71V312.94l1,19.1,14.74-8.72-14.07,10.06.67,10.39,10.39-4.36-9.72,5.7,1.67,20.77s2,23.79,11.06,24.46S1850.7,391,1850.7,391Z"/><rect class="cls-15" x="1938.72" y="68.99" width="205.26" height="319.29"/><rect class="cls-16" x="2017.63" y="47.09" width="114.03" height="22.81"/><rect class="cls-16" x="2017.63" y="37.06" width="34.21" height="22.81"/><rect class="cls-7" x="1954.45" y="87.69" width="34.21" height="34.21"/><rect class="cls-11" x="2000.98" y="87.69" width="34.21" height="34.21"/><rect class="cls-7" x="2047.5" y="87.69" width="34.21" height="34.21"/><rect class="cls-11" x="2094.03" y="87.69" width="34.21" height="34.21"/><rect class="cls-7" x="1954.68" y="140.14" width="34.21" height="34.21"/><rect class="cls-7" x="2001.21" y="140.14" width="34.21" height="34.21"/><rect class="cls-7" x="2047.73" y="140.14" width="34.21" height="34.21"/><rect class="cls-11" x="2094.26" y="140.14" width="34.21" height="34.21"/><rect class="cls-11" x="1954.91" y="192.6" width="34.21" height="34.21"/><rect class="cls-7" x="2001.43" y="192.6" width="34.21" height="34.21"/><rect class="cls-11" x="2047.96" y="192.6" width="34.21" height="34.21"/><rect class="cls-7" x="2094.49" y="192.6" width="34.21" height="34.21"/><rect class="cls-7" x="1955.14" y="245.05" width="34.21" height="34.21"/><rect class="cls-11" x="2001.66" y="245.05" width="34.21" height="34.21"/><rect class="cls-7" x="2048.19" y="245.05" width="34.21" height="34.21"/><rect class="cls-11" x="2094.71" y="245.05" width="34.21" height="34.21"/><rect class="cls-11" x="1955.37" y="297.51" width="34.21" height="34.21"/><rect class="cls-7" x="2001.89" y="297.51" width="34.21" height="34.21"/><rect class="cls-7" x="2048.42" y="297.51" width="34.21" height="34.21"/><rect class="cls-11" x="2094.94" y="297.51" width="34.21" height="34.21"/><rect class="cls-8" x="2001.21" y="346.31" width="81.19" height="41.05"/><circle class="cls-14" cx="1889.91" cy="305.26" r="37.4"/><path class="cls-3" d="M1874,394.21s7.29,0,12.31-12.32,0-58.84,0-58.84L1870.75,308l15.51,11.86V287.93l1.37,26,20.07-11.86-19.16,13.68.91,14.14,14.14-5.93-13.22,7.76,2.28,28.28s2.73,32.38,15,33.3S1874,394.21,1874,394.21Z"/><circle class="cls-12" cx="1950.8" cy="388.05" r="8.21"/><circle class="cls-12" cx="1968.59" cy="388.05" r="8.21"/><circle class="cls-12" cx="1986.38" cy="388.05" r="8.21"/><rect class="cls-13" x="2088.56" y="388.05" width="52" height="10.03" rx="5.02"/><circle class="cls-12" cx="2096.77" cy="388.05" r="8.21"/><circle class="cls-12" cx="2114.56" cy="388.05" r="8.21"/><circle class="cls-12" cx="2132.34" cy="388.05" r="8.21"/><rect class="cls-6" x="2042.03" y="347.45" width="39.34" height="40.6"/><rect class="cls-6" x="2002.35" y="347.45" width="39.34" height="40.6"/><rect class="cls-17" x="1772.42" y="274.59" width="7.75" height="151.79"/><rect class="cls-17" x="1769" y="418.75" width="15.05" height="7.63"/><ellipse class="cls-18" cx="1776.3" cy="272.71" rx="9.61" ry="8.77"/><rect class="cls-17" x="2279.42" y="274.59" width="7.75" height="151.79"/><rect class="cls-17" x="2276" y="418.75" width="15.05" height="7.63"/><ellipse class="cls-18" cx="2283.3" cy="272.71" rx="9.61" ry="8.77"/></svg>