<?xml version="1.0" encoding="utf-8"?>
<!-- Generator: Adobe Illustrator 21.0.0, SVG Export Plug-In . SVG Version: 6.00 Build 0)  -->
<svg version="1.1" id="Capa_1" xmlns="http://www.w3.org/2000/svg" xmlns:xlink="http://www.w3.org/1999/xlink" x="0px" y="0px"
	 viewBox="0 0 3000 450" style="enable-background:new 0 0 3000 450;" xml:space="preserve">
<style type="text/css">
	.st0{fill:#0B0C12;}
	.st1{fill:#0E0E1C;}
	.st2{fill:#15151C;}
	.st3{fill:#020E21;}
	.st4{fill:#0C0B10;}
	.st5{fill:#05051E;}
	.st6{fill:#E7BB70;}
</style>
<rect y="230.8" class="st0" width="3000" height="219.2"/>
<rect x="1041.8" y="94.3" class="st1" width="61" height="10.3"/>
<rect x="846.7" y="74.9" class="st1" width="67.4" height="155.8"/>
<rect x="812.7" y="160.6" class="st2" width="34" height="70.2"/>
<rect x="818.3" y="157.1" class="st3" width="28.3" height="3.4"/>
<rect x="930.6" y="152.1" class="st4" width="4" height="78.7"/>
<rect x="928.8" y="223.6" class="st4" width="7.8" height="3.9"/>
<rect x="949.7" y="100.9" class="st1" width="67" height="129.9"/>
<path class="st5" d="M1027.6,230.8h-72.2V140h72.2V230.8z"/>
<rect x="979.9" y="198.7" class="st2" width="47.7" height="32.1"/>
<polygon class="st4" points="1027.6,186.6 1027.6,198.7 979.9,198.7 970.3,198.7 970.3,196 "/>
<rect x="953.2" y="135.7" class="st3" width="74.4" height="4.3"/>
<rect x="955.4" y="97.3" class="st3" width="54.9" height="4.9"/>
<rect x="982.3" y="81.8" class="st3" width="0.9" height="16.6"/>
<rect x="1906.5" y="84" class="st3" width="0.9" height="16.6"/>
<rect x="852.4" y="71.6" class="st3" width="56.9" height="4.5"/>
<rect x="1108.9" y="77.9" class="st5" width="67.7" height="152.9"/>
<rect x="1027.6" y="106.7" class="st1" width="92" height="124.1"/>
<rect x="1115.1" y="74.9" class="st3" width="55.9" height="4.1"/>
<rect x="1873.3" y="102.2" class="st1" width="69.1" height="128.6"/>
<rect x="1879.7" y="99.4" class="st3" width="55.7" height="5.1"/>
<rect x="1942.5" y="157.1" class="st2" width="33.8" height="73.7"/>
<rect x="1942.5" y="152.9" class="st3" width="28" height="4.3"/>
<rect x="1942.5" y="149.5" class="st3" width="20.9" height="3.4"/>
<ellipse class="st6" cx="932.6" cy="151.1" rx="5" ry="4.5"/>
<rect x="1506.8" y="152.1" class="st4" width="4" height="78.7"/>
<rect x="1505.1" y="224.3" class="st4" width="7.8" height="3.9"/>
<ellipse class="st6" cx="1508.9" cy="151.1" rx="5" ry="4.5"/>
<rect x="1857" y="152.1" class="st4" width="4" height="78.7"/>
<rect x="1855.3" y="224.3" class="st4" width="7.8" height="3.9"/>
<ellipse class="st6" cx="1859.1" cy="151.1" rx="5" ry="4.5"/>
<rect x="1036.1" y="111.8" class="st6" width="11.6" height="11.2"/>
<rect x="1074.1" y="111.8" class="st6" width="11.6" height="11.2"/>
<rect x="1054.5" y="130.2" class="st6" width="11.6" height="11.2"/>
<rect x="855.9" y="81.8" class="st6" width="11.6" height="11.2"/>
<rect x="856.1" y="102.3" class="st6" width="11.6" height="11.2"/>
<rect x="889.8" y="145.1" class="st6" width="11.6" height="11.2"/>
<rect x="983.3" y="111.8" class="st6" width="11.6" height="11.2"/>
<rect x="966" y="145.1" class="st6" width="11.6" height="11.2"/>
<rect x="825.6" y="167.7" class="st6" width="11.6" height="11.2"/>
<rect x="1094.9" y="168.9" class="st6" width="11.6" height="11.2"/>
<rect x="1151.6" y="87" class="st6" width="11.6" height="11.2"/>
<rect x="1151.6" y="111.6" class="st6" width="11.6" height="11.2"/>
<rect x="1151.6" y="155.7" class="st6" width="11.6" height="11.2"/>
<rect x="1882.3" y="131.8" class="st6" width="11.6" height="11.2"/>
<rect x="1882.3" y="177.7" class="st6" width="11.6" height="11.2"/>
<rect x="1950.5" y="165.5" class="st6" width="11.6" height="11.2"/>
<rect x="1950.5" y="189.9" class="st6" width="11.6" height="11.2"/>
<rect x="1041.2" y="192.4" class="st6" width="11.6" height="11.2"/>
<rect x="997.8" y="201.5" class="st6" width="11.6" height="11.2"/>
<rect x="1531.7" y="198.7" class="st1" width="32.4" height="32.1"/>
<polygon class="st4" points="1564,186.8 1564,199 1531.7,199 1525.2,199 1525.2,196.3 "/>
<rect x="1533.9" y="201.5" class="st6" width="11.6" height="11.2"/>
<rect x="1030.7" y="100.9" class="st3" width="84.3" height="7.3"/>
<rect x="1563.8" y="198.7" class="st1" width="32.3" height="32.1"/>
<polygon class="st4" points="1563.8,186.8 1563.8,198.9 1596.1,198.9 1602.6,198.9 1602.6,196.2 "/>
<rect x="1582.1" y="201.5" class="st6" width="11.6" height="11.2"/>
<rect x="1653.4" y="191.5" class="st1" width="32.4" height="39.3"/>
<rect x="1655.7" y="201.5" class="st6" width="11.6" height="11.2"/>
<rect x="1685.6" y="191.4" class="st1" width="32.3" height="39.3"/>
<rect x="1703.8" y="201.5" class="st6" width="11.6" height="11.2"/>
<rect x="1421.1" y="169.4" class="st5" width="32.4" height="61.4"/>
<polygon class="st4" points="1453.5,157.4 1453.5,169.6 1421.1,169.6 1414.6,169.6 1414.6,166.9 "/>
<rect x="1423.4" y="201.5" class="st6" width="11.6" height="11.2"/>
<rect x="1453.2" y="169.6" class="st5" width="32.3" height="61.4"/>
<polygon class="st4" points="1453.2,157.4 1453.2,169.6 1485.5,169.6 1492,169.6 1492,166.9 "/>
<rect x="1471.5" y="174.5" class="st6" width="11.6" height="11.2"/>
<rect x="1297.8" y="160.6" class="st1" width="83.7" height="70.2"/>
<rect x="1304.6" y="157.1" class="st3" width="70.1" height="3.4"/>
<rect x="1189.1" y="152.1" class="st4" width="4" height="78.7"/>
<rect x="1187.4" y="223.6" class="st4" width="7.8" height="3.9"/>
<ellipse class="st6" cx="1191.2" cy="151.1" rx="5" ry="4.5"/>
<rect x="1310.6" y="167.7" class="st6" width="11.6" height="11.2"/>
<rect x="1310.6" y="200.3" class="st6" width="11.6" height="11.2"/>
<rect x="2185.4" y="152.1" class="st4" width="4" height="78.7"/>
<rect x="2183.5" y="224.3" class="st4" width="7.8" height="3.9"/>
<ellipse class="st6" cx="2187.3" cy="151.1" rx="5" ry="4.5"/>
<rect x="2099.5" y="169.4" class="st5" width="32.4" height="61.4"/>
<polygon class="st4" points="2131.9,157.4 2131.9,169.6 2099.5,169.6 2093,169.6 2093,166.9 "/>
<rect x="2101.8" y="201.5" class="st6" width="11.6" height="11.2"/>
<rect x="2131.7" y="169.6" class="st5" width="32.3" height="61.4"/>
<polygon class="st4" points="2131.7,157.4 2131.7,169.6 2164,169.6 2170.5,169.6 2170.5,166.9 "/>
<rect x="2150" y="174.5" class="st6" width="11.6" height="11.2"/>
<rect x="1993.8" y="160.6" class="st1" width="83.7" height="70.2"/>
<rect x="2000.6" y="157.1" class="st3" width="70.1" height="3.4"/>
<rect x="2006.7" y="167.7" class="st6" width="11.6" height="11.2"/>
<rect x="2006.7" y="200.3" class="st6" width="11.6" height="11.2"/>
<rect x="2424" y="160.6" class="st1" width="83.7" height="70.2"/>
<rect x="2430.8" y="157.1" class="st3" width="70.1" height="3.4"/>
<rect x="2436.9" y="167.7" class="st6" width="11.6" height="11.2"/>
<rect x="2436.9" y="200.3" class="st6" width="11.6" height="11.2"/>
<rect x="1214" y="198.7" class="st1" width="32.4" height="32.1"/>
<polygon class="st4" points="1246.3,186.8 1246.3,199 1214,199 1207.5,199 1207.5,196.3 "/>
<rect x="1216.2" y="201.5" class="st6" width="11.6" height="11.2"/>
<rect x="1246.1" y="198.7" class="st1" width="32.3" height="32.1"/>
<polygon class="st4" points="1246.1,186.8 1246.1,198.9 1278.3,198.9 1284.8,198.9 1284.8,196.2 "/>
<rect x="1264.3" y="201.5" class="st6" width="11.6" height="11.2"/>
<rect x="704.1" y="169.4" class="st5" width="32.4" height="61.4"/>
<polygon class="st4" points="736.5,157.4 736.5,169.6 704.1,169.6 697.6,169.6 697.6,166.9 "/>
<rect x="706.4" y="201.5" class="st6" width="11.6" height="11.2"/>
<rect x="736.2" y="169.6" class="st5" width="32.3" height="61.4"/>
<polygon class="st4" points="736.2,157.4 736.2,169.6 768.5,169.6 775,169.6 775,166.9 "/>
<rect x="754.5" y="174.5" class="st6" width="11.6" height="11.2"/>
<rect x="590.2" y="160.6" class="st1" width="83.7" height="70.2"/>
<rect x="597.1" y="157.1" class="st3" width="70.1" height="3.4"/>
<rect x="603.1" y="167.7" class="st6" width="11.6" height="11.2"/>
<rect x="603.1" y="200.3" class="st6" width="11.6" height="11.2"/>
<rect x="499.7" y="194.5" class="st1" width="32.4" height="36.6"/>
<rect x="501.9" y="201.8" class="st6" width="11.6" height="11.2"/>
<rect x="531.8" y="194.4" class="st1" width="32.3" height="36.6"/>
<rect x="550" y="201.8" class="st6" width="11.6" height="11.2"/>
<rect x="1763.3" y="169.6" class="st5" width="32.4" height="61.4"/>
<polygon class="st4" points="1795.7,158.1 1795.7,170.3 1763.3,170.3 1756.8,170.3 1756.8,167.7 "/>
<rect x="1765.6" y="201.5" class="st6" width="11.6" height="11.2"/>
<rect x="1795.3" y="169.6" class="st5" width="32.3" height="61.4"/>
<polygon class="st4" points="1795.5,158.1 1795.5,170.3 1827.8,170.3 1834.2,170.3 1834.2,167.6 "/>
<rect x="1813.8" y="174.5" class="st6" width="11.6" height="11.2"/>
<rect x="2217.5" y="198.7" class="st1" width="32.4" height="32.1"/>
<polygon class="st4" points="2249.9,186.8 2249.9,199 2217.5,199 2211,199 2211,196.3 "/>
<rect x="2219.8" y="201.5" class="st6" width="11.6" height="11.2"/>
<rect x="2249.7" y="198.7" class="st1" width="32.3" height="32.1"/>
<polygon class="st4" points="2249.6,186.8 2249.6,198.9 2282,198.9 2288.4,198.9 2288.4,196.2 "/>
<rect x="2268" y="201.5" class="st6" width="11.6" height="11.2"/>
<rect x="2327.5" y="169.6" class="st5" width="32.4" height="61.4"/>
<polygon class="st4" points="2359.9,158.1 2359.9,170.3 2327.5,170.3 2321,170.3 2321,167.7 "/>
<rect x="2329.8" y="201.5" class="st6" width="11.6" height="11.2"/>
<rect x="2359.4" y="169.6" class="st5" width="32.3" height="61.4"/>
<polygon class="st4" points="2359.6,158.1 2359.6,170.3 2391.9,170.3 2398.4,170.3 2398.4,167.6 "/>
<rect x="2377.9" y="174.5" class="st6" width="11.6" height="11.2"/>
<rect x="458.4" y="152.1" class="st4" width="4" height="78.7"/>
<rect x="456.5" y="224.3" class="st4" width="7.8" height="3.9"/>
<ellipse class="st6" cx="460.5" cy="151.1" rx="5" ry="4.5"/>
<rect x="106.7" y="152.1" class="st4" width="4" height="78.7"/>
<rect x="104.7" y="224.3" class="st4" width="7.8" height="3.9"/>
<ellipse class="st6" cx="108.7" cy="151.1" rx="5" ry="4.5"/>
<rect x="140.1" y="160.6" class="st1" width="83.7" height="70.2"/>
<rect x="146.9" y="157.1" class="st3" width="70.1" height="3.4"/>
<rect x="199.4" y="167.7" class="st6" width="11.6" height="11.2"/>
<rect x="199.4" y="200.3" class="st6" width="11.6" height="11.2"/>
<rect x="397.9" y="198.7" class="st1" width="32.4" height="32.1"/>
<polygon class="st4" points="436.8,196.3 436.8,199 430.3,199 397.9,199 397.9,186.8 "/>
<rect x="416.4" y="201.5" class="st6" width="11.6" height="11.2"/>
<rect x="365.8" y="198.7" class="st1" width="32.3" height="32.1"/>
<polygon class="st4" points="359.3,196.2 359.3,198.9 365.8,198.9 398.2,198.9 398.2,186.8 "/>
<rect x="368.3" y="201.5" class="st6" width="11.6" height="11.2"/>
<rect x="287.9" y="169.6" class="st5" width="32.4" height="61.4"/>
<polygon class="st4" points="326.8,167.7 326.8,170.3 320.3,170.3 287.9,170.3 287.9,158.1 "/>
<rect x="306.4" y="201.5" class="st6" width="11.6" height="11.2"/>
<rect x="256.1" y="169.6" class="st5" width="32.3" height="61.4"/>
<polygon class="st4" points="249.4,167.6 249.4,170.3 255.8,170.3 288.2,170.3 288.2,158.1 "/>
<rect x="258.3" y="174.5" class="st6" width="11.6" height="11.2"/>
<rect x="1651.6" y="188.9" class="st1" width="68.1" height="2.6"/>
<rect x="2539.6" y="152.1" class="st4" width="4" height="78.7"/>
<rect x="2537.8" y="224.3" class="st4" width="7.8" height="3.9"/>
<ellipse class="st6" cx="2541.6" cy="151.1" rx="5" ry="4.5"/>
<rect x="2905" y="152.1" class="st4" width="4" height="78.7"/>
<rect x="2903.2" y="224.3" class="st4" width="7.8" height="3.9"/>
<ellipse class="st6" cx="2907" cy="151.1" rx="5" ry="4.5"/>
<rect x="2575.4" y="198.7" class="st1" width="32.4" height="32.1"/>
<polygon class="st4" points="2607.7,186.8 2607.7,199 2575.4,199 2568.9,199 2568.9,196.3 "/>
<rect x="2577.6" y="201.5" class="st6" width="11.6" height="11.2"/>
<rect x="2607.5" y="198.7" class="st1" width="32.3" height="32.1"/>
<polygon class="st4" points="2607.5,186.8 2607.5,198.9 2639.8,198.9 2646.3,198.9 2646.3,196.2 "/>
<rect x="2625.8" y="201.5" class="st6" width="11.6" height="11.2"/>
<rect x="2697.1" y="191.5" class="st1" width="32.4" height="39.3"/>
<rect x="2699.4" y="201.5" class="st6" width="11.6" height="11.2"/>
<rect x="2729.3" y="191.4" class="st1" width="32.3" height="39.3"/>
<rect x="2747.6" y="201.5" class="st6" width="11.6" height="11.2"/>
<rect x="2807.1" y="169.6" class="st5" width="32.4" height="61.4"/>
<polygon class="st4" points="2839.5,158.1 2839.5,170.3 2807.1,170.3 2800.6,170.3 2800.6,167.7 "/>
<rect x="2809.4" y="201.5" class="st6" width="11.6" height="11.2"/>
<rect x="2839" y="169.6" class="st5" width="32.3" height="61.4"/>
<polygon class="st4" points="2839.2,158.1 2839.2,170.3 2871.5,170.3 2878,170.3 2878,167.6 "/>
<rect x="2857.5" y="174.5" class="st6" width="11.6" height="11.2"/>
<rect x="2695.3" y="188.9" class="st1" width="68.1" height="2.6"/>
<rect x="2928.1" y="191.5" class="st1" width="32.4" height="39.3"/>
<rect x="2930.4" y="201.5" class="st6" width="11.6" height="11.2"/>
<rect x="2960.3" y="191.4" class="st1" width="32.3" height="39.3"/>
<rect x="2978.6" y="201.5" class="st6" width="11.6" height="11.2"/>
<rect x="2926.4" y="188.9" class="st1" width="68.1" height="2.6"/>
<rect x="497.8" y="191.9" class="st1" width="68.1" height="2.6"/>
<rect x="13.4" y="194.5" class="st1" width="32.4" height="36.6"/>
<rect x="15.6" y="201.8" class="st6" width="11.6" height="11.2"/>
<rect x="45.5" y="194.4" class="st1" width="32.3" height="36.6"/>
<rect x="63.8" y="201.8" class="st6" width="11.6" height="11.2"/>
<rect x="11.5" y="191.9" class="st1" width="68.1" height="2.6"/>
</svg>
