<svg id="Capa_1" data-name="Capa 1" xmlns="http://www.w3.org/2000/svg" viewBox="0 0 3000 450"><defs><style>.cls-1{fill:#00161b;}.cls-2{fill:#0e0e12;}.cls-3{fill:#e7bb70;}.cls-4{fill:#0c0d16;}</style></defs><title>30Mesa de trabajo 2</title><path class="cls-1" d="M1617.19,133.26c-.05,2,.45,2.81,2.64,2.77,6.42-.12,12.84-.08,19.26,0,1.67,0,2.26-.5,2.25-2.2-.05-16.67,0-22.19,0-38.86,0-1.26,0-3.65,0-12-1.79-7.47-8.21-16.1-11.89-22.87-2-3.58-1.11-7.34-1-11,0-2.07,2.73-.08,3.59-1.48-1.28-.6-3.52-.17-4.38-1.61-.49-.82.48-2.95-.2-4.49-1.15,1.66,0,3.59-.84,4.83-1,1.42-3.08-.11-4.4,1,0,1,.78.86,1.28.78,2.8-.46,3.38.74,3.43,3.36a22.72,22.72,0,0,1-2.53,11.64c-1.64,3-2.68,6.38-4.39,9.37a34.69,34.69,0,0,0-4.68,20.92C1615.48,95.34,1617.31,128.83,1617.19,133.26Z"/><path class="cls-2" d="M1308.71,169.92l-.23,43.81s55.08-.16,72.13-.07l.65-115.41s-2.62-3.15-4.41-3.14c-8.32.08-16.65,0-25,0a4.88,4.88,0,0,0-2.32.36c-7.18,4.19-14.32,8.45-21.46,12.7l.11.79c1.72,0,3.44.06,5.15,0,1.42-.06,2,.45,1.91,1.87-.09,2.74-.11,5.48,0,8.21.07,1.66-.72,2-2.17,1.91-2.71-.07-5.43.17-8.12-.07-3.18-.29-5.36.77-7.49,3.11-5.7,6.26-11.7,12.26-18.2,19,3.45,0,9.47-1,9.47,2.49Z"/><path class="cls-3" d="M1340.27,162.76h9.12a0,0,0,0,1,0,0v6.16a4.56,4.56,0,0,1-4.56,4.56h0a4.56,4.56,0,0,1-4.56-4.56v-6.16a0,0,0,0,1,0,0Z"/><ellipse class="cls-3" cx="1344.83" cy="162.76" rx="4.56" ry="4.48"/><path class="cls-3" d="M1357.4,162.76h9.12a0,0,0,0,1,0,0v6.16a4.56,4.56,0,0,1-4.56,4.56h0a4.56,4.56,0,0,1-4.56-4.56v-6.16A0,0,0,0,1,1357.4,162.76Z"/><ellipse class="cls-3" cx="1361.96" cy="162.76" rx="4.56" ry="4.48"/><path class="cls-3" d="M1340.27,184.31h9.12a0,0,0,0,1,0,0v6.16a4.56,4.56,0,0,1-4.56,4.56h0a4.56,4.56,0,0,1-4.56-4.56v-6.16A0,0,0,0,1,1340.27,184.31Z"/><ellipse class="cls-3" cx="1344.83" cy="184.31" rx="4.56" ry="4.48"/><path class="cls-2" d="M1598,213.73V154.61c-.14-1.37-14.38.38-14.46-1.47s-.07-7.37-.2-8.65,2.15-1.57,3-2.29c.7-.59,1.79-2.28-.41-3.62-3.41-2.07-4.52-3.25-5.37-6.29a15.61,15.61,0,0,0-6.82-9.09c-3.18-2-4.38-4.9-4.45-8.42,0-1.58,0-3.16,0-4.74a4.14,4.14,0,0,0-1.44-3.56c-1.52-1.41-2.45-3.8-1-5.72,1.08-1.42-1.13-1.17-.6-2-1-.52-.68.77-1.37,1-1.65.62.15.62.35.95,1.33,2.2-.18,4.09-1.24,5.54a6.73,6.73,0,0,0-1.33,4c-.15,2.8.54,5.63-.79,8.4a9.71,9.71,0,0,1-3.41,4.33,17.49,17.49,0,0,0-7.62,11c-.53,2.2-1.23,3.57-3.77,4.13s-2.82,4,0,4.45c4.07.62,2.27,8.22,2.33,10.67s-3.9,1.67-5,1.69-2.11-.1-2.1-1.69q.07-14.65,0-29.3a2.39,2.39,0,0,1,1.42-2.35c.74-.39,1.86-2.94,1.74-3.84-.43-3.28-4.76-3.73-6-3.82-4.94-.34-5.32-.86-6.34-5.8-3.18-15.26-11.59-26.83-25.6-34.26-1.62-.86-2.86-1.65-3-3.58a1.94,1.94,0,0,0-.56-1.32c-3.34-2.43-3-5.89-3-9.37.08-7.2,0-14.4.06-21.6,0-2-1.51-8.42-5.14-8.42-2.81-1.58-2.49-3.41-2.62-5.43-.25-3.66-1.35-7.25-1.09-11,.11-1.65.09-3,2.35-2.66.79.12,1.41-.17,1.34-1.12-.05-.64.28-1.81-.56-1.75-4.4.3-2.9-2.75-3-4.89h-3a25.82,25.82,0,0,0,.08,2.65c.22,1.73-.54,2.26-2.21,2.13-1-.08-2.29-.44-2.36,1.36-.07,2,1.3,1.71,2.44,1.61,1.82-.16,2,.75,2.18,2.26.73,5-1.68,9.61-1.38,14.53.09,1.42-1.84,1.54-2.36,2.31-4.36,0-5.83,7.61-5.46,12.92.48,7,.08,14,.15,21a4.9,4.9,0,0,1-1.49,4c-1.13,1-2,2.2-1.72,3.87.18,1.13-.73,1.46-1.53,1.89-15,8-23.84,20.35-26.25,37-.4,2.74-1.33,3.43-4.36,3.72-8.45.8-5.57,6.66-4.38,7.61,1.4,1.11,1.45,2.44,1.44,3.95,0,3.85,0,7.69,0,11.54,0,2.9-1.72,3.94-4.4,2.58a5.11,5.11,0,0,1-3.09-4,19.77,19.77,0,0,0-9.85-14.46,7,7,0,0,1-3.48-6.2c-.11-3,.86-6.14-1.77-8.91a4.07,4.07,0,0,1,0-5.12c.84-1-1.52-1-1-2.29-.52,1-2.11,1.35-.91,3.16a4.4,4.4,0,0,1-.66,4.74c-1.94,1.94-1.79,4.1-1.59,6.28a9.39,9.39,0,0,1-4.07,9,25,25,0,0,0-9.16,14.86c-.19.84,0,2.15-1.21,2-2.86-.31-2.4,1.52-2.4,3.15,0,3.35-.09,6.71,0,10.06.07,1.86-.61,2.51-2.42,2.3-.79-.09-14.78.36-15.58.45l-.4,56.34c-.25,2.54,1.06,2.49,2.92,2.48M1487.13,63.15c0,1.17-.32,2.3-1.78,2.23-1.24-.06-1.51-1.06-1.53-2.14-.15-7.58-.35-15.17-.45-22.75,0-1.32.58-2.73,2.11-2.76s1.65,1.46,1.66,2.65c0,3.75,0,7.49,0,11.24S1487.15,59.3,1487.13,63.15Zm5-.67c0,1.29.07,2.88-1.73,2.87s-1.71-1.6-1.71-2.89q0-7.1,0-14.21c0-4.74,0-9.47,0-14.21,0-1.24-.23-2.88,1.64-2.92s2.14,1.56,2.13,3C1492.43,43.55,1492.29,53,1492.17,62.48Zm4.84.31c0,1.2-.23,2.56-1.89,2.58s-1.68-1.37-1.68-2.59q0-5.62,0-11.23t0-11.53c0-1.06.22-2.11,1.4-2.3,1.38-.22,1.85.93,2.2,2C1497.2,40.14,1497,59.14,1497,62.79Z"/><path class="cls-2" d="M1766.2,168.28c0-2.62-1.34-2.43-3-2.42-16.55,0-33.1-.09-49.64.09-3.17,0-3.81-1-3.74-4,.19-8.72.12-17.44,0-26.16,0-2,.54-2.7,2.54-2.65,5.29.12,10.59,0,16.77,0-3.25-3.68-5.94-6.77-8.7-9.79-.77-.84-1.91-.42-2.88-.42-10.63,0-21.26-.13-31.89.06-2.76,0-3.33-.83-3.25-3.45.18-6.36.13-12.72,0-19.08,0-1.91.54-2.51,2.38-2.44,3.16.13,6.34,0,10.49,0-3.94-4.45-18.55-12.95-21.33-12.93q-19.26.1-38.51,0a6.34,6.34,0,0,0-5.08,2c-2.52,2.62-5.28,5-8.66,8.18,3.65,0,6.47.07,9.28,0,1.54-.05,2.13.45,2.09,2.09-.09,3.79-.16,7.6,0,11.38.11,2.33-.86,2.66-2.81,2.63-6.22-.1-12.44,0-18.65-.07a3.85,3.85,0,0,0-3.54,1.69c-3.46,4.6-7.08,9.07-11.16,14.26,2,0,3.27.12,4.5,0,2.11-.24,3,.3,2.93,2.78-.19,6.35-.1,12.72,0,19.08,0,1.9-5.78,4.15-7.39,5v59.55c1.93,0,15.18-.66,16.55-2.23,20.84-24,46.71-36.05,78.31-33.69,26.12,2,47.29,14.08,64.39,34.07,1.11,1.3,8.28,2.46,9.49,1.5.66-.53.42-1.32.42-2C1766.14,197,1766.07,182.64,1766.2,168.28ZM1609.91,198c0,1.87-.92,3.5-3.11,3.33s-2.81-1.61-2.79-3.64c0-3.9,0-7.79,0-11.69s0-7.79,0-11.69c0-1.89.65-3.25,2.62-3.46,2.19-.23,3.23,1.26,3.26,3.16Q1610.06,186,1609.91,198Zm10.88-9.57c-.05,2-1,3.44-3.06,3.38-1.89-.06-2.77-1.43-2.77-3.33q0-7.06,0-14.13c0-2,.64-3.46,2.88-3.47s2.93,1.45,3,3.42c0,2.35,0,4.71,0,7.06S1620.84,186.09,1620.78,188.44Zm9.76-6.19a2.65,2.65,0,0,1-2.73,2.68,2.51,2.51,0,0,1-2.78-2.24,35.91,35.91,0,0,1,0-9.43,2.53,2.53,0,0,1,3-2.34,2.6,2.6,0,0,1,2.59,2.78c.06,1.32,0,2.65,0,4C1630.56,179.2,1630.6,180.73,1630.54,182.25Zm105.33.27a2.56,2.56,0,0,1-2.92,2.41,2.65,2.65,0,0,1-2.58-2.82c0-2.85-.06-5.7,0-8.54a2.54,2.54,0,0,1,2.69-2.66,2.47,2.47,0,0,1,2.77,2.21c.26,1.59.27,3.23.39,4.82C1736.12,179.49,1736.08,181,1735.87,182.52Zm9.59,5.58c0,2.08-.75,3.77-3,3.72-2-.05-2.9-1.59-2.9-3.57,0-4.61,0-9.21,0-13.82,0-1.92.69-3.49,2.89-3.52,2.39,0,3,1.62,3,3.68,0,2.25,0,4.5,0,6.76S1745.48,185.84,1745.46,188.1Zm8.11,13.24c-2.35.12-3-1.55-3-3.65,0-3.79,0-7.58,0-11.36q0-6,0-12c0-2,.75-3.52,2.89-3.49s2.86,1.46,2.85,3.51q0,11.67,0,23.34C1756.33,199.73,1755.66,201.23,1753.57,201.34Z"/><rect class="cls-3" x="1688.03" y="142.08" width="10.86" height="16.94"/><path class="cls-2" d="M1295.68,178.35c-1.1,0-1.8-.12-2.2-.63H1290a2.27,2.27,0,0,1-1.63.4c-2.9-.08-5.81-.09-8.71,0-1,0-1.63-.16-2-.68a22.64,22.64,0,0,0-2.87.2,2.17,2.17,0,0,1-1.71.48c-3-.1-6-.08-9,0a2.18,2.18,0,0,1-1.64-.43c-1,.07-2.06.38-3,.34a3.84,3.84,0,0,1-2.05.27c-7.82,0-15.65.08-23.47-.05-2.29,0-2.88.65-2.85,2.84.11,9.67,0,48.83,0,48.83s57.27-12.22,81.31-17.3V178.32C1309.19,178.32,1298.88,178.21,1295.68,178.35Zm-57,7.89a1.47,1.47,0,0,1-1.47,1.47h-.77a1.47,1.47,0,0,1-1.47-1.47v-4.47a1.47,1.47,0,0,1,1.47-1.47h.77a1.47,1.47,0,0,1,1.47,1.47Zm7.05,0a1.47,1.47,0,0,1-1.47,1.47h-.77a1.47,1.47,0,0,1-1.47-1.47v-4.47a1.47,1.47,0,0,1,1.47-1.47h.77a1.47,1.47,0,0,1,1.47,1.47Zm7.05,0a1.47,1.47,0,0,1-1.47,1.47h-.77a1.47,1.47,0,0,1-1.47-1.47v-4.47a1.47,1.47,0,0,1,1.47-1.47h.77a1.47,1.47,0,0,1,1.47,1.47Zm7.05,0a1.47,1.47,0,0,1-1.47,1.47h-.77a1.47,1.47,0,0,1-1.47-1.47v-4.47a1.47,1.47,0,0,1,1.47-1.47h.77a1.47,1.47,0,0,1,1.47,1.47Zm7.05,0a1.47,1.47,0,0,1-1.47,1.47h-.77a1.47,1.47,0,0,1-1.47-1.47v-4.47a1.47,1.47,0,0,1,1.47-1.47h.77a1.47,1.47,0,0,1,1.47,1.47Zm20,0a1.47,1.47,0,0,1-1.47,1.47h-.77a1.47,1.47,0,0,1-1.47-1.47v-4.47a1.47,1.47,0,0,1,1.47-1.47h.77a1.47,1.47,0,0,1,1.47,1.47Zm7.05,0a1.47,1.47,0,0,1-1.47,1.47h-.77a1.47,1.47,0,0,1-1.47-1.47v-4.47a1.47,1.47,0,0,1,1.47-1.47h.77a1.47,1.47,0,0,1,1.47,1.47Zm7.05,0a1.47,1.47,0,0,1-1.47,1.47h-.77a1.47,1.47,0,0,1-1.47-1.47v-4.47a1.47,1.47,0,0,1,1.47-1.47h.77a1.47,1.47,0,0,1,1.47,1.47Zm7.05,0a1.47,1.47,0,0,1-1.47,1.47h-.77a1.47,1.47,0,0,1-1.47-1.47v-4.47a1.47,1.47,0,0,1,1.47-1.47h.77a1.47,1.47,0,0,1,1.47,1.47Z"/><path class="cls-1" d="M1262.07,176.1c.11-2.55,0-5.12,0-7.67H1262c0-1.28,0-2.56,0-3.84s-.15-2.75-.18-4.12a6.73,6.73,0,0,1,5-6.28c3-.77,6.55.52,7.92,2.87.88,3.84.5,3.63.5,3.63l-5.64.06a1.63,1.63,0,0,0-1.39,1.71c-.06,1,.58,1.11,1.33,1.11,1.1,0,2.21.09,3.3,0,1.74-.16,2.53.33,2.45,2.24-.14,3.34-.11,6.69,0,10a2.45,2.45,0,0,1-.45,1.81,22.64,22.64,0,0,1,2.87-.2,2.65,2.65,0,0,1-.3-1.53,84.6,84.6,0,0,0,0-9.16c-.2-2.6.13-3.24,3.31-3.24s3.51.34,3.51-1.35-6.56-1.5-6.56-1.5-.34-2.89.71-4.18a7.32,7.32,0,0,1,7.61-2.17c2.72,1,4.62,2.77,4.73,5.83.07,1.77-.29,12.41-.2,15.95a2,2,0,0,1-.46,1.62h3.44a2.84,2.84,0,0,1-.41-1.85c.11-4.73.12-9.47,0-14.2,0-1.89.66-2.42,2.45-2.27,1.56.13,3.14,0,5.63,0-2.31-1.75-3.92-3-5.54-4.19-5.74-4.29-11.53-8.53-17.2-12.91-1.5-1.15-2.47-1.31-4.09-.08-7.45,5.63-15,11.1-23.32,17.18,3,0,5.13.05,7.27,0,1.29,0,1.79.42,1.78,1.69,0,5.13-.06,10.26,0,15.39a1.67,1.67,0,0,1-.57,1.54c1,0,2-.28,3-.34A2,2,0,0,1,1262.07,176.1Z"/><circle class="cls-3" cx="1344.83" cy="111.77" r="4.56"/><polygon class="cls-2" points="694.98 280.23 1231.09 229.93 1308.48 212.73 1766.71 212.37 2303.31 280.23 2303.31 336.76 694.98 336.76 694.98 280.23"/><rect class="cls-4" x="2008.26" y="195.95" width="2.37" height="46.39"/><rect class="cls-4" x="2007.21" y="240" width="4.6" height="2.33"/><ellipse class="cls-3" cx="2009.44" cy="195.37" rx="2.94" ry="2.68"/><rect class="cls-4" x="1039.93" y="202.11" width="2.37" height="46.39"/><rect class="cls-4" x="1038.89" y="246.17" width="4.6" height="2.33"/><ellipse class="cls-3" cx="1041.12" cy="201.54" rx="2.94" ry="2.68"/><rect class="cls-2" x="980.87" y="222.62" width="31.93" height="31.04" transform="translate(1993.67 476.28) rotate(-180)"/><polygon class="cls-2" points="1012.9 210.1 1012.9 222.62 1010.17 222.62 978.24 222.62 975.51 222.62 1012.9 210.1"/><rect class="cls-2" x="1101.73" y="213.81" width="31.93" height="31.04"/><polygon class="cls-2" points="1101.62 201.28 1101.62 213.81 1104.36 213.81 1136.29 213.81 1139.01 213.81 1101.62 201.28"/><rect class="cls-2" x="1069.87" y="213.81" width="31.93" height="31.04" transform="translate(2171.67 458.65) rotate(-180)"/><polygon class="cls-2" points="1101.9 201.28 1101.9 213.81 1099.17 213.81 1067.24 213.81 1064.51 213.81 1101.9 201.28"/><rect class="cls-2" x="2236.77" y="246.89" width="31.93" height="31.04"/><polygon class="cls-2" points="2236.67 234.37 2236.67 246.89 2239.41 246.89 2271.33 246.89 2274.06 246.89 2236.67 234.37"/><rect class="cls-2" x="2049.09" y="222.48" width="31.93" height="31.04"/><polygon class="cls-2" points="2048.99 209.96 2048.99 222.48 2051.72 222.48 2083.65 222.48 2086.38 222.48 2048.99 209.96"/><rect class="cls-2" x="2128.93" y="234.37" width="31.93" height="31.04" transform="translate(4289.79 499.78) rotate(-180)"/><polygon class="cls-2" points="2160.97 221.85 2160.97 234.37 2158.23 234.37 2126.3 234.37 2123.58 234.37 2160.97 221.85"/><rect class="cls-2" x="2160.79" y="234.37" width="31.93" height="31.04"/><polygon class="cls-2" points="2160.69 221.85 2160.69 234.37 2163.42 234.37 2195.35 234.37 2198.07 234.37 2160.69 221.85"/><rect class="cls-2" x="1166.45" y="205.21" width="31.93" height="31.04" transform="translate(2364.83 441.47) rotate(-180)"/><polygon class="cls-2" points="1198.49 192.69 1198.49 205.21 1195.75 205.21 1163.82 205.21 1161.1 205.21 1198.49 192.69"/><rect class="cls-2" x="916.15" y="233.81" width="31.93" height="31.04"/><polygon class="cls-2" points="916.04 221.29 916.04 233.81 918.78 233.81 950.71 233.81 953.43 233.81 916.04 221.29"/><rect class="cls-2" x="884.29" y="233.81" width="31.93" height="31.04" transform="translate(1800.5 498.66) rotate(-180)"/><polygon class="cls-2" points="916.32 221.29 916.32 233.81 913.59 233.81 881.66 233.81 878.93 233.81 916.32 221.29"/><rect class="cls-2" x="724.41" y="212.37" width="113.64" height="65.68"/><rect class="cls-2" x="732.22" y="207.54" width="98.02" height="5.18"/><rect class="cls-2" x="1858.37" y="173.27" width="113.64" height="65.68"/><rect class="cls-2" x="1866.18" y="168.44" width="98.02" height="5.18"/><rect class="cls-3" x="817.78" y="219.14" width="10.18" height="10.18"/><rect class="cls-3" x="2135.65" y="239.75" width="10.18" height="10.18"/><rect class="cls-3" x="1169.28" y="211.13" width="10.18" height="10.18"/><rect class="cls-3" x="1865.75" y="183.7" width="10.18" height="10.18"/><polygon class="cls-2" points="3000 450 0 450 696.73 280.12 2305.02 280.12 3000 450"/></svg>