<svg id="Capa_1" data-name="Capa 1" xmlns="http://www.w3.org/2000/svg" viewBox="0 0 3000 450"><defs><style>.cls-1{fill:#0c0d11;}.cls-2{fill:#0f0e0d;}.cls-3{fill:#020e21;}.cls-4{fill:#0c0b10;}.cls-5{fill:#0d0a0d;}.cls-6{fill:#e7bb70;}.cls-7{fill:#111011;}</style></defs><title>30Mesa de trabajo 4</title><rect class="cls-1" x="821.32" y="33.46" width="90.15" height="15.25"/><rect class="cls-1" x="532.84" y="4.88" width="99.58" height="230.41"/><rect class="cls-2" x="482.62" y="131.46" width="50.23" height="103.84"/><rect class="cls-3" x="490.92" y="126.41" width="41.93" height="5.04"/><rect class="cls-4" x="656.87" y="118.97" width="5.94" height="116.33"/><rect class="cls-4" x="654.25" y="224.71" width="11.53" height="5.84"/><rect class="cls-1" x="685.23" y="43.31" width="99.05" height="191.98"/><path class="cls-5" d="M800.32,235.29H693.61V101.07H800.32Z"/><rect class="cls-2" x="729.77" y="187.9" width="70.54" height="47.4"/><polygon class="cls-4" points="800.32 169.88 800.32 187.9 729.77 187.9 715.62 187.9 715.62 183.94 800.32 169.88"/><rect class="cls-3" x="690.29" y="94.71" width="110.03" height="6.36"/><rect class="cls-3" x="693.61" y="38.03" width="81.24" height="7.21"/><rect class="cls-3" x="733.31" y="14.97" width="1.44" height="24.59"/><rect class="cls-3" x="2099.69" y="18.26" width="1.44" height="24.59"/><rect class="cls-3" x="541.32" width="84.12" height="6.69"/><rect class="cls-5" x="920.55" y="9.21" width="100.1" height="226.09"/><rect class="cls-1" x="800.32" y="51.75" width="136" height="183.54"/><rect class="cls-3" x="929.63" y="4.88" width="82.63" height="6.12"/><rect class="cls-1" x="2050.55" y="45.23" width="102.2" height="190.06"/><rect class="cls-3" x="2059.99" y="41.09" width="82.28" height="7.63"/><rect class="cls-2" x="2152.75" y="126.41" width="49.94" height="108.88"/><rect class="cls-3" x="2152.75" y="120.09" width="41.4" height="6.32"/><rect class="cls-3" x="2152.75" y="115.12" width="30.92" height="4.96"/><ellipse class="cls-6" cx="659.84" cy="117.53" rx="7.36" ry="6.72"/><rect class="cls-4" x="1508.82" y="118.97" width="5.94" height="116.33"/><rect class="cls-4" x="1506.2" y="225.71" width="11.53" height="5.84"/><ellipse class="cls-6" cx="1511.79" cy="117.53" rx="7.36" ry="6.72"/><rect class="cls-4" x="2026.51" y="118.97" width="5.94" height="116.33"/><rect class="cls-4" x="2023.89" y="225.71" width="11.53" height="5.84"/><ellipse class="cls-6" cx="2029.48" cy="117.53" rx="7.36" ry="6.72"/><rect class="cls-6" x="812.76" y="59.4" width="17.12" height="16.57"/><rect class="cls-6" x="869.01" y="59.4" width="17.12" height="16.57"/><rect class="cls-6" x="840.01" y="86.6" width="17.12" height="16.57"/><rect class="cls-6" x="546.48" y="14.97" width="17.12" height="16.57"/><rect class="cls-6" x="546.67" y="45.35" width="17.12" height="16.57"/><rect class="cls-6" x="596.64" y="108.64" width="17.12" height="16.57"/><rect class="cls-6" x="734.75" y="59.4" width="17.12" height="16.57"/><rect class="cls-6" x="709.25" y="108.64" width="17.12" height="16.57"/><rect class="cls-6" x="501.6" y="142.02" width="17.12" height="16.57"/><rect class="cls-6" x="899.76" y="143.77" width="17.12" height="16.57"/><rect class="cls-6" x="983.61" y="22.72" width="17.12" height="16.57"/><rect class="cls-6" x="983.61" y="59.1" width="17.12" height="16.57"/><rect class="cls-6" x="983.61" y="124.31" width="17.12" height="16.57"/><rect class="cls-6" x="2063.83" y="89.01" width="17.12" height="16.57"/><rect class="cls-6" x="2063.83" y="156.84" width="17.12" height="16.57"/><rect class="cls-6" x="2164.72" y="138.7" width="17.12" height="16.57"/><rect class="cls-6" x="2164.72" y="174.79" width="17.12" height="16.57"/><rect class="cls-6" x="820.44" y="178.59" width="17.12" height="16.57"/><rect class="cls-6" x="756.15" y="192.04" width="17.12" height="16.57"/><rect class="cls-1" x="1545.46" y="187.9" width="47.88" height="47.4"/><polygon class="cls-4" points="1593.34 170.25 1593.34 188.26 1545.46 188.26 1535.86 188.26 1535.86 184.29 1593.34 170.25"/><rect class="cls-6" x="1548.81" y="192.04" width="17.12" height="16.57"/><rect class="cls-3" x="804.89" y="43.31" width="124.74" height="10.81"/><rect class="cls-1" x="1592.98" y="187.82" width="47.74" height="47.4" transform="translate(3233.7 423.03) rotate(-180)"/><polygon class="cls-4" points="1592.98 170.16 1592.98 188.18 1640.72 188.18 1650.3 188.18 1650.3 184.22 1592.98 170.16"/><rect class="cls-6" x="1620.02" y="191.96" width="17.12" height="16.57" transform="translate(3257.16 400.49) rotate(-180)"/><rect class="cls-1" x="1725.44" y="177.23" width="47.88" height="58.06"/><rect class="cls-6" x="1728.79" y="192.04" width="17.12" height="16.57"/><rect class="cls-1" x="1772.95" y="177.13" width="47.74" height="58.06" transform="translate(3593.65 412.33) rotate(-180)"/><rect class="cls-6" x="1800" y="191.96" width="17.12" height="16.57" transform="translate(3617.11 400.49) rotate(-180)"/><rect class="cls-5" x="1382" y="144.58" width="47.88" height="90.71"/><polygon class="cls-4" points="1429.88 126.85 1429.88 144.87 1382 144.87 1372.4 144.87 1372.4 140.9 1429.88 126.85"/><rect class="cls-6" x="1385.36" y="192.04" width="17.12" height="16.57"/><rect class="cls-5" x="1429.52" y="144.79" width="47.74" height="90.71" transform="translate(2906.79 380.29) rotate(-180)"/><polygon class="cls-4" points="1429.52 126.77 1429.52 144.79 1477.27 144.79 1486.84 144.79 1486.84 140.82 1429.52 126.77"/><rect class="cls-6" x="1456.56" y="152.09" width="17.12" height="16.57" transform="translate(2930.25 320.76) rotate(-180)"/><rect class="cls-1" x="1199.74" y="131.46" width="123.66" height="103.84"/><rect class="cls-3" x="1209.75" y="126.41" width="103.65" height="5.04"/><rect class="cls-4" x="1039.12" y="118.97" width="5.94" height="116.33"/><rect class="cls-4" x="1036.5" y="224.71" width="11.53" height="5.84"/><ellipse class="cls-6" cx="1042.09" cy="117.53" rx="7.36" ry="6.72"/><rect class="cls-6" x="1218.73" y="142.02" width="17.12" height="16.57"/><rect class="cls-6" x="1218.73" y="190.25" width="17.12" height="16.57"/><rect class="cls-4" x="2511.85" y="118.97" width="5.94" height="116.33"/><rect class="cls-4" x="2509.23" y="225.71" width="11.53" height="5.84"/><ellipse class="cls-6" cx="2514.82" cy="117.53" rx="7.36" ry="6.72"/><rect class="cls-5" x="2385.04" y="144.58" width="47.88" height="90.71"/><polygon class="cls-4" points="2432.91 126.85 2432.91 144.87 2385.03 144.87 2375.43 144.87 2375.43 140.9 2432.91 126.85"/><rect class="cls-6" x="2388.39" y="192.04" width="17.12" height="16.57"/><rect class="cls-5" x="2432.55" y="144.79" width="47.74" height="90.71" transform="translate(4912.85 380.29) rotate(-180)"/><polygon class="cls-4" points="2432.55 126.77 2432.55 144.79 2480.3 144.79 2489.88 144.79 2489.88 140.82 2432.55 126.77"/><rect class="cls-6" x="2459.6" y="152.09" width="17.12" height="16.57" transform="translate(4936.31 320.76) rotate(-180)"/><rect class="cls-1" x="2228.72" y="131.46" width="123.66" height="103.84"/><rect class="cls-3" x="2238.72" y="126.41" width="103.65" height="5.04"/><rect class="cls-6" x="2247.7" y="142.02" width="17.12" height="16.57"/><rect class="cls-6" x="2247.7" y="190.25" width="17.12" height="16.57"/><rect class="cls-1" x="2864.72" y="131.46" width="123.66" height="103.84"/><rect class="cls-3" x="2874.72" y="126.41" width="103.65" height="5.04"/><rect class="cls-6" x="2883.7" y="142.02" width="17.12" height="16.57"/><rect class="cls-6" x="2883.7" y="190.25" width="17.12" height="16.57"/><rect class="cls-1" x="1075.76" y="187.9" width="47.88" height="47.4"/><polygon class="cls-4" points="1123.64 170.25 1123.64 188.26 1075.76 188.26 1066.16 188.26 1066.16 184.29 1123.64 170.25"/><rect class="cls-6" x="1079.12" y="192.04" width="17.12" height="16.57"/><rect class="cls-1" x="1123.28" y="187.82" width="47.74" height="47.4" transform="translate(2294.3 423.03) rotate(-180)"/><polygon class="cls-4" points="1123.28 170.16 1123.28 188.18 1171.02 188.18 1180.6 188.18 1180.6 184.22 1123.28 170.16"/><rect class="cls-6" x="1150.32" y="191.96" width="17.12" height="16.57" transform="translate(2317.77 400.49) rotate(-180)"/><rect class="cls-5" x="322" y="144.58" width="47.88" height="90.71"/><polygon class="cls-4" points="369.88 126.85 369.88 144.87 322 144.87 312.4 144.87 312.4 140.9 369.88 126.85"/><rect class="cls-6" x="325.36" y="192.04" width="17.12" height="16.57"/><rect class="cls-5" x="369.52" y="144.79" width="47.74" height="90.71" transform="translate(786.79 380.29) rotate(-180)"/><polygon class="cls-4" points="369.52 126.77 369.52 144.79 417.27 144.79 426.84 144.79 426.84 140.82 369.52 126.77"/><rect class="cls-6" x="396.56" y="152.09" width="17.12" height="16.57" transform="translate(810.25 320.76) rotate(-180)"/><rect class="cls-1" x="153.74" y="131.46" width="123.66" height="103.84"/><rect class="cls-3" x="163.75" y="126.41" width="103.65" height="5.04"/><rect class="cls-6" x="172.73" y="142.02" width="17.12" height="16.57"/><rect class="cls-6" x="172.73" y="190.25" width="17.12" height="16.57"/><rect class="cls-1" x="19.76" y="177.22" width="47.88" height="54.07"/><rect class="cls-6" x="23.12" y="188.04" width="17.12" height="16.57"/><rect class="cls-1" x="67.28" y="177.13" width="47.74" height="54.07" transform="translate(182.3 408.33) rotate(-180)"/><rect class="cls-6" x="94.32" y="187.96" width="17.12" height="16.57" transform="translate(205.77 392.49) rotate(-180)"/><rect class="cls-5" x="1888.01" y="144.94" width="47.88" height="90.71"/><polygon class="cls-4" points="1935.89 127.93 1935.89 145.95 1888.01 145.95 1878.4 145.95 1878.4 141.98 1935.89 127.93"/><rect class="cls-6" x="1891.36" y="192.04" width="17.12" height="16.57"/><rect class="cls-5" x="1935.17" y="144.79" width="47.74" height="90.71" transform="translate(3918.08 380.29) rotate(-180)"/><polygon class="cls-4" points="1935.53 127.85 1935.53 145.87 1983.27 145.87 1992.85 145.87 1992.85 141.9 1935.53 127.85"/><rect class="cls-6" x="1962.57" y="152.09" width="17.12" height="16.57" transform="translate(3942.26 320.76) rotate(-180)"/><rect class="cls-1" x="2559.44" y="187.9" width="47.88" height="47.4"/><polygon class="cls-4" points="2607.31 170.25 2607.31 188.26 2559.43 188.26 2549.83 188.26 2549.83 184.29 2607.31 170.25"/><rect class="cls-6" x="2562.79" y="192.04" width="17.12" height="16.57"/><rect class="cls-1" x="2606.95" y="187.82" width="47.74" height="47.4" transform="translate(5261.65 423.03) rotate(-180)"/><polygon class="cls-4" points="2606.95 170.16 2606.95 188.18 2654.7 188.18 2664.28 188.18 2664.28 184.22 2606.95 170.16"/><rect class="cls-6" x="2634" y="191.96" width="17.12" height="16.57" transform="translate(5285.11 400.49) rotate(-180)"/><rect class="cls-5" x="2722.01" y="144.94" width="47.88" height="90.71"/><polygon class="cls-4" points="2769.89 127.93 2769.89 145.95 2722.01 145.95 2712.4 145.95 2712.4 141.98 2769.89 127.93"/><rect class="cls-6" x="2725.36" y="192.04" width="17.12" height="16.57"/><rect class="cls-5" x="2769.17" y="144.79" width="47.74" height="90.71" transform="translate(5586.08 380.29) rotate(-180)"/><polygon class="cls-4" points="2769.53 127.85 2769.53 145.87 2817.27 145.87 2826.85 145.87 2826.85 141.9 2769.53 127.85"/><rect class="cls-6" x="2796.57" y="152.09" width="17.12" height="16.57" transform="translate(5610.26 320.76) rotate(-180)"/><rect class="cls-7" y="230.81" width="3000" height="219.19"/><rect class="cls-1" x="1722.8" y="173.41" width="100.67" height="3.82"/><rect class="cls-1" x="17.12" y="173.41" width="100.67" height="3.82"/></svg>