<?xml version="1.0" encoding="utf-8"?>
<!-- Generator: Adobe Illustrator 26.0.0, SVG Export Plug-In . SVG Version: 6.00 Build 0)  -->
<svg version="1.1" id="Capa_1" xmlns="http://www.w3.org/2000/svg" xmlns:xlink="http://www.w3.org/1999/xlink" x="0px" y="0px"
	 viewBox="0 0 3000 450" style="enable-background:new 0 0 3000 450;" xml:space="preserve">
<style type="text/css">
	.st0{fill:#000019;}
	.st1{fill:#000011;}
	.st2{fill:#E7BB70;}
	.st3{fill:#0C0D16;}
	.st4{fill:#00000F;}
</style>
<path class="st0" d="M1617.2,133.3c-0.1,2,0.4,2.8,2.6,2.8c6.4-0.1,12.8-0.1,19.3,0c1.7,0,2.3-0.5,2.2-2.2c-0.1-16.7,0-22.2,0-38.9
	c0-1.3,0-3.7,0-12c-1.8-7.5-8.2-16.1-11.9-22.9c-2-3.6-1.1-7.3-1-11c0-2.1,2.7-0.1,3.6-1.5c-1.3-0.6-3.5-0.2-4.4-1.6
	c-0.5-0.8,0.5-3-0.2-4.5c-1.2,1.7,0,3.6-0.8,4.8c-1,1.4-3.1-0.1-4.4,1c0,1,0.8,0.9,1.3,0.8c2.8-0.5,3.4,0.7,3.4,3.4
	c0.2,4-0.7,8.1-2.5,11.6c-1.6,3-2.7,6.4-4.4,9.4c-3.7,6.3-5.4,13.6-4.7,20.9C1615.5,95.3,1617.3,128.8,1617.2,133.3z"/>
<path class="st1" d="M1308.7,169.9l-0.2,43.8c0,0,55.1-0.2,72.1-0.1l0.7-115.4c0,0-2.6-3.2-4.4-3.1c-8.3,0.1-16.7,0-25,0
	c-0.8-0.1-1.6,0.1-2.3,0.4c-7.2,4.2-14.3,8.4-21.5,12.7l0.1,0.8c1.7,0,3.4,0.1,5.2,0c1.4-0.1,2,0.4,1.9,1.9c-0.1,2.7-0.1,5.5,0,8.2
	c0.1,1.7-0.7,2-2.2,1.9c-2.7-0.1-5.4,0.2-8.1-0.1c-3.2-0.3-5.4,0.8-7.5,3.1c-5.7,6.3-11.7,12.3-18.2,19c3.4,0,9.5-1,9.5,2.5
	L1308.7,169.9z"/>
<path class="st2" d="M1340.3,162.8h9.1l0,0v6.2c0,2.5-2,4.6-4.6,4.6l0,0l0,0c-2.5,0-4.6-2-4.6-4.6c0,0,0,0,0,0L1340.3,162.8
	L1340.3,162.8L1340.3,162.8z"/>
<ellipse class="st2" cx="1344.8" cy="162.8" rx="4.6" ry="4.5"/>
<path class="st2" d="M1357.4,162.8h9.1l0,0v6.2c0,2.5-2,4.6-4.6,4.6l0,0l0,0c-2.5,0-4.6-2-4.6-4.6c0,0,0,0,0,0L1357.4,162.8
	L1357.4,162.8z"/>
<ellipse class="st2" cx="1362" cy="162.8" rx="4.6" ry="4.5"/>
<path class="st2" d="M1340.3,184.3h9.1l0,0v6.2c0,2.5-2,4.6-4.6,4.6l0,0l0,0c-2.5,0-4.6-2-4.6-4.6c0,0,0,0,0,0L1340.3,184.3
	L1340.3,184.3z"/>
<ellipse class="st2" cx="1344.8" cy="184.3" rx="4.6" ry="4.5"/>
<path class="st1" d="M1445,114c-8.4,0.8-5.6,6.7-4.4,7.6c1.4,1.1,1.4,2.4,1.4,4c0,3.9,0,20.7,0,24.5c0,2.9-4.7,3.9-7.4,2.6
	c-0.4-0.2-0.4-14.1-0.4-14.1s-29.5,0.3-30.4,0.2c-2.9-0.3-2.4,1.5-2.4,3.2c0,3.3-0.1,6.7,0,10.1c0.1,1.9-0.6,2.5-2.4,2.3
	c-0.8-0.1-17.8,0.4-18.6,0.5l-0.4,56.3c-0.2,2.5,1.1,2.5,2.9,2.5l215,0.2v-59.1c-0.1-1.4-13.4,0.4-13.5-1.5
	c-0.1-1.9-0.2-13.9-0.2-13.9l-35.3,0.4c0,0,0.3,11.2,0.3,13.7s-3.9,1.7-5,1.7s-2.1-21.2-2.1-31c-0.1-1,0.5-1.9,1.4-2.4
	c0.7-0.4,1.9-2.9,1.7-3.8c-0.4-3.3-4.8-3.7-6-3.8"/>
<path class="st0" d="M1398,154.5l-1.1,0C1397.3,154.6,1397.7,154.5,1398,154.5z"/>
<path class="st0" d="M1539.2,114.2c-4.9-0.3-5.3-0.9-6.3-5.8c-3.2-15.3-11.6-26.8-25.6-34.3c-1.6-0.9-2.9-1.7-3-3.6
	c0-0.5-0.2-1-0.6-1.3c-3.3-2.4-3-5.9-3-9.4c0.1-7.2,0-14.4,0.1-21.6c0-2-1.5-8.4-5.1-8.4c-2.8-1.6-2.5-3.4-2.6-5.4
	c-0.2-3.7-1.3-7.2-1.1-11c0.1-1.6,0.1-3,2.3-2.7c0.8,0.1,1.4-0.2,1.3-1.1c-0.1-0.6,0.3-1.8-0.6-1.8c-4.4,0.3-2.9-2.8-3-4.9h-3
	c0,0.9,0,1.8,0.1,2.7c0.2,1.7-0.5,2.3-2.2,2.1c-1-0.1-2.3-0.4-2.4,1.4c-0.1,2,1.3,1.7,2.4,1.6c1.8-0.2,2,0.8,2.2,2.3
	c0.7,5-1.7,9.6-1.4,14.5c0.1,1.4-1.8,1.5-2.4,2.3c-4.4,0-5.8,7.6-5.5,12.9c0.5,7,0.1,14,0.2,21c0.1,1.5-0.4,3-1.5,4
	c-1.1,1-2,2.2-1.7,3.9c0.2,1.1-0.7,1.5-1.5,1.9c-15,8-23.8,20.3-26.2,37c-0.4,2.7-1.3,3.4-4.4,3.7c-8.4,0.8-5.6,6.7-4.4,7.6
	c1.4,1.1,1.4,0.4,1.4,2l100.2,0.4c-0.1-1,0.5-1.9,1.4-2.4c0.7-0.4,1.9-2.9,1.7-3.8C1544.8,114.7,1540.5,114.3,1539.2,114.2z
	 M1486.9,63.4c0,1.2-0.3,2.3-1.8,2.2c-1.2-0.1-1.5-1.1-1.5-2.1c-0.2-7.6-0.3-15.2-0.4-22.8c0-1.3,0.6-2.7,2.1-2.8
	c1.5,0,1.7,1.5,1.7,2.7c0,3.8,0,7.5,0,11.2S1486.9,59.6,1486.9,63.4z M1491.9,62.8L1491.9,62.8c0,1.3,0,2.9-1.8,2.9
	c-1.8,0-1.7-1.6-1.7-2.9c0-4.7,0-9.5,0-14.2s0-9.5,0-14.2c0-1.2-0.2-2.9,1.6-2.9c1.9,0,2.1,1.6,2.1,3
	C1492.2,43.8,1492.1,53.3,1491.9,62.8z M1496.8,63.1L1496.8,63.1c0,1.2-0.3,2.6-1.9,2.6s-1.7-1.4-1.7-2.6c0-3.7,0-7.5,0-11.2
	s0-7.6,0-11.5c0-1.1,0.2-2.1,1.4-2.3c1.4-0.2,1.8,0.9,2.2,2C1497,40.4,1496.8,59.4,1496.8,63.1z"/>
<path class="st0" d="M1586.7,138.9c-3.4-2.1-4.5-3.2-5.4-6.3c-1.1-3.8-3.5-7-6.8-9.1c-3.2-2-4.4-4.9-4.4-8.4c0-1.6,0-3.2,0-4.7
	c0.1-1.4-0.4-2.7-1.4-3.6c-1.5-1.4-2.4-3.8-1-5.7c1.1-1.4-1.1-1.2-0.6-2c-1-0.5-0.7,0.8-1.4,1c-1.7,0.6,0.2,0.6,0.3,1
	c1.3,2.2-0.2,4.1-1.2,5.5c-0.9,1.2-1.3,2.6-1.3,4c-0.2,2.8,0.5,5.6-0.8,8.4c-0.7,1.7-1.9,3.2-3.4,4.3c-3.9,2.5-6.6,6.5-7.6,11
	c-0.5,2.2-1.2,3.6-3.8,4.1s-2.8,4,0,4.5c4.1,0.6,38.4,0.4,39.3-0.4C1587.8,141.9,1588.9,140.2,1586.7,138.9z"/>
<path class="st0" d="M1436.5,138.9c-3.4-2.1-4.5-3.2-5.4-6.3c-1.1-3.8-3.5-7-6.8-9.1c-3.2-2-4.4-4.9-4.4-8.4c0-1.6,0-3.2,0-4.7
	c0.1-1.4-0.4-2.7-1.4-3.6c-1.5-1.4-2.4-3.8-1-5.7c1.1-1.4-1.1-1.2-0.6-2c-1-0.5-0.7,0.8-1.4,1c-1.7,0.6,0.2,0.6,0.3,1
	c1.3,2.2-0.2,4.1-1.2,5.5c-0.9,1.2-1.3,2.6-1.3,4c-0.2,2.8,0.5,5.6-0.8,8.4c-0.7,1.7-1.9,3.2-3.4,4.3c-3.9,2.5-5.6,6.5-6.6,11
	c-0.5,2.2-1.2,3.6-3.8,4.1s-2.8,4,0,4.5c4.1,0.6,37.4,0.4,38.3-0.4C1437.6,141.9,1438.7,140.2,1436.5,138.9z"/>
<path class="st1" d="M1766.2,168.3c0-2.6-1.3-2.4-3-2.4c-16.6,0-33.1-0.1-49.6,0.1c-3.2,0-3.8-1-3.7-4c0.2-8.7,0.1-17.4,0-26.2
	c0-2,0.5-2.7,2.5-2.6c5.3,0.1,10.6,0,16.8,0c-3.2-3.7-5.9-6.8-8.7-9.8c-0.8-0.8-1.9-0.4-2.9-0.4c-10.6,0-21.3-0.1-31.9,0.1
	c-2.8,0-3.3-0.8-3.2-3.4c0.2-6.4,0.1-12.7,0-19.1c0-1.9,0.5-2.5,2.4-2.4c3.2,0.1,6.3,0,10.5,0c-3.9-4.4-18.6-12.9-21.3-12.9
	c-12.8,0.1-25.7,0.1-38.5,0c-1.9-0.1-3.8,0.6-5.1,2c-2.5,2.6-5.3,5-8.7,8.2c3.7,0,6.5,0.1,9.3,0c1.5-0.1,2.1,0.4,2.1,2.1
	c-0.1,3.8-0.2,7.6,0,11.4c0.1,2.3-0.9,2.7-2.8,2.6c-6.2-0.1-12.4,0-18.7-0.1c-1.4-0.1-2.8,0.5-3.5,1.7c-3.5,4.6-7.1,9.1-11.2,14.3
	c2,0,3.3,0.1,4.5,0c2.1-0.2,3,0.3,2.9,2.8c-0.2,6.4-0.1,12.7,0,19.1c0,1.9-5.8,4.1-7.4,5v59.6c1.9,0,15.2-0.7,16.6-2.2
	c20.8-24,46.7-36.1,78.3-33.7c26.1,2,47.3,14.1,64.4,34.1c1.1,1.3,8.3,2.5,9.5,1.5c0.7-0.5,0.4-1.3,0.4-2
	C1766.1,197,1766.1,182.6,1766.2,168.3z M1609.9,198c0,1.9-0.9,3.5-3.1,3.3s-2.8-1.6-2.8-3.6c0-3.9,0-7.8,0-11.7s0-7.8,0-11.7
	c0-1.9,0.7-3.2,2.6-3.5c2.2-0.2,3.2,1.3,3.3,3.2C1610,182,1610,190,1609.9,198z M1620.8,188.4c-0.1,2-1,3.4-3.1,3.4
	c-1.9-0.1-2.8-1.4-2.8-3.3c0-4.7,0-9.4,0-14.1c0-2,0.6-3.5,2.9-3.5s2.9,1.4,3,3.4c0,2.4,0,4.7,0,7.1S1620.8,186.1,1620.8,188.4
	L1620.8,188.4z M1630.6,182.2c0,1.5-1.2,2.7-2.6,2.7c0,0-0.1,0-0.1,0c-1.4,0.2-2.6-0.8-2.8-2.2c0,0,0,0,0,0c-0.4-3.1-0.4-6.3,0-9.4
	c0.1-1.4,1.3-2.5,2.7-2.4c0.1,0,0.2,0,0.3,0c1.4,0,2.6,1.2,2.6,2.6c0,0.1,0,0.1,0,0.2c0.1,1.3,0,2.6,0,4
	C1630.6,179.2,1630.6,180.7,1630.6,182.2L1630.6,182.2z M1735.9,182.5c-0.1,1.4-1.3,2.5-2.7,2.4c-0.1,0-0.2,0-0.2,0
	c-1.5,0-2.6-1.3-2.6-2.7c0,0,0-0.1,0-0.1c0-2.9-0.1-5.7,0-8.5c-0.1-1.4,1-2.6,2.4-2.7c0.1,0,0.2,0,0.3,0c1.4-0.2,2.6,0.8,2.8,2.1
	c0,0,0,0,0,0.1c0.3,1.6,0.3,3.2,0.4,4.8C1736.1,179.5,1736.1,181,1735.9,182.5L1735.9,182.5z M1745.5,188.1c0,2.1-0.8,3.8-3,3.7
	c-2-0.1-2.9-1.6-2.9-3.6c0-4.6,0-9.2,0-13.8c0-1.9,0.7-3.5,2.9-3.5c2.4,0,3,1.6,3,3.7c0,2.2,0,4.5,0,6.8S1745.5,185.8,1745.5,188.1
	L1745.5,188.1z M1753.6,201.3c-2.3,0.1-3-1.6-3-3.6c0-3.8,0-7.6,0-11.4c0-4,0-8,0-12c0-2,0.8-3.5,2.9-3.5s2.9,1.5,2.8,3.5
	c0,7.8,0,15.6,0,23.3C1756.3,199.7,1755.7,201.2,1753.6,201.3L1753.6,201.3z"/>
<rect x="1688" y="142.1" class="st2" width="10.9" height="16.9"/>
<path class="st1" d="M1295.7,179.4c-1.1,0-1.8-0.1-2.2-0.6h-3.5c-0.5,0.3-1.1,0.5-1.6,0.4c-2.9-0.1-5.8-0.1-8.7,0
	c-1,0-1.6-0.2-2-0.7c-1,0-1.9,0.1-2.9,0.2c-0.5,0.4-1.1,0.6-1.7,0.5c-3-0.1-6-0.1-9,0c-0.6,0.1-1.2-0.1-1.6-0.4
	c-1,0.1-2.1,0.4-3,0.3c-0.6,0.3-1.4,0.4-2.1,0.3c-7.8,0-15.7,0.1-23.5-0.1c-2.3,0-2.9,0.6-2.8,2.8c0.1,9.7,0,48.8,0,48.8
	s57.3-12.2,81.3-17.3v-34.3C1309.2,179.3,1298.9,179.2,1295.7,179.4z M1238.7,187.2c0,0.8-0.7,1.5-1.5,1.5h-0.8
	c-0.8,0-1.5-0.7-1.5-1.5v-4.5c0-0.8,0.7-1.5,1.5-1.5h0.8c0.8,0,1.5,0.7,1.5,1.5V187.2z M1245.7,187.2c0,0.8-0.7,1.5-1.5,1.5h-0.8
	c-0.8,0-1.5-0.7-1.5-1.5v-4.5c0-0.8,0.7-1.5,1.5-1.5h0.8c0.8,0,1.5,0.7,1.5,1.5V187.2z M1252.8,187.2c0,0.8-0.7,1.5-1.5,1.5h-0.8
	c-0.8,0-1.5-0.7-1.5-1.5v-4.5c0-0.8,0.7-1.5,1.5-1.5h0.8c0.8,0,1.5,0.7,1.5,1.5V187.2z M1259.8,187.2c0,0.8-0.7,1.5-1.5,1.5h-0.8
	c-0.8,0-1.5-0.7-1.5-1.5v-4.5c0-0.8,0.7-1.5,1.5-1.5h0.8c0.8,0,1.5,0.7,1.5,1.5V187.2z M1266.9,187.2c0,0.8-0.7,1.5-1.5,1.5h-0.8
	c-0.8,0-1.5-0.7-1.5-1.5v-4.5c0-0.8,0.7-1.5,1.5-1.5h0.8c0.8,0,1.5,0.7,1.5,1.5V187.2z M1286.9,187.2c0,0.8-0.7,1.5-1.5,1.5h-0.8
	c-0.8,0-1.5-0.7-1.5-1.5v-4.5c0-0.8,0.7-1.5,1.5-1.5h0.8c0.8,0,1.5,0.7,1.5,1.5V187.2z M1293.9,187.2c0,0.8-0.7,1.5-1.5,1.5h-0.8
	c-0.8,0-1.5-0.7-1.5-1.5v-4.5c0-0.8,0.7-1.5,1.5-1.5h0.8c0.8,0,1.5,0.7,1.5,1.5V187.2z M1301,187.2c0,0.8-0.7,1.5-1.5,1.5h-0.8
	c-0.8,0-1.5-0.7-1.5-1.5v-4.5c0-0.8,0.7-1.5,1.5-1.5h0.8c0.8,0,1.5,0.7,1.5,1.5V187.2z M1308,187.2c0,0.8-0.7,1.5-1.5,1.5h-0.8
	c-0.8,0-1.5-0.7-1.5-1.5v-4.5c0-0.8,0.7-1.5,1.5-1.5h0.8c0.8,0,1.5,0.7,1.5,1.5V187.2z"/>
<path class="st0" d="M1262.1,177.1c0.1-2.6,0-5.1,0-7.7h-0.1c0-1.3,0-2.6,0-3.8s-0.2-2.8-0.2-4.1c0.1-3,2.1-5.5,5-6.3
	c3-0.8,6.6,0.5,7.9,2.9c0.9,3.8,0.5,3.6,0.5,3.6l-5.6,0.1c-0.8,0.1-1.4,0.9-1.4,1.7c-0.1,1,0.6,1.1,1.3,1.1c1.1,0,2.2,0.1,3.3,0
	c1.7-0.2,2.5,0.3,2.4,2.2c-0.1,3.3-0.1,6.7,0,10c0.1,0.6-0.1,1.3-0.4,1.8c1-0.1,1.9-0.2,2.9-0.2c-0.3-0.5-0.4-1-0.3-1.5
	c0.2-3.1,0.2-6.1,0-9.2c-0.2-2.6,0.1-3.2,3.3-3.2s3.5,0.3,3.5-1.4s-6.6-1.5-6.6-1.5s-0.3-2.9,0.7-4.2c1.9-2.2,4.9-3,7.6-2.2
	c2.7,1,4.6,2.8,4.7,5.8c0.1,1.8-0.3,12.4-0.2,15.9c0.1,0.6-0.1,1.2-0.5,1.6h3.4c-0.3-0.6-0.5-1.2-0.4-1.9c0.1-4.7,0.1-9.5,0-14.2
	c0-1.9,0.7-2.4,2.4-2.3c1.6,0.1,3.1,0,5.6,0c-2.3-1.8-3.9-3-5.5-4.2c-5.7-4.3-11.5-8.5-17.2-12.9c-1.5-1.1-2.5-1.3-4.1-0.1
	c-7.4,5.6-15,11.1-23.3,17.2c3,0,5.1,0.1,7.3,0c1.3,0,1.8,0.4,1.8,1.7c0,5.1-0.1,10.3,0,15.4c0.1,0.6-0.1,1.2-0.6,1.5
	c1,0,2-0.3,3-0.3C1262.1,178.2,1262,177.7,1262.1,177.1z"/>
<circle class="st2" cx="1344.8" cy="111.8" r="4.6"/>
<polygon class="st1" points="695,280.2 1231.1,229.9 1308.5,212.7 1766.7,212.4 2303.3,280.2 2303.3,336.8 695,336.8 "/>
<rect x="2008.3" y="195.9" class="st3" width="2.4" height="46.4"/>
<rect x="2007.2" y="240" class="st3" width="4.6" height="2.3"/>
<ellipse class="st2" cx="2009.4" cy="195.4" rx="2.9" ry="2.7"/>
<rect x="1039.9" y="202.1" class="st3" width="2.4" height="46.4"/>
<rect x="1038.9" y="246.2" class="st3" width="4.6" height="2.3"/>
<ellipse class="st2" cx="1041.1" cy="201.5" rx="2.9" ry="2.7"/>
<rect x="980.9" y="222.6" class="st1" width="31.9" height="31"/>
<polygon class="st1" points="1012.9,210.1 1012.9,222.6 1010.2,222.6 978.2,222.6 975.5,222.6 "/>
<rect x="1101.7" y="213.8" class="st1" width="31.9" height="31"/>
<polygon class="st1" points="1101.6,201.3 1101.6,213.8 1104.4,213.8 1136.3,213.8 1139,213.8 "/>
<rect x="1069.9" y="213.8" class="st1" width="31.9" height="31"/>
<polygon class="st1" points="1101.9,201.3 1101.9,213.8 1099.2,213.8 1067.2,213.8 1064.5,213.8 "/>
<rect x="2236.8" y="246.9" class="st1" width="31.9" height="31"/>
<polygon class="st1" points="2236.7,234.4 2236.7,246.9 2239.4,246.9 2271.3,246.9 2274.1,246.9 "/>
<rect x="2049.1" y="222.5" class="st1" width="31.9" height="31"/>
<polygon class="st1" points="2049,210 2049,222.5 2051.7,222.5 2083.6,222.5 2086.4,222.5 "/>
<rect x="2128.9" y="234.4" class="st1" width="31.9" height="31"/>
<polygon class="st1" points="2161,221.9 2161,234.4 2158.2,234.4 2126.3,234.4 2123.6,234.4 "/>
<rect x="2160.8" y="234.4" class="st1" width="31.9" height="31"/>
<polygon class="st1" points="2160.7,221.9 2160.7,234.4 2163.4,234.4 2195.4,234.4 2198.1,234.4 "/>
<rect x="1166.5" y="205.2" class="st1" width="31.9" height="31"/>
<polygon class="st1" points="1198.5,192.7 1198.5,205.2 1195.8,205.2 1163.8,205.2 1161.1,205.2 "/>
<rect x="916.2" y="233.8" class="st1" width="31.9" height="31"/>
<polygon class="st1" points="916,221.3 916,233.8 918.8,233.8 950.7,233.8 953.4,233.8 "/>
<rect x="884.3" y="233.8" class="st1" width="31.9" height="31"/>
<polygon class="st1" points="916.3,221.3 916.3,233.8 913.6,233.8 881.7,233.8 878.9,233.8 "/>
<rect x="724.4" y="212.4" class="st1" width="113.6" height="65.7"/>
<rect x="732.2" y="207.5" class="st1" width="98" height="5.2"/>
<rect x="1858.4" y="173.3" class="st1" width="113.6" height="65.7"/>
<rect x="1866.2" y="168.4" class="st1" width="98" height="5.2"/>
<rect x="817.8" y="219.1" class="st2" width="10.2" height="10.2"/>
<rect x="2135.6" y="239.8" class="st2" width="10.2" height="10.2"/>
<rect x="1169.3" y="211.1" class="st2" width="10.2" height="10.2"/>
<rect x="1865.8" y="183.7" class="st2" width="10.2" height="10.2"/>
<polygon class="st4" points="3000,450 0,450 696.7,280.1 2305,280.1 "/>
<rect x="1488.4" y="74.8" class="st1" width="5" height="46.3"/>
<path class="st1" d="M1482.8,74.8c0,0-25,13.7-25.2,44.9h-5c0,0-2.3-32.3,27.1-45.7L1482.8,74.8z"/>
<path class="st1" d="M1499.1,74.8c0,0,25,13.7,25.2,44.9h5c0,0,2.3-32.3-27.1-45.7L1499.1,74.8z"/>
<path class="st1" d="M1488.3,74.8c0,0-15,13.7-15.2,44.9h-5c0,0,0.2-31.4,16.1-44.7L1488.3,74.8z"/>
<path class="st1" d="M1494,74.8c0,0,15,13.7,15.2,44.9h5c0,0-0.2-31.4-16.1-44.7L1494,74.8z"/>
<g>
	<rect x="1416.2" y="123.1" class="st1" width="1.9" height="17.5"/>
	<path class="st1" d="M1414.1,123.1c0,0-9.4,5.2-9.5,17h-1.9c0,0-0.9-12.2,10.2-17.2L1414.1,123.1z"/>
	<path class="st1" d="M1420.3,123.1c0,0,9.4,5.2,9.5,17h1.9c0,0,0.9-12.2-10.2-17.2L1420.3,123.1z"/>
	<path class="st1" d="M1416.2,123.1c0,0-5.7,5.2-5.7,17h-1.9c0,0,0.1-11.8,6.1-16.9L1416.2,123.1z"/>
	<path class="st1" d="M1418.3,123.1c0,0,5.7,5.2,5.7,17h1.9c0,0-0.1-11.8-6.1-16.9L1418.3,123.1z"/>
</g>
<g>
	<rect x="1566" y="123.1" class="st1" width="1.9" height="17.5"/>
	<path class="st1" d="M1563.8,123.1c0,0-9.4,5.2-9.5,17h-1.9c0,0-0.9-12.2,10.2-17.2L1563.8,123.1z"/>
	<path class="st1" d="M1570,123.1c0,0,9.4,5.2,9.5,17h1.9c0,0,0.9-12.2-10.2-17.2L1570,123.1z"/>
	<path class="st1" d="M1565.9,123.1c0,0-5.7,5.2-5.7,17h-1.9c0,0,0.1-11.8,6.1-16.9L1565.9,123.1z"/>
	<path class="st1" d="M1568.1,123.1c0,0,5.7,5.2,5.7,17h1.9c0,0-0.1-11.8-6.1-16.9L1568.1,123.1z"/>
</g>
</svg>
