<?xml version="1.0" encoding="utf-8"?>
<!-- Generator: Adobe Illustrator 26.0.0, SVG Export Plug-In . SVG Version: 6.00 Build 0)  -->
<svg version="1.1" id="Capa_1" xmlns="http://www.w3.org/2000/svg" xmlns:xlink="http://www.w3.org/1999/xlink" x="0px" y="0px"
	 viewBox="0 0 3000 450" style="enable-background:new 0 0 3000 450;" xml:space="preserve">
<style type="text/css">
	.st0{fill:#0E0E1C;}
	.st1{fill:#15151C;}
	.st2{fill:#020E21;}
	.st3{fill:#0C0B10;}
	.st4{fill:#05051E;}
	.st5{fill:#E7BB70;}
	.st6{fill:#0B0C12;}
</style>
<rect x="821.3" y="33.5" class="st0" width="90.2" height="15.2"/>
<rect x="532.8" y="4.9" class="st0" width="99.6" height="230.4"/>
<rect x="482.6" y="131.5" class="st1" width="50.2" height="103.8"/>
<rect x="490.9" y="126.4" class="st2" width="41.9" height="5"/>
<rect x="656.9" y="119" class="st3" width="5.9" height="116.3"/>
<rect x="654.2" y="224.7" class="st3" width="11.5" height="5.8"/>
<rect x="685.2" y="43.3" class="st0" width="99" height="192"/>
<path class="st4" d="M800.3,235.3H693.6V101.1h106.7V235.3z"/>
<rect x="729.8" y="187.9" class="st1" width="70.5" height="47.4"/>
<polygon class="st3" points="800.3,169.9 800.3,187.9 729.8,187.9 715.6,187.9 715.6,183.9 "/>
<rect x="690.3" y="94.7" class="st2" width="110" height="6.4"/>
<rect x="693.6" y="38" class="st2" width="81.2" height="7.2"/>
<rect x="733.3" y="15" class="st2" width="1.4" height="24.6"/>
<rect x="2099.7" y="18.3" class="st2" width="1.4" height="24.6"/>
<rect x="541.3" class="st2" width="84.1" height="6.7"/>
<rect x="920.5" y="9.2" class="st4" width="100.1" height="226.1"/>
<rect x="800.3" y="51.8" class="st0" width="136" height="183.5"/>
<rect x="929.6" y="4.9" class="st2" width="82.6" height="6.1"/>
<rect x="2050.6" y="45.2" class="st0" width="102.2" height="190.1"/>
<rect x="2060" y="41.1" class="st2" width="82.3" height="7.6"/>
<rect x="2152.8" y="126.4" class="st1" width="49.9" height="108.9"/>
<rect x="2152.8" y="120.1" class="st2" width="41.4" height="6.3"/>
<rect x="2152.8" y="115.1" class="st2" width="30.9" height="5"/>
<ellipse class="st5" cx="659.8" cy="117.5" rx="7.4" ry="6.7"/>
<rect x="1508.8" y="119" class="st3" width="5.9" height="116.3"/>
<rect x="1506.2" y="225.7" class="st3" width="11.5" height="5.8"/>
<ellipse class="st5" cx="1511.8" cy="117.5" rx="7.4" ry="6.7"/>
<rect x="2026.5" y="119" class="st3" width="5.9" height="116.3"/>
<rect x="2023.9" y="225.7" class="st3" width="11.5" height="5.8"/>
<ellipse class="st5" cx="2029.5" cy="117.5" rx="7.4" ry="6.7"/>
<rect x="812.8" y="59.4" class="st5" width="17.1" height="16.6"/>
<rect x="869" y="59.4" class="st5" width="17.1" height="16.6"/>
<rect x="840" y="86.6" class="st5" width="17.1" height="16.6"/>
<rect x="546.5" y="15" class="st5" width="17.1" height="16.6"/>
<rect x="546.7" y="45.3" class="st5" width="17.1" height="16.6"/>
<rect x="596.6" y="108.6" class="st5" width="17.1" height="16.6"/>
<rect x="734.8" y="59.4" class="st5" width="17.1" height="16.6"/>
<rect x="709.2" y="108.6" class="st5" width="17.1" height="16.6"/>
<rect x="501.6" y="142" class="st5" width="17.1" height="16.6"/>
<rect x="899.8" y="143.8" class="st5" width="17.1" height="16.6"/>
<rect x="983.6" y="22.7" class="st5" width="17.1" height="16.6"/>
<rect x="983.6" y="59.1" class="st5" width="17.1" height="16.6"/>
<rect x="983.6" y="124.3" class="st5" width="17.1" height="16.6"/>
<rect x="2063.8" y="89" class="st5" width="17.1" height="16.6"/>
<rect x="2063.8" y="156.8" class="st5" width="17.1" height="16.6"/>
<rect x="2164.7" y="138.7" class="st5" width="17.1" height="16.6"/>
<rect x="2164.7" y="174.8" class="st5" width="17.1" height="16.6"/>
<rect x="820.4" y="178.6" class="st5" width="17.1" height="16.6"/>
<rect x="756.2" y="192" class="st5" width="17.1" height="16.6"/>
<rect x="1545.5" y="187.9" class="st0" width="47.9" height="47.4"/>
<polygon class="st3" points="1593.3,170.2 1593.3,188.3 1545.5,188.3 1535.9,188.3 1535.9,184.3 "/>
<rect x="1548.8" y="192" class="st5" width="17.1" height="16.6"/>
<rect x="804.9" y="43.3" class="st2" width="124.7" height="10.8"/>
<rect x="1593" y="187.8" class="st0" width="47.7" height="47.4"/>
<polygon class="st3" points="1593,170.2 1593,188.2 1640.7,188.2 1650.3,188.2 1650.3,184.2 "/>
<rect x="1620" y="192" class="st5" width="17.1" height="16.6"/>
<rect x="1725.4" y="177.2" class="st0" width="47.9" height="58.1"/>
<rect x="1728.8" y="192" class="st5" width="17.1" height="16.6"/>
<rect x="1773" y="177.1" class="st0" width="47.7" height="58.1"/>
<rect x="1800" y="192" class="st5" width="17.1" height="16.6"/>
<rect x="1382" y="144.6" class="st4" width="47.9" height="90.7"/>
<polygon class="st3" points="1429.9,126.8 1429.9,144.9 1382,144.9 1372.4,144.9 1372.4,140.9 "/>
<rect x="1385.4" y="192" class="st5" width="17.1" height="16.6"/>
<rect x="1429.5" y="144.8" class="st4" width="47.7" height="90.7"/>
<polygon class="st3" points="1429.5,126.8 1429.5,144.8 1477.3,144.8 1486.8,144.8 1486.8,140.8 "/>
<rect x="1456.6" y="152.1" class="st5" width="17.1" height="16.6"/>
<rect x="1199.7" y="131.5" class="st0" width="123.7" height="103.8"/>
<rect x="1209.8" y="126.4" class="st2" width="103.7" height="5"/>
<rect x="1039.1" y="119" class="st3" width="5.9" height="116.3"/>
<rect x="1036.5" y="224.7" class="st3" width="11.5" height="5.8"/>
<ellipse class="st5" cx="1042.1" cy="117.5" rx="7.4" ry="6.7"/>
<rect x="1218.7" y="142" class="st5" width="17.1" height="16.6"/>
<rect x="1218.7" y="190.2" class="st5" width="17.1" height="16.6"/>
<rect x="2511.9" y="119" class="st3" width="5.9" height="116.3"/>
<rect x="2509.2" y="225.7" class="st3" width="11.5" height="5.8"/>
<ellipse class="st5" cx="2514.8" cy="117.5" rx="7.4" ry="6.7"/>
<rect x="2385" y="144.6" class="st4" width="47.9" height="90.7"/>
<polygon class="st3" points="2432.9,126.8 2432.9,144.9 2385,144.9 2375.4,144.9 2375.4,140.9 "/>
<rect x="2388.4" y="192" class="st5" width="17.1" height="16.6"/>
<rect x="2432.6" y="144.8" class="st4" width="47.7" height="90.7"/>
<polygon class="st3" points="2432.6,126.8 2432.6,144.8 2480.3,144.8 2489.9,144.8 2489.9,140.8 "/>
<rect x="2459.6" y="152.1" class="st5" width="17.1" height="16.6"/>
<rect x="2228.7" y="131.5" class="st0" width="123.7" height="103.8"/>
<rect x="2238.7" y="126.4" class="st2" width="103.6" height="5"/>
<rect x="2247.7" y="142" class="st5" width="17.1" height="16.6"/>
<rect x="2247.7" y="190.2" class="st5" width="17.1" height="16.6"/>
<rect x="2864.7" y="131.5" class="st0" width="123.7" height="103.8"/>
<rect x="2874.7" y="126.4" class="st2" width="103.6" height="5"/>
<rect x="2883.7" y="142" class="st5" width="17.1" height="16.6"/>
<rect x="2883.7" y="190.2" class="st5" width="17.1" height="16.6"/>
<rect x="1075.8" y="187.9" class="st0" width="47.9" height="47.4"/>
<polygon class="st3" points="1123.6,170.2 1123.6,188.3 1075.8,188.3 1066.2,188.3 1066.2,184.3 "/>
<rect x="1079.1" y="192" class="st5" width="17.1" height="16.6"/>
<rect x="1123.3" y="187.8" class="st0" width="47.7" height="47.4"/>
<polygon class="st3" points="1123.3,170.2 1123.3,188.2 1171,188.2 1180.6,188.2 1180.6,184.2 "/>
<rect x="1150.3" y="192" class="st5" width="17.1" height="16.6"/>
<rect x="322" y="144.6" class="st4" width="47.9" height="90.7"/>
<polygon class="st3" points="369.9,126.8 369.9,144.9 322,144.9 312.4,144.9 312.4,140.9 "/>
<rect x="325.4" y="192" class="st5" width="17.1" height="16.6"/>
<rect x="369.5" y="144.8" class="st4" width="47.7" height="90.7"/>
<polygon class="st3" points="369.5,126.8 369.5,144.8 417.3,144.8 426.8,144.8 426.8,140.8 "/>
<rect x="396.6" y="152.1" class="st5" width="17.1" height="16.6"/>
<rect x="153.7" y="131.5" class="st0" width="123.7" height="103.8"/>
<rect x="163.8" y="126.4" class="st2" width="103.6" height="5"/>
<rect x="172.7" y="142" class="st5" width="17.1" height="16.6"/>
<rect x="172.7" y="190.2" class="st5" width="17.1" height="16.6"/>
<rect x="19.8" y="177.2" class="st0" width="47.9" height="54.1"/>
<rect x="23.1" y="188" class="st5" width="17.1" height="16.6"/>
<rect x="67.3" y="177.1" class="st0" width="47.7" height="54.1"/>
<rect x="94.3" y="188" class="st5" width="17.1" height="16.6"/>
<rect x="1888" y="144.9" class="st4" width="47.9" height="90.7"/>
<polygon class="st3" points="1935.9,127.9 1935.9,145.9 1888,145.9 1878.4,145.9 1878.4,142 "/>
<rect x="1891.4" y="192" class="st5" width="17.1" height="16.6"/>
<rect x="1935.2" y="144.8" class="st4" width="47.7" height="90.7"/>
<polygon class="st3" points="1935.5,127.8 1935.5,145.9 1983.3,145.9 1992.8,145.9 1992.8,141.9 "/>
<rect x="1962.6" y="152.1" class="st5" width="17.1" height="16.6"/>
<rect x="2559.4" y="187.9" class="st0" width="47.9" height="47.4"/>
<polygon class="st3" points="2607.3,170.2 2607.3,188.3 2559.4,188.3 2549.8,188.3 2549.8,184.3 "/>
<rect x="2562.8" y="192" class="st5" width="17.1" height="16.6"/>
<rect x="2607" y="187.8" class="st0" width="47.7" height="47.4"/>
<polygon class="st3" points="2606.9,170.2 2606.9,188.2 2654.7,188.2 2664.3,188.2 2664.3,184.2 "/>
<rect x="2634" y="192" class="st5" width="17.1" height="16.6"/>
<rect x="2722" y="144.9" class="st4" width="47.9" height="90.7"/>
<polygon class="st3" points="2769.9,127.9 2769.9,145.9 2722,145.9 2712.4,145.9 2712.4,142 "/>
<rect x="2725.4" y="192" class="st5" width="17.1" height="16.6"/>
<rect x="2769.2" y="144.8" class="st4" width="47.7" height="90.7"/>
<polygon class="st3" points="2769.5,127.8 2769.5,145.9 2817.3,145.9 2826.9,145.9 2826.9,141.9 "/>
<rect x="2796.6" y="152.1" class="st5" width="17.1" height="16.6"/>
<rect y="230.8" class="st6" width="3000" height="219.2"/>
<rect x="1722.8" y="173.4" class="st0" width="100.7" height="3.8"/>
<rect x="17.1" y="173.4" class="st0" width="100.7" height="3.8"/>
</svg>
