<?xml version="1.0" encoding="utf-8"?>
<!-- Generator: Adobe Illustrator 21.0.0, SVG Export Plug-In . SVG Version: 6.00 Build 0)  -->
<svg version="1.1" id="Capa_1" xmlns="http://www.w3.org/2000/svg" xmlns:xlink="http://www.w3.org/1999/xlink" x="0px" y="0px"
	 viewBox="0 0 3000 450" style="enable-background:new 0 0 3000 450;" xml:space="preserve">
<style type="text/css">
	.st0{fill:#0C0B10;}
	.st1{fill:#E7BB70;}
	.st2{fill:#0C1324;}
	.st3{fill:#0D1016;}
	.st4{fill:#0D1014;}
	.st5{fill:#161516;}
	.st6{fill:#0C0D11;}
	.st7{fill:#11161E;}
	.st8{fill:#151C25;}
	.st9{fill:#0B0C12;}
</style>
<title>30Mesa de trabajo 5</title>
<rect x="1282.2" y="123.8" class="st0" width="6.2" height="121.1"/>
<rect x="1279.5" y="238.8" class="st0" width="12" height="6.1"/>
<ellipse class="st1" cx="1285.3" cy="122.3" rx="7.7" ry="7"/>
<rect x="933.6" y="123.8" class="st0" width="6.2" height="121.1"/>
<rect x="930.9" y="238.8" class="st0" width="12" height="6.1"/>
<ellipse class="st1" cx="936.7" cy="122.3" rx="7.7" ry="7"/>
<rect x="2043.9" y="123.8" class="st0" width="6.2" height="121.1"/>
<rect x="2041.2" y="238.8" class="st0" width="12" height="6.1"/>
<ellipse class="st1" cx="2047" cy="122.3" rx="7.7" ry="7"/>
<rect x="1685.5" y="123.8" class="st0" width="6.2" height="121.1"/>
<rect x="1682.8" y="238.8" class="st0" width="12" height="6.1"/>
<ellipse class="st1" cx="1688.6" cy="122.3" rx="7.7" ry="7"/>
<rect x="973.8" y="195.6" class="st2" width="49.8" height="49.3"/>
<polygon class="st0" points="1021.6,177.2 1021.6,196 971.8,196 961.8,196 961.8,191.8 "/>
<rect x="975.2" y="199.9" class="st1" width="17.8" height="17.3"/>
<rect x="1019.2" y="195.5" class="st2" width="49.7" height="49.3"/>
<polygon class="st0" points="1021.2,177.1 1021.2,195.9 1070.9,195.9 1080.9,195.9 1080.9,191.8 "/>
<rect x="1049.4" y="199.8" class="st1" width="17.8" height="17.3"/>
<rect x="1138.2" y="195.6" class="st2" width="49.8" height="49.3"/>
<rect x="1141.7" y="199.9" class="st1" width="17.8" height="17.3"/>
<rect x="1187.7" y="195.5" class="st2" width="49.7" height="49.3"/>
<rect x="1215.9" y="199.8" class="st1" width="17.8" height="17.3"/>
<rect x="1345.7" y="195.6" class="st2" width="49.8" height="49.3"/>
<rect x="1349.2" y="199.9" class="st1" width="17.8" height="17.3"/>
<rect x="1395.2" y="195.5" class="st2" width="49.7" height="49.3"/>
<rect x="1423.3" y="199.8" class="st1" width="17.8" height="17.3"/>
<rect x="2087.6" y="195.6" class="st2" width="49.8" height="49.3"/>
<polygon class="st0" points="2135.4,177.2 2135.4,196 2085.6,196 2075.6,196 2075.6,191.8 "/>
<rect x="2089.1" y="199.9" class="st1" width="17.8" height="17.3"/>
<rect x="2133.1" y="195.5" class="st2" width="49.7" height="49.3"/>
<polygon class="st0" points="2135.1,177.1 2135.1,195.9 2184.8,195.9 2194.7,195.9 2194.7,191.8 "/>
<rect x="2163.2" y="199.8" class="st1" width="17.8" height="17.3"/>
<rect x="1751.6" y="195.6" class="st2" width="49.8" height="49.3"/>
<polygon class="st0" points="1799.5,177.2 1799.5,196 1749.6,196 1739.6,196 1739.6,191.8 "/>
<rect x="1753.1" y="199.9" class="st1" width="17.8" height="17.3"/>
<rect x="1797.1" y="195.5" class="st2" width="49.7" height="49.3"/>
<polygon class="st0" points="1799.1,177.1 1799.1,195.9 1848.8,195.9 1858.8,195.9 1858.8,191.8 "/>
<rect x="1827.2" y="199.8" class="st1" width="17.8" height="17.3"/>
<rect x="803.6" y="150.5" class="st3" width="49.8" height="94.4"/>
<rect x="805.1" y="199.9" class="st1" width="17.8" height="17.3"/>
<rect x="849.1" y="150.7" class="st3" width="49.7" height="94.4"/>
<rect x="879.2" y="158.3" class="st1" width="17.8" height="17.3"/>
<rect x="627.9" y="136.8" class="st4" width="128.7" height="108.1"/>
<rect x="638.3" y="131.6" class="st3" width="107.9" height="5.3"/>
<rect x="444.7" y="123.8" class="st0" width="6.2" height="121.1"/>
<rect x="442" y="238.8" class="st0" width="12" height="6.1"/>
<ellipse class="st1" cx="447.8" cy="122.3" rx="7.7" ry="7"/>
<rect x="647.7" y="147.8" class="st1" width="17.8" height="17.3"/>
<rect x="647.7" y="198" class="st1" width="17.8" height="17.3"/>
<rect x="2549.1" y="123.8" class="st0" width="6.2" height="121.1"/>
<rect x="2546.4" y="238.8" class="st0" width="12" height="6.1"/>
<ellipse class="st1" cx="2552.2" cy="122.3" rx="7.7" ry="7"/>
<rect x="2419.1" y="150.5" class="st3" width="49.8" height="94.4"/>
<polygon class="st0" points="2466.9,132 2466.9,150.8 2417.1,150.8 2407.1,150.8 2407.1,146.7 "/>
<rect x="2420.6" y="199.9" class="st1" width="17.8" height="17.3"/>
<rect x="2464.6" y="150.7" class="st3" width="49.7" height="94.4"/>
<polygon class="st0" points="2466.6,132 2466.6,150.7 2516.3,150.7 2526.2,150.7 2526.2,146.6 "/>
<rect x="2494.7" y="158.3" class="st1" width="17.8" height="17.3"/>
<rect x="2227.4" y="136.8" class="st5" width="128.7" height="108.1"/>
<rect x="2237.8" y="131.6" class="st3" width="107.9" height="5.3"/>
<rect x="2247.2" y="147.8" class="st1" width="17.8" height="17.3"/>
<rect x="2247.2" y="198" class="st1" width="17.8" height="17.3"/>
<rect x="1505" y="136.8" class="st5" width="128.7" height="108.1"/>
<rect x="1515.4" y="131.6" class="st3" width="107.9" height="5.3"/>
<rect x="1524.8" y="147.8" class="st1" width="17.8" height="17.3"/>
<rect x="1524.8" y="198" class="st1" width="17.8" height="17.3"/>
<rect x="484.8" y="195.6" class="st2" width="49.8" height="49.3"/>
<polygon class="st0" points="532.7,177.2 532.7,196 482.8,196 472.8,196 472.8,191.8 "/>
<rect x="486.3" y="199.9" class="st1" width="17.8" height="17.3"/>
<rect x="530.3" y="195.5" class="st2" width="49.7" height="49.3"/>
<polygon class="st0" points="532.3,177.1 532.3,195.9 582,195.9 592,195.9 592,191.8 "/>
<rect x="560.4" y="199.8" class="st1" width="17.8" height="17.3"/>
<rect x="1905.3" y="150.5" class="st4" width="49.8" height="94.4"/>
<polygon class="st0" points="1955.2,132 1955.2,150.8 1905.3,150.8 1895.3,150.8 1895.3,146.7 "/>
<rect x="1908.8" y="199.9" class="st1" width="17.8" height="17.3"/>
<rect x="1954.8" y="150.7" class="st4" width="49.7" height="94.4"/>
<polygon class="st0" points="1954.8,132 1954.8,150.7 2004.5,150.7 2014.5,150.7 2014.5,146.6 "/>
<rect x="1983" y="158.3" class="st1" width="17.8" height="17.3"/>
<rect x="107.5" y="195.6" class="st2" width="49.8" height="49.3"/>
<polygon class="st0" points="155.3,177.2 155.3,196 105.5,196 95.5,196 95.5,191.8 "/>
<rect x="109" y="199.9" class="st1" width="17.8" height="17.3"/>
<rect x="152.9" y="195.5" class="st2" width="49.7" height="49.3"/>
<polygon class="st0" points="154.9,177.1 154.9,195.9 204.6,195.9 214.6,195.9 214.6,191.8 "/>
<rect x="183.1" y="199.8" class="st1" width="17.8" height="17.3"/>
<rect x="261.2" y="150.5" class="st4" width="49.8" height="94.4"/>
<polygon class="st0" points="311,132 311,150.8 261.2,150.8 251.2,150.8 251.2,146.7 "/>
<rect x="264.7" y="199.9" class="st1" width="17.8" height="17.3"/>
<rect x="310.6" y="150.7" class="st4" width="49.7" height="94.4"/>
<polygon class="st0" points="310.6,132 310.6,150.7 360.3,150.7 370.3,150.7 370.3,146.6 "/>
<rect x="338.8" y="158.3" class="st1" width="17.8" height="17.3"/>
<rect x="1136" y="193.1" class="st6" width="103.4" height="3.8"/>
<rect x="799.5" y="147.4" class="st6" width="103.4" height="3.8"/>
<rect x="1343" y="188.1" class="st6" width="103.4" height="3.8"/>
<rect x="1345.7" y="147.1" class="st2" width="49.8" height="49.3"/>
<rect x="1349.2" y="151.4" class="st1" width="17.8" height="17.3"/>
<rect x="1395.2" y="147" class="st2" width="49.7" height="49.3"/>
<rect x="1423.3" y="151.3" class="st1" width="17.8" height="17.3"/>
<rect x="1343" y="144.6" class="st6" width="103.4" height="3.8"/>
<rect x="2622.8" y="195.6" class="st2" width="49.8" height="49.3"/>
<rect x="2626.3" y="199.9" class="st1" width="17.8" height="17.3"/>
<rect x="2672.3" y="195.5" class="st2" width="49.7" height="49.3"/>
<rect x="2700.4" y="199.8" class="st1" width="17.8" height="17.3"/>
<rect x="2782.1" y="136.8" class="st5" width="128.7" height="108.1"/>
<rect x="2792.5" y="131.6" class="st3" width="107.9" height="5.3"/>
<rect x="2801.9" y="147.8" class="st1" width="17.8" height="17.3"/>
<rect x="2801.9" y="198" class="st1" width="17.8" height="17.3"/>
<rect x="2620.1" y="193.1" class="st6" width="103.4" height="3.8"/>
<rect x="2622.8" y="146.1" class="st2" width="49.8" height="49.3"/>
<rect x="2626.3" y="150.4" class="st1" width="17.8" height="17.3"/>
<rect x="2672.3" y="146" class="st2" width="49.7" height="49.3"/>
<rect x="2700.4" y="150.3" class="st1" width="17.8" height="17.3"/>
<rect x="2620.1" y="143.6" class="st6" width="103.4" height="3.8"/>
<g>
	<polygon class="st7" points="0,388.5 3000,418 3000,274 0,244.9 	"/>
	<polygon class="st8" points="3000,244.9 3000,368.8 0,244.9 	"/>
	<polygon class="st9" points="0,450 0,326.1 3000,400.8 3000,450 	"/>
</g>
</svg>
