<?xml version="1.0" encoding="utf-8"?>
<!-- Generator: Adobe Illustrator 21.0.0, SVG Export Plug-In . SVG Version: 6.00 Build 0)  -->
<svg version="1.1" id="Capa_1" xmlns="http://www.w3.org/2000/svg" xmlns:xlink="http://www.w3.org/1999/xlink" x="0px" y="0px"
	 viewBox="0 0 3000 450" style="enable-background:new 0 0 3000 450;" xml:space="preserve">
<style type="text/css">
	.st0{fill:#070031;}
</style>
<g>
	<path class="st0" d="M3000,449.4c0-133.3,0-266.7,0-400c-0.7,0-1.5-0.1-2.2,0c-0.4,0.1-0.8,0.5-0.7,1.2c-0.2,0-0.4-0.1-0.5,0
		c-0.5,0.8-1.1,1.4-2,1.3c-0.5,1.2-1.7,0.9-2.3,1.7c-0.6,0.9-1.8,0.5-2.3,1.7c-0.8,0-1.5,0.4-2,1.3c-0.9-0.2-1.5,0.5-2,1.3
		c-0.7-0.2-1.2,0.2-1.6,0.9c-0.3,0.6-1,0.1-1.3,0.5c-0.7,1.2-1.6,1.1-2.5,1.1c-0.1,0-0.4,0-0.4,0.2c-0.6,1.3-1.6,1-2.5,1
		c-0.2,0-0.3,0-0.5,0c-1.3,0.1-2.6-0.5-3.7,0.3c-0.9,0.7-1.6,1.9-2.4,2.9c-0.2,0.3-0.5,0.5-0.8,0.4c-0.4-0.1-0.6,0.1-0.8,0.4
		c-0.7,0.7-1.1,2-2.2,2c-0.8,0-1.1,1.5-2,1.2c-0.4,0.4-0.7,0.8-1.1,1.1c-0.4,0.3-0.9,0-1.3,0.4c-1,0.9-1,0.9-1.6,0.9
		c-0.8,0-0.8,0-1.6,0.8c-0.1,0.1-0.2,0.4-0.4,0.4c-1,0-1.9,0-2.9,0c-0.7-1.5-1.9-1.1-3-1.2c-0.3,0-0.6,0-1,0
		c-0.9-0.1-1.9,0.3-2.6-0.9c-0.1-0.2-0.6-0.2-0.9-0.3c-1.3,0-2.6,0-3.8,0c-0.5,0-0.7-0.5-0.8-1.2c0-0.4,0-0.8,0-1.2
		c0.1-0.5,0-0.8-0.4-1c-0.4-0.2-0.9-0.3-1.3,0.1c-0.9,0.8-0.9,0.8-1.4,0.2c-0.5-0.6-0.9-1.1-1.4-1.7c-0.7,0.2-1.2-0.2-1.6-0.9
		c-0.2-0.3-0.4-0.2-0.7,0.2c-0.2,0.3-0.5,0.6-0.7,0.6c-0.8,0.1-1.6,0-2.4,0c-0.4,0-0.7-0.4-0.7-1.2c0-0.5,0-0.8-0.4-1
		c-0.3-0.2-0.4,0.1-0.6,1.2c-0.2,1.1-1,1.5-1.7,0.7c-0.1-0.1-0.2-0.3-0.3-0.4c-0.1-0.1-0.2-0.4-0.3-0.4c-0.3-0.1-0.8-0.2-0.9,0
		c-0.5,0.7-1.4,1.1-1.5,2.2c0,1.2-0.8,1.6-1.3,2.3c-0.2,0.2-0.6,0.2-0.9,0.2c-1,0-1.9,0-2.9,0c-1.1,0-2.3-0.5-3,1
		c-1.1,0-2.2,0.1-3.3,0.1c-0.5,0-1-0.1-1.4,0c-0.7,0.3-1.1,1.5-2,1.2c-0.9-0.3-1.5,0.4-2,1.2c-0.1,0.1-0.3,0-0.5,0
		c-0.6,0-1.3,0-1.9,0c-0.4,0-0.7,0-0.8-0.4c-0.1-0.3,0.1-0.6,0.4-0.9c0.1-0.1,0.3-0.3,0.3-0.4c-0.1-0.5-1.2-1.9-1.6-1.9
		c-0.5,0-1-0.1-1.4,0c-0.9,0.1-1.5-0.2-2.1-1.1c-0.1-0.2-0.5,0.2-0.6,0.6c-0.1,0.6,0,1.2,0,1.8c0,0.7,0.2,0.9,0.9,1
		c0.2,0,0.3-0.1,0.5,0c0.4,0.2,0.5,0.5,0.4,0.8c-0.2,0.4-0.4,0.6-0.8,0.4c-0.4-0.1-0.6,0.1-0.8,0.4c-0.7,0.8-1.3,1.7-1.1,3.1
		c0.1,1-0.2,1.3-1.1,1.3c-0.5,0-0.9,0.1-1.4,0.2c-0.1,0-0.3,0.2-0.3,0.4c-0.6,1.4-0.6,1.5-1.6,2.1c-0.1,0.1-0.3,0.3-0.3,0.4
		c0,0.2,0.2,0.4,0.3,0.4c0.3,0.1,0.6,0.1,0.9,0.2c0.5,0.2,0.6,0.6,0.2,1.1c-0.5,0.6-0.9,1.1-1.4,1.7c-0.4,0.5-0.4,0.5-1.4-0.2
		c-0.6-0.4-1.5-0.3-2-1.3c-0.1-0.2-0.4,0.1-0.7,0.4c-0.7,0.7-1.1,0.8-1.6,0.3c-0.9-0.9-0.9-0.9-1.6-0.9c-0.5,0-0.9,0.2-1.3-0.4
		c-0.6-0.9-1.4-1.7-2-2.6c-0.5-0.7-1.1-0.7-1.7-0.7c-0.5,0-0.9-0.1-1.3-0.6c-1-1.3-2-2.6-3-3.8c-0.3-0.4-0.7-0.9-1-1.3
		c-0.4-0.5-1.9-0.4-2.6,0.2c-0.2,0.2-0.5,0.7-0.7,0.6c-1.5-0.5-2.4,0.7-3.2,1.9c-0.2,0.3-0.5,0.5-0.8,0.5c-2.7,0-5.4,0-8.2,0
		c-0.7,0-1.2-0.1-1.7-0.7c-1.2-1.6-2.5-3.1-3.7-4.7c-0.4-0.5-0.8-0.6-1.3-0.6c-0.8,0-1.6,0-2.4,0c-0.8,0-1.6,0-2.4,0
		c-0.7-0.8-1.4-1.6-2.1-2.4c-0.4-0.4-0.5-0.9-0.5-1.6c0-0.6,0-1.2,0-1.8c0-0.7-0.2-1.1-0.5-1.5c-0.6-0.7-1.1-1.6-1.7-2.1
		c-0.6-0.5-1.5-0.4-2-1.3c-0.4-0.6-0.9-1.1-1.3-1.7c-0.4-0.7-0.9-0.9-1.6-0.9c-1.1,0.1-2.2,0-3.4,0c-0.6,0.1-0.8-0.5-1.2-0.9
		c-0.2-0.3-0.5-0.3-0.8-0.4c-0.9-0.1-1.4-1.6-2.5-1.2c-0.6,0.2-1.3,0-1.9,0.1c-0.7,0.1-1.1-0.5-1.6-1c-0.5-0.5-1.2-0.1-1.6-0.9
		c-0.3-0.6-0.8-0.4-1.2-0.6c-0.4-0.2-0.7-0.9-1.1-1c-0.6-0.2-1.2-0.1-1.6-0.9c-0.2-0.4-0.5-0.5-0.8-0.4c-0.8,0.1-1.6,0.2-2.1-0.8
		c-0.1-0.2-0.2-0.3-0.4-0.3c-1.3,0-2.6-0.1-3.8,0c-0.7,0-1.2-0.3-1.6-1c-0.6-0.9-1.3-1.6-2.3-1.7c-0.4-0.6-0.9-1.1-1.6-1
		c-1,0.1-1.9-0.1-2.9,0c-0.9,0.1-1.5-0.4-2-1.2c-1.1,0-2.2-0.1-3.3,0c-0.6,0-0.8-0.4-1.2-0.8c-0.1-0.1-0.2-0.3-0.4-0.4
		c-0.1-0.1-0.3,0-0.5,0c-9.3,0-18.6,0-27.8,0c-0.6,0-0.8,0.5-1.1,0.9c-0.2,0.3-0.5,0.4-0.9,0.3c-0.8-0.1-1.5,0-2.1,0.9
		c-0.3,0.5-0.9,0.3-1.3,0.3c-1.2-0.2-2.2,0.1-2.9,1.5c-0.6,1.3-2.2,0.6-2.7,2.1c-0.3,0-0.6,0.1-0.9,0c-0.1,0-0.2-0.2-0.4-0.4
		c-0.2-0.3-0.4-0.7-0.7-0.8c-0.3-0.1-0.6,0-0.9,0c-0.5,0.1-0.5,0.5,0.1,1.3c0.1,0.1,0.2,0.3,0.3,0.4c-0.2,0.2-0.4,0.6-0.6,0.6
		c-0.5,0.1-1,0-1.4,0c-0.8,0.1-1.5-0.1-2.1-1c-0.2-0.3-0.4-0.6-0.7-0.9c-0.4-0.5-0.5-0.6-1,0.3c-0.5,0.7-1.3,0-1.7,0.8
		c-0.3,0.5-0.7,0.9-1,1.3c-0.4,0.5-0.4,0.5-1.4-0.2c-0.8-0.6-1.6-0.2-1.6,1c0,0.5,0,0.8-0.4,1c-0.3,0.1-0.6,0.1-0.9,0.2
		c-0.3,0.1-0.7,0.5-0.6,0.7c0.1,0.9-0.3,1.5-0.8,2c-0.4,0.3-0.5,0.9-1.2,0.9c-4.2,0-8.3,0-12.5,0c-0.6,0-0.8,0.5-1.2,0.9
		c-0.1,0.1-0.2,0.4-0.4,0.4c-2.6,0-5.1,0-7.7,0c-0.6-1.2-1.5-1.3-2.5-1.1c-0.8,0.1-1.6,0-2.1-1c-0.1-0.1-0.3-0.2-0.4-0.2
		c-0.3,0-0.7-0.1-1,0c-1,0.3-1.2-1.1-2-1.2c-0.6-0.1-1.3,0.3-1.8-0.3c-0.5-0.6-0.9-1-1.6-0.9c-1.1,0.1-2.2,0-3.4,0
		c-0.6,0-0.9-0.4-1.2-0.8c-0.2-0.4-0.5-0.5-0.8-0.4c-0.6,0.1-1.3-0.1-1.9,0c-0.6,0.1-0.9-0.5-1.1-0.9c-0.4-0.7-1.3,0-1.7-0.8
		c-0.2-0.5-0.7-0.9-1-1.3c-0.5-0.6-0.9-1.1-1.4-1.7c-1.3,0.1-1.9-1.2-2.6-2.1c-0.3-0.3-0.5-0.4-0.8-0.4c-1,0.1-1,0-2.1-0.9
		c-0.3-0.2-0.5-0.4-0.9-0.3c-1.8,0-3.5,0-5.3,0c-1.3,0-2.6-0.1-3.8,0c-0.7,0-1.2-0.3-1.6-0.9c-0.2-0.2-0.6-0.2-0.9-0.3
		c-1-0.2-2.2,0.5-3.1-1c-0.1-0.2-0.6-0.2-0.9-0.2c-1.1-0.1-2.2,0.4-3-1.1c-0.1-0.2-0.6-0.1-0.9-0.2c-0.5-0.1-1,0.2-1.3-0.3
		c-0.5-0.6-0.9-1.2-1.4-1.7c-0.6-0.6-0.9-1.7-1.9-1.6c-0.7,0-1-0.9-1.5-1.4c-0.7-0.8-1.5-1.6-2-2.6c-0.6-1.1-1.9-0.5-2.4-1.7
		c-0.2-0.4-0.5-0.5-0.8-0.4c-0.6,0.1-1.3,0-1.9,0c-0.4,0-0.6-0.1-0.8-0.5c-0.4-0.8-1.1-0.6-1.6-0.9c-0.5-0.3-0.8-1.2-1.6-1.1
		c-0.1,0-0.3,0-0.4-0.2c-0.5-0.9-1.2-1.2-2.1-1c-0.5,0.1-0.9-0.2-1.2-0.7c-0.3-0.6-0.8-0.4-1.3-0.6c-0.4-0.2-0.7-0.8-1.1-1.1
		c-0.1-0.1-0.3,0-0.5,0c-0.9-0.1-0.9-0.1-2.5-1.2c-1,0.3-1.4-0.7-2-1.3c-0.3-0.4-0.7-1-1.1-1c-0.7,0-1.1-0.5-1.6-1.1
		c-0.3-0.4-0.6-0.9-1-1.3c-0.4-0.3-0.9,0-1.3-0.4c-0.3-0.4-0.5-0.9-1.1-0.9c-1.3,0.1-2.6,0-3.8,0c-0.6,0-0.8-0.5-1.2-0.9
		c-0.2-0.3-0.5-0.4-0.8-0.4c-0.8,0.1-1.5,0-2.1-0.9c-0.5-0.7-1.4-0.4-2-1.3c-0.4-0.6-1.2-0.3-1.8-0.2c-0.9,0.1-1.5-0.2-2.1-1.1
		c-0.1-0.1-0.3-0.2-0.4-0.2c-1,0.1-1.9,0.1-2.5-1.1c-0.9,0.1-1.5-0.5-2-1.3c-0.9,0.3-1.4-0.6-2-1.2c-1.1,0.5-1.5-1.4-2.5-1.2
		c-1.2-0.8-2.3-2.3-2.7-3.8c-0.3-1.1-1-1.5-1.5-2.2c-0.2-0.3-2,0.1-2.2,0.4c-0.4,0.7-1,0.8-1.6,0.8c-0.5,0.9-1.2,1.1-2,1.3
		c-0.4,0.1-0.7,0.8-1,1.2c-0.5,0.6-1,1.1-1.3,1.7c-0.4,0.8-1.2,0.1-1.7,0.8c-0.3,0.4-0.5,0.9-1.2,0.9c-0.8-0.1-1.6,0-2.4,0
		c-0.7,1.5-1.9,1.2-3,1.2c-1,0-1.9,0.1-2.9,0c-0.7-0.1-1.2,0.3-1.6,0.9c-0.4,0.6-1.2,0.1-1.6,0.8c-0.6,1-1.7,0.6-2.3,1.7
		c-0.4,0.8-1.1,1.4-1.7,2.2c-0.2,0.3-0.5,0.5-0.8,0.4c-0.5-0.1-1,0-1.4,0c-0.6,0-0.6,0-1.6,0.9c-0.1,0.1-0.2,0.3-0.4,0.3
		c-0.1,0.1-0.3,0-0.5,0c-0.8-0.1-1.6,0-2.1,0.9c-0.1,0.2-0.6,0.2-0.9,0.3c-0.6,0.1-1.2-0.1-1.7,0.6c-0.6,0.9-1.4,1.7-2,2.6
		c-0.2,0.3-0.5,0.4-0.8,0.5c-0.6,0.1-0.8-0.5-1.2-0.8c-0.1-0.1-0.3-0.4-0.3-0.3c-0.3,0.2-0.5,0.5-0.5,0.9c0,1,0,2,0,3
		c0,0.3-0.4,0.8-0.6,0.8c-0.7-0.1-1.1,0.4-1.6,1c-0.4,0.5-1.3,0-1.6,0.9c-0.4,0.8-1.2,0.4-1.6,0.9c-0.4,0.4-0.7,0.8-1,1.3
		c-0.4,0.7-0.9,1-1.6,0.9c-0.3,0.4-0.7,0.9-1.1,1.2c-0.2,0.2-0.7,0.1-0.9,0c-0.3-0.2-0.5-0.5-0.7-0.8c-0.3-0.3-1.1-0.4-1.3-0.2
		c-0.1,0.1-0.2,0.3-0.3,0.4c-0.6,0.7-1.2,1.3-1.7,2.1c-0.5,1-1.4,0.7-2,1.3c-0.4,0.3-0.5,0.9-1.2,0.9c-1.6-0.1-3.2,0-4.8,0
		c-1.8,0-1.8,0-1.9,2.1c0,0.4,0,0.9-0.2,1.1c-0.6,0.8-1.2,1.9-2.3,1.6c-0.3-0.1-0.8-0.1-0.9,0.1c-0.6,1.4-2.1,0.7-2.7,2.1
		c-0.5,1.1-1.3,1.5-2.4,1.4c-1.6-0.2-3.2,0-4.8-0.1c-0.4,0-0.6,0.1-0.9,0.3c-1.1,0.9-1.1,0.9-1.6,0.9c-0.6,0-0.6,0-1.6,0.9
		c-0.3,0.2-0.5,0.4-0.9,0.4c-0.6-0.1-1.3,0-1.9,0c-0.3,0-0.5,0.2-0.8,0.5c-0.6,0.7-1,1.9-1.8,1.9c-1.1,0-1.4,1.7-2.5,1.3
		c-0.7,0.4-1.1,1.5-2,1.2c-0.5,0.3-0.7,1.4-1.5,1.2c-0.6-0.1-0.8,0.5-1.2,0.9c-0.1,0.1-0.3,0.4-0.4,0.3c-1-0.3-1.3,1.1-2,1.2
		c-0.7,0.1-1.1,0.7-1.6,1c-0.7,0.4-1.5,0.4-2,1.3c-0.8,0-1.5,0.4-2,1.3c-0.9-0.2-1.4,0.5-2,1.3c-0.7-0.2-1.2,0.2-1.6,0.9
		c-0.3,0.5-1,0.1-1.3,0.5c-0.7,1.2-1.6,0.9-2.5,1.1c-0.8,0.2-1.4,1.5-2.5,1.2c-0.8-0.2-1.6,0-2.4,0c-0.2,0-0.3,0-0.5,0
		c-0.5-0.1-0.9,0.2-1.2,0.7c-0.1,0.2-0.2,0.3-0.3,0.4c-0.5,0.4-0.7,1.4-1.5,1.3c-0.8-0.1-1,0.9-1.5,1.2c-0.1,0.1-0.3,0-0.5,0
		c-0.2,0-0.4,0-0.5,0c-0.3,0.2-0.4,0.6-0.7,0.8c-0.6,0.6-0.9,1.7-1.9,1.5c-0.5,0.4-1,1.1-1.5,1.1c-0.7,0.1-1,0.8-1.6,1.1
		c-0.5,0.3-1.2,0.1-1.6,0.9c-0.2,0.4-0.5,0.5-0.8,0.5c-0.8-0.1-1.6-0.3-2.1,0.8c-0.1,0.2-0.2,0.4-0.3,0.4c-1.6,0-3.2,0-4.8,0
		c-0.1,0-0.2-0.3-0.3-0.4c-0.3-0.4-0.6-0.7-1.2-0.7c-11.2,0-22.4,0-33.6,0c-0.8,0-1.5,0.1-2.1,1c-0.3,0.5-0.9,0.2-1.3,0.3
		c-0.6,0.1-1.2,0.1-1.9,0.2c-0.5,0.9-1.2,1.2-2.1,1c-0.5-0.1-0.9,0.2-1.2,0.7c-0.3,0.6-0.9,0.3-1.3,0.5c-0.4,0.2-0.7,0.7-1.1,1.1
		c-1.2-0.4-1.7,0.9-2.3,1.7c-0.6,0.9-1.5,0.4-2,1.2c-0.5,0.8-1.1,1.4-1.7,2.1c-0.6,0.7-1.1,1.5-1.7,2.1c-0.2,0.2-0.8-0.1-0.9,0.1
		c-1.1,1.8-2.6,1.1-3.9,1.1c-0.1,0-0.2-0.3-0.3-0.4c-0.3-0.4-0.7-0.8-1.2-0.7c-0.8,0.1-1.5-0.2-2.1-1c-0.6-0.7-1.5-0.2-1.6,1
		c-0.1,1-0.7,1.2-1.1,1.9c-0.3,0.6-0.8,0.5-1.3,0.5c-1.2,0.1-1.2,0-1.5-1.5c-0.2-0.9-0.3-1.1-1-0.9c-1.3,0.3-2.1-0.7-2.8-1.7
		c-0.2-0.3-0.1-1.3,0.2-1.6c0.2-0.3,0.5-0.5,0.7-0.9c0.1-0.3,0.1-0.8,0-1.2c-0.1-0.4-0.8-0.8-1.2-0.6c-0.3,0.2-0.5,0.4-0.7,0.7
		c-0.2,0.3-0.5,0.5-0.8,0.6c-0.4,0-0.6,0-0.9-0.3c-0.2-0.3-0.2-0.5,0.2-0.9c0.4-0.4,0.7-0.8,1-1.3c0.4-0.5,0.4-1.1-0.1-1.2
		c-0.5-0.1-0.9,0-1.3-0.5c-0.3-0.5-0.7-0.9-1-1.3c-0.5-0.6-0.5-0.6-1,0c-0.7,0.7-1.1,2.1-2.3,1.8c-0.1,0-0.4,0.5-0.5,0.9
		c-0.1,0.3-0.1,0.7-0.2,1.1c-0.1,0.3-1.1,0.6-1.3,0.3c-0.6-1.2-1.5-1.2-2.5-1.2c-2.4,0-4.8,0-7.2,0c-0.2,0-0.3,0-0.5,0
		c-0.3,0-0.5-0.2-0.8-0.5c-1.3-1.7-2.7-3.4-4.1-5.1c-0.2-0.3-0.5-0.4-0.8-0.4c-0.8,0.1-1.6,0-2.4,0c-0.6,0-1.3,0.2-1.9-0.1
		c-0.5-0.3-0.9-1.1-1.4-1.6c-0.3-0.5-0.7-0.6-1.2-0.7c-0.7-0.2-0.7-0.3-0.8-1.2c0-1-0.1-2,0-3c0.1-1.2-0.6-1.7-1-2.5
		c-0.5-0.8-1.2-0.2-1.7-0.8c-0.3-0.5-0.7-0.9-1-1.3c-0.5-0.6-0.9-1.1-1.4-1.7c-0.2-0.3-0.5-0.3-0.9-0.3c-1.4,0-2.9,0-4.3,0
		c-0.7,0-1.1-0.6-1.6-1c-0.6-0.5-1.5-0.4-2-1.3c-0.6-0.1-1.2-0.1-1.9-0.1c-0.6,0-1.3,0-1.9,0c-0.1,0-0.3-0.1-0.4-0.3
		c-0.4-0.6-0.9-1.1-1.6-0.9c-0.6-0.6-1.1-1.5-2-1.2c-0.3-0.4-0.7-0.8-1-1.2c-0.7,0.2-1.2-0.3-1.6-0.9c-0.4-0.5-0.9-0.3-1.3-0.3
		c-0.5,0-0.9,0-1.3-0.6c-0.2-0.3-0.5-0.6-0.7-0.6c-1.3-0.1-2.6-0.1-3.8,0c-0.8,0-1.1-0.5-1.6-1.1c-0.3-0.4-0.6-0.9-1-1.2
		c-0.4-0.3-0.9,0.1-1.3-0.4c-0.3-0.4-0.5-1-1.2-0.9c-0.8,0.1-1.6-0.1-2.4,0.1c-1,0.2-1.4-0.7-2-1.2c-1.1,0-2.2,0-3.4,0
		c-0.8,0-1.6,0-2.1-0.9c-0.1-0.2-0.6-0.3-0.8-0.3c-7.5,0-15,0-22.6,0c-0.5,0-0.9,0-1.3,0.6c-0.1,0.2-0.2,0.3-0.3,0.4
		c-0.6,0.7-1.1,1.4-1.7,2.1c-1.1,1.4-1.1,1.4-1.8,1.7c-0.7,0.3-0.7,0.3-1.5,1.3c-0.6,0.7-1.1,1.5-1.7,2.1c-0.3,0.3-0.8,0.3-1.3,0.5
		c-0.4,1-1.4,0.7-2,1.3c-0.5,0.5-0.9,1.1-1.4,1.7c-0.2,0.3-0.5,0.4-0.8,0.4c-0.8-0.1-1.6-0.2-2.1,0.9c-0.2,0.4-0.5,0.4-0.8,0.3
		c-0.6-0.1-1.3,0-1.9,0c-0.7,0-0.9,1.2-1.5,1.2c-2.7,0.1-5.4,0-8.2,0c-0.3,0-0.6-0.3-0.8-0.6c-0.8-1.1-1.8-0.4-2.7-0.6
		c-0.5-0.1-0.9,0.2-1.2,0.7c-0.3,0.5-0.5,0.6-0.7,0.2c-0.5-1.2-1.8-0.5-2.3-1.7c-0.1-0.2-0.2-0.4-0.3-0.4c-1.9,0-3.8,0-5.7,0.1
		c-0.2,0-0.4,0.6-0.7,0.8c-0.6,0.5-2.1,0.4-2.6-0.2c-0.3-0.4-0.7-0.8-1-1.3c-0.3-0.5-0.8-0.6-1.3-0.6c-0.5,0-1,0.2-1.3-0.3
		c-0.6-0.9-1.3-1-2.1-0.9c-0.3,0-0.6,0-1,0c-0.4-0.1-0.6,0-0.9,0.3c-1.5,1.9-2.9,3.7-4.4,5.5c-0.2,0.3-1,0.2-1.3-0.1
		c-0.2-0.3-0.4-0.7-0.7-0.8c-0.3-0.2-0.6-0.1-0.9-0.1c-0.1,0-0.3,0.2-0.4,0.3c-0.8,1-1.6,2-2.4,3c-0.8,0.9-1.4,2.4-2.5,2.6
		c-1.1,0.2-1.5,1.3-2.2,2.1c-0.8,0.9-1.7,1.9-2.4,3c-0.7,1.2-1.6,1-2.6,1.1c-0.5,0-0.8,0.5-0.7,1.2c0.1,0.4-0.1,0.7-0.4,1
		c-0.6,0.6-1,1.6-2,1.3c-0.3,0.4-0.7,0.8-1,1.2c-0.3,0.4-0.7,0.8-1,1.2c-0.9-0.3-1.3,1-2,1.1c-0.7,0.1-1.1,0.8-1.6,1
		c-1,0.5-2.1,0.4-3.2,0c-0.6-1.3-1.6-1-2.6-1c-0.6,0-1.2,0-1.7-0.7c-0.2-0.3-0.5-0.5-0.7-0.9c-0.4-0.7-1-0.9-1.7-0.8
		c-0.4,0-0.9,0.2-1.3-0.4c-0.6-0.9-1.4-1.6-2-2.6c-0.5-0.9-1.5-0.3-2-1.2c-0.4-0.8-1.1-0.5-1.7-0.5c-0.6,0-0.9-0.3-1.2-0.8
		c-0.2-0.4-0.5-0.5-0.8-0.5c-0.6,0.1-1.3,0-1.9,0c-0.7,0-0.9-0.1-1-0.9c0-0.9-0.5-1.4-0.9-2c-0.3-0.4-0.6-0.8-1.2-0.8
		c-0.5,0.1-1,0-1.4,0c-0.5,0-0.9,0-1.3-0.5c-0.8-1-1.6-2-2.4-3c-0.8-1-0.8-1.2-1.5-1.3c-0.8,0-1-0.9-1.5-1.2c-0.1-0.1-0.3,0-0.5,0
		c-0.2,0-0.4,0-0.5-0.1c-1.7-2.1-3.4-4.2-5.1-6.4c-0.2-0.2,0-0.8-0.2-1.1c-0.6-1.1-1.2-2.4-2.5-2.1c-0.6,0.1-1.2,0.1-1.9,0.1
		c-0.6,1.3-1.6,1.2-2.5,1.1c-0.9-0.1-1.5,0.2-2.1,1.1c-0.5,0-0.9,0.1-1.4,0.2c-0.3,0.1-0.6,0.1-0.9,0.3c-0.3,0.2-0.5,0.6-0.7,0.8
		c-0.9,1.1-0.9,1.3-1.5,1.2c-0.8,0-1,1-1.5,1.2c-0.1,0.1-0.3,0-0.5,0c-0.3-0.1-0.5,0.2-0.8,0.5c-0.6,0.7-1,1.9-1.8,1.9
		c-1.1,0-1.4,1.5-2.5,1.3c-0.6-0.1-0.8,1.3-1.5,1.1c-0.6-0.1-0.9,0.4-1.2,0.8c-0.2,0.4-0.5,0.4-0.8,0.4c-1-0.1-1.9,0-2.9,0
		c-0.4,0-0.6,0.1-0.8,0.5c-0.4,0.8-1,0.8-1.7,0.8c-0.5,0-0.9-0.1-1.3,0.5c-0.3,0.5-0.7,0.7-1.2,0.7c-3.5,0-7,0-10.6,0
		c-0.8,0-1.6,0.1-2.1,1c-0.5,0.1-0.9,0.2-1.4,0.2c-0.5,0-0.9,0.2-1.2,0.7c-0.2,0.4-0.5,0.6-0.8,0.5c-0.6,0-1.3,0.1-1.9,0
		c-0.6-0.1-0.9,0.3-1.2,0.8c-0.4,0.6-0.9,0.3-1.3,0.5c-0.4,0.2-0.7,0.8-1.1,1.2c-0.7-0.2-1.2,0.2-1.6,0.9c-0.3,0.5-1,0.1-1.3,0.5
		c-0.6,0.8-1.2,1.2-2.1,1.1c-0.6-0.1-1.2,0.1-1.9,0.1c-0.5,1.4-2.1,0.7-2.7,2.1c-0.5,1.1-1.3,1.7-2.4,1.3c-0.4-0.1-0.6,0-0.8,0.4
		c-0.4,0.7-1,0.9-1.6,0.9c-0.5,0.8-1.1,1.3-2,1.3c-0.5,0.9-1.2,1.1-2,1.3c-0.5,0.9-1.2,1.2-2.1,1c-0.8-0.2-1,0.8-1.6,1
		c-0.7,0.3-1.6,0.2-2.4,0.1c-0.4,0-0.7,0-0.8,0.3c-0.4,0.7-0.9,1-1.6,0.9c-0.2,0-0.5,0.5-0.7,0.8c-0.1,0.1-0.3,0.4-0.3,0.4
		c-1-0.3-1.3,0.9-2,1.2c-0.4,0.2-0.9,0-1.4,0c-0.6,0-0.8,0.3-0.8,1.1c-0.1,0.8,0.3,1.7-0.3,2.2c-0.5,0.5-1.2,0.2-1.8,0.3
		c-0.1,0-0.3,0.1-0.4,0.2c-0.1,0.1-0.3,0.3-0.3,0.4c0,1.2,0,2.4,0,3.6c0,0.6,0,0.7-0.7,2c-0.2,0.3-0.3,0.6-0.3,1.1c0,1,0.1,2-0.1,3
		c-0.1,0.5-0.6,0.9-0.8,1.4c-0.1,0.1,0,0.4,0,0.6c-0.1,0.3-0.3,0.7-0.5,0.9c-0.2,0.2-0.4-0.6-0.5-1.5c-0.1-1,0.3-2.1-0.2-2.9
		c-0.6-0.8-0.8-1.6-0.7-2.6c0-1.4,0-2.8,0-4.2c0-0.6,0-1.2,0-1.8c0-1-0.2-1.4-1.1-1.4c-0.8,0-1.5-0.1-2.1-1
		c-0.4-0.6-1.2-0.2-1.8-0.2c-0.5,0-0.8,0.6-1.1,1c-0.3,0.4-0.6,0.8-0.6,1.5c0.1,1.6,0,3.2,0,4.8c0,1-0.1,1.9-0.7,2.6
		c-0.5,0.6-0.2,1.5-0.2,2.3c0,1.1-0.1,1.9-0.8,2.6c-0.4,0.4-0.7,0.9-1,1.3c-0.6,0.6-1,1.8-1.8,1.9c-0.7,0.1-1.1,0.9-1.6,1.1
		c-0.8,0.3-1.4,0.5-2,1.3c-0.5,0.8-1,1.6-2,1.3c-0.5,0.6-0.9,1.1-1.4,1.7c-0.3,0.4-0.7,0.7-1.2,0.7c-0.8,0-1.6,0.1-2.3,0.1
		c-0.6,1.1-1.1,0.9-1.7,0c-0.7-1.1-1.6-2-2.4-3c-0.1-0.1-0.2-0.4-0.1-0.5c0.2-1.2-1-1.5-1-2.5c0-0.5,0-0.8-0.3-1.1
		c-0.2-0.3-0.6-0.6-0.6-0.8c0-0.3,0.4-0.6,0.6-0.8c0.1-0.1,0.3-0.3,0.3-0.4c-0.1-1.1,0.3-2.4-0.7-3.2c-0.3-0.8-0.3-1.9-1-2.5
		c-0.4-0.3-0.2-1.1-0.2-1.7c0.2-1.5-0.2-2.7-1.2-3.6c-0.5-0.5-0.9-1.2-1.4-1.7c-0.5-0.5-0.3-1.1-0.3-1.6c0.1-0.9-0.1-1.5-0.7-2.1
		c-0.3-0.2-0.4-0.6-0.7-0.8c-0.6-0.6-0.7-1.3-0.5-2.1c0.2-1.5-1.5-2.1-1-3.7c-0.1-1.2,0.2-2.4-0.2-3.5c-0.1-0.2-0.2-0.3-0.3-0.4
		c-0.1-0.1-0.2-0.3-0.3-0.4c-0.2-0.4-0.1-1.2,0.1-1.6c0.2-0.3,0.6-0.5,0.6-0.9c0-0.2-0.3-0.6-0.5-0.8c-0.3-0.3-0.3-0.6-0.3-1
		c0-2.2,0-4.4,0-6.6c0-0.1-0.2-0.3-0.3-0.4c-0.2-0.1-0.5,0.1-0.6,0.6c-0.1,1.1,0.3,2.4-0.8,3.2c-0.4,0.4-0.2,1.1-0.2,1.7
		c0,0.6-0.1,1.1-0.5,1.6c-0.2,0.2-0.5,0.6-0.5,0.9c-0.1,1.4,0,2.8,0,4.2c0,0.3-0.3,0.7-0.5,0.9c-0.4,0.4-0.5,1-0.4,1.6
		c0,0.8,0,1.6-0.6,2.1c-0.3,0.3-0.4,0.6-0.4,1c0,2,0,4,0,6c0,0.5-0.1,0.7-0.3,1.1c-0.7,1.2-0.7,1.2-0.7,2c0,0.6,0,1.2,0,1.8
		c0,0.5-0.1,0.7-0.4,1c-0.4,0.4-0.7,0.8-1,1.3c-0.8,1-0.8,1.3-0.1,2.5c0.7,1.2,0.7,1.5-0.1,2.5c-0.2,0.3-0.4,0.6-0.7,0.9
		c-0.7,0.9-0.7,0.9-0.7,2c0,0.6-0.2,1.2,0.3,1.6c0.5,0.5,0.7,1.3,1.5,1.4c0.3,0,0.6,0,0.9,0.3c0.7,0.9,1.4,1.7,2,2.6
		c0.3,0.3,0.2,1.4-0.1,1.6c-0.8,0.6-0.6,1.8-1,2.5c-0.4,0.6-0.9,1.1-1.3,1.7c-0.1,0.1-0.2,0.3-0.3,0.4c-0.1,0.2,0.1,1.5,0.4,1.6
		c0.3,0.1,0.6,0,0.9,0.1c0.6,0.2,0.9,1.2,0.5,1.9c-0.4,0.6-0.9,1-0.9,2c0.1,2.8,0,5.6,0,8.4c0,0.5,0.3,0.9,1,0.9
		c0.4,0,0.6,0,0.8,0.5c0,0.1,0,0.3-0.1,0.4c-0.3,0.5-0.8,0.7-0.7,1.4c0,1.2,0,2.4,0,3.6c0,0.7,0.3,1.1,0.6,1.5
		c0.4,0.4,0.4,0.5,0,0.9c-0.7,0.8-0.7,0.9-0.6,2.1c0,0.8,0,0.8,0.7,2c0.2,0.3,0.3,0.6,0.2,1.1c0,0.4-0.1,0.9-0.5,0.9
		c-0.9,0.1-1.9,0.1-2.9,0.1c-1-1.9-2.6-1-3.9-1.2c-0.1,0-0.3-0.2-0.3-0.4c-0.4-0.8-1-0.7-1.6-0.9c-0.3-0.1-0.4-0.5-0.4-1
		c0-0.5,0-0.9,0.3-1c0.4-0.2,0.9-0.3,1.3-0.5c0.1-0.1,0.3-0.3,0.3-0.4c-0.1-1.1,0.4-2.4-0.6-3.3c-0.6-0.5-0.2-2-1-2.5
		c-0.1,0-0.1-0.4-0.1-0.4c1.4-1.4,0.6-3.3,0.8-5c0-0.4,0.1-0.8,0.2-1.1c0-0.2,0.2-0.3,0.3-0.4c0.7-1.1,0.6-2.7-0.1-3.7
		c-0.4-0.6-0.9-1.1-1.3-1.7c-0.2-0.3-0.2-0.9,0-1.1c0.6-0.7,1.1-1.4,1-2.5c1-0.7,0.9-1.9,0.9-3.1c0-0.3,0.3-0.6,0.4-1
		c0.2-0.3,0.5-0.6,0.5-0.9c0.1-1,0-2,0-3c0.1-1.1-0.2-1.8-0.8-2.6c-0.3-0.4-0.2-1.1,0.1-1.6c0.7-1.2,0.7-1.2,0.7-2
		c0.1-0.8-0.1-1.5-0.6-2.1c-0.5-0.5-0.9-1.1-1.3-1.7c0.2-1.5-0.8-2.1-1.5-2.8c-0.5-0.6-0.2-1.6-0.7-2c-0.8-0.7-0.6-1.8-1-2.5
		c-0.4-0.6-0.9-1.2-1.4-1.7c-0.3-0.3-0.3-0.6-0.3-1.1c0.1-1,0.1-1.9-0.7-2.7c-1-1-1.8-2.3-2.7-3.4c-0.4-0.5-0.4-1-0.4-1.6
		c0-0.8,0-1.6-0.6-2.1c-0.3-0.3-0.4-0.6-0.4-1c0-2,0-4,0-6c0-0.5-0.1-0.7-0.3-1c-0.6-0.7-1.2-1.4-1.7-2.1c-0.4-0.6-0.8-0.5-1.3-0.5
		c-0.7,0.1-1.3-0.1-1.7-0.8c-0.3-0.6-0.9-0.2-1.3-0.5c-0.4-0.3-0.7-0.8-1.1-1.2c-0.7,0.2-1.1-0.4-1.6-0.9c-0.3-0.3-1-0.1-1.2-0.5
		c-0.6-0.8-1.2-1.1-2.1-1c-0.9,0.1-1.9,0.2-2.5-1.1c-1.1,0.1-1.7-0.8-2.3-1.7c-0.5-0.7-1-0.9-1.7-0.8c-0.7,0.1-0.7,0-1.6-0.9
		c-0.4-0.4-1-0.1-1.3-0.4c-0.6-0.8-1.2-1.3-2.1-1.1c-0.5,0.1-0.9-0.1-1.2-0.6c-0.6-0.9-1.3-1.7-2-2.6c-0.1-0.1-0.2-0.3-0.3-0.4
		c-0.1-0.1-0.3,0-0.5,0c-1,0-1.9,0.1-2.9,0c-1-0.1-1.9,0.1-2.5,1.2c-0.8,0-1.6,0-2.4,0c-0.6,0-0.9,0.3-0.9,1c0,1,0,2,0,3
		c0,0.3-0.3,0.6-0.6,0.8c-0.4,0.2-1.2-0.1-1.2-0.5c-0.1-0.4-0.2-0.9,0-1.2c0.2-0.5,0.6-0.9,0.9-1.3c0,0-0.2-0.4-0.3-0.4
		c-1.6-0.4-3.2-0.1-4.7-0.2c-0.4,0.4-0.7,1-1.1,1.1c-1.6,0.1-3.2,0.1-4.8,0.1c-0.2,0-0.5-0.5-0.7-0.7c-0.7-0.8-1.5-0.6-1.8,0.5
		c-0.5,1.8-0.6,2-2.1,2.7c-0.3,0.1-0.5,0.3-0.8,0.6c-1,1-1,0.9-2,0.1c-0.9-0.8-1-0.9-2,0.1c-0.6,0.7-1.1,0.7-1.6,0.2
		c-0.3-0.4-0.5-0.9-1.2-0.9c-2.9,0.1-5.8,0-8.6,0.1c-0.6,0-0.8-0.5-1.2-0.9c-0.3-0.3-1.1-0.5-1.3-0.3c-0.5,0.6-1,1.1-1.3,1.7
		c-0.4,0.7-1.2,0.4-1.6,0.8c-0.9,0.7-1.3,2.4-2.6,2.2c-0.7,0.8-1.4,1.7-2.1,2.5c-0.2,0.3-0.5,0.6-0.7,0.8c-0.2,0.3-1.1,0.4-1.3,0.1
		c-0.1-0.1-0.2-0.3-0.3-0.4c-0.7-0.7-1.1-2.1-2.3-1.8c-0.7-0.8-1.4-1.6-2.1-2.4c-0.2-0.2-0.7,0.1-0.9-0.1c-0.4-0.3-0.7-0.9-1-1.2
		c-0.4-0.3-0.4-0.6-0.1-0.9c0.1-0.1,0.3-0.2,0.4-0.3c0.5,0,1,0.1,1.4,0c0.3-0.1,0.7-0.3,0.7-0.6c0.1-0.5,0.2-1.2-0.3-1.6
		c-0.4-0.4-0.8-0.7-0.6-1.5c0-0.2,0-0.4,0-0.6c0-0.6,0.1-1.2-0.4-1.6c-0.4-0.4-0.7-0.9-1-1.3c-0.4-0.4-0.6-0.9-0.5-1.5
		c0-0.8,0-1.5,0.5-2.2c0.6-0.8,0.7-1.5,0.3-2c-0.9-1.1-1.8-2.3-2.7-3.4c-0.2-0.2,0.1-1.5,0.4-1.6c0.3-0.1,0.6,0,0.9-0.1
		c0.2-0.1,0.6-0.5,0.6-0.8c0.1-0.8,0-1.6,0-2.4c0-0.6,0-1.1-0.4-1.6c-0.8-0.9-1.6-2-2.4-3c-0.1-0.1-0.1-0.4-0.1-0.6
		c0.1-1-0.8-1.3-0.9-1.9c-0.1-0.8-0.2-1.5-0.7-2c-0.1-0.1-0.3-0.3-0.3-0.4c0.3-1.4-1.1-1.8-1-3.1c0-0.3-0.3-0.6-0.4-1
		c-0.2,0.3-0.5,0.6-0.5,0.9c0,0.6-0.1,1.2-0.5,1.5c-0.3,0.3-0.4,0.6-0.4,1c0,0.8,0,1.6,0,2.4c-0.1,1.5,0.5,3.2-0.9,4.4
		c-0.2,0.1-0.1,0.8-0.1,1.1c0.1,0.8,0,1.6-0.6,2.1c-0.5,0.4-0.2,1.1-0.4,1.6c-0.2,0.5-0.7,0.8-0.9,1.3c-0.2,0.5,0,1.2-0.4,1.6
		c-0.2,0.2-0.6,0.6-0.5,0.9c0.2,1.2-0.9,1.6-1,2.5c0,0.3,0.1,0.8,0.2,1.1c0.2,0.5,0.4,0.4,0.7-0.1c0.1-0.2,0.2-0.3,0.3-0.4
		c0.5-0.5,1.5-0.4,1.6,0.3c0.1,0.5,0.2,1.2-0.3,1.6c-0.1,0.1-0.2,0.3-0.3,0.4c-0.4,0.3-0.4,0.5,0,0.9c0.4,0.3,0.7,0.8,0.6,1.5
		c-0.1,0.7,0.2,1.6-0.4,2.2c-0.4,0.4-0.7,0.9-0.5,1.5c0.3,1.7-0.7,2.5-1.5,3.3c-0.1,0.1-0.3,0-0.5,0c-0.8,0.2-0.8,0.3-0.9,1
		c0,0.5,0,0.8,0.3,1.1c0.3,0.3,1.1,0.4,1.3,0.1c0.6-0.7,1.1-1.5,1.7-2.1c0.2-0.2,0.6-0.2,0.9-0.1c0.2,0.1,0.5,0.6,0.5,0.7
		c-0.4,0.6-0.9,1-0.9,2c0,0.8-0.7,1.2-1.1,1.8c-0.8,1-1.6,2-2.4,3c-0.4,0.6-0.4,2.5,0.1,3.3c0.5,0.8,0.5,0.8,0.1,1.3
		c-0.3,0.4-0.7,0.9-1,1.2c-0.1,0.1-0.3,0-0.5,0c-0.2,0-0.4,0.1-0.5,0c-0.7-0.8-1.4-1.6-2.1-2.4c-1.2,0.2-1.5-1.2-2.3-1.9
		c-0.1-0.1-0.2-0.4-0.3-0.4c-1.6-0.1-2.3-1.9-3.3-3c-0.6-0.6-1.3-1.2-1.1-2.4c-0.5-0.7-1.1-1.4-1.6-2.2c-0.4-0.6-0.9-1.1-1.4-1.7
		c-0.6-0.7-1.2-1.4-1.7-2.1c-0.2-0.2,0-0.8-0.1-1.1c-0.2-0.6-0.6-0.8-1.1-0.8c-0.7-0.1-0.8-0.2-0.8-1.1c0-0.4,0-0.9-0.3-1
		c-0.4-0.2-0.9-0.2-1.3-0.5c-0.4-0.3-0.6-1-1.1-1c-0.8,0.1-1-0.8-1.6-1.1c-0.5-0.3-1.2-0.2-1.6-0.9c-0.5-0.7-1.2-0.7-1.6,0
		c-0.5,0.7-1,0.8-1.7,0.8c-0.7-0.1-0.7,0-1.6,0.9c-0.3,0.3-1.1,0.4-1.3,0.2c-0.5-0.6-0.9-1.1-1.3-1.7c-0.1-0.3-0.1-0.9,0-1.1
		c0.4-0.6,0.9-1.1,1.3-1.7c0.2-0.3,0.5-0.6,0.5-0.9c0-1.2-0.1-2.4-0.1-3.5c-0.5-0.5-0.9-1-0.8-2c0-1,0.3-2-0.2-2.9
		c-0.4-0.6-0.9-1.2-1.3-1.7c-0.3-0.3-0.4-0.6-0.4-1c0-0.8,0-1.6,0-2.4c0-0.5,0-0.9-0.3-1c-0.9-0.5-0.3-1.9-1-2.5
		c-0.8-0.7-0.6-1.8-0.6-2.7c0-0.4-0.2-0.7-0.4-1c-0.2-0.2-0.5-0.6-0.5-0.9c-0.1-0.6,0.1-1.2,0-1.8c-0.3-2.1,0.8-4.4-0.8-6.2
		c-0.2-0.2-0.1-0.7-0.1-1.1c0-2,0-4,0-6c0-0.3-0.4-0.7-0.5-0.7c-0.3,0.1-0.4,0.5-0.4,0.9c-0.2,1.9,0.7,4-0.9,5.5c0,2,0,4,0,6
		c0,0.1-0.2,0.3-0.3,0.4c-0.3,0.4-0.7,0.7-0.7,1.5c0.1,0.8,0,1.6,0,2.4c0,1,0.1,2-0.7,2.6c-0.3,0.2-0.2,0.7-0.3,1.1
		c-0.2,1.7,0.7,3.6-0.7,5c-0.2,0.2-0.2,0.7-0.2,1.1c0,3.6,0,7.2,0,10.8c0,0.5,0.3,0.9,1,0.9c0.4,0,0.6,0,0.8,0.5
		c0,0.1,0,0.3-0.1,0.4c-0.9,1.1-1.8,2.3-2.7,3.4c-0.3,0.4-0.5,0.8-0.8,1.3c0.3,0.4,0.7,0.9,1,1.3c0.6,0.8,0.7-0.3,1-0.5
		c0.3-0.2,1.1-0.4,1.3-0.2c0.3,0.4,0.7,0.8,1,1.3c0.1,0.1,0.2,0.3,0.3,0.4c-0.3,0.2-0.5,0.5-0.8,0.6c-0.6,0.1-1.3,0-1.9,0
		c-0.7,0-1.2,0.2-1.2,1.3c0,0.2,0,0.4-0.1,0.6c-0.7,0.9-1.4,1.7-2,2.6c-0.2,0.3-0.5,0.4-0.8,0.4c-2.1,0-4.2,0-6.2,0
		c-0.7,0-1.2,0.2-1.6,0.9c-0.6,0.9-1.3,1.7-2.3,1.7c-2.6,3.3-5.2,6.5-7.8,9.8c-0.2,0.2-0.2,0.7-0.2,1.1c0.1,1.1-0.1,1.9-0.8,2.6
		c-0.2,0.2-0.2,0.7-0.1,1.1c0.1,1.1-0.2,1.9-0.9,2.6c0,1.1-0.4,1.8-1,2.5c-0.4,0.5-1.1,0.9-1,1.9c0,1.2-0.9,1.5-1.4,2.3
		c-0.4,0.6-0.9,1.1-1.3,1.7c0,1.8-1.2,2.6-2,3.8c0.2,1.2-0.4,1.8-1,2.5c-0.6,0.7-1.1,1.4-1.7,2.1c-0.6,0.7-1.1,1.5-1.7,2.1
		c-0.4,0.5-0.4,1-0.4,1.6c0,0.6-0.1,1.1,0.3,1.7c0.7,1.1,0.7,1.2,0.7,2c0,0.6,0,1.2,0,1.8c0,0.5-0.1,0.7-0.3,1
		c-1.7,2.1-3.4,4.3-5.1,6.3c-0.4,0.5-0.3,1.1-0.3,1.6c-0.1,0.6,0.1,1.1-0.3,1.6c-1.3,1.5-2.5,3.1-3.8,4.7c-0.1,0.1-0.3,0.2-0.3,0.2
		c-0.3-0.2-0.4-0.6-0.4-1c0-1,0.2-2-0.6-2.7c-0.1-0.1-0.3-0.3-0.3-0.4c0.1-1.1-0.4-2.4,0.7-3.3c0.3-0.3,0.2-0.5-0.1-0.9
		c-0.5-0.6-0.5-0.7-0.1-1.2c0.3-0.4,0.5-0.6,0.3-0.9c-0.5-0.6-0.8-1.1-0.8-2c0.1-1.2,0.1-2.4,0-3.6c0-0.4-0.3-0.7-0.6-0.6
		c-0.1,0-0.3,0.2-0.3,0.4c-0.3,1.5-0.2,1.5-0.7,2c-0.3,0.3-0.3,0.6-0.3,1.1c0,1.2-1.2,1.7-1,3.1c0.2,1.2,0,2.4,0,3.6
		c0,0.4,0,0.8,0,1.2c0.1,0.9-0.4,1.4-0.7,2c-0.4,0.7-0.3,1.9-1.1,2.5c0,0.8-0.1,1.6-0.1,2.3c0,0.4,0.1,0.8,0,1.2
		c-0.1,0.6-0.5,0.9-1,0.9c-0.7,0-0.9,0.3-0.9,1c0,1.4,0,2.8,0,4.2c0,0.4,0.3,0.7,0.6,0.6c0.1,0,0.3-0.2,0.3-0.4
		c0.3-1.4,0.2-1.5,0.7-2c0.3-0.3,0.4-0.6,0.3-1.1c-0.1-0.4,0.1-0.7,0.4-1c0.4-0.4,0.7-0.8,1-1.3c0.3,0.4,0.7,0.8,1,1.1
		c0.4,0.5,0.5,0.6-0.1,1.2c-0.6,0.7-0.2,1.9-1,2.5c-0.5,0.4-0.9,1.1-1.3,1.7c-0.2,0.3,0.1,0.9-0.1,1.1c-0.4,0.6-0.9,1.2-1.3,1.7
		c-0.9-0.2-1.5,0.5-2,1.3c-0.2,0.3-0.4,0.6-0.4,1c0,1.8,0,3.6,0,5.4c0,0.3,0.3,0.5,0.5,0.7c0.1-0.1,0.2-0.3,0.3-0.4
		c0.8-1,0.8-1,1-2.5c0-0.2,0.2-0.3,0.3-0.4c0.2-0.1,0.6,0,0.6,0.5c0.1,2.4,0,4.8,0,7.2c0,0.9-0.2,1.5-0.7,2
		c-0.4,0.4-0.2,1.1-0.2,1.7c0,0.6,0,1.2-0.4,1.6c-0.4,0.4-0.5,0.9-0.5,1.5c0,0.6-0.1,1.1-0.1,1.7c-0.8,0.6-0.9,1.6-0.8,2.6
		c0,0.2-0.1,0.5,0,0.6c0.3,0.5,0.6,0.9,0.9,1.3c-0.3,0.4-0.6,0.8-0.9,1.3c-0.2,0.3,0.1,1.5,0.3,1.6c0.3,0.1,0.6,0.1,0.9,0.2
		c0.6,0.2,0.7,0.6,0.3,1.1c-1.2,1.6-2.5,3.1-3.7,4.7c-0.3,0.4-0.6,0.9-1,1.2c-0.4,0.3-0.9,0.2-1.3,0.5c-0.3,0.2-0.4,0.8-0.7,0.8
		c-1.3,0.1-2.5,0.1-3.8,0.1c-0.2,0-1.6-1.8-1.5-2.1c0.4-1.9-0.7-2.9-1.6-4c-0.3-0.3-0.4-0.6-0.4-1c0-1.2,0.1-2.4,0-3.6
		c0-0.7,0.4-1,0.7-1.5c0.4-0.6,0.4-1.5,0-2.1c-0.3-0.4-0.7-0.8-1-1.3c-0.2-0.2-0.4-0.6-0.4-0.8c0.1-0.4,0.4-0.5,0.8-0.5
		c0.5,0.1,1,0,1.4,0c0.1,0,0.3-0.2,0.3-0.4c0.1-0.8,0.1-1.6,0.2-2.3c0-0.2-0.1-0.4-0.2-0.5c-1-0.6-0.5-2.3-1.4-2.9
		c-0.4-0.3-0.4-0.5-0.1-0.9c0.9-1.2,0.9-1.2,0-2.9c-0.1-0.2-0.3-0.3-0.2-0.5c0.2-1.2-0.7-1.6-1-2.5c-0.1-0.4,0-0.8-0.2-1.1
		c-0.4-0.6-0.8-1.2-1.4-1.7c-0.6-0.5-0.1-1.6-0.7-2.1c-0.9-0.7-0.4-2.3-1.3-2.9c-0.3-0.2-0.3-0.6-0.3-1c0.1-1,0-2,0.1-3
		c0-0.1,0.3-0.4,0.3-0.4c1.1,0.7,1.8,2.1,2.7,3.1c0.1,0.1,0.3,0.3,0.3,0.2c0.3-0.2,0.4-0.5,0.4-1c0-0.4,0-0.8,0-1.2
		c0.1-0.5,0-0.8-0.3-1.1c-0.6-0.5-0.8-1.2-0.7-2c-0.3-0.4-0.6-0.9-1-1.3c0.3-1.2-0.8-1.7-0.9-2.5c-0.1-0.9-0.4-1.4-0.8-2
		c-0.2-0.2,0-0.5,0.3-0.9c0.6-0.9,0.6-1.4,0.2-2c-0.1-0.2-0.2-0.3-0.3-0.4c-0.3-0.3-0.4-0.6-0.4-1c0-0.5,0-0.8,0.3-1.1
		c0.2-0.2,0.4-0.1,0.7,0.3c0.4,0.7,1,0.8,1.6,0.4c0.1-0.1,0.2-0.4,0.2-0.4c-0.6-0.9-1.7-1.5-1.8-2.7c-0.1-1.4-1.1-1.9-1.6-2.8
		c-0.1-0.2-0.3-0.3-0.3-0.4c-0.1-0.2-0.1-0.4-0.1-0.6c0-1.2,0-2.4,0-3.6c0.1-1.3,0-2.4-1-3.1c0-1,0-2,0-3c0-1.2,0-2.4,0-3.6
		c0-1.2,0-2.4,0-3.6c0-0.4,0-0.8,0-1.2c0-0.9-0.5-1.4-1.2-1.2c-0.3,0.1-0.6,0.4-0.6,0.7c-0.1,2.2,0,4.4,0,6.6c0,1,0,2-0.7,2.7
		c-0.2,0.2-0.2,0.7-0.2,1.1c0,2.4,0,4.8,0,7.2c0,0.3-0.3,0.7-0.4,1c-0.5,0.9-1.6,1.4-1.5,2.9c-0.5,0.7-1,1.5-1.6,2.2
		c-0.3,0.3-0.3,0.6-0.3,1c0,1.2,0,2.4,0,3.6c-0.4-0.1-0.7,0-0.8,0.4c-0.2,0.9-0.3,1.8-1,2.5c-0.5,0.5-1.1,0.9-1.1,1.8
		c0,1-0.5,1.3-0.9,1.9c-0.2,0.3-0.1,1.3,0.2,1.6c0.3,0.3,1,0.4,1.3,0.2c0.1-0.1,0.2-0.3,0.3-0.4c0.7-0.7,1-0.7,1-0.1
		c0,0.5,0.2,1.2-0.3,1.6c-0.2,0.2-0.6,0.5-0.6,0.8c-0.1,1.2-0.1,2.4,0,3.5c0,0.3,0.4,0.6,0.6,0.8c0.3,0.3,0.4,0.6,0.3,1
		c-0.2,0-0.4-0.1-0.5,0c-0.7,0.8-1.4,1.6-2.1,2.4c-0.2,0.2-1.2-0.2-1.2-0.6c0-0.4,0-0.8,0-1.2c0-0.9,0-0.9-0.7-2.1
		c-0.1-0.2-0.3-0.3-0.3-0.4c0-1-0.1-2,0-3c0.1-1.3-0.2-2.3-1-3.1c0-2.8,0-5.6,0.1-8.4c0-0.1,0.2-0.3,0.3-0.4
		c0.6-0.5,0.6-1.3,0.5-2.1c-0.1-0.9,0.3-2-0.5-2.8c-0.2-0.2-0.5-0.6-0.5-0.9c-0.1-1,0-2,0-3c0-0.3-0.4-0.8-0.5-0.8
		c-0.3,0.1-0.4,0.5-0.4,0.9c0,1,0.3,2-0.6,2.7c-0.3,0.3-0.4,0.6-0.4,1c0,0.2,0,0.4,0,0.6c0,1,0,1-0.7,2.1c-0.2,0.3-0.3,0.6-0.3,1.1
		c0,2.4,0,4.8,0,7.2c0,0.8,0,1.6,0,2.4c-0.1,0.7,0.3,1.6-0.3,2.2c-0.4,0.4-0.7,0.8-0.6,1.5c0.1,0.4-0.1,0.8-0.4,1
		c-0.1,0-0.2-0.1-0.3-0.2c-0.9-1.1-1.8-2.3-2.7-3.4c-0.3-0.3-0.4-0.6-0.4-1c0.1-0.7-0.3-1.7,0.3-2.2c0.3-0.3,0.9-0.3,1.3-0.5
		c0.2-0.1,0.5-1.4,0.3-1.6c-0.4-0.6-0.9-1.1-1.3-1.7c-0.2-0.3-0.5-0.6-0.5-0.9c0.1-0.9-0.4-1.4-0.8-2c-0.5-0.9-0.1-1.8,0.8-2
		c0.6-0.1,1.1-1,0.9-1.6c-0.2-0.7-1-1-1-1.9c0-0.8,0-1.6,0-2.4c0.1-0.7-0.3-1.1-0.6-1.5c-0.1-0.1-0.3-0.3-0.3-0.4
		c0-0.8-0.1-1.6,0-2.4c0.1-0.9-0.1-1.5-0.7-2.1c-0.3-0.2-0.3-0.6-0.3-1.1c0-1.4,0-2.8-0.1-4.2c0-0.1-0.2-0.3-0.3-0.4
		c-0.2,0.2-0.5,0.5-0.5,0.7c0,2.4,0,4.8,0,7.2c0,0.8,0,1.6-0.1,2.3c-0.1,0.5-0.8,0.9-0.8,1.4c0,0.9-0.5,1.4-0.9,2
		c-0.3,0.4,0.1,1.2-0.4,1.6c-0.8,0.7-0.7,1.6-0.7,2.6c0,0.7,0.3,1.1,0.6,1.5c0.5,0.6,0.5,1.4,0,2c-0.3,0.4-0.7,0.8-0.6,1.5
		c0,0.2,0,0.4-0.1,0.6c-0.8,1-1.6,2-2.4,3c-0.3,0.4-0.4,0.6-0.2,0.9c0.2,0.3,0.5,0.3,0.9,0.3c0.9,0.2,1,0.3,0.6,0.9
		c-0.3,0.4-0.8,0.7-0.7,1.5c0.1,1,0.1,1.9-0.6,2.7c-0.8,0.7-1.4,1.6-2,2.5c-0.2,0.2-0.1,0.7-0.2,1.1c-0.2,0.8-0.3,0.9-1,0.9
		c-0.6,0-0.9-0.3-0.9-1c-0.1-1.2,0.3-2.4-0.3-3.5c-0.4-0.7-0.8-1.2-0.7-2.1c0.1-1.8,0-3.6,0-5.4c0-1,0-1-1-3.1
		c0.3-1.2-0.5-1.7-0.9-2.5c-0.1-0.3-0.1-0.9,0.1-1.1c0.5-0.8,1.1-1.4,1.7-2.2c0.3-0.3,0.3-1.3,0-1.6c-0.4-0.6-0.9-1.2-1.4-1.7
		c-0.3-0.3-0.4-0.6-0.4-1c0-2,0-4,0-6c0-0.5,0-0.8-0.3-1.1c-0.8-1-1.6-2-2.4-3c-0.3-0.3-0.3-1.1-0.1-1.6c0.2-0.4,0.5-0.6,0.8-0.5
		c0.4,0.1,0.7,0,0.8-0.4c0.3-1.3,0.3-2.7,0-4c-0.8-0.5-0.6-1.7-1-2.5c-0.2-0.5-0.6-0.9-1-1.3c-0.6-0.5-0.8-1.2-0.7-2.1
		c0.1-0.9-0.1-1.5-0.7-2.1c-0.3-0.2-0.5-0.6-0.7-0.8c-0.3-0.4-0.5-0.9-0.6-1.5c-0.1-1.1-1-1.7-1-3.1c0.1-3,0.1-6,0-9
		c0-0.3-0.3-0.6-0.5-0.9c-0.1,0.1-0.2,0.3-0.3,0.4c-0.1,0.1-0.2,0.3-0.3,0.4c-0.3,0.4-0.8,0.7-0.8,1.4c0,2.4,0,4.8,0,7.2
		c0,1,0,1-0.9,3.1c0.1,0.9-0.1,1.6-0.7,2.1c-0.3,0.2-0.3,0.6-0.3,1c0.1,1,0.1,2-0.7,2.6c-0.1,0.1-0.2,0.3-0.2,0.5
		c-0.1,0.9,0.3,2-0.5,2.8c-0.6,0.5-0.3,1.6-0.7,2c-0.6,0.8-0.9,1.6-0.8,2.6c0.1,0.7-0.2,1.2-0.6,1.5c-0.5,0.4-0.4,1-0.4,1.6
		c-0.1,0.8,0,1.6,0.6,2.1c0.1,0.1,0.3,0.3,0.3,0.4c-0.1,1.1,0.4,2.4-0.6,3.3c-0.3,0.2-0.3,0.6-0.3,1c0,0.8,0,1.6,0,2.4
		c0,0.4-0.1,0.8-0.4,1c-0.1,0-0.2-0.1-0.3-0.2c-0.7-0.8-1.4-1.5-1.2-3c0.1-1.2,0-2.4,0-3.6c0-0.6-0.1-1.2-0.5-1.6
		c-0.1-0.1-0.3-0.3-0.3-0.4c-0.6-1.3-2.2-1.7-2.1-3.7c-0.9-1.1-1.8-2.3-2.7-3.4c-0.2-0.2-0.2-0.7-0.2-1.1c0.1-1.1-0.1-1.9-0.8-2.6
		c-0.1-0.1-0.1-0.3-0.1-0.5c0-1.2,0.1-2.4-0.9-3.1c-0.1-0.8-0.1-1.6-0.7-2.1c-0.1-0.1-0.3-0.3-0.3-0.4c0-1.2-0.1-2.4,0-3.6
		c0-0.3,0.4-0.6,0.6-0.9c0.2-0.3,0.5-1.5,0.3-1.6c-0.9-0.6-0.7-2.1-1.4-2.9c-0.7-0.8-0.4-2.3-1.3-2.9c-0.2-0.7,0-1.6-0.7-2.1
		c-0.5-0.4-0.4-1-0.4-1.6c0-0.2-0.1-0.4-0.3-0.5c-0.6-0.5-0.8-1.2-0.7-2c-0.3-0.4-0.7-0.8-0.9-1.3c-0.1-0.3,0-0.8-0.1-1.2
		c-0.2-0.6-1.3-0.8-1.6-0.3c-0.1,0.1-0.3,0.3-0.2,0.5c0.3,1.4-1.1,1.8-1,3.1c0.1,1.4,0,2.8,0,4.2c0,1.2,0.2,2.4-0.8,3.2
		c0,0.8-0.2,1.6-0.1,2.3c0.1,1.1-0.2,1.9-0.9,2.6c-0.2,0.3-0.1,1.2,0.2,1.6c0.1,0.1,0.2,0.3,0.3,0.4c0.5,0.7,0.5,1.4,0.1,2.1
		c-0.3,0.4-0.7,0.7-0.7,1.5c0.1,0.8,0,1.6,0,2.4c0.1,0.8-0.4,1-0.7,1.4c-0.4,0.6-0.3,1.4,0.2,2.1c0.3,0.4,0.7,0.9,1,1.3
		c0.1,0.1,0.2,0,0.5,0c0,0,0,0,0,0c0.1,0,0.1,0.1,0.2,0.1c0,0,0,0,0,0c0.1,0,0.2,0,0.3,0c0,0-0.1,0.1-0.3,0
		c-0.2,0.3-0.2,0.4-0.2,0.6c0,0.6,0.2,1.2-0.3,1.6c-0.5,0.5-1,1.1-1.4,1.7c-0.5,0.9-0.2,1.9-0.2,2.9c0,2.2,0,4.4,0,6.6
		c0,1-0.1,1.9-0.8,2.6c-1.3,1.5-2.5,3.1-3.8,4.6c-0.2,0.3-0.3,0.6-0.3,1.1c-0.1,1.1-1.1,1.7-1,3.1c0.2,1.5,0,3.2-0.1,4.7
		c-1.7,1.8-0.5,4.1-0.8,6.2c0,0.2,0,0.4,0,0.6c-0.1,0.3-0.3,0.6-0.5,0.9c-0.6,1.2-1.5,1.2-2.5,1.2c-0.6,0-0.8,0.3-0.8,1.1
		c0,1,0.2,2-0.6,2.7c-0.1,0.1-0.3,0.3-0.3,0.4c0,0.8,0,1.6,0,2.4c0,0.7,0,0.8-0.7,2c-0.2,0.3-0.3,0.6-0.3,1.1c0,0.6-0.1,1.2,0,1.8
		c0.2,1.5-0.9,2-1.4,2.9c-0.1-0.1-0.3-0.2-0.3-0.4c-0.4-1.6-0.1-3.1-0.1-4.7c0-0.3,0.3-0.7,0.5-0.9c0.3-0.3,0.4-0.6,0.4-1
		c0-5,0-10,0-15c0-0.3-0.3-0.6-0.5-0.9c-0.1-0.2-0.3-0.3-0.3-0.4c0-1.1-0.5-2.4,0.6-3.2c0.3-0.3,0.4-0.6,0.3-1c0-2.4,0-4.8,0-7.2
		c0-0.8,0.4-1,0.7-1.4c0.4-0.6,0.4-1.4-0.1-2.1c-0.2-0.3-0.5-0.5-0.7-0.9c-0.3-0.5-0.4-0.5-0.7-0.1c-0.4,0.8-1,0.8-1.6,0.8
		c-0.7,0-1.2-0.3-1.6-0.9c-0.5-0.6-0.8-1.1-0.7-2c0-1.5,0-1.5,1.2-1.9c0.1-0.1,0.3-0.1,0.4-0.2c0.2-0.1,0.5-1.4,0.3-1.6
		c-0.6-0.7-1.1-1.5-1.7-2.1c-1.5-1.5-1.4-3.4-1-5.3c0.3-1.5,0.4-1.5-0.1-2.1c-0.2-0.3-0.5-0.6-0.7-0.8c-0.5-0.6-0.4-1.4,0-2.1
		c0.2-0.3,0.5-0.6,0.6-0.9c0.1-0.3,0.1-0.9-0.1-1.1c-0.5-0.8-1.1-1.4-1.7-2.2c-0.2-0.3-0.3-1.3,0-1.6c1-0.9,0.4-1.4-0.1-2.2
		c-0.3-0.4,0.1-1.1-0.4-1.6c-0.3-0.4-0.7-0.7-0.7-1.4c0.1-1.4,0-2.8,0-4.2c0-0.1-0.2-0.4-0.3-0.4c-0.2-0.1-0.5,0.1-0.6,0.6
		c-0.1,1.1,0.3,2.4-0.8,3.2c-0.4,0.4-0.2,1.1-0.2,1.7c0,0.6-0.1,1.1-0.5,1.6c-0.2,0.2-0.5,0.6-0.5,0.9c-0.1,1-0.1,2,0,3
		c0.1,1.1-0.2,1.9-0.9,2.6c-0.3,0.3-0.1,1.2,0.1,1.6c0.2,0.3,0.5,0.5,0.7,0.9c0.1,0.3,0.1,0.8,0,1.2c-0.2,0.7-1.1,0.9-0.9,1.9
		c0.1,0.8-0.4,1-0.7,1.4c-0.2,0.3-0.3,0.6-0.3,1.1c0,0.4,0,0.8,0,1.2c0,0.4-0.2,0.7-0.4,1c-0.8,1.2-0.8,1.4-0.1,2.4
		c0.3,0.4,0.5,0.6,0.3,0.9c-0.6,0.7-1.2,1.4-1.7,2.2c-0.2,0.2-0.2,0.8,0,1.1c0.7,1.7,0.7,1.7-0.1,2.6c-0.6,0.7-1,1.5-0.9,2.6
		c0.1,1.2-0.1,2.4-0.1,3.5c-1.3,1.4-0.6,3.3-0.8,5c0,0.2,0,0.4,0,0.6c0,0.7-0.9,1.2-1.5,0.8c-0.1-0.1-0.3-0.3-0.3-0.4
		c-0.1-1.2-0.2-2.4-0.1-3.6c0-0.5,0.6-0.9,0.9-1.3c0-2.8,0-5.6,0-8.4c-1.5-1.3-0.8-3.2-1-4.9c0-0.2-0.2-0.3-0.3-0.4
		c-0.3-0.4-0.6-0.9-1-1.3c-0.8-0.8-0.4-2.3-1.3-2.9c0,0,0-0.3,0.1-0.4c0.5-0.5,0.8-1.1,0.8-2c-0.1-3-0.1-6,0-9c0-1.3-1.3-1.7-1-3.1
		c0.2-1.2,0-2.4,0-3.6c0-0.6,0-1.2,0-1.8c0-1-0.2-1.2-1.2-1.3c-0.6,0-1.2,0.1-1.7-0.6c-0.9-1.2-1.8-2.3-2.7-3.4
		c-0.3-1.6,0-3.2-0.2-4.7c0-0.3-0.4-0.8-0.5-0.8c-0.7,0.1-1.2-0.3-1.6-1c-0.2-0.3-0.6-0.5-0.6-0.9c0-0.2,0.4-0.6,0.6-0.8
		c0.5-0.7,0.4-2.5-0.1-3.3c-0.5-0.8-0.5-0.8-0.2-1.3c0.5-0.7,0.5-0.7,0.1-1.3c-0.2-0.3-0.4-0.6-0.7-0.8c-0.8-0.9-0.8-0.9-0.8-2
		c0-0.6,0-1.2,0-1.8c0-0.5,0-0.8-0.3-1.1c-0.8-0.6-0.8-1.7-0.7-2.6c0-0.5-0.1-0.7-0.3-1.1c-0.4-0.5-0.4-0.5,0.1-1.7
		c0.1-0.2,0.2-0.3,0.2-0.5c0-1.6,0-3.2-0.1-4.8c0-0.1-0.3-0.4-0.3-0.4c-0.7,0.8-1.6,1.2-1.5,2.7c0,1,0.4,2.1-0.2,2.9
		c-0.6,0.8-0.7,1.6-0.7,2.7c0,0.7,0.3,1.1,0.6,1.5c0.3,0.3,0.4,0.6,0.4,1c0,0.5,0,0.8-0.3,1c-2.1,1.3-2.1,1.3-2.6,2.2
		c0.1,0.9-0.3,1.4-0.8,2c-0.4,0.6-0.1,1.5-0.2,2.3c0,0.2-0.1,0.4-0.2,0.5c-1,0.8-0.8,2-0.8,3.2c0,0.2-0.1,0.4-0.2,0.5
		c-0.5,0.5-0.9,0.9-0.2,1.7c0.5,0.6,0.6,1.5,0,2c-0.5,0.6-0.7,1.2-0.6,2.1c0,0.9,0,0.9-0.7,2c-0.4,0.7-0.4,1.2,0.2,2.1
		c0.5,0.7,0.5,0.7,0,1.3c-0.1,0.1-0.2,0.3-0.3,0.4c-0.3,0.4-0.7,0.9-1,1.3c0.1,1.1-0.4,1.8-1,2.5c0.1,0.9-0.1,1.5-0.7,2.1
		c-0.8,0.9-0.7,0.9-1.4,0.2c-0.7-0.7-1-1.5-0.9-2.6c0-0.2,0.1-0.4,0-0.6c-0.1-0.3-0.3-0.7-0.5-0.9c-0.3-0.3-0.5-0.7-0.2-0.9
		c1-0.8,0.8-2.1,0.7-3.2c0-0.5-0.7-0.8-0.9-1.3c-0.2-0.5,0.2-1.2-0.4-1.6c-0.6-0.5-0.7-1.2-0.6-2.1c0-0.2,0-0.4,0-0.6
		c0.1-0.4-0.1-0.7-0.4-1c-0.4-0.4-0.6-0.8-0.6-1.5c0-1.4,0-2.8-0.1-4.2c0-0.1-0.2-0.4-0.3-0.4c-0.1,0-0.3,0.2-0.3,0.3
		c-0.3,0.7-0.1,1.5-0.2,2.3c-0.1,1,0.2,2-0.2,2.9c-0.3,0.7-0.8,1.2-1.3,1.7c-0.4,0.5-0.4,1-0.4,1.6c0,0.6-0.2,1.3,0.3,1.6
		c1.1,0.8,0.6,2.1,0.7,3.3c0,0.1-0.2,0.3-0.3,0.4c-0.2,0.3-0.6,0.6-0.5,0.8c0.1,0.3,0.4,0.6,0.6,0.9c0.4,0.5,0.4,1.3,0.1,1.6
		c-0.7,0.7-0.7,1.7-1,2.5c-0.3,0.7-0.8,1.2-1.3,1.7c-0.3,0.3-0.5,0.6-0.4,1c0.1,0.7-0.3,1.1-0.6,1.5c-0.2,0.2-0.3,0.4-0.1,1
		c-0.1,0-0.2,0-0.3,0.1c0,0,0,0.1,0,0.2c-0.3-0.2-0.4-0.2-0.4-0.2c-0.5-0.6-1-1.2-1.5-1.9c-0.1-0.1,0-0.3,0-0.5c0-0.2-0.1-0.5,0-0.6
		c0.6-0.9,1.3-1.7,1.9-2.6c0.2-0.3-0.1-1.6-0.4-1.5c-0.9,0.1-1.4-0.5-2-1.3c-0.1-0.1-0.3,0-0.5,0c-0.1-0.4,0-0.7,0.3-1
		c0.2-0.2,0.6-0.5,0.6-0.8c0.1-0.9,0.3-1.8-0.1-2.7c-0.2-0.4-0.4-0.5-0.8-0.4c0-0.2,0.1-0.5,0-0.6c-0.9-0.8-1-1.9-1-3.1
		c0.1-0.8,0.1-0.9,0.8-1.1c0.2,0,0.3,0,0.5,0c0.5-0.2,0.6-0.7,0.1-1.2c-0.3-0.4-0.7-0.8-1-1.3c-0.4-0.5-0.4-0.5,0.1-1.3
		c0.6-0.9,0.6-1.5-0.3-2.5c-0.3-0.4-0.3-0.5,0-0.9c0.6-0.7,0.6-0.8,0.2-1.3c-0.3-0.4-0.7-0.9-1-1.3c-0.4-0.4-0.5-0.9-0.5-1.6
		c0-0.8,0-1.6,0-2.4c0-0.5-0.5-0.9-1-0.9c-0.6,0-0.9,0.3-0.9,1c0,0.8,0,1.6,0,2.4c0,0.4,0,0.9-0.3,1.1c-1,0.6-0.4,2.3-1.4,2.9
		c-0.4,0.3-0.3,0.5,0,0.9c0.8,1,0.8,1.7,0.2,2.5c-0.3,0.4-0.7,0.9-1,1.3c-0.4,0.5-0.4,0.5,0,1.3c0.6,0.9,0.6,1.5,0.2,2.1
		c-0.3,0.4-0.7,0.9-1,1.3c-0.4,0.5-0.4,0.5,0,1.7c0.1,0.2,0.2,0.3,0.2,0.5c0,1.2,0,2.4,0,3.6c0.1,0.9-0.3,1.5-0.8,2
		c-0.2,0.3-0.4,0.6-0.7,0.8c-0.4,0.4-0.5,0.9-0.5,1.6c0.1,1.1-0.2,1.9-0.9,2.6c-0.3,0.3-0.1,1.3,0.2,1.6c0.3,0.3,1.1,0.4,1.3,0.1
		c0.2-0.3,0.5-0.6,0.7-0.8c0.3-0.4,0.7-0.9,1-1.3c0.2-0.3,1-0.2,1.3,0.1c0.2,0.3,0.4,1.4,0.2,1.6c-1,1.3-2,2.6-3.1,3.8
		c-0.2,0.2-0.6,0.3-0.9,0.3c-1.1-0.3-1.8,0.5-2.4,1.4c-0.1,0.1-0.3,0.3-0.3,0.4c0.2,0.4,0.4,0.5,0.8,0.6c1.1,0.3,1.1,0.3,1.1,1.4
		c0,1,0,2,0.8,2.6c0.1,0.1,0.1,0.3,0,0.4c-0.4,0.6-0.9,1.1-1.4,1.6c-1-0.3-1.4,0.7-1.9,1.4c-0.5,0.6-0.5,1.4,0,2.1
		c0.3,0.4,0.7,0.7,0.7,1.5c0,0.4-0.1,0.7-0.4,1c-0.9,0.7-0.2,1.1,0.2,1.7c0.5,0.9,0.1,1.9-0.8,2c-0.3,0-0.6,0.1-0.8,0.5
		c-0.3,0.5-0.6,0.9-1.2,0.8c-0.6-0.1-1.3,0-1.9,0c-0.3,0-0.6-0.1-0.8-0.5c0-0.1,0.1-0.3,0.2-0.4c0.3-0.5,0.8-0.7,0.7-1.5
		c-0.1-1,0-2,0-3c0-0.1-0.2-0.4-0.3-0.4c-0.9-0.4-1.9-0.1-2.8-0.2c-0.5,0-0.9,0.1-1.4-0.2c-0.3-0.3-0.3-0.6-0.3-1.1
		c0-0.4,0.1-0.9,0.4-1c0.8-0.1,1.6-0.1,2.4-0.1c0.8,0,1.1-0.3,1.1-1.4c0-0.6,0-1.2-0.1-1.7c0-0.2-0.2-0.4-0.3-0.4
		c-0.9,0.2-1.4-0.6-2-1.3c-0.7,0.2-1.2-0.2-1.6-0.9c-0.7-1-0.7-0.9-0.1-1.7c0.2-0.3,0.4-0.6,0.7-0.8c0.3-0.3,0.9-0.3,1.3,0.1
		c0.3,0.2,0.4,0.6,0.7,0.8c0.3,0.3,1.1,0.1,1.3-0.2c0.2-0.4,0.3-1.3,0.1-1.6c-0.4-0.6-0.9-1.1-1.4-1.7c-1,0.3-1.4-0.6-2-1.3
		c-0.4-0.5-0.3-0.8,0.3-1.1c1.3-0.5,1.3-0.5,0.5-1.5c-0.3-0.4-0.7-0.8-1-1.3c-1.2-1.5-1.2-1.5-1.2-3.6c0-0.7,0-0.7,0.9-2.6
		c0.2-0.4,0.1-1.3-0.1-1.6c-0.1-0.1-0.3-0.2-0.3-0.2c-0.9,0.9-1.7,1.9-1.4,3.5c0.1,0.5-0.1,0.7-0.3,1c-0.5,0.5-0.9,1.1-1.4,1.7
		c-0.1,0.1-0.1,0.3-0.1,0.4c0.2,0.4,0.4,0.5,0.8,0.5c0.7,0,1.3,1,1,1.5c-0.5,1-0.9,2.1-2.1,2.1c-0.3,0-0.7,0.2-0.7,0.6
		c0,0.1,0.4,0.5,0.6,0.6c1.3,0.5,1.3,0.5,0.5,1.5c-0.1,0.1-0.2,0.3-0.3,0.4c-0.5,0.7-0.5,0.6-0.1,2.1c0.2,0.6-0.5,0.8-0.7,1.3
		c-0.1,0.2,0.3,0.6,0.5,0.8c0.3,0.5,0.3,0.5-0.3,1.3c-0.7,0.9-1.4,1.7-2,2.6c-0.2,0.2-0.1,0.6,0.3,0.8c0.4,0.4,0.5,0.9,0.5,1.6
		c0,0.6-0.2,1.2,0.2,1.7c0.4,0.6,0.9,1,0.2,1.7c-0.6,0.6-1.1,1.4-1.7,2.1c-0.9,1-0.9,1.4,0.2,2.9c0.2,0.2,0.1,0.8-0.3,0.8
		c-0.7,0-1.2,0.2-1.6,0.9c-0.1,0.1-0.3,0.3-0.3,0.2c-0.4-0.8-1.4-1.1-1.4-2.3c0-2.4,0-4.8,0-7.2c0-0.9-0.5-1.4-1.2-1.2
		c-0.3,0.1-0.6,0.4-0.7,0.7c-0.1,0.6-0.1,1.2,0,1.8c0,0.4-0.1,0.8-0.4,1c-0.9,0.7-0.4,2.3-1.4,2.9c-0.4,0.9-0.1,1.9-0.2,2.9
		c0,0.6-0.1,1.1-0.5,1.6c-0.2,0.2-0.4,0.6-0.5,0.9c0,1.8-0.1,3.6,0,5.4c0.1,1.5-0.6,2.1-1.3,3c-0.2,0.3-0.4,0.1-0.7-0.3
		c-0.3-0.6-1.1-0.9-1-1.9c0.1-0.7-0.4-1-0.7-1.4c-0.2-0.3-0.3-0.6-0.2-1.1c0-0.4,0-0.8,0-1.2c0-0.4-0.1-0.8-0.5-0.9
		c-0.1,0-0.4,0.5-0.5,0.8c-0.4,1.6-0.4,1.6-1.2,0.6c-0.3-0.4-0.8-0.7-0.8-1.4c0-1.2,0-2.4,0-3.6c0-0.5,0-0.8-0.3-1.1
		c-0.6-0.5-0.8-1.2-0.7-2.1c0.1-0.7,0-0.7-0.7-2.1c-0.1-0.2-0.3-0.3-0.3-0.5c0-1-0.1-2,0-3c0.2-1.4-0.3-2.3-1.1-3.1
		c-0.1-0.1-0.2-0.3-0.3-0.4c-0.2,0.3-0.4,0.6-0.5,0.9c-0.1,0.6,0,1.2,0,1.8c0,0.8,0,1.6,0,2.4c-0.1,0.8-1,1-0.9,1.9
		c0,0.7-0.3,1.1-0.6,1.5c-0.6,1-0.6,1.4,0.2,2.5c0.5,0.6,0.5,1.4,0,2c-0.1,0.2-0.2,0.3-0.3,0.4c-0.3,0.3-0.4,0.6-0.3,1.1
		c0.1,0.4-0.1,0.7-0.4,1c-0.2,0.2-0.5,0.6-0.4,0.8c0.1,0.4,0.4,0.6,0.8,0.5c0.4-0.1,0.6,0,0.8,0.4c0.1,0.3,0,0.5-0.3,0.9
		c-0.5,0.5-0.9,1.1-1.4,1.7c0.2,1.5-0.7,2.1-1.4,2.9c-0.7,0.8-0.3,1.2,0.1,1.7c0.2,0.2,0.2,0.7,0.2,1.1c0.1,1.3-0.4,2.8,0.8,3.8
		c0,0,0,0.4,0,0.4c-1.1,0.7-0.6,2.6-1.7,3.4c-0.7,0.5-1.2,1.4-1.7,2.1c-0.4,0.5-0.4,1.2,0.1,2.1c0.2,0.3,0.5,0.6,0.5,0.9
		c0,3,0,6,0,9c0,0.3-0.3,0.6-0.5,1c-0.1-0.1-0.2-0.3-0.3-0.4c-0.7-0.8-0.6-0.7-1-0.3c-0.8,0.8-1.3,1.7-1.1,3.1c0.1,0.4,0,0.8,0,1.2
		c0.1,0.7-0.4,1-0.7,1.5c-0.4,0.6-0.9,1.2-1.6,1c-0.7,0.8-1.4,1.6-2.1,2.4c-0.4,0.4-0.5,1-0.5,1.6c0,1,0.3,2-0.2,2.9
		c-0.4,0.6-0.9,1.1-0.7,2c0.2,1.1-0.3,1.8-0.9,2.5c-0.5,0.6-0.5,0.6-1,0c-0.6-0.7-1.1-1.4-0.9-2.5c0.1-0.6,0-1.2-0.4-1.6
		c-0.2-0.2-0.5-0.6-0.5-0.9c-0.1-0.6,0-1.2,0-1.8c0-0.9,0-0.9-0.8-2.6c-0.2-0.5-0.3-1.1,0.1-1.6c0.2-0.3,0.6-0.5,0.6-0.9
		c0-0.2-0.3-0.6-0.5-0.8c-0.1-0.2-0.3-0.3-0.3-0.4c0-1.4-0.1-2.8,0-4.2c0-0.8-0.4-1.1-0.7-1.5c-0.3-0.3-0.3-0.6-0.3-1.1c0-1,0-2,0-3
		c0-0.1-0.2-0.4-0.3-0.4c-0.2-0.1-0.6,0.2-0.6,0.6c0,1.6-0.1,3.2,0,4.8c0,0.9-0.3,1.4-0.8,2c-0.4,0.5,0,1.6-0.7,2
		c-0.1,0.1-0.3,0.3-0.3,0.4c0.1,0.3,0.2,0.6,0.4,0.9c0.5,0.8,0.6,1.4,0.1,2.1c-0.3,0.4-0.8,0.7-0.7,1.4c0.1,0.6-0.1,1.2,0,1.8
		c0.2,1.2-0.5,1.8-1,2.5c-0.4,0.5-0.4,0.5-1-0.2c-0.1-0.1-0.2-0.3-0.3-0.4c-0.2,0.3-0.5,0.5-0.5,0.8c-0.1,0.6,0,1.2,0,1.8
		c0,0.6,0.3,0.9,1,0.9c0.4,0,0.6,0,0.8,0.5c0,0.1,0,0.3-0.1,0.4c-1,1.7-1,1.7-0.1,2.9c0.1,0.1,0.3,0.3,0.3,0.4c0,0.4,0.1,0.8,0,1.2
		c-0.1,0.4-0.8,0.8-1.2,0.6c-0.4-0.3-0.7-0.7-1.1-1.1c-0.1,0-0.3,0.1-0.3,0.2c-0.5,0.9-0.2,1.9-0.2,2.9c0,1.2-0.3,2.4,0.8,3.2
		c0.2,0.1,0,0.5-0.3,0.8c-0.4,0.3-0.7,0.7-1,1.1c-0.5-0.4-0.3-1-0.4-1.6c-0.1-0.3-0.4-0.6-0.7-0.7c-0.5-0.1-0.9,0.1-1.2,0.6
		c-0.5,0.6-0.5,0.5-1-0.1c-0.1-0.1-0.3-0.4-0.3-0.4c-0.2,0.2-0.5,0.4-0.6,0.7c-0.1,0.6,0,1.2,0,1.8c0,0.7-1.1,1.4-1.4,1
		c-0.8-1.3-1.9-1.2-3-1.2c-0.5,0-1,0-1.4,0c-0.6,0.1-0.8-0.5-1.1-0.9c-0.3-0.3-1.1-0.4-1.3-0.2c-0.9,1.1-1.8,2.3-2.7,3.4
		c-0.2,0.2-1.1,0.1-1.3-0.2c-0.3-0.4-0.7-0.8-1-1.3c-0.3-0.3-0.2-1.1,0-1.6c0.2-0.4,0.5-0.4,0.8-0.4c0.7,0,0.9-0.4,0.9-1
		c0-0.2,0.1-0.5,0-0.6c-0.7-1-1.5-2.1-2.3-3c-0.2-0.2-0.6-0.1-0.9-0.2c-0.5-0.2-0.9-1.4-0.6-1.9c0.4-0.6,0.9-1.1,1.3-1.7
		c0.2-0.3,0.5-0.6,0.5-0.9c0.1-1.4,0.1-2.8,0-4.2c0-0.3-0.3-0.7-0.5-0.9c-0.4-0.6-1.1-1-1.3-1.7c-0.2-0.7-0.2-1.5-0.7-2
		c-0.5-0.6-0.5-0.7,0.5-1c0.1,0,0.3,0,0.5,0c0.6-0.2,1-1.4,0.6-1.9c-0.9-0.9-0.9-2-0.9-3.2c0-0.9,0-0.9-0.8-2.6
		c-0.2-0.5-0.3-1.2,0.1-1.6c0.7-0.7,0.8-1.6,0.8-2.6c0-0.4,0-0.8-0.3-1.1c-0.3-0.4-0.7-0.9-1-1.3c-0.6-0.5-0.7-1.2-0.7-2.1
		c0.1-0.8,0-0.8-0.7-2c-0.4-0.8-0.3-2.4,0.2-3.3c0.9-1.4,0.9-1.5-0.3-2.9c-0.6-0.8-0.6-0.8-1-0.3c-0.6,0.7-1.1,1.4-1.7,2.1
		c-0.3,0.3-0.4,0.6-0.3,1.1c0,0.2,0,0.4,0,0.6c0,0.7,0,0.7-0.7,2c-0.2,0.3-0.2,0.6-0.3,1.1c0,1,0,2,0.8,2.6c0.1,0.1,0.1,0.4,0,0.4
		c-1,0.8-0.8,2-0.8,3.2c0,1.2,0.1,2.4,0,3.6c-0.1,1.1,0.3,1.9,0.9,2.6c0.2,0.2,0.2,0.9,0.1,1.1c-0.6,0.9-1,2-2.1,2
		c-0.6,0-0.7,0.4-0.7,1.2c0,1,0,2,0,3c-1.2,0.9-0.9,2.4-0.9,3.7c0,1.2-0.1,2.4,0,3.6c0.1,0.9-0.4,1.4-0.8,2
		c-0.3,0.4-0.2,1.1-0.4,1.6c-0.2,0.5-0.7,0.9-1,1.3c-0.2,0.3-0.6,0.5-0.6,0.9c0,0.2,0.3,0.6,0.5,0.8c0.2,0.3,0.5,0.6,0.7,0.9
		c0.6,0.8,0.6,0.8,0.2,1.3c-1.2,1.6-2.4,3.2-3.8,4.6c-0.7,0.8-0.7,1.7-0.7,2.7c0,0.9,0,1,0.8,1.2c0.5,0.1,1,0.1,1.1,0.7
		c0.1,0.5,0.1,1.1-0.4,1.6c-0.5,0.5-1,1.1-1.3,1.7c-0.2,0.4-0.1,1.2-0.4,1.6c-0.4,0.6-0.9,1.2-1.3,1.7c-0.1,0.1-0.3,0.4-0.3,0.4
		c0.2,0.3,0.4,0.6,0.6,0.9c0.1,0.2,0.3,0.3,0.3,0.4c-0.1,1.1,0.4,2.4-0.7,3.3c-0.3,0.2-0.3,0.6-0.3,1.1c0,1,0,2,0,3
		c-1.5,1.3-0.7,3.3-0.9,4.9c-0.2,1.5,0.5,3.2-0.8,4.4c-0.2,0.2-0.2,0.7-0.2,1.1c0,1.2,0,2.4,0,3.6c0,0.3-0.3,0.6-0.5,0.9
		c-0.1-0.1-0.2-0.3-0.3-0.4c-0.7-0.8-0.7-0.8-1.1,1c-0.1,0.5-0.4,0.6-0.6,0.5c-0.1-0.1-0.2-0.3-0.3-0.4c-0.7-0.7-1.2-0.8-1.6-0.3
		c-0.5,0.6-0.9,1.1-1.4,1.7c-0.1,0.1-0.3,0.4-0.3,0.4c-0.2-0.2-0.5-0.5-0.7-0.8c-0.5-0.6-1-0.5-1.6,0.1c-0.1,0.1-0.2,0.3-0.3,0.4
		c-0.4,0.5-0.8,0.3-1.3,0.2c-0.6-1.3-1.6-1.1-2.5-1.1c-0.4,0-0.6-0.3-0.7-1.2c0-0.2,0.1-0.5,0-0.6c-0.7-1-1.4-2.2-2.8-1.8
		c-0.6,0.2-0.9-0.4-1.2-0.8c-0.1-0.1-0.2-0.4-0.3-0.4c-0.7-0.3-1.6,0.4-2.3-0.4c-0.4-0.6-0.9-1.1-1.4-1.7c-0.1-0.1-0.3-0.2-0.3-0.2
		c-0.3,0.2-0.4,0.6-0.4,1c0,0.2,0,0.4,0,0.6c0,0.2-0.2,0.3-0.3,0.4c-0.1,0.1-0.3,0.1-0.3,0c-0.9-1.1-1.8-2.3-2.7-3.4
		c-0.3-0.4-0.4-0.6-0.3-0.9c0.2-0.4,0.5-0.4,0.8-0.4c0.5,0,0.9,0,1.4-0.1c0.1,0,0.3-0.2,0.3-0.4c0-0.1-0.1-0.3-0.2-0.4
		c-0.9-1.4-1-1.8-0.1-2.9c0.5-0.6,0.9-1.1,1.6-1c0.2,0,0.5-0.5,0.5-0.7c-0.1-0.4-0.4-0.6-0.8-0.5c-0.2,0-0.4,0.1-0.5,0
		c-0.8-0.9-1.6-1.9-2.4-2.9c0.1-1.7-1-2.3-1.7-3.3c-0.1-0.1-0.3-0.3-0.2-0.4c0.2-0.4,0.4-0.6,0.8-0.6c0.5,0.1,0.9-0.2,1.1-0.8
		c0.1-0.3,0-0.8-0.1-1.1c0-0.2-0.2-0.4-0.3-0.4c-1.2,0.2-1.6-1-2.3-1.7c0.1-1.6-1.5-2.5-1.1-4.3c0.2-0.9,0.2-2.1,0-3
		c-0.2-0.9-1.1-1.3-0.9-2.5c0.1-0.8,0-1.6,0-2.4c0-0.8,0.2-1.7,0-2.4c-0.2-0.7-0.8-1.2-1.3-1.7c-0.8-0.8-0.5-1.8-0.6-2.7
		c0-0.7-0.8-1.3-1.4-1c-0.1,0.1-0.3,0.2-0.3,0.4c-0.1,0.4-0.2,0.7-0.2,1.1c0,1.8,0,3.6,0,5.4c0,1.2,0.2,2.4-0.8,3.2
		c-0.1,0.1-0.1,0.3-0.1,0.5c0,1.2,0.1,2.4-0.9,3.1c0.1,1.1-0.4,1.8-1,2.5c0.1,0.9-0.1,1.6-0.7,2.1c-0.3,0.2-0.3,0.6-0.3,1.1
		c0,1,0,2,0,3c-1.5,1.3-0.7,3.3-0.9,4.9c-0.1,1.1,0.2,2.4-0.8,3.2c-0.4,0.3-0.2,1.1-0.2,1.7c-0.1,0.8,0.3,1.8-0.2,2.3
		c-1.3,1.3-0.6,3-0.8,4.4c0,0.3-0.4,0.8-0.6,0.8c-0.7-0.1-1.2,0.3-1.6,1c-0.3,0.4-0.8,0.7-0.7,1.5c0.1,1-0.1,2,0,3
		c0.2,1.2-0.7,1.7-0.9,2.5c-0.2,0.7-0.1,1.6,0,2.4c0,0.6,0,0.6-0.7,2c-0.4,0.6,0,1.5-0.7,2.1c-0.5,0.5-0.9,1.1-1.4,1.7
		c-0.6,0.8-0.9,0.9-1,0.2c-0.1-0.6-0.2-1.2,0.2-1.6c0.1-0.1,0.2-0.3,0.3-0.4c0.5-0.6,0.5-1.4,0-2c-0.3-0.4-0.7-0.8-0.6-1.5
		c0-0.2,0-0.4-0.1-0.6c-0.4-0.6-0.8-1.2-1.4-1.7c-0.6-0.6-0.3-1.4-0.7-2.1c-0.1-0.2-0.2-0.3-0.3-0.4c-0.3-0.4-0.7-0.7-1-1
		c-0.5,0.4-0.3,1-0.4,1.6c-0.1,0.5-0.4,0.6-0.6,0.5c-0.1-0.1-0.3-0.3-0.3-0.4c0-2.2,0-4.4,0-6.6c0-1.1,1.1-1.3,1-2.5
		c-0.1-1.6,0-3.2,0-4.8c0-0.7-0.1-1-0.9-1.1c-0.5,0-0.9-0.2-1-0.9c-0.1-0.6-0.1-1.2,0-1.8c0.1-1.3-0.4-2.8,0.8-3.8
		c0.3-1,0.2-2,0.1-2.9c-0.1-1.2,1-1.5,1-2.5c0-1.8,0-3.6,0-5.4c0-0.4-0.3-0.7-0.6-0.6c-0.1,0-0.3,0.2-0.3,0.4
		c-0.3,1.5-0.3,1.5-0.7,2c-0.3,0.3-0.3,0.6-0.3,1c-0.1,1.3-0.2,1.3-1,0.5c-0.3-0.3-0.5-0.5-0.8-0.5c-0.8,0.1-1-0.5-1.1-1.4
		c-0.1-1-0.2-1-0.9-1c-0.8,0-1.5-0.2-2.1,0.8c-0.7,1.1-1.5,2-2.4,3c-0.3,0.3-0.3,0.6-0.3,1.1c0,1.2,0,2.4,0,3.6c0,0.5-0.1,0.8-0.4,1
		c-0.6,0.5-0.7,1.3-0.6,2.1c0,0.4,0.1,1-0.1,1.1c-1.1,0.7-0.6,2.6-1.7,3.4c-0.8,0.6-1.4,1.6-1.1,3c0.1,0.6,0,1.2,0,1.8
		c0,0.4-0.7,0.9-1.1,0.8c-0.7-0.2-1-1-1.5-1.4c-0.5-0.4-0.3-1.1-0.3-1.6c0-0.9,0-0.9-0.7-2c-0.3-0.4-0.4-1.4-0.2-1.6
		c0.9-0.7,0.7-2.1,1.3-3c0.8-1.2,0.7-1.3-0.1-2.4c-0.2-0.3-0.5-0.6-0.4-1c0.1-0.5,0-0.8-0.3-1.1c-0.6-0.5-0.8-1.2-0.7-2
		c-0.3-0.4-0.6-0.9-1-1.3c0.3-1.2-0.8-1.7-0.9-2.5c-0.1-0.8-0.4-1.4-0.8-2c-0.4-0.8-0.5-2,0-2.8c0.5-0.8,0.8-1.6,0.8-2.6
		c-0.1-1,0-2,0-3c0-0.3-0.3-0.5-0.5-0.8c-0.1,0.1-0.2,0.3-0.3,0.4c-0.6,0.7-0.6,0.6-1,0.1c-0.6-0.7-1.2-1.3-1-2.5
		c-0.5-0.6-0.9-1.2-1.4-1.7c-0.3-0.3-0.5-0.6-0.4-0.9c0.2-0.4,0.5-0.5,0.8-0.4c0.3,0.1,0.6,0,1,0c0.4,0.1,0.7,0,0.8-0.5
		c0.2-0.5,0.2-1.1-0.1-1.6c-0.6-1-0.6-1.1-0.1-1.7c0.1-0.1,0.3-0.3,0.3-0.4c0.1-0.4,0.2-0.9,0-1.2c-0.5-0.8-1.1-1.4-1.7-2.2
		c-0.2-0.3-0.1-0.5,0.2-0.9c0.8-1.1,0.7-1.2,0-2.5c-0.2-0.3-0.4-0.6-0.4-1c-0.1-0.8,0-1.6,0-2.4c0-0.4,0-0.9-0.2-1.1
		c-1-0.7-0.4-2.3-1.3-2.9c-0.4-0.3-0.4-0.5,0-0.9c0.8-1,0.9-1.6,0.2-2.4c-0.7-0.7-0.2-2-1-2.5c-0.6-0.5-0.4-1.4-0.7-2.1
		c-0.1-0.1-0.2-0.4-0.3-0.3c-0.1,0-0.3,0.2-0.3,0.4c-0.6,2,0.7,4.4-1,6.1c0,1-0.1,2,0,3c0,0.5-0.1,0.7-0.3,1.1
		c-0.7,1.2-0.7,1.2-0.7,2c0,0.9,0,0.9-0.7,2.1c-0.1,0.2-0.3,0.3-0.3,0.5c0,1.1-0.3,2.4,0.7,3.2c0.3,0.2,0.1,0.5-0.2,0.9
		c-0.2,0.2-0.5,0.6-0.5,0.9c-0.3,2.4-0.3,2.5-1.2,3.6c-0.5,0.6-0.8,1.1-0.8,2c0,0.3-0.4,0.6-0.6,0.9c-0.4,0.6-0.4,1.4,0,2
		c0.3,0.4,0.7,0.8,0.6,1.5c-0.1,0.7,0.2,1.6-0.4,2.2c-0.4,0.4-0.6,0.8-0.6,1.5c0,0.8,0.1,1.6,0,2.4c-0.1,1.1-1,1.5-1.5,2.2
		c-0.7,1-1.6,2-2.3,3c0.3,1.1-0.5,1.7-0.9,2.5c0,0.1,0.2,0.4,0.3,0.4c1.7,0.6,1.7,0.6,2.5,2.8c0.1,0.3,0.3,0.7,0.5,0.9
		c0.4,0.3,0.4,0.5,0.2,0.9c-0.7,1.3-0.8,1.3-0.7,2c0.1,0.9-0.1,1.6-0.7,2.1c-0.3,0.3-0.4,0.6-0.3,1c0.1,0.4,0,0.8-0.4,1
		c-0.4,0.2-0.9,0.3-1.3-0.1c-0.7-0.8-1.5-1.5-1.2-3c0-0.2,0.1-0.4,0-0.6c-0.1-0.3-0.3-0.7-0.5-0.9c-0.4-0.4-0.5-1-0.5-1.6
		c0-0.6,0.2-1.3-0.2-1.7c-1-0.9-0.7-2.1-0.7-3.2c0-0.6,0.1-1.1-0.2-1.7c-0.6-1.1-0.5-1.1-0.1-1.7c0.3-0.4,0.7-0.9,1-1.3
		c0.3-0.3,0.2-0.5-0.2-0.9c-0.2-0.2-0.5-0.6-0.5-0.9c-0.1-0.6,0-1.2,0-1.8c0-0.9,0-0.9-0.8-2.6c-0.2-0.5-0.3-1.1,0.1-1.6
		c0.2-0.3,0.5-0.5,0.7-0.9c0.2-0.3,0.1-1.2-0.2-1.6c-0.7-1.1-0.7-1.1-0.7-2c0-0.8,0-0.9-0.7-2c-0.2-0.3-0.3-0.6-0.3-1.1
		c0-1.4,0-2.8,0-4.2c0-0.1-0.2-0.4-0.3-0.4c-0.2-0.1-0.5,0.2-0.6,0.6c-0.1,0.8-0.1,1.6-0.1,2.4c-0.7,0.6-0.9,1.5-0.9,2.6
		c0,1.2,0.2,2.4-0.1,3.5c-1.1,0.7-0.5,2.7-1.7,3.3c0,0.8-0.1,1.6-0.7,2.1c-0.1,0.1-0.3,0.3-0.3,0.4c-0.2,0.9,0.3,2-0.3,2.8
		c-0.5,0.6-0.9,1.1-1.4,1.7c-0.2,0.3-0.2,0.5,0.2,0.9c0.6,0.5,0.5,1.4,0.5,2.1c0,0.6-0.1,1.1-0.5,1.6c-0.7,0.8-1.4,1.7-2,2.5
		c-0.1,0.1-0.3,0.4-0.3,0.4c0.2,0.3,0.4,0.6,0.7,0.9c0.3,0.3,0.3,0.6-0.1,0.9c-0.6,0.5-0.5,1.4-0.7,2c-0.2,0.5-0.5,0.9-0.8,1.4
		c0.3,1.3-1.3,1.8-1,3.1c-0.5,0.7-1,1.5-1.6,2.2c-0.3,0.3-0.4,0.6-0.3,1c0,1,0,2,0,3c0,0.1-0.2,0.3-0.3,0.4c-0.1,0.1-0.2,0-0.3-0.1
		c-1.3-1.2-1.4-1.3-2.3-0.2c-0.4,0.5-0.9,0.4-1.3,0.4c-0.4,0.1-1-0.2-1.3,0.4c-0.4,0.6-1.1,0.9-1.1,1.8c0,1-0.3,1.4-1.1,1.4
		c-0.5,0-0.9,0.4-0.8,1.1c0.1,1.2-0.9,1.5-1.3,2.3c0,0-0.3,0-0.3-0.1c-0.4-0.6-0.9-1.1-1.6-0.9c-0.5,0.1-1,0-1.4,0
		c-0.4,0-0.7,0-0.8-0.3c-0.4-0.7-0.9-1-1.6-0.9c-0.3-0.4-0.7-0.8-1-1.2c-0.9,0.3-1.4-0.7-2-1.2c-1.2,0.2-1.6-1.1-2.3-1.8
		c0.2-1.7-1.1-2.2-1.7-3.3c-0.2-0.3-0.2-0.7-0.2-1.1c0-0.3,0.3-0.6,0.4-1c0.1,0.1,0.3,0.2,0.3,0.4c0.5,1,1.4,0.8,2.1,0.8
		c0.7,0,0.8-0.1,0.9-1c0-0.4,0-0.8,0.3-1.1c0.1-0.1,0.3-0.2,0.3-0.2c1.7,1.1,1.7,1.1,2.5,1c0.5,0,0.9-0.1,1.4-0.2
		c0.1,0,0.3-0.3,0.3-0.4c0-2,0-4,0-6c0-0.1-0.2-0.3-0.3-0.4c-0.8-0.7-0.6-1.7-0.6-2.7c0-0.4,0.1-0.8,0.4-0.9c0.1,0,0.4,0.4,0.5,0.7
		c0.1,0.3,0.1,0.8,0.2,1.1c0,0.2,0.2,0.4,0.3,0.4c0.1,0,0.3-0.2,0.3-0.4c0.3-1.6,0.1-3.2,0.1-4.7c0-0.3-0.3-0.7-0.5-0.9
		c-0.4-0.4-0.4-1-0.4-1.6c0-0.8,0-1.6-0.6-2.1c-0.3-0.3-0.4-0.6-0.4-1c0.1-1.3-0.1-2.3-1-3.1c-0.5-0.5-0.9-1.2-1.4-1.7
		c-0.6-0.6-0.6-1.4-0.5-2.1c0-0.6-0.1-1.1-0.5-1.6c-0.2-0.2-0.4-0.6-0.5-0.9c-0.1-0.8,0-1.6,0-2.4c0-0.4,0-0.9-0.2-1.1
		c-0.8-0.6-0.6-1.7-1-2.5c-1.1-1.9-1.1-2.1,0.5-2.7c0.7-0.3,0.8-0.5,0.3-1.1c-0.2-0.3-0.4-0.6-0.7-0.8c-0.7-0.7-1-1.5-0.9-2.6
		c0.1-0.8,0.1-1.6,0-2.4c-0.1-0.9,0.4-1.4,0.8-2c0.2-0.3,0.5-0.6,0.7-0.8c0.4-0.5,0.3-1.1-0.2-1.1c-0.7,0-1.1-0.5-1.6-1
		c-0.2-0.2-0.6-0.3-0.9-0.2c-0.2,0.1-0.4,0.4-0.7,0.6c0.1,0.1,0.2,0.3,0.3,0.4c0.6,0.8,0.6,0.8,0.1,1.3c-0.1,0.1-0.2,0.3-0.3,0.4
		c-0.7,0.8-1.4,1.6-1.2,3c0.2,1.2,0.1,2.4-0.9,3.2c-0.2,0.1-0.1,0.7-0.1,1.1c0,0.2,0.2,0.3,0.3,0.5c0.2,0.3,0.6,0.6,0.6,0.9
		c0,0.3-0.4,0.6-0.6,0.8c-0.6,0.7-0.2,1.5-0.3,2.3c0,0.8,0.1,0.9,0.8,1.1c0.2,0,0.3,0,0.5,0c0.5,0.2,0.6,0.7,0.2,1.2
		c-0.3,0.4-0.7,0.8-1,1.2c-1.4-0.2-1.8,1.4-2.6,2.2c-0.1,0.1-0.2,0.3-0.3,0.4c-0.3,0.2-0.4,0.6-0.4,1c0,1,0,2,0,3
		c0,1.6-0.1,1.7-1.2,1.8c-0.3,0-0.7-0.1-1,0c-0.3,0.1-0.6,0.4-0.7,0.7c-0.1,1.2-0.1,2.4-0.1,3.6c0,0.1-0.3,0.4-0.3,0.4
		c-1.1-1.3-2.3-2.7-3.4-4c-0.1-0.1-0.1-0.4-0.1-0.6c0-1-0.2-1.9,0.6-2.7c0.6-0.6,0.5-2.6,0-3.2c-0.5-0.6-0.7-1.3-0.6-2.1
		c0-0.4,0-0.8-0.1-1.2c0-0.2-0.2-0.4-0.3-0.4c-1.1,0.2-1.7-0.9-2.3-1.7c-0.3-0.3-0.2-1.2,0-1.6c0.2-0.4,0.5-0.5,0.8-0.4
		c0.3,0.1,0.6,0,1,0c0.4,0.1,0.6-0.1,0.8-0.5c0-0.1,0-0.3-0.1-0.4c-0.4-0.6-0.9-1.1-1.4-1.7c-0.9-1.1-1.8-2.3-2.7-3.4
		c-0.2-0.3-0.4-0.6-0.5-0.9c-0.1-0.3,0-0.8,0.2-1.1c0.2-0.5,0.4-0.4,0.7,0.1c0.1,0.3,0.5,0.6,0.7,0.6c0.3-0.1,0.4-0.5,0.4-1
		c0-0.8,0-1.6,0-2.4c0-0.5-0.1-0.8-0.3-1.1c-0.6-0.7-1.1-1.4-1.6-2.2c-0.1-0.2,0-0.8,0.1-1.1c0.2-0.5,0.4-0.6,0.7-0.2
		c0.1,0.2,0.3,0.3,0.3,0.4c0.2,0.6,0.5,0.6,0.7,0c0.1-0.3,0.2-0.8,0.1-1.1c-0.6-1.4-1.7-2.3-2.5-3.5c-0.6-0.8,0.2-0.9,0.4-1.3
		c0.3-0.7,0.3-1.2-0.2-2.1c-0.2-0.3-0.4-0.6-0.5-0.9c-0.2-0.7,0.3-1.6,1-1.5c0.4,0,0.7,0,0.8-0.5c0-0.2-0.2-0.6-0.4-0.8
		c-0.4-0.3-0.4-0.6-0.2-0.9c0.1-0.1,0.2-0.3,0.3-0.4c0.5-0.7,0.5-1.5,0-2.1c-0.3-0.4-0.6-0.9-1-1.3c-0.6-0.6-0.6-1.3-0.6-2.1
		c0-0.6,0-1.2-0.4-1.6c-0.2-0.2-0.5-0.6-0.5-0.9c-0.1-0.6,0-1.2,0-1.8c-0.1-1.1,0.4-2.4-0.5-3.3c-0.9-0.9-0.1-2.3-0.7-3.3
		c-0.1-0.1-0.3-0.3-0.3-0.2c-0.1,0.1-0.3,0.3-0.3,0.4c0,1.4-0.1,2.8-0.1,4.2c0.1,1.3-1.2,1.7-1,3.1c0.2,1.4,0,2.8,0.1,4.2
		c0,0.8-0.4,1-0.7,1.5c-0.3,0.4-0.7,0.8-1,1.3c-0.1,0.1-0.3,0.3-0.2,0.5c0.2,1.2-0.8,1.6-1,2.5c-0.1,0.3,0,0.8,0.2,1.1
		c0.4,0.6,0.8,1.1,0.8,2c-0.1,1.6,0,3.2,0,4.8c0,0.3-0.4,0.8-0.6,0.8c-0.7-0.1-1.1,0.4-1.6,1c-0.5,0.6-0.9,1.2-0.7,2.1
		c0.2,0.6,0.7,0.6,1.2,0.7c0.2,0,0.4,0.4,0.7,0.6c-0.1,0.1-0.2,0.3-0.3,0.4c-0.6,0.8-0.6,1.2-0.1,1.3c0.3,0.1,0.7,0.1,0.9,0
		c0.3-0.1,0.5-0.5,0.7-0.8c0.1-0.1,0.2-0.2,0.3-0.4c0.2,0.3,0.4,0.6,0.4,1c0,0.3,0,0.8-0.2,1.1c-0.5,0.6-0.9,1.1-0.7,2
		c-0.3,0.4-0.6,0.9-1,1.3c0.2,1.7-1,2.3-1.7,3.3c-0.4,0.6-0.3,1.2,0.2,2.1c0.4,0.7,0.5,0.7,0,1.3c-0.5,0.6-1,1.1-1.3,1.7
		c-0.2,0.3-0.1,0.8-0.1,1.1c0.1,0.5,0.7,0.8,1.2,0.7c0.5-0.1,0.7-0.7,1.1-1c0.4-0.3,0.9-0.3,1.3,0.1c0.1,0.1,0.2,0.4,0.2,0.4
		c-1.7,2.1-3.4,4.3-5.1,6.4c0,0.1-0.2,0-0.3-0.1c-0.1-0.1-0.8,2.8,0,3.6c0.2,0.3,0.5,0.3,0.9,0.3c0.9,0.2,1,0.4,0.5,0.9
		c-0.4,0.6-0.9,1.1-1.4,1.7c-0.7,0.9-0.7,0.9-1.4,0.2c-0.1-0.1-0.3-0.3-0.3-0.4c-0.6-1.2-1.5-1.3-2.5-1.2c-0.7,0.1-0.7,0.1-0.9,1
		c-0.2,1.3-0.3,1.3-1.1,1.4c-0.5,0-0.9,0.1-1.4,0.1c-0.1,0-0.3,0.3-0.3,0.4c0,1.2-0.1,2.4,0,3.6c0.1,1.2-0.4,1.8-1,2.5
		c-0.3,0.4-0.5,0.6-0.7,0.3c-0.6-0.7-1.1-1.4-1.7-2.1c-0.5-0.6-0.5-0.6,0-1.3c0.3-0.4,0.7-0.9,1-1.3c0.5-0.6,0.4-1-0.3-1
		c-1.2-0.1-1.5-1.3-2.2-2c-0.4-0.4-0.7-0.4-0.9,0.4c0,0.2,0,0.4,0,0.6c-0.1,0.3-0.3,0.8-0.5,0.9c-0.3,0.2-0.6,0.1-0.9,0
		c-0.1,0-0.3-0.2-0.3-0.4c-0.3-2.8-0.1-5.6-0.1-8.3c0-0.2,0.1-0.4,0.2-0.5c0.8-0.5,0.6-1.7,1-2.5c0.7-1.2,0.7-1.2,0.7-2
		c0-0.6,0.1-1.2,0-1.8c-0.1-0.8,0.4-1,0.7-1.5c0.4-0.6,0.4-1.5-0.1-2.1c-0.3-0.4-0.7-0.8-1-1.3c-0.2-0.3-0.5-0.6-0.5-0.9
		c0-1.2-0.2-2.4,0.1-3.5c0-0.2,0.2-0.3,0.3-0.4c0.8-0.8,0.4-1.8,0.4-2.8c0-0.2-0.3-0.5-0.5-0.8c-0.1,0.1-0.2,0.3-0.3,0.4
		c-0.6,0.7-0.9,0.7-1,0.1c0-0.4-0.2-1,0-1.2c1.1-1,1-2.3,0.9-3.7c0-0.2-0.2-0.3-0.3-0.4c-0.1,0-0.2,0.1-0.3,0.2
		c-0.1,0.1-0.2,0.3-0.2,0.5c-0.1,0.4,0,0.9-0.1,1.1c-0.6,0.7-1,1.5-0.8,2.6c0.1,0.6-0.1,1.1-0.5,1.6c-0.2,0.2-0.4,0.6-0.5,0.9
		c0,1.8,0,3.6,0,5.4c0.6,0.9,1.1,1.8,1,3.1c-0.1,1.2,0,2.4,0,3.6c0,0.8-0.3,1.3-0.6,1.2c-0.3-0.2-0.4-0.6-0.4-1c0-0.2,0-0.4,0-0.6
		c-0.1-0.2-0.2-0.3-0.3-0.4c-0.2-0.1-0.6,0-0.6,0.5c-0.1,0.8,0,1.6,0,2.4c-0.1,0.9,0.3,1.4,0.7,2.1c0.6,0.8,0.2,1.9,0.2,2.9
		c0,0.9,0.3,1.5,0.8,2c0.2,0.2,0.1,0.7-0.3,0.8c-0.4,0.1-0.9,0.2-1.3-0.4c-0.3-0.5-0.6-0.8-1.2-0.8c-0.8-0.1-0.8-0.3-0.9-1
		c0-1,0.1-2,0-3c-0.1-0.7-1-0.9-0.9-1.9c0.1-1,0-2,0-3c0-0.8,0-1.6,0-2.4c0-1.4,0-2.8,0-4.2c0-0.2,0-0.4,0-0.6
		c-0.1-0.2-0.2-0.3-0.3-0.4c-0.6-1-0.6-1-0.6-2.1c0-0.6,0.1-1.2-0.4-1.6c-0.4-0.4-0.7-0.9-1-1.3c-0.4-0.4-0.6-0.9-0.5-1.5
		c0.1-1.1-0.1-1.9-0.8-2.6c-0.8-0.8-1.2-1.7-1.1-3c0.1-3.4-1.9-5.9-1.9-3.7c0,0.9,0,1-0.8,1.2c-0.5,0.1-0.9,0.2-1.2,0.7
		c-0.3,0.5-0.5,0.6-0.7,0.2c-0.1-0.1-0.2-0.3-0.2-0.5c-0.1-1.2-0.1-2.4-0.1-3.6c-0.8-0.7-0.8-1.4,0-2.2c0.2-0.2,0.1-0.7,0.1-1.1
		c0-0.2-0.1-0.3-0.2-0.5c-0.7-1.3-0.7-1.3-0.7-2c0-0.6,0-1.2,0-1.8c0.1-1.1-0.5-1.2-1.2-1.3c-0.9-0.1-1.1-1.3-0.4-2.2
		c0.7-0.9,0.6-0.9,0.6-2.1c0-1.1,0-1.1-0.7-2c-0.3-0.4-0.7-0.8-1-1.3c-0.2-0.2,0.1-0.5,0.3-0.9c0.6-0.9,0.6-1.5,0.2-2
		c-0.4-0.6-0.9-1.1-1.4-1.7c-0.1-0.1-0.2-0.3-0.3-0.4c0.3-0.2,0.5-0.5,0.8-0.6c0.5-0.1,1,0.1,1.4-0.1c0.3-0.1,0.5-0.4,0.7-0.7
		c0.2-0.5-0.1-1.5-0.4-1.6c-0.6-0.1-1.2-0.1-1.7-0.8c-0.4-0.6-0.9-1-0.9-2c0-0.3-0.3-0.7-0.5-0.9c-0.6-0.6-0.4-1.4-0.4-2.2
		c-0.1-0.7,0.2-1.1,0.6-1.5c0.1-0.1,0.3-0.3,0.3-0.4c0-1.2,0.1-2.4,0-3.6c0-0.2-0.2-0.3-0.3-0.4c-0.6-0.5-0.8-1.2-0.7-2.1
		c0-0.1-0.2-0.3-0.3-0.4c-0.2-0.1-0.5,0.1-0.6,0.6c-0.1,0.8,0,1.6,0,2.4c0,0.7,0,0.7-0.8,2c-0.4,0.7-0.4,1.1,0.3,2
		c0.3,0.4,0.5,0.6,0.3,0.9c-1.1,1.4-2.3,2.8-3.4,4.3c-0.1,0.1-0.2,0.3-0.2,0.4c0.2,0.4,0.4,0.5,0.8,0.5c0.5,0,1,0,1.4,0
		c0.1,0,0.3,0.2,0.4,0.3c0.1,0.1,0.1,0.3,0.1,0.4c-0.8,1-1.5,2-2.4,3c-0.4,0.4-0.5,0.6,0,0.9c0.3,0.1,0.6,0.3,0.9,0.2
		c0.3-0.1,0.6-0.3,0.7-0.6c0.3-0.4,0.5-0.5,0.7-0.3c0.2,0.3,0.3,0.6,0.3,1.1c0,0.2,0,0.5-0.1,0.5c-0.7,0.7-1.1,2-2.3,1.8
		c-0.4-0.1-0.6,1.3-0.3,2c0.6,1.1,0.6,1.1,0.2,1.7c-0.8,1-1.6,2-2.4,3c-0.2,0.3-0.5,0.6-0.7,0.9c-0.3,0.3-0.3,1.3,0,1.6
		c0.4,0.6,0.9,1.1,1.4,1.7c0.3,0.4,0.4,0.5-0.2,1.3c-0.2,0.3-0.4,0.6-0.3,1c0.2,1.3-0.1,2.3-1,3.1c-0.3,0.3-0.5,0.5-0.7,0.2
		c-0.7-0.8-1.4-1.5-1.2-3c0.1-0.7,0.3-1.8-0.2-2.3c-0.7-0.7-0.6-1.8-1-2.5c-0.4-0.6-0.8-1.1-0.7-2c0.1-2.4,0-4.8,0-7.2
		c0-1.3,0-1.3-1-2.5c-0.2-0.3-0.5-0.6-0.7-0.9c-0.4-0.6-0.4-2.5,0.1-3.3c0.2-0.3,0.4-0.6,0.6-0.9c0.3-0.6-0.3-1.6-0.9-1.6
		c-0.3,0-0.6,0-1,0c-0.6,0-1,0.3-1,0.9c0.1,1.5-0.2,2.7-1.2,3.6c-0.3,0.2-0.5,0.6-0.7,0.8c-0.2,0.2,0,1.4,0.2,1.6
		c0.2,0.2,0.5,0.1,0.7-0.4c0.2-0.4,0.5-0.6,0.7-0.3c0.1,0.1,0.3,0.3,0.3,0.5c0,0.4,0,0.8,0,1.2c0,0.6,0.1,1.2-0.4,1.6
		c-0.4,0.4-0.7,0.9-1,1.3c-0.4,0.4-0.6,0.9-0.5,1.5c0.1,1.1-0.2,1.9-0.8,2.6c-0.1,0.1-0.1,0.4-0.1,0.5c0,1-0.3,1.3-1.1,1.4
		c-0.9,0.2-1.4,1.1-1.8,2.4c-0.4-0.1-0.7,0-0.8,0.4c-0.2,0.9-0.3,1.8-1,2.5c-0.4,0.3-0.7,0.8-1,1.3c-0.1,0.3-0.1,0.8-0.1,1.1
		c0.1,0.5,0.6,0.8,1.1,0.8c0.5-0.1,0.7-0.6,1.1-1c0.3-0.3,0.6,0.1,0.7,1c0,0.4,0,0.8,0,1.2c-1.6,0-3.2,0-4.8,0c-1,0-1.2-1.2-1.8-1.7
		c0,0,0.1-0.3,0.2-0.4c0.3-0.4,0.7-0.9,1-1.3c0.5-0.7,0.6-0.7-0.1-1.7c-0.4-0.6,0-1.5-0.6-2.1c-0.5-0.5-0.9-1.1-1.4-1.7
		c0-0.1,0-0.3,0.1-0.4c0.5-0.5,0.9-0.9,0.2-1.7c-0.7-0.7-1.6-1.4-1.4-2.9c-1-0.6-0.7-2.1-1.4-2.9c-0.7-0.8-0.4-2.2-1.3-3
		c-0.3-0.3-0.3-1.1,0-1.6c0.6-1.1,0.6-1.1,0.2-1.7c-0.5-0.5-0.4-1.1-0.3-1.6c0.1-0.9-0.1-1.5-0.7-2.1c-0.5-0.5-0.4-1.4,0-2
		c0.2-0.3,0.4-0.6,0.7-0.8c0.5-0.6,0.5-0.6,0.1-2.1c0-0.2-0.1-0.4-0.1-0.5c0-1.2,0.1-2.4-0.9-3.2c0-1.1-0.4-1.8-1-2.5
		c-0.2-0.2,0-0.8-0.1-1.2c0-1,0-1-0.7-2.1c-0.2-0.3-0.3-0.6-0.3-1.1c0-1.2,0-2.4,0-3.6c0-0.8-0.4-1-0.7-1.4
		c-0.4-0.5-0.2-1.1-0.3-1.6c-0.1-0.4-0.9-0.7-1.3-0.5c-0.2,0.2-0.5,0.5-0.6,0.8c-0.1,1.4,0,2.8,0,4.2c0,0.3-0.3,0.6-0.5,1
		c-0.2,0.3-0.3,0.6-0.5,1c-0.1,0.2,0,0.4,0,0.6c0,1.3,0.3,2.8-0.9,3.8c0,0.6-0.1,1.2-0.1,1.8c0,0.4,0,0.8-0.3,1.1
		c-0.5,0.6-0.9,1.1-1.4,1.7c-0.5,0.6-0.5,0.8,0.5,1c0.5,0.1,1,0.2,1.1,0.8c0.1,0.5,0.1,1.1-0.4,1.6c-0.5,0.5-0.9,1.2-1.4,1.7
		c-0.7,0.7-1.1,1.9-2.2,2.1c-1,0.1-1.4,1.5-2.1,2.2c-0.2,0.2-1.1,0.2-1.3-0.1c-1.4-1.7-2.7-3.4-4.1-5.1c-0.1-0.1,0-0.4-0.1-0.6
		c-0.3-1.3-0.4-1.3-1-0.6c-0.7,0.7-1.2,0.8-1.6,0.3c-0.2-0.3-0.4-0.6-0.7-0.8c-0.4-0.4-0.6-0.9-0.6-1.5c0-0.6,0-1.2,0-1.8
		c0.1-0.9-0.4-1.4-0.8-2c-0.3-0.5-0.3-1.1,0-1.6c0.3-0.5,0.7-0.7,0.8-1.4c0.1-0.7-0.2-1.1-0.6-1.5c-0.5-0.4-0.4-1.1-0.4-1.6
		c0.1-0.8-0.1-1.6-0.6-2.1c-0.1-0.1-0.3-0.3-0.3-0.4c0-0.8,0-1.6,0-2.4c0-0.7,0-0.7-0.7-2c-0.2-0.3-0.2-0.6-0.3-1.1
		c-0.1-1.3,0.5-2.8-0.7-3.8c-0.2-0.2-0.2-0.7-0.2-1.1c0-1.6,0-3.2,0-4.8c0-0.8-0.7-1.3-1.4-1c-0.1,0.1-0.3,0.2-0.3,0.4
		c-0.3,2-0.2,3.9-0.2,5.9c0,1.1-0.2,1.9-0.9,2.6c-0.5,0.5-0.9,1.2-1.4,1.7c-0.5,0.6-0.7,1.2-0.7,2.1c0,0.5-0.7,0.8-0.9,1.3
		c-0.1,0.3,0,0.8,0,1.1c0,0.2,0.2,0.3,0.3,0.4c0.4,0.4,0.6,0.8,0.6,1.5c-0.1,0.8,0,1.6,0,2.4c0,1-1.1,1.3-1,2.5
		c0.1,0.8-0.7,1.2-1.1,1.8c-0.5,0.7-1.1,1.4-1.7,2.1c0.3,1.5-0.7,2.1-1.4,2.9c-0.8,0.9-0.1,1.2,0.2,1.7c0.3,0.5,0.3,1.1,0,1.6
		c-0.2,0.4-0.5,0.5-0.8,0.4c-0.1,0-0.4-0.1-0.5,0c-0.7,0.8-1.3,1.7-2.1,2.5c-0.4,0.4-0.4,0.6,0,0.9c0.1,0.1,0.3,0.1,0.4,0.2
		c0.5,0.1,0.9-0.2,1.2-0.7c0.3-0.5,0.4-0.5,0.7-0.2c0.2,0.3,0.3,0.6,0.2,1.1c0,0.2,0,0.4-0.1,0.5c-0.7,0.9-1.3,1.7-2,2.5
		c-0.5,0.6-0.9,1.1-0.7,2c-0.3,0.4-0.7,0.9-0.9,1.3c-0.1,0.1,0,0.4,0,0.6c0,0.2,0.1,0.5,0,0.6c-0.4,0.6-0.9,1.1-1.3,1.7
		c-0.6,0.7-0.6,1.2-0.1,1.3c0.4,0,0.9,0.2,1.3-0.3c0.8-1,0.9-1,1-0.4c0.1,0.6,0.2,1.1-0.1,1.6c-0.6,1-0.6,1-0.1,1.7
		c0.1,0.1,0.3,0.4,0.3,0.4c-0.2,0.3-0.4,0.6-0.7,0.9c-0.9,1.3-2.3,2.2-2.4,4.2c-0.7,0.8-1.2,1.9-2.3,1.7c-0.5,0.9-1.2,1.1-2,1.3
		c-0.4,0.1-0.5,0.5-0.3,1c-0.9,0.2-1,0.4-1,1.4c0,0.7,0.3,1,0.8,1c0.8,0.1,0.9-0.1,1.1-1.2c0.3,0,0.6,0,1,0c0,0.8,0,1.6,0,2.4
		c0,0.5,0,0.8,0.3,1c0.8,0.6,0.7,1.7,0.7,2.6c-0.2,0-0.4-0.1-0.5,0c-0.5,0.8-1.1,1.3-2,1.3c-0.2,0-0.4,0.5-0.7,0.8
		c-0.4,0.4-0.9,0.3-1.3,0.1c-0.3-0.2-0.4-0.6-0.4-1c0-0.2,0-0.4,0-0.6c0-0.6,0.1-1.2-0.3-1.7c-0.7-0.8-1.3-1.7-2.1-2.5
		c-0.8-0.9,0-1.2,0.3-1.7c0.2-0.5,0.3-1.1-0.1-1.6c-0.1-0.2-0.2-0.3-0.3-0.4c-0.5-0.8-0.6-1.5-0.2-2c0.3-0.4,0.7-0.9,1-1.3
		c0.5-0.6,0.5-0.6-0.1-1.7c-0.3-0.6-0.2-1.1-0.2-1.7c0-0.6,0-1.2-0.4-1.6c-0.4-0.4-0.7-0.8-1-1.3c-0.2-0.3-0.4-0.6-0.5-1
		c0-1.8,0-3.6,0-5.4c0-0.6-1-1.1-1.5-0.7c-0.1,0.1-0.3,0.3-0.3,0.4c-0.1,1-0.1,2-0.1,3c0,1.2,0,2.4-1,3.1c0,1.2-0.1,2.4,0,3.6
		c0,0.9-0.1,1.5-0.7,2.1c-0.5,0.5-0.9,1.1-1.2,1.8c-0.2,0.3,0,0.9-0.1,1.1c-0.7,1.1-1.5,2.1-2.8,1.7c-0.3-0.1-0.6-0.1-0.8-0.5
		c0-0.1,0-0.3,0.1-0.4c0.4-0.6,0.9-1.1,1.4-1.7c0.5-0.6,0.4-0.7-0.4-1c-0.1-0.1-0.3,0-0.5,0c-0.5-0.2-0.8-0.5-0.7-1.3
		c0.2-1.4-0.3-2.3-1.1-3.1c-0.1-0.1-0.2-0.3-0.3-0.4c-0.3-0.3-0.5-0.6-0.3-0.9c0.2-0.4,0.5-0.4,0.8-0.4c0.7,0,0.9-0.3,0.9-1
		c0.1-1.2,0.1-2.4-0.9-3.2c-0.3-0.2-0.5-0.6-0.7-0.8c-0.5-0.6-0.5-1.4,0-2.1c0.1-0.1,0.2-0.3,0.3-0.4c0.2-0.4,0.4-1.4,0.2-1.6
		c-0.7-0.7-0.8-1.5-1.1-2.5c-0.2-0.7-0.9-1.2-1.3-1.7c-0.1-0.1-0.3-0.3-0.3-0.4c0-0.1,0-0.3,0.1-0.4c1.3-1.2,0.6-2.9,0.7-4.4
		c0-0.1-0.2-0.3-0.3-0.5c-0.7-1.2-0.7-1.2-0.7-2.1c0-1,0-1-0.7-2c-0.4-0.6-0.4-1.3,0.1-2.1c0.8-1.2,0.8-1.3,0.1-2.5
		c-0.2-0.3-0.4-0.6-0.5-0.9c-0.1-0.4,0-0.8,0-1.2c0.1-0.6-0.1-1.2-0.5-1.5c-0.3-0.3-0.4-0.6-0.4-1c0-1.4,0-2.8,0-4.2
		c0-0.4-0.3-0.7-0.6-0.6c-0.1,0-0.3,0.3-0.3,0.4c0,1-0.1,2,0,3c0,0.5,0,0.8-0.3,1.1c-0.6,0.5-0.7,1.2-0.7,2c0,0.5-0.6,0.9-0.9,1.3
		c0.1,0.9-0.3,1.5-0.7,2c-0.4,0.4-0.3,1.1-0.1,1.6c0.8,1.8,0.9,1.8,0.8,2.6c0,0.4,0,0.8-0.2,1.1c-0.4,0.6-0.9,1.2-1.3,1.7
		c-0.3,0.3-0.4,0.6-0.4,1c0,1,0,2,0,3c-0.9,0.8-1.1,1.8-1,3.1c0.1,0.8,0,1.6,0,2.4c0,0.5-0.1,0.7-0.4,1c-1.3,1.5-2.5,3.1-3.7,4.7
		c-0.2,0.3-0.4,0.1-0.7-0.2c-0.9-0.8-1.1-1.9-1-3.1c0.1-0.5-0.1-0.7-0.4-1c-0.4-0.4-0.7-0.8-0.6-1.5c0.1-0.8-0.1-1.6,0-2.4
		c0.2-1.4-0.4-2.3-1.1-3c-0.1-0.1-0.2-0.3-0.3-0.4c-0.2,0.3-0.4,0.6-0.5,0.9c-0.1,1,0,2,0,3c0,0.3-0.3,0.7-0.5,0.9
		c-0.7,0.5-0.2,1.5-0.7,2.1c-0.3,0.4-0.8,0.7-0.7,1.4c0,0.2,0.1,0.5,0,0.6c-0.8,1-1.6,2-2.3,3c-0.2,0.2-1.1,0-1.3-0.3
		c-0.2-0.3,0-0.5,0.3-0.9c0.5-0.5,0.4-1.1-0.1-1.2c-0.5-0.1-0.9,0.1-1.3-0.5c-0.4-0.6-0.8-1.2-1.4-1.7c-0.3-0.3-0.9-0.3-1.3-0.5
		c-0.1,0-0.3-0.3-0.3-0.4c0-0.2,0.2-0.4,0.3-0.4c0.3-0.1,0.6-0.1,0.9-0.1c0.3,0,0.6,0,1,0c0.1,0,0.3-0.2,0.4-0.3
		c0.3-0.3,0.2-0.5-0.2-0.9c-0.4-0.4-0.7-0.8-1-1.3c-0.4-0.5-0.4-0.5,0.1-1.3c0.4-0.5,0.4-0.5-0.2-1.3c-0.1-0.1-0.2-0.3-0.3-0.4
		c0.2-0.2,0.5-0.5,0.7-0.6c0.5-0.2,0.9,0.1,1.2,0.6c0.2,0.4,0.5,0.5,0.8,0.6c0.4,0,0.6,0,0.9-0.3c0.2-0.3,0.1-0.5-0.2-0.9
		c-0.6-0.7-1.1-1.5-2-1.3c-0.5-0.8-1.1-1.3-2-1.3c-0.1,0-0.3-0.2-0.3-0.4c0-0.1,0.1-0.3,0.2-0.4c0.1-0.1,0.3-0.2,0.4-0.3
		c0.5,0,1,0.1,1.4,0c0.3-0.1,0.5-0.4,0.8-0.6c-0.1-0.1-0.2-0.3-0.3-0.4c-0.6-0.6-1-1.6-1.9-1.4c-0.6-0.7-1.1-1.4-1.7-2
		c-1-0.8-0.8-2.1-0.8-3.2c0-0.2,0.1-0.3,0.2-0.5c0.2-0.4,0.4-0.2,0.7,0.2c0.4,0.6,0.9,1.2,1.4,1.7c0.2,0.2,0.6,0.2,0.9,0.2
		c0.6,0,1-1.2,0.6-1.9c-0.2-0.3-0.5-0.5-0.7-0.9c-0.4-0.7-0.4-1.2,0.2-2c0.3-0.4,0.5-0.6,0.3-0.9c-0.4-0.6-0.9-1.1-1.3-1.7
		c-0.5-0.6-0.5-1.4-0.1-2.1c0.2-0.3,0.4-0.6,0.6-0.9c0,0-0.2-0.3-0.3-0.4c-0.3-0.4-0.6-0.9-1-1.3c-0.6-0.6-0.6-1.3-0.5-2.1
		c0-0.6,0-1.1-0.5-1.6c-0.2-0.2-0.5-0.6-0.5-0.9c-0.1-2,0.2-4-0.2-5.9c0-0.1-0.2-0.3-0.3-0.3c-0.1,0-0.3,0.2-0.3,0.4
		c-0.1,1-0.1,2-0.1,3c0,0.7-0.2,1.2-0.6,1.5c-0.7,0.5-0.1,1.5-0.7,2.1c-0.5,0.5-0.9,1.1-1.4,1.7c-0.4,0.6-0.4,1.2,0.1,2.1
		c0.7,1.1,0.7,1.6,0.1,2.5c-0.3,0.4-0.7,0.9-1,1.3c-0.1,0.1-0.2,0.3-0.3,0.4c-0.3,0.5,0,1.7,0.5,1.9c0.1,0.1,0.3,0,0.5,0
		c0.9,0.3,1.1,1.3,0.5,2.2c-0.3,0.4-0.8,0.7-0.7,1.5c0.1,0.5-0.1,0.7-0.3,1c-0.6,0.6-1,1.6-2,1.3c-0.5,0.5-0.9,1.1-1.4,1.6
		c0,0.1,0,0.3,0,0.4c0.7,1.2,1.6,1.9,2.8,1.6c0.1,0,0.3,0,0.4,0.1c0.4,0.3,0.4,0.5,0.1,0.9c-0.8,0.9-1.6,2-2.4,3
		c-0.2,0.3-0.1,0.6,0.3,0.8c0.1,0.1,0.3,0,0.5,0c0,0.2,0.1,0.5,0,0.6c-0.6,0.9-1.3,1.6-1.9,2.5c-0.1,0.2-0.1,0.8,0,1.1
		c0.1,0.3,0.4,0.5,0.7,0.6c0.5,0.2,0.9-0.1,1.2-0.6c0.2-0.3,0.5-0.5,0.7-0.6c0.6-0.3,1.1,0.2,1.2,1.2c-0.2,0-0.4-0.1-0.5,0
		c-0.7,0.8-1.5,1.6-2,2.6c-0.7,1.2-1.6,1.1-2.6,1c-0.1,0-0.3,0.1-0.4,0.2c-0.4,0.3-0.3,0.5,0.1,0.9c0.4,0.4,0.7,0.8,1,1.3
		c0.5,0.7,0.5,0.6,0.1,1.3c-0.5,0.8-1.1,1.3-2,1.3c-0.3,0-0.6,1.1-0.4,1.5c0.1,0.3,0.4,0.7,0.6,0.7c0.6,0.1,1.3,0,1.9,0.1
		c0.7,0.1,1.1-0.5,1.6-1c0.4-0.4,0.9-0.3,1.3,0c0.3,0.2,0.4,0.6,0.3,1c-0.1,0.8,0,0.9-0.8,1.1c-0.3,0.1-0.6,0.1-0.9,0.3
		c-1,0.9-1.1,1-1.6,0.9c-1.2-0.3-1.7,0.9-2.3,1.7c-0.1,0.1-0.1,0.3-0.1,0.5c0,0.8,0,1.6,0,2.4c0,1.2-1.2,2.7-2.1,2.6
		c-1.1,0-2.2-0.1-3.3-0.2c-0.1,0-0.3-0.2-0.3-0.4c-0.2-0.9,0.3-2-0.3-2.8c-0.5-0.6-0.9-1.1-1.4-1.7c-0.1-0.1-0.2-0.3-0.2-0.5
		c0.1-1.3-0.4-1.8-1.4-1.6c-0.8-1-1.6-1.9-2.4-2.9c-0.1-0.8-0.1-1.6-0.7-2.1c-0.1-0.1-0.2-0.3-0.3-0.4c0.2-0.2,0.5-0.5,0.7-0.6
		c0.3-0.1,0.7,0,0.9,0.2c0.5,0.5,0.9,1,1.6,1c1-0.1,1.9,0,2.9,0c0.1,0,0.3-0.2,0.4-0.3c0.3-0.3,0.1-0.5-0.2-0.9
		c-0.7-0.8-1.3-1.7-2.1-2.4c-0.3-0.3-1.1,0.1-1.2-0.6c-0.1-1.1-0.4-1.8-1.1-2.5c-0.6-0.6-1.2-1.3-1-2.5c-0.7-0.9-1.4-1.7-2-2.6
		c-0.6-0.7-1.1-1.4-1.7-2.1c-0.2-0.2,0-1.3,0.2-1.6c0.6-0.7,1.1-1.4,1.6-2.2c0.2-0.2-0.1-1.5-0.4-1.6c-0.3-0.1-0.6,0-0.9-0.1
		c-0.5-0.2-0.7-0.7-0.6-1.4c0.1-0.7,0.3-1,0.9-1c0.5,0,1,0,1.4,0c0.1,0,0.3-0.2,0.3-0.4c0.1-0.1,0.1-0.3,0-0.4
		c-0.7-0.9-1.3-1.8-2-2.5c-0.8-0.8-0.6-1.7-0.7-2.7c-0.1-0.8,0.4-1,0.7-1.5c0.2-0.4,0.4-1.4,0.2-1.6c-0.7-0.7-1-1.5-1-2.5
		c-0.7-0.6-0.7-1.6-1.1-2.5c-0.3-0.7-0.8-1.1-0.8-2c0.1-3.2,0-6.4,0-9.6c0-0.6-1-1.1-1.5-0.7c-0.1,0.1-0.3,0.3-0.3,0.4
		c0,2.6-0.1,5.2-0.1,7.8c0,0.4-0.1,0.7-0.3,1.1c-0.5,1-0.5,1.1,0,1.7c0.2,0.3,0.4,0.6,0.7,0.8c0.8,0.8,0.1,1.1-0.2,1.7
		c-0.2,0.5-0.1,1.1-0.2,1.7c0,0.4,0,0.9-0.2,1.1c-0.9,1.2-1.8,2.3-2.7,3.4c-0.2,0.2-0.1,0.8,0,1.2c0.1,0.3,0.5,0.5,0.7,0.6
		c0.5,0.2,0.9-0.2,1.2-0.7c0.3-0.5,0.5-0.6,0.7-0.2c0.1,0.3,0.2,0.7,0.2,1.1c0,0.2,0,0.4-0.1,0.5c-0.4,0.6-0.8,1.1-0.9,2
		c-0.1,1-1,1.5-1.5,2.2c-0.7,1-1.5,2-2.3,3c-0.2,0.2,0.1,1.5,0.4,1.6c0.3,0.1,0.6,0,0.9,0.1c0.4,0.1,0.6,0.6,0.5,0.7
		c-0.7,0.6-0.7,1.6-1,2.5c-0.2,0.5-0.7,0.9-1,1.3c-0.2,0.3-0.5,0.6-0.7,0.9c0.3,0.4,0.6,0.8,0.9,1.3c0.3,0.5,0.8,0.5,1.2,0.6
		c0.6,0.1,0.7,0.6,0.3,1.1c-0.5,0.6-1,1.1-1.3,1.7c-0.2,0.4-0.2,1.1-0.4,1.6c0,0.2-0.2,0.4-0.3,0.4c-0.7-0.1-1.2,0.3-1.6,0.9
		c-0.5,0.7-1.1,1.4-1.7,2.1c-0.8,1.1-2,1.9-2,3.7c-0.6,0.7-1.1,1.4-1.7,2.1c0,0,0.1,0.3,0.2,0.4c0.7,0.5,1.9,0.4,2.6-0.3
		c0.3-0.3,0.5-0.6,0.7-0.4c0.7,0.8,1.4,1.7,2,2.5c0.1,0.1,0.1,0.4,0.1,0.4c-0.8,1-1.6,1.9-2.4,2.8c-1.4-0.2-1.7,1.5-2.6,2.3
		c-0.8,0.7-0.3,1.2,0.2,1.7c0.1,0.1,0.2,0.3,0.2,0.5c0,0.8,0,1.6,0,2.4c0,0.8-0.1,1.6-0.1,2.3c-1,0.6-0.6,2.2-1.4,2.9
		c-0.6,0.6-0.3,1.4-0.4,2.2c-0.1,0.7,0.3,1.1,0.6,1.5c0.1,0.1,0.3,0.3,0.3,0.4c0,0.1-0.2,0.3-0.3,0.4c-1,1.5-2.6,2.4-2.7,4.6
		c-1.1,1.4-2.3,2.8-3.4,4.3c-0.6,0.8-1.3,1.1-2.1,0.9c-0.4-0.1-0.7,0-0.9,0.3c-0.5,0.7-1.3,1.2-1.2,2.4c0,0.6-0.5,0.9-0.8,1.4
		c-0.3,0.4-0.6,0.8-1.2,0.8c-1-0.1-1.9,0-2.9,0c-0.2,0-0.3,0-0.4-0.1c-0.1-0.1-0.2-0.3-0.3-0.4c-0.5-0.6-0.8-1.3-1.4-1.7
		c-0.7-0.4-1.5-0.4-2-1.3c-1.6-0.1-2.3-1.9-3.3-3c-0.2-1-0.3-1.9,0.1-2.8c0.5-1.1,0.5-1.2,0.1-1.7c-0.3-0.3-0.4-0.6-0.3-1
		c0-0.8,0-1.6,0-2.4c0.1-0.8-0.4-1.1-0.7-1.4c-0.2-0.3-0.3-0.6-0.3-1.1c0-1.1-1.3-1.7-1-3.1c0.1-0.7,0-1.6-0.1-2.3
		c-1-0.7-0.9-2-0.8-3.2c0.1-1.1-0.1-1.9-0.9-2.6c0-0.6-0.1-1.2-0.1-1.7c-0.1-0.8,0.2-1.6-0.2-2.3c-0.1-0.1-0.2-0.3-0.3-0.2
		c-0.1,0.1-0.3,0.3-0.3,0.4c-0.1,0.8-0.1,1.6-0.1,2.4c0,1.4,0.2,2.8-1,3.7c0,0.6-0.1,1.2,0,1.8c0.3,1.7-0.5,2.6-1.4,3.5
		c-0.1,0.1-0.3,0.1-0.4,0.1c-0.4,0.1-1.1-0.3-1.1-0.8c0-0.8-0.1-1.6-0.1-2.4c-1-0.6-0.6-2.1-1.3-2.9c-0.2-0.2-0.3-0.6-0.5-1
		c-0.1-0.2,0-0.4,0-0.6c-0.1-1.3,0.3-2.8-0.9-3.7c0-1.4-0.1-2.8,0-4.2c0-0.7-0.3-1.1-0.6-1.5c-0.1-0.1-0.3-0.3-0.3-0.4
		c-0.1-0.4,0-0.8,0-1.2c0-0.8,0.1-1.6,0-2.4c-0.1-0.5-0.8-0.8-0.9-1.3c-0.2-0.7-0.1-1.6,0-2.4c0.1-0.9-0.3-1.4-0.7-2.1
		c-0.5-0.7-0.3-2.4,0.2-3.2c0.2-0.3,0.5-0.6,0.5-0.9c0-2.2,0-4.4,0-6.6c0-0.7-0.9-1.3-1.5-0.9c-0.1,0.1-0.3,0.3-0.3,0.4
		c-0.1,2.2-0.1,4.4-0.1,6.5c0,0.7-0.2,1.1-0.6,1.5c-0.3,0.3-0.4,0.6-0.4,1c0,1.4,0,2.8,0,4.2c0,1.4,0.2,2.8-0.9,3.7
		c0,1.4-0.1,2.8,0,4.2c0,0.8-0.4,1-0.7,1.5c-0.1,0.2-0.3,0.3-0.3,0.4c0,0.8,0.1,1.7-0.1,2.4c-0.2,0.7-0.9,1-0.9,1.9
		c-0.1,1-0.2,1-0.9,1c-0.2,0-0.3,0-0.5,0c-0.4-0.1-0.9,0.2-1.3-0.4c-0.6-0.9-1.4-1.7-2-2.6c-0.2-0.2,0-1.4,0.2-1.6
		c0.2-0.2,0.5-0.1,0.7,0.3c0.2,0.4,0.5,0.6,0.7,0.4c0.3-0.2,0.3-0.6,0.3-1.1c0-0.4-0.1-0.7-0.4-1c-0.4-0.4-0.6-0.8-0.6-1.5
		c0.1-0.8,0-1.6,0-2.4c0-0.4-0.2-0.7-0.4-1c-0.9-0.9-0.4-2.2-0.5-3.3c-0.1-0.6,0.1-1.1,0.5-1.6c0.4-0.4,0.7-0.8,1-1.3
		c0.1-0.1,0.3-0.3,0.3-0.4c0-0.1-0.1-0.4-0.2-0.4c-0.9-0.5-0.4-1.9-1-2.5c-0.8-0.7-0.6-1.7-0.6-2.7c0-0.2,0-0.4,0-0.6
		c0-0.8,0-0.8-0.7-2c-0.4-0.7-0.4-1.1,0.2-2.1c0.7-1.2,0.8-1.3,0-2.5c-0.3-0.5-0.4-1-0.4-1.6c0-0.6,0.2-1.3-0.2-1.7
		c-0.8-0.7-0.8-1.6-0.7-2.6c0.1-0.7-0.3-1.1-0.6-1.5c-0.5-0.7-0.5-0.7,0.4-1c0.1-0.1,0.3,0,0.5,0c0.6-0.2,1-1.4,0.6-1.8
		c-0.6-0.7-1-1.5-1-2.5c-0.7-0.6-0.7-1.6-1.1-2.5c-0.3-0.7-0.8-1.1-0.8-2c0.1-2.6,0-5.2,0-7.8c0-0.7-0.2-1.1-0.6-1.5
		c-0.3-0.3-0.4-0.6-0.4-1c0-2.2,0-4.4,0-6.6c0-0.4-0.4-0.6-0.6-0.5c-0.1,0.1-0.3,0.3-0.3,0.4c-0.1,0.5,0.2,1.2-0.3,1.6
		c-0.4,0.3-0.7,0.7-0.7,1.5c0,3,0,6,0,9c0,0.4,0,0.8-0.1,1.2c0,0.2-0.2,0.3-0.3,0.4c-0.8,0.7-0.4,2.3-1.3,2.9
		c-0.2,0.1-0.1,0.7-0.2,1.1c-0.1,0.6-0.1,1.1-0.2,1.7c-1,0.6-0.5,2.2-1.4,2.9c-0.3,0.3-0.4,0.6-0.4,1c0,0.6,0,1.2,0,1.8
		c0,1.3,0,1.3-0.6,2.1c-0.1,0.1-0.2,0.3-0.3,0.4c-0.3,0.4-0.6,0.9-1,1.3c0.3,1.2-0.8,1.7-0.9,2.5c-0.1,0.9-0.4,1.4-0.8,2
		c-0.3,0.4-0.3,1.3,0,1.6c0.4,0.6,0.9,1.2,1.4,1.7c0.3,0.3,0.4,0.6,0.4,1c-0.1,0.8,0.3,1.7-0.3,2.2c-0.3,0.3-0.9,0.3-1.3,0.5
		c-0.4,0.2-0.5,0.6-0.3,1c-0.2,0-0.4-0.1-0.4,0c-0.7,0.8-1.3,1.6-2,2.4c-0.1,0.1-0.3,0-0.4,0c-0.4,0.1-0.6,0-0.8-0.4
		c-0.1-0.2-0.1-0.3-0.1-0.5c-0.1-0.9,0.3-2.1-0.5-2.7c-0.6-0.5-0.2-1.5-0.7-2.1c-0.5-0.5-0.8-1.2-0.7-2c0-0.5-0.7-0.8-1.2-0.6
		c-0.3,0.1-0.6,0.4-0.7,0.6c-0.1,0.6-0.1,1.2,0,1.8c0,0.5,0,0.8-0.4,1c-0.9,0.5-0.3,1.9-1,2.5c-0.8,0.7-0.5,1.8-0.5,2.7
		c0,0.2-0.1,0.4-0.1,0.5c-0.1,0.2-0.2,0.3-0.3,0.4c-0.6,0.3-1.4-0.2-1.4-0.9c0-0.6,0.1-1.2,0-1.8c-0.1-1.1,0.2-1.9,0.9-2.6
		c0.2-0.3,0.1-1.2-0.1-1.6c-0.7-1.1-0.7-1.1-0.7-2c0-0.9-0.1-1.6-0.7-2.1c-0.1-0.1-0.3-0.3-0.3-0.4c0.1-0.9-0.2-1.5-0.7-2
		c-0.4-0.4-0.1-1.3-0.4-1.6c-0.7-0.8-1-1.4,0-2.2c0-0.6-0.7-0.8-0.7-1.3c-0.1-1.4-0.1-2.8-0.1-4.2c0-0.4,0-0.8-0.3-1.1
		c-0.2-0.3-0.6-0.5-0.6-0.9c0-0.2,0.4-0.6,0.6-0.8c0.1-0.1,0.3-0.3,0.3-0.4c0.1-0.2,0-0.4,0-0.6c0-6.6,0-13.2,0-19.8
		c0-0.1-0.2-0.4-0.3-0.4c-0.2-0.1-0.6,0.1-0.6,0.6c0,3,0,6,0,9c0,1,0,2-0.7,2.6c-0.2,0.2-0.2,0.7-0.2,1.1c-0.1,1.4-0.1,2.8-0.1,4.1
		c-1,0.8-0.9,2-0.8,3.2c0.1,1.1-0.3,1.8-0.8,2.6c-0.3,0.5-0.1,1.5-0.7,2c-0.5,0.4-0.2,1.1-0.4,1.6c-0.2,0.5-0.6,0.9-0.9,1.3
		c0.2,1.2-0.4,2-1,2.4c-1.1,0.8-0.6,2.7-1.7,3.4c-0.1,0.6-0.1,1.1-0.2,1.7c0,0.4,0,0.8-0.2,1.1c-0.3,0.6-1,1-0.2,1.7
		c0.3,0.2,0.5,0.6,0.7,0.8c0.2,0.3,0.4,0.6,0.6,0.9c0,0-0.2,0.3-0.3,0.4c-1.2,1.6-2.5,3.1-3.7,4.7c-0.2,0.3-0.4,0.2-0.7-0.2
		c-0.4-0.6-0.9-1.1-1.3-1.7c-0.2-0.3-0.6-0.6-0.6-0.9c0.1-1.8-1.2-2.2-1.8-3.3c-0.1-0.1-0.2-0.4-0.1-0.5c0.4-1.9-0.7-2.9-1.6-4
		c-0.1-0.1-0.3-0.4-0.3-0.4c0.2-0.3,0.4-0.6,0.6-0.9c0.5-0.6,0.4-1.5,0-2.1c-0.6-0.7-1.1-1.4-1.7-2.1c-0.8-1.1-0.8-1,0-2.1
		c0.4-0.5,0.4-0.5,1.4,0.3c0.2,0.2,0.5,0,0.6-0.4c0.1-0.4,0.1-0.9,0-1.2c-0.3-0.6-1-1-0.9-1.9c0.1-0.7-0.5-1-0.7-1.4
		c-0.1-0.1-0.1-0.4-0.1-0.4c1.2-1,0.7-2.5,0.8-3.8c0-0.4,0-0.8,0-1.2c0.1-0.7-0.2-1.1-0.5-1.5c-0.5-0.5-0.9-1.1-1.4-1.7
		c-0.6-0.7-1.2-1.3-1-2.5c-1-0.7-1-1.9-0.9-3.1c0-0.2,0-0.5-0.1-0.5c-1.4-1.1-0.7-2.9-0.9-4.4c0-0.3-0.3-0.7-0.5-1
		c-0.4-0.7-0.4-0.7,0.1-1.3c0.3-0.4,0.4-0.6,0.2-0.9c-0.3-0.4-0.8-0.7-0.7-1.4c0-1.4,0.1-2.8,0-4.2c-0.1-1.1,0.4-2.4-0.6-3.3
		c-0.4-0.4-0.3-0.5-0.3-2.8c0-2.4,0-4.8,0-7.2c0-0.4,0-0.8,0-1.2c0-0.2-0.2-0.4-0.3-0.4c-0.2-0.1-0.6,0.1-0.6,0.6
		c0,8.2,0,16.4,0,24.6c0,0.4-0.1,0.7-0.4,1c-0.2,0.2-0.5,0.6-0.5,0.9c-0.1,1.6-0.1,3.2,0,4.8c0,0.9-0.3,1.5-0.8,2
		c-0.4,0.4-0.7,0.8-1,1.3c-0.4,0.7-1,0.8-1.7,0.7c-0.5,0-0.9,0-1.3,0.5c-0.2,0.3-0.5,0.6-0.7,0.6c-1.6,0.1-3.2,0-4.8,0.1
		c-0.7,0-1.1-0.7-1.6-1c-0.7-0.4-9.8-6.4-10.2-6.8c-2.7-3.4-5.4-6.8-8.2-10.2c-0.6-0.7-0.2-1.9-1-2.5c-0.5-0.4-1-1-1.3-1.7
		c-0.2-0.4,0.1-1.1-0.4-1.6c-0.3-0.4-0.7-0.7-0.7-1.4c0.1-2.2-0.1-4.4,0.1-6.6c0.1-1.5-0.8-2-1.4-2.9c-0.2-0.2-0.7-0.3-0.9-0.1
		c-0.5,0.4-1,1-1.4,1.6c-0.1,0.1-0.2,0.4-0.2,0.5c0.2,1.3-1.3,1.7-1,3.1c0,0.2-0.4,0.5-0.6,0.8c-0.1,0.1-0.3,0-0.5,0
		c-1,0.2-2.3-0.6-3,1c-0.1,0.1-0.3,0.2-0.4,0.2c-2.1,0-8.3-1.2-8.7-1.2c-1,0-1.9,0.1-2.5-1.1c-0.9,0.1-1.4-0.5-2-1.2
		c-0.2-0.2-0.6-0.1-0.9,0c-0.7,0.1-1.3-0.1-1.6-0.8c-0.2-0.4-0.5-0.5-0.8-0.4c-0.1,0-0.4,0.1-0.5,0c-0.9-1-1.6-2.5-3-2.5
		c-0.3-0.4-0.7-0.9-1-1.3c-0.8-0.8-1.3-2.4-2.6-2.2c-0.7-0.8-1.4-1.6-2.1-2.4c-0.1-0.1-0.3,0-0.5,0c-0.6,0-0.8-0.6-1.1-1
		c-0.3-0.4-0.7-0.7-0.7-1.4c0.1-2.8,0-5.6,0-8.4c0-0.7-0.3-1.2-0.8-1.2c-0.8,0-1.6-0.1-2.4,0c-0.2,0-0.6,0.4-0.6,0.7
		c-0.1,1.2,0,2.4,0,3.6c0,0.8,0.1,1.6-0.1,2.4c-0.1,0.5-0.8,0.9-0.8,1.3c0,0.9-0.4,1.4-0.8,2c-0.5,0.7-1,0.8-1.6,0.9
		c-0.4,0.1-0.7,0.7-1.1,1.1c-1.3,0-2.5,0-3.8-0.1c-0.3,0-0.4-0.5-0.4-1c0.1-1.2-0.9-1.6-1.3-2.3c0-0.1-0.3,0-0.3,0.1
		c-0.5,0.6-1,1.1-1.3,1.7c-0.3,0.5-0.5,0.6-0.7,0c-0.1-0.3-0.3-0.8-0.2-1.1c0.2-0.5,0.5-0.9,0.8-1.4c0.3-0.4,0.7-0.9,1-1.3
		c-0.4-0.6-0.8-1.2-1.3-1.7c-0.2-0.2-0.6-0.3-0.9-0.2c-0.3,0.1-0.6,0.4-0.7,0.7c-0.1,0.6-0.1,1.2,0,1.8c0,0.4-0.1,0.8-0.4,1
		c-0.8,0.5-0.3,1.9-1,2.5c-0.6,0.5-0.4,1.4-0.7,2.1c-0.2,0.4-0.5,0.4-0.8,0.4c-0.4,0-0.7-0.1-0.8-0.5c-0.1-0.4,0-0.8-0.1-1.1
		c-0.2-0.7-1-1.1-1.5-0.7c-0.1,0.1-0.3,0.3-0.3,0.4c0,1.6-0.1,3.2,0,4.8c0.1,1.2-0.4,1.8-1,2.5c-0.1,0.1,0,0.4,0,0.6
		c-1.3,0-4.6,0.4-4.9,0.8c-0.2,0.4-6.2,1.6-6.6,1.6c-1.9,0-10.7,2.4-11.5,2.4c0.1-0.5,0-0.9-0.3-1c-1.4-0.4-2.8-0.1-4.3-0.2
		c-1.1,0-2.3,0.1-3.4,0c-1.2-0.2-1.7,0.7-2.4,1.6c-0.1,0.1-0.2,0.3-0.2,0.5c0,0.4-0.1,0.9,0.1,1.1c0.7,0.8,1.1,2,2.3,1.7
		c0.9-0.2,1.9,0,2.9,0c0.1,0,0.3,0.2,0.3,0.4c0.1,0.4,0.1,0.8,0.1,1.1c0,5.2,0,10.4,0,15.6c0,1.1-0.3,1.9-0.9,2.6
		c-0.2,0.2,0,1.2,0.2,1.6c0.2,0.4,1.1,0.4,0.4,1.3c-1,1.2-2,2.5-3.1,3.8c-0.2,0.2-0.7,0.2-0.9,0c-0.5-0.5-0.9-1.1-1.4-1.7
		c-0.3-0.5-0.7-0.7-1.2-0.7c-1.1,0-2.2,0-3.4,0c-0.7,0.1-1.1-0.5-1.6-1.1c-0.3-0.4-0.7-0.9-1-1.3c-0.2-0.2-1-0.1-1.3,0.2
		c-0.3,0.4-0.5,1-1.1,0.9c-0.6-0.1-1.3,0-1.9,0c-0.4,0-0.6,0.1-0.8,0.4c-0.8,1-1.6,2-2.4,3c-0.4,0.5-0.8,1.4-1.4,1.4
		c-0.8,0-1.1,0.7-1.6,1.1c-0.4,0.3-0.9-0.1-1.3,0.4c-0.5,0.7-1.3,1.2-1.2,2.4c-0.6,1.1-1.2,2.5-2.5,2.1c-1.5-0.4-2.4,0.6-3.2,1.8
		c-0.4,0.6-0.4,0.6-1-0.1c-0.1-0.1-0.3-0.4-0.3-0.4c-0.9,1.1-2.1,1.8-2.5,3.4c-0.1,0.4,0,0.8-0.3,1.1c-0.5,0.6-0.9,1.1-1.4,1.7
		c-0.8,1-0.8,1-1.7-0.1c-0.2-0.2-0.4-0.6-0.4-0.8c0.1-0.5,0.4-0.5,0.8-0.5c0.6,0,0.9-0.3,1-0.9c0-0.2,0-0.4,0-0.6
		c0-0.2-0.1-0.3-0.2-0.5c-0.2-0.4-0.4-0.3-0.7,0.1c-0.3,0.5-0.7,0.7-1.2,0.8c-0.8,0.1-0.8,0.2-0.8,1.1c0,0.8-0.1,1.6,0,2.4
		c0.1,0.8-0.3,1.1-0.7,1.5c-0.3,0.4-0.3,0.5,0.1,0.9c0.2,0.2,0.3,0.5,0.5,0.8c-0.6,0.5-0.9,1.8-1.8,1.7c-0.4,0-0.6,0.1-0.8,0.4
		c-0.5,0.6-0.5,0.6-1.3-0.1c-0.1-0.1-0.3-0.2-0.3-0.1c-1,1.8-1.4,0.1-2-0.5c-0.1-0.1-0.2-0.3-0.3-0.4c-0.4-0.5-0.7-0.4-0.9,0.4
		c-0.4,1.5-0.4,1.5-1.5,1.5c-0.5,0-1-0.2-1.3,0.4c-0.2,0.3-0.4,0.6-0.7,0.9c-1.4,1.7-2.8,3.3-4,5.1c-0.6,0.9-1.4,0.7-2.1,0.8
		c-0.6,0.1-0.8-0.5-1.1-0.9c-0.3-0.3-1-0.4-1.3-0.2c-0.3,0.2-0.4,0.6-0.4,1c0.1,1.2,0,2.3-0.9,3.1c-0.5,0.4-0.5,0.6-1-0.1
		c-0.5-0.7-1.2-0.4-1.8-0.5c-0.6-0.1-0.9,0.3-1.2,0.8c-0.3,0.5-0.4,0.5-0.7,0.1c-0.5-0.7-1.3-1.2-1.1-2.4c-0.4-0.6-0.8-1.2-1.2-1.8
		c-0.1-0.1-0.2-0.1-0.3-0.1c-0.1,0.1-0.3,0.3-0.3,0.4c0,1.4,0,2.8,0,4.2c0,0.8,0.4,1,0.7,1.4c0.2,0.3,0.3,0.6,0.3,1.1
		c-0.1,0.7,0.3,1.6-0.4,2.2c-0.8,0.7-0.5,1.8-0.6,2.7c0,0.7-0.3,1-0.9,1c-0.6,0-1.3,0-1.9,0c-0.6,0-1-0.4-1-0.9c0-1,0-2,0-3
		c0-0.5-0.2-0.8-1-0.9c-0.6,0-0.8-0.5-1.1-0.9c-0.4-0.5-0.9-0.4-1.3-0.2c-0.3,0.1-0.4,0.5-0.4,1c0,0.8,0.1,1.6,0,2.4
		c-0.1,0.7,0.3,1.1,0.6,1.5c0.3,0.3,0.4,0.6,0.3,1c0.4-0.1,0.6,0,0.8,0.4c0.3,0.5,0.7,0.8,1,1.3c0.2,0.3,0.2,0.9,0.1,1.1
		c-0.6,1.1-1.2,2.4-2.6,2c-0.5-0.1-0.9,0.1-1.2,0.6c-0.4,0.6-0.9,1.2-1.4,1.7c-0.3,0.3-0.9-0.1-1.3,0.4c-0.1,0.1-0.1,0.3-0.1,0.4
		c0.1,0.2,0.2,0.4,0.3,0.4c0.3,0.1,0.6,0,0.9,0.1c0.4,0.1,0.7,1.1,0.5,1.5c-0.2,0.3-0.3,0.7-0.5,0.9c-0.8,1-1.6,1.9-2.3,3
		c-0.5,0.7-1.1,0.6-1.7,0.6c-0.3,0-0.7,0-0.9,0.2c-0.7,0.8-1.4,1.6-2,2.5c-0.5,0.7-0.9,1-1.6,0.8c-0.3,0.4-0.7,0.9-1.1,1.2
		c-0.2,0.2-0.6,0-0.9,0c-0.1,0-0.2-0.3-0.3-0.4c-0.2-0.2-0.5-0.6-0.7-0.6c-0.3,0.1-0.4,0.5-0.4,1c0,0.6,0.1,1.2,0,1.8
		c-0.1,0.5-0.4,0.6-0.6,0.5c-0.1-0.1-0.3-0.3-0.3-0.4c0-0.6,0-1.2,0-1.8c0-0.9-0.5-1.4-1.2-1.2c-0.3,0.1-0.7,0.5-0.7,0.7
		c0.1,0.9-0.3,1.5-0.7,2c-0.5,0.6-0.4,1.1,0.2,2c0.2,0.3,0.4,0.6,0.5,0.9c0.2,0.7-0.2,1.5-1,1.5c-0.4,0-0.6,0.1-0.8,0.4
		c-0.8,1-0.9,1-1,0.3c-0.1-0.4,0-0.8-0.1-1.1c-0.2-0.7-0.6-0.8-0.9-0.2c-0.1,0.2-0.2,0.3-0.3,0.4c-0.6,0.8-1.2,2.1-2,0.3
		c-0.6,0.6-1.1,1.3-1.7,1.9c-0.5,0.5-0.8,1.1-0.8,2c0,0.5-0.5,0.9-0.9,1.3c-0.5,0.7-0.5,0.7-1,0.1c-0.3-0.4-0.7-0.8-1-1.3
		c-0.8-1-0.9,0.6-1.4,0.6c-0.9,0.1-1.9,0-2.8,0.1c-0.1,0-0.3,0.2-0.4,0.4c-0.2,0.3-0.1,0.6,0.3,0.8c0.4,0.3,0.5,0.6,0.3,0.8
		c-0.1,0.1-0.2,0.3-0.4,0.3c-1.1,0-2.2,0-3.3,0c-0.6,0-0.9,0.3-0.9,1c0,0.8,0,1.6,0,2.4c0,0.7-0.3,1.1-0.6,1.5
		c-0.5,0.7-0.5,1.4-0.1,2c0.3,0.4,0.8,0.7,0.7,1.4c0,1,0,2,0,3c0,0.4-1,0.8-1.2,0.6c-0.5-0.5-1-1-1.4-1.5c-0.2-0.3-0.4-0.7-0.7-0.8
		c-0.2,0-0.4,0.5-0.7,0.7c-0.5,0.5-0.8,1.1-0.8,2c0.1,1.8,0,3.6,0,5.4c0,0.7,0.2,1.1,0.6,1.5c0.5,0.6,0.9,1.1,1.3,1.7
		c0.1,0.1,0,0.4,0,0.6c0,0.2,0.1,0.5,0,0.6c-0.6,0.7-1,1.4-1,2.5c0,0.5-0.4,0.6-0.6,0.2c-0.6-1.3-1.7-0.8-2.6-0.9
		c-0.1,0-0.3,0.2-0.3,0.4c-0.1,0.4-0.2,0.8-0.2,1.1c0.2,0.9,1.1,1.3,1,2.5c-0.1,0.8,0,1.6,0,2.4c0,0.2-0.1,0.3-0.2,0.5
		c-0.1,0.1-0.2,0.3-0.4,0.3c-1.1,0-2.2,0-3.4,0c-0.3,0-0.5,0.2-0.8,0.5c-0.5,0.7-1.1,1.4-1.7,2.1c-0.1,0.1-0.3,0.3-0.3,0.5
		c0.2,1.2-0.7,1.7-1,2.5c-0.2,0.6,0.3,1.6,0.9,1.6c0.4,0,0.7,0,0.8,0.4c0.1,0.3-0.1,0.5-0.4,0.9c-1.2,1.7-1.7,1.5-3-0.3
		c-0.2-0.3-0.4-0.6-0.3-1.1c0.1-0.6,0-1.2,0-1.8c0.1-0.9-0.2-1.5-0.7-2.1c-0.5-0.6-0.9-1.1-1.6-0.9c-0.7,0.1-1.3,0-1.7-0.8
		c-0.1-0.2-0.2-0.3-0.3-0.4c-0.6-0.4-1.4,0.1-1.4,0.9c0,1,0,2,0,3c0,0.7-1,1.2-1.5,0.8c-0.4-0.3-0.7-0.8-1.1-1.1
		c-0.3-0.3-1.2,0.2-1.2,0.6c-0.1,0.4-0.1,0.9,0,1.2c0.2,0.5,0.7,0.9,1,1.3c0.2,0.3,0.5,0.6,0.8,0.6c1.4,0,2.9,0,4.3,0
		c0.2,0,0.4,0.4,0.6,0.7c-1,0.7-0.9,2-0.9,3.2c0,0.3-0.3,0.6-0.5,0.9c-0.1-0.1-0.2-0.3-0.3-0.4c-0.5-0.6-0.5-0.6-1.4,0.2
		c-0.5,0.5-0.9,0.4-1.6-0.3c-0.9-0.9-1.3-0.9-2,0c-0.3,0.4-0.6,0.9-0.9,1.3c0.3,1.2-0.9,1.6-0.9,2.5c0,1.2-0.7,1.7-1.2,2.4
		c-0.2,0.3-1,0.5-1.3,0.3c-0.3-0.2-0.4-0.6-0.4-1c0.1-1.2,0-2.4-0.9-3.1c-0.4-0.3-0.7-0.8-1-1.3c-0.4-0.5-0.5-0.6-1,0.2
		c-0.5,0.7-1.2,0.1-1.7,0.8c-0.3,0.4-0.6,0.9-1.2,0.9c-1.1-0.1-2.2,0-3.3,0c-0.2,0-0.4,0.6-0.4,0.9c-0.1,1.1,1.1,2.5,2.1,2.6
		c0.5,0,0.9,0.1,1.4,0.2c0.1,0,0.3,0.3,0.3,0.4c0,0.1-0.2,0.4-0.3,0.4c-1.6,0.4-3.2,0.1-4.7,0.2c-0.4,0-0.6,0.4-0.7,1.3
		c0,0.4-0.1,0.9-0.4,1c-0.2,0-0.5-0.4-0.7-0.6c-0.1-0.1-0.2-0.3-0.3-0.4c-0.2,0.3-0.4,0.6-0.5,0.9c-0.1,0.6,0,1.2,0,1.8
		c0,0.6-0.4,0.9-1,0.9c-0.8,0-1.6-0.1-2.1,0.9c-0.2,0.4-0.4,0.2-0.7-0.2c-0.2-0.3-0.5-0.6-0.7-0.7c-1.9-0.1-3.8,0-5.8,0
		c-0.5,0-0.9,0.1-1.2,0.6c-0.4,0.6-0.9,1.1-1.3,1.7c-0.8,1.1-0.8,1.2-1.5,1.3c-0.8,0-1,0.9-1.5,1.2c-0.1,0.1-0.3,0-0.5,0
		c-0.2,0-0.4,0-0.5,0.1c-1,1.3-2,2.6-3.1,3.8c-0.4,0.5-0.2,1.1-0.3,1.6c-0.1,0.2-0.2,0.3-0.3,0.4c-0.2-0.2-0.5-0.5-0.5-0.8
		c-0.1-0.6,0-1.2,0-1.8c0-0.7-0.4-1.1-0.9-0.9c-1.3,0.3-2.1-0.6-2.8-1.7c-0.2-0.3,0-0.8-0.1-1.1c-0.1-0.3-0.4-0.7-0.6-0.7
		c-0.6-0.1-1.3,0-1.9-0.2c-0.4-0.1-0.7-0.8-1.1-1c-0.2-0.1-0.7,0-0.9,0.2c-0.5,0.5-0.9,1.1-1.3,1.7c0.1,0.9-0.2,1.5-0.8,2
		c-0.4,0.4-0.5,0.9-1.2,0.9c-1.3-0.1-2.6-0.1-3.8,0c-0.6,0-0.8-0.5-1.1-0.9c-0.4-0.5-0.9-0.2-1.3-0.4c-0.4-0.3-0.7-0.8-1.1-1.1
		c-0.2-0.1-0.7-0.1-0.9,0.1c-0.5,0.5-0.8,1.1-1.6,1.1c-1.4-0.1-2.9-0.1-4.3,0c-0.8,0-1.1-0.5-1.6-1.1c-1.1,0.1-1.7-0.9-2.3-1.7
		c-0.2-0.3-0.4-0.7-0.7-0.8c-0.3-0.1-0.6-0.1-0.9,0c-0.5,0.1-0.5,0.4,0.1,1.3c0.1,0.2,0.2,0.3,0.3,0.4c0.2,0.4,0.1,1.4-0.2,1.6
		c-0.3,0.3-1.1,0.4-1.3,0.1c-0.5-0.6-0.9-1.1-1.4-1.7c-0.2-0.3-0.5-0.5-0.8-0.5c-1.1,0-2.2,0-3.4,0c-0.7,0.9-1.4,1.4-2.5,1.2
		c-0.8-0.1-1.6,0-2.4,0c-0.1,0-0.2,0.2-0.4,0.4c-0.4,0.4-0.6,1-1.2,0.8c-1.1-0.3-1.8,0.3-2.5,1.3c-0.3,0.4-0.4,0.5-0.1,0.9
		c0.7,1,0.7,1,0.7,2c0,1,0,1,0.7,2c0.5,0.7,0.2,1.5,0.3,2.3c0.1,0.4-0.1,0.8-0.4,1c-0.1,0-0.3-0.1-0.3-0.2c-0.5-0.7-1.2-1.2-1.2-2.4
		c-0.1-1-0.9-1.6-1.5-2.1c-0.2-0.2-0.7-0.1-0.9,0.1c-0.9,1.1-1.8,2.2-2.7,3.4c-0.5,0.7-1,1.6-2,1.3c-1.7,1.2-1.7,1.2-2.5,1.2
		c-1.6,0-3.2-0.1-4.8,0c-1,0.1-1.8-0.3-2.5-1.2c-1.3,0-2.5,0-3.8,0.2c-0.4,0.1-0.7,1-1.1,1c-1.8,0.1-3.5,0.1-5.3,0
		c-0.5,0-0.7-0.9-1.1-1c-0.9-0.2-1.9-0.2-2.8-0.2c-0.2,0-0.5,0.4-0.7,0.7c-0.4,0.4-0.7,0.8-1,1.3c-0.2,0.4-0.5,0.5-0.8,0.4
		c-1.4,0-2.9,0-4.3,0c-0.6,0-1.4-0.2-1.9,0.1c-0.5,0.3-1,1-1.4,1.6c-0.5,0.7-1,0.8-1.7,0.7c-0.2,0-0.3,0-0.5,0
		c-0.3,0-0.5,0.2-0.8,0.5c-0.2,0.3-0.5,0.6-0.7,0.6c-1.8,0.1-3.5,0.1-5.3,0c-0.3,0-0.6-0.3-0.7-0.6c-0.3-0.5-0.8-0.6-1.3-0.6
		c-0.6,0-1.2,0.1-1.7-0.7c-0.3-0.5-0.7-0.9-1-1.3c-0.5-0.6-2.1-0.7-2.6,0c-0.5,0.7-1,0.8-1.7,0.8c-0.6,1.2-1.5,1.2-2.5,1.1
		c-0.8-0.1-1.6,0-2.1,1c-0.1,0.1-0.3,0.2-0.4,0.2c-2.1,0-4.2,0.1-6.2,0c-0.4,0-0.7-0.9-1.1-1c-1.3-0.2-2.5-0.1-3.8-0.2
		c-0.6,0.7-1.2,1.3-1.7,2c-0.3,0.5-0.4,0.5-0.7,0c-0.2-0.3-0.4-0.6-0.7-0.9c-0.5-0.6-0.9-1.1-1.4-1.7c0.3-0.4,0.6-0.9,0.9-1.3
		c-0.3-0.4-0.7-0.9-1-1.3c-0.3-0.4-0.7-0.8-1-1.3c-0.2-0.4-0.5-0.4-0.8-0.4c-1.6,0-3.2,0-4.8,0c-0.4,0-0.6,0.1-0.8,0.4
		c-0.6,0.9-1.4,1.7-2,2.6c-0.2,0.4,0.2,1.3-0.4,1.6c-1.2,0.5-2.5,0.1-3.8,0.2c-0.2,0-0.5-0.4-0.7-0.6c-0.4-0.4-0.7-0.8-1-1.3
		c-0.5-0.6-0.7-0.6-0.8,0.4c-0.1,0.9-0.5,1.4-0.9,2c-0.2,0.4-0.2,1.1-0.4,1.6c0,0.1-0.2,0.2-0.3,0.2c-0.1-0.1-0.3-0.3-0.3-0.4
		c0-1.1-0.4-2.4,0.5-3.3c0.1-0.1,0.2-0.3,0.3-0.4c-0.3-0.2-0.5-0.5-0.8-0.6c-0.5-0.1-1-0.1-1.4,0c-0.3,0.1-0.6,0.4-0.7,0.7
		c-0.1,1,0,2,0,3c0,0.4-0.1,0.8-0.4,1c-0.3,0.2-1,0.1-1.3-0.2c-0.3-0.4-0.5-1-1.1-0.9c-0.6,0.1-1.3-0.1-1.9,0
		c-0.6,0.1-0.9-0.4-1.2-0.8c-0.2-0.3-0.5-0.4-0.8-0.4c-0.8,0.1-1.6,0.2-2.1-0.9c-0.1-0.1-0.2-0.3-0.4-0.3c-0.9,0-1.9,0-2.8,0.1
		c-0.4,0.1-0.7,0.9-1.1,1c-0.8,0.2-1.6,0.1-2.4,0c-0.3,0-0.5-0.4-0.8-0.6c-0.6-0.6-1.1-1.4-1-2.5c-0.3-0.4-0.7-0.8-1-1.3
		c-0.5-0.6-1.2-0.6-1.6-0.1c-0.7,0.8-1.4,1.6-1.1,3c0.1,0.4,0,0.8,0,1.2c0,0.2,0.1,0.5,0,0.6c-0.2,0.3-0.4,0.7-0.6,0.8
		c-0.3,0.1-0.7,0.1-0.9-0.1c-0.4-0.3-0.7-0.9-1-1.2c-0.3-0.3-0.4-0.6-0.3-1c0-1,0-2,0-3c0-0.1-0.2-0.4-0.3-0.4
		c-0.3-0.1-0.7-0.3-0.9-0.1c-1,0.9-2,1.9-2.6,3.3c-0.1,0.2,0,0.4,0,0.6c-0.2,0.8-0.4,0.9-1,0.9c-0.6,0-0.9-0.4-0.9-1.1
		c0-1-0.2-2,0.6-2.7c0.1-0.1,0.3-0.3,0.3-0.4c0-0.1-0.1-0.4-0.3-0.4c-1.2-0.5-2.5-0.1-3.8-0.2c-0.4,0-0.7,0.4-0.7,1.2
		c0,0.4,0,0.8-0.4,1c-0.4,0.2-0.9,0.3-1.3-0.1c-0.4-0.4-0.7-0.8-1-1.3c-0.4-0.7-0.9-0.9-1.6-0.9c-1.1,0.1-2.2,0-3.4,0
		c-0.6,0-1.3,0-1.9,0c-0.4,0-0.6,0.1-0.8,0.4c-0.4,0.5-0.5,0.5-1.3-0.1c-0.3-0.2-0.5-0.3-0.9-0.3c-3.2,0-6.3,0-9.5,0
		c-1.6,0-3.2,0.1-4.8,0c-0.6,0-0.9,0.5-1.1,0.9c-0.5,0.7-1.3,0-1.7,0.8c-0.2,0.5-0.7,0.9-1,1.3c-0.5,0.6-0.9,1.1-1.4,1.7
		c-0.4,0.4-1.5,0-1.5-0.6c0-0.9-0.3-1.5-0.8-2c-0.4-0.4-0.6-0.9-1.2-0.9c-2.1,0.1-4.2,0-6.2,0c-0.6,0-1.4-0.2-1.9,0.1
		c-0.5,0.3-1,1-1.4,1.6c-0.5,0.7-1.1,0.7-1.7,0.7c-0.2,0-0.3,0-0.5,0c-0.1,0-0.3,0-0.4,0.2c-0.8,1-1.5,2-2.3,3
		c0.1,0.9-0.3,1.5-0.8,2c-0.2,0.2,0,0.5,0.3,0.8c0.6,0.5,0.5,1.4,0.5,2.2c0,0.4,0,0.8-0.2,1.1c-0.4,0.6-0.9,1.1-1.4,1.5
		c-0.2,0.2-0.6,0-0.9-0.1c-0.2-0.1-0.5-1.3-0.3-1.6c0.2-0.3,0.4-0.6,0.7-0.9c0.5-0.5,0.3-1.1,0.2-1.6c-0.1-0.6-1.1-0.8-1.6-0.2
		c-0.2,0.3-0.4,0.7-0.7,0.8c-0.2,0-0.4-0.4-0.7-0.7c-0.1-0.1-0.2-0.4-0.3-0.4c-0.3-0.1-0.6,0-1,0c-0.7,0-0.7,0-1.6-0.9
		c-0.3-0.3-0.5-0.4-0.9-0.3c-0.7,0.1-0.8-1-1.5-1c-0.1,0-0.3,0.2-0.3,0.4c-0.1,0.2,0,0.4,0,0.6c0,0.8-0.3,1.2-0.7,1.2
		c-0.5,0-1,0-1.4,0c-0.5,0-1-1.2-0.6-1.9c0.2-0.3,0.5-0.6,0.7-0.9c0.1-0.1,0.2-0.3,0.1-0.4c-0.1-0.2-0.2-0.4-0.3-0.4
		c-0.6-0.1-1.3,0.2-1.9-0.1c-0.5-0.3-0.9-1-1.4-1.6c-0.6-0.7-0.6-0.7-1.4,0.2c-0.2,0.3-0.6,0.6-0.5,1.4c-0.1,0-0.2,0-0.2,0
		c0,0.1-0.1,0.2,0,0.4c-0.5-0.4-0.7-0.3-0.8,0.1c-0.1,1.3-0.8,2-1.4,2.9c-0.8,1.2-1.7,1.7-2.9,1.5c-0.3-0.1-0.7,0.1-1,0
		c-0.3-0.1-0.5-0.4-0.7-0.6c0.1-0.1,0.2-0.3,0.3-0.4c0.2-0.3,0.5-0.6,0.5-0.8c-0.1-0.4-0.4-0.5-0.8-0.5c-0.3,0-0.6,0.1-1,0
		c-0.4-0.1-0.7,0-0.8,0.4c-0.5,1.2-1.9,0.5-2.3,1.7c-0.1,0.2-0.2,0.3-0.4,0.3c-1.4,0-2.9,0-4.3,0c-0.6,0-0.7-0.6-1.1-0.9
		c-0.6-0.5-1.5-0.3-2-1.3c0-0.1-0.3,0-0.3,0c-0.7,1.3-1.2,0.6-1.7-0.1c-0.2-0.2-0.6-0.1-0.9-0.1c-0.8,0-0.9,0-1.7-0.8
		c-0.1-0.1-0.2-0.4-0.3-0.4c-1.6,0-3.2,0-4.8,0c-0.1,0-0.3,0.2-0.3,0.4c-0.5,1.1-1.8,0.5-2.3,1.7c-0.3,0.5-0.9,0.2-1.3,0.3
		c-0.3,0-0.7,0-0.9,0.2c-0.6,0.6-1.1,1.5-1.7,2.1c-0.5,0.4-1.2,0.1-1.6,0.9c-0.3,0.5-0.7,0.9-1,1.3c-0.1,0.1-0.2,0.3-0.3,0.4
		c-0.2-0.3-0.3-0.6-0.5-1c-0.1-0.2,0-0.4,0-0.6c0-2-0.1-2.1-1.5-2c-1,0-1.4-0.4-1.4-1.7c0-0.7-1.1-1-1.5-0.6c-0.7,0.8-1.4,1.7-2,2.6
		c-0.5,0.6-0.9,1.1-1.6,0.9c-1.7,1.2-1.7,1.2-2.5,1.2c-1,0-1.9,0-2.9,0c-0.4,0-0.6-0.1-0.8-0.5c-0.6-0.9-1.3-1.7-2-2.6
		c-0.7-0.9-1.1-0.9-2,0.1c-0.4,0.5-0.8,0.4-0.9-0.3c-0.4-1.6-0.4-1.6-1.4-1.6c-1.8,0-3.5,0.1-5.3,0c-0.6,0-0.8,0.5-1.2,0.8
		c-0.5,0.6-1.1,0.5-1.6-0.1c-0.9-1-1.1-1-2-0.2c-0.1,0.1-0.2,0.3-0.3,0.4c-0.7,0.3-1.5,0.3-2,1.3c-0.5,0.1-0.9,0.1-1.4,0.2
		c-0.6,0-1.3,0-1.9,0c-0.3,0-0.8,0-0.8-0.3c-0.5-1.2-1.8-0.6-2.3-1.7c-0.1-0.2-0.2-0.4-0.3-0.4c-0.3-0.1-0.6-0.1-0.9-0.1
		c-4.5,0-9,0-13.4,0c-0.9,0-1.4,0.6-2,1.3c-0.4,0.5-0.4,1-0.4,1.6c0,0.8-0.1,1.6,0.6,2.1c0.4,0.3,0.5,0.6,0.1,0.9
		c-0.1,0.1-0.3,0.2-0.4,0.2c-0.8,0.2-1.2-0.2-1.2-1.2c0-0.5-0.1-0.7-0.4-1c-0.4-0.4-0.6-0.8-0.7-1.5c-0.1-1.3-0.3-1.3-1-0.3
		c-0.3,0.4-0.5,0.6-0.7,0c-0.5-1.8-0.9-2.4-1.4-2.9c-0.3-0.3-0.5-0.3-0.9-0.3c-0.7,0-0.7,0-2.1,1c-0.7,0.4-1.5,0.3-2,1.3
		c-1.4,0.2-2.8,0.3-4.2-0.1c-0.6-1.3-1.7-0.9-2.6-0.9c-1,0-1.9,0-2.9,0c-0.1,0-0.3-0.2-0.4-0.3c-0.4-0.7-0.9-1-1.6-0.9
		c-0.3-0.4-0.7-0.8-1-1.3c-0.6-0.7-1.1-1.6-1.7-2.1c-0.6-0.5-1.5-0.4-2-1.3c-0.1-0.2-0.6-0.2-0.9-0.2c-1.9,0-3.8,0-5.8,0
		c-0.8,0-1.6-0.4-2.3,0.3c-0.5,0.5-0.9,1.1-1.4,1.7c-0.1,0.1-0.2,0.3-0.3,0.4c-0.2-0.3-0.4-0.6-0.5-0.9c-0.1-0.6,0-1.2,0-1.8
		c0-0.5-0.4-0.9-1-0.9c-0.8,0-1.6,0.1-2.1-0.9c-0.2-0.3-0.5-0.3-0.9-0.3c-1.1,0-2.2,0.1-3.4,0c-0.7-0.1-1.1,0.4-1.6,1
		c-0.4,0.4-0.9,0.2-1.4,0.2c-0.3,0-0.7,0-0.9,0.2c-0.7,0.8-1.4,1.7-2,2.5c-0.2,0.3-0.1,0.5,0.3,0.9c0.8,0.7,0.4,1.8,0.5,2.7
		c0,0.3-0.3,0.7-0.5,0.8c-0.3,0.1-0.7,0.1-0.9-0.1c-0.5-0.5-1-1-1.3-1.7c-0.2-0.4,0.1-1.2-0.4-1.6c-1-0.8-0.6-2.1-0.6-3.3
		c0-0.3,0.4-0.5,0.6-0.9c0.6-0.9,0.3-2-0.6-2.1c-0.6-0.1-0.8-0.4-1.2-0.8c-0.5-0.6-1.2-0.6-1.6,0c-0.4,0.5-0.4,0.5-0.2,2.6
		c0.1,1,0,2,0.1,3c0,0.5,0,0.8-0.3,1c-0.3,0.3-0.9,0.3-1.3,0c-0.1-0.1-0.3-0.3-0.3-0.4c0.3-1.5-0.8-2-1.4-2.9
		c-0.2-0.2-0.6-0.1-0.9-0.1c-0.1,0-0.2,0.2-0.4,0.3c-0.8,0.8-0.8,0.8-1.6,0.8c-0.5,0-1,0-1.4,0c-0.3,0.1-0.7,0-0.8-0.4
		c-0.1-1.2-0.6-2-1.3-2.8c-0.3-0.4-0.4-0.5-0.7,0c-0.4,0.7-1.3,1.1-1.1,2.3c-0.5,0.9-0.9,2-1.9,2.1c-0.5,0-1,0-1.4,0
		c-0.8,0-0.8,0-1.6-0.9c-0.4-0.5-0.9-0.3-1.3-0.3c-0.5,0-0.9-0.1-1.3,0.5c-0.2,0.3-0.5,0.7-0.7,0.7c-1.1,0.1-2.2,0-3.4,0
		c-0.3,0-0.5-0.2-0.8-0.5c-0.5-0.7-1.2-1.3-1-2.5c0-0.4-0.9-0.8-1.2-0.6c-0.3,0.2-0.5,0.4-0.7,0.7c-0.5,0.8-1.2,0.4-1.8,0.5
		c-0.6,0.1-0.8-0.4-1.2-0.8c-0.5-0.6-1.1-0.6-1.6,0c-0.3,0.4-0.6,0.9-1.2,0.8c-0.5-0.1-1,0-1.4,0c-0.7-0.1-1.1,0.3-1.6,0.9
		c-0.6,0.7-1.5,0.3-2.3,0.3c-1,0.1-1,0-1.3,1.7c-0.1,0.5-0.4,0.7-0.6,0.5c-0.5-0.5-0.9-1.1-1.4-1.7c-0.2-0.3-0.5-0.5-0.8-0.5
		c-1.8,0-3.5,0-5.3,0c-0.4,0.4-0.7,0.8-1.1,1.2c-0.3-0.4-0.7-0.8-1-1.2c-0.1-0.1-0.2-0.3-0.3-0.4c-0.7-1.2-1.7-0.7-2.6-0.7
		c-0.7,1.5-1.9,1.1-3,1.1c-0.7,0-1.1,0.5-1.6,1c-0.5,0.4-1.2,0.1-1.6,0.9c-0.3,0.6-0.8,0.4-1.2,0.6c-0.4,0.2-0.7,1-1.1,1.1
		c-1.3,0.2-2.5,0.1-3.8,0.1c-0.2,0-0.5-0.4-0.7-0.8c-0.4-0.6-0.9-0.2-1.3-0.4c-0.4-0.2-0.7-1.1-1.1-1.1c-0.9-0.1-1.8-0.3-2.6,0.8
		c-0.5,0.8-1.5,0.3-2.2,0.2c-0.4-0.9-1.2-1-2-1.3c-0.5-1.4-2.2-0.6-2.7-2.1c-0.4-0.2-0.9,0.1-1.3-0.4c-0.3-0.4-0.5-0.9-1.1-0.9
		c-1.3,0.1-2.6,0-3.8,0c-0.4,0-0.7,0-0.8-0.4c-0.1-0.3,0-0.6,0.4-0.8c0.1-0.1,0.3-0.3,0.3-0.4c0.3-0.7,0-1.9-0.5-1.9
		c-0.7,0-1.1-0.5-1.6-1c-0.4-0.5-1.2-0.1-1.6-0.9c-0.3-0.6-0.8-0.5-1.2-0.6c-0.4-0.2-0.7-0.9-1.1-1c-0.6-0.2-1.2-0.1-1.9-0.1
		c-1.3,0-2.6,0-3.8,0c-0.2,0-0.6,0.5-0.6,0.8c-0.1,1.8,0,3.6,0,5.4c0,0.4-0.1,0.7-0.5,1c-0.3,0.2-1,0-1.3-0.3
		c-0.2-0.3-0.5-0.5-0.7-0.9c-0.2-0.3-0.4-0.6-0.4-1c0-1.8,0-3.6,0-5.4c0-0.5-0.5-0.8-1.1-0.8c-0.3,0-0.6,0-1,0
		c-0.6,0.1-1.7,1.4-1.8,2.4c0,0.2,0.1,0.5,0,0.6c-0.7,1-1.4,2.2-2.7,1.9c-0.3-0.1-0.6,0-0.9-0.3c-0.4-0.6-0.9-1.1-1.4-1.7
		c-0.5-0.6-2.1-0.7-2.6,0.1c-0.5,1-1.5,0.4-2,1.2c-0.4,0.6-0.9,1.1-1.3,1.7c-0.6,0.7-1.2,1.4-1.7,2.1c-0.2,0.3-0.5,0.5-0.8,0.5
		c-1.1,0-2.2,0-3.4,0c-0.1,0-0.3-0.2-0.4-0.3c-0.5-1.2-1.8-0.5-2.4-1.7c-0.3-0.7-1-0.5-1.6,0.1c-0.6,0.6-0.6,0.6-1,0.1
		c-0.1-0.1-0.2-0.3-0.3-0.4c-0.5-0.6-0.5-0.7,0.1-1.7c0.2-0.3,0.3-0.6,0.3-1.1c-0.1-1,0-1.9,0.7-2.6c0.5-0.6,0.2-1.5,0.2-2.3
		c0-0.8-0.9-1.4-1.4-0.9c-0.3,0.2-0.4,0.6-0.7,0.8c-0.5,0.5-1,0.5-1.6-0.1c-0.2-0.2-0.5-0.5-0.7-0.7c-0.3-0.2-1.3,0.2-1.2,0.5
		c0.2,1.5-0.8,2.1-1.4,2.9c-0.2,0.2-0.6,0.2-0.9,0.2c-0.1,0-0.3-0.1-0.4-0.3c-1.1-0.9-1.1-0.9-1.6-0.9c-1,0-1.9,0.1-2.9,0
		c-0.3,0-0.5-0.4-0.4-0.7c0-0.2,0.2-0.4,0.3-0.4c1.4-0.3,2.2-1.1,2.4-2.3c0.1-0.5-0.3-1.4-0.6-1.4c-1.1,0-2.2,0-3.4,0
		c-0.6,0-0.9,0.3-0.8,1.1c0.1,1.2,0,2.4-1,3.1c-0.1,0.1,0,0.4,0,0.6c-0.2,0-0.4-0.1-0.5,0c-0.6,1.1-1.4,1.4-2.4,1.2
		c0,0.4,0,0.8,0,1.2c-0.8,0-1.6-0.2-2.1,0.8c-0.1,0.2-0.2,0.3-0.4,0.3c-0.3,0-0.8,0.1-0.9-0.1c-0.6-1.2-1.6-1.2-2.5-1.1
		c-0.3,0-0.5-0.2-0.8-0.5c-0.5-0.7-1.2-1.3-1-2.5c0-0.1-0.2-0.4-0.3-0.4c-0.9-0.1-1.9-0.2-2.8-0.1c-0.9,0.1-1.5-0.3-2-1.1
		c-0.2-0.3-1-0.1-1.3,0.2c-0.3,0.4-0.5,0.9-1.1,0.9c-1.3-0.1-2.6-0.1-3.8,0c-0.6,0-0.8-0.4-1.2-0.8c-0.6-0.7-1.5-0.2-2-1.2
		c-0.3-0.6-0.9-1.1-1.4-1.5c-0.2-0.2-0.7-0.1-0.9,0.1c-0.7,0.8-1.4,1.7-2,2.5c-0.2,0.3-0.3,0.6-0.3,1.1c0,1,0,2-0.1,3
		c0,0.2-0.2,0.4-0.3,0.4c-1.1,0.2-2.2,0.2-2.9-1.1c-0.4-0.7-0.5-0.6,0.1-1.3c0.5-0.6,1-1.1,1.3-1.7c0.2-0.3,0.2-0.9,0-1.1
		c-0.4-0.6-0.9-1.2-1.3-1.7c-1.6-0.1-2.3-1.9-3.3-3c-0.5-0.6-0.5-0.6-1.4,0.1c-0.1,0.1-0.3,0.3-0.4,0.3c-0.9,0-1.9,0.4-2.6-0.9
		c-0.1-0.1-0.3-0.2-0.4-0.2c-0.6-0.3-1.2,0.4-1.2,1.2c0,0.3,0,0.5,0.2,1.2c-0.1,0-0.1,0-0.2,0.1c0,0,0,0.2,0,0.4
		c-0.5-0.4-0.7-0.4-1-0.4c-0.6,0-0.9-0.3-1-0.9c-0.1-0.8,0.2-1.6-0.2-2.3c-0.6-0.9-1.2-1.9-2.3-1.6c-0.5,0.1-1,0-1.4,0
		c-0.3,0-0.6-0.2-0.8-0.6c-0.4-0.8-1.1-0.6-1.7-0.7c-0.5,0-0.9,0.2-1.2,0.6c-0.8,1-1.7,0.7-2.6,0.3c-0.6-1.3-1.7-0.9-2.6-0.9
		c-0.2,0-0.5,0.5-0.6,0.8c-0.1,0.6,0,1.2,0,1.8c0,0.7-0.3,0.9-0.9,1c-0.8,0.1-1.2,0.8-1,1.5c0.1,0.3,0.3,0.7,0.5,0.9
		c0.3,0.3,0.4,0.6,0.2,0.9c-0.1,0.1-0.2,0.3-0.4,0.3c-0.3,0-0.6,0-1,0c-0.9,0-0.9,0-1.6-1c-0.2-0.3-0.6-0.6-0.6-0.9
		c0-0.3,0.4-0.6,0.6-0.8c0.2-0.3,0.4-0.6,0.7-0.8c0.8-0.8,0.1-1.2-0.2-1.7c-0.2-0.3-0.1-0.7-0.2-1.1c-0.2-0.8-0.3-0.8-1-0.9
		c-1-0.2-1.8,0.3-2.5,1.2c-1-0.2-1.5,0.4-1.3,1.7c0,0.1-0.1,0.4-0.3,0.4c-0.3,0.1-0.6,0.3-0.9,0.3c-0.8-0.1-1.6,0.1-2.1,1
		c0,0.1-0.2,0-0.3,0c-0.1-0.1-0.3-0.3-0.3-0.4c0-1,0-2,0-3c0-0.8-0.6-1.4-1.3-1.1c-0.2,0.1-0.6,0.5-0.6,0.7c-0.1,0.8,0,1.6,0,2.4
		c-0.1,0.9,0.3,1.4,0.8,2c0.4,0.6,0.2,1.9-0.3,2c-0.4,0.1-0.9,0.2-1.3-0.4c-0.3-0.5-0.6-0.9-1.2-0.8c-0.3,0.1-0.6,0-1,0
		c-0.6,0-0.7-0.1-0.9-1c0-0.2,0.1-0.5,0-0.6c-0.9-1.3-1.9-2.6-2.9-3.9c0.1-1.9-1.4-2.4-2.1-3.7c-0.2-0.3-2-0.6-2.2-0.3
		c-0.6,0.8-1.7,1.3-1.4,2.9c0.1,0.4,0.1,0.8,0,1.2c-0.1,0.5-0.4,0.7-0.6,0.5c-0.5-0.5-0.9-1.1-1.6-1c-1.6,0.1-3.2,0.1-4.8,0
		c-0.3,0-0.5-0.4-0.7-0.7c-0.3-0.6-0.9-0.4-1.3-0.6c-0.4-0.2-0.7-0.9-1.1-1.1c-0.6-0.2-1.3-0.1-1.9,0c-0.3,0-0.5,0.5-0.7,0.8
		c-0.2,0.4-0.5,0.4-0.8,0.4c-0.9,0-1.4,1.7-2.5,1.2c-0.3-0.1-0.6,0-1,0c-0.6,0-1.3,0.1-1.9-0.1c-0.5-0.3-0.8-1-1.6-1.1
		c-0.9-0.2-1.6-1.4-1.7-2.4c-0.1-0.9-0.3-1.1-0.8-1.1c-0.5,0-1.1-0.2-1.4,0c-0.8,0.6-1.5,1.2-1.6,2.6c-0.1,1.1-0.3,1.2-0.8,0.5
		c-0.5-0.7-1.1-0.7-1.6-0.9c-0.4-0.1-0.7-0.8-1.1-1.1c-0.5-0.3-1.2,0.3-1.2,1.1c0,0.5,0,0.8-0.3,1c-0.2,0.2-0.4-0.1-0.7-0.4
		c-0.4-0.5-0.5-0.6-1,0.2c-0.3,0.4-0.4,0.5-0.7,0.1c-0.3-0.4-0.5-1.1-1.1-0.9c0-0.8,0-1.6,0-2.4c0.3,0,0.6,0,0.9,0
		c0.4,0.1,0.6,0,0.8-0.4c0.5-1,1.3-0.9,2.1-0.8c0.4,0,0.6,0,0.8-0.4c0.2-0.5,0.2-1.2,0-1.6c-0.7-1.1-1.5-1.9-2.8-1.6
		c-0.6,0.1-1.2,0-1.9,0c-0.4-0.1-0.7,0-0.8,0.4c-0.2,0.5-0.2,1.1-0.4,1.6c-0.1,0.4-0.5,0.4-0.8,0.4c-0.3,0-0.7-0.1-0.8-0.5
		c-0.1-1-0.4-1.8-1-2.5c-0.4-0.4-0.7-0.8-1.2-0.6c-1.1,0.3-1.8-0.5-2.4-1.5c-0.6-0.9-1.3-1-2.1-1c-0.8,0.1-0.8,0-1.1,1.4
		c-0.2,1.1-0.3,1.2-0.8,0.7c-0.3-0.4-0.5-0.9-1.2-0.9c-0.6,0.1-1.3,0-1.9,0c-0.6,0-0.9,0.3-1,1c0,0.4,0,0.8,0,1.2
		c0,1.1,0.2,1.5,1,1.5c0.5,0,1,0,1.4,0c0.7,0,0.7,0,1.6-0.9c0.1-0.1,0.2-0.2,0.4-0.3c0.1-0.1,0.3,0,0.5,0c0.7,0.1,1.5,1.2,1.8,2.4
		c-0.4-0.1-0.6,0-0.8,0.4c-0.3,0.4-0.6,0.9-1.2,0.8c-0.8-0.1-1.6,0-2.4,0c-0.7-0.1-1.1,0.4-1.6,0.9c-0.7,0.7-1.5,0.3-2.3,0.3
		c-1.2,0.1-1.3-0.1-1.3-1.7c0-1.6-0.2-1.8-1.2-1.8c-1,0-1.9,0-2.9,0c-0.3,0-0.6,0-1,0c-0.6,0-1-1.2-0.7-1.8c0.2-0.3,0.5-0.5,0.7-0.9
		c0.4-0.8,0.3-2.6-0.2-3.2c-0.3-0.4-0.6-1-1-1.2c-0.4-0.2-0.9,0.2-1.3-0.5c-0.7-1.2-1.7-0.7-2.6-0.7c-0.9,1.8-2.3,1-3.5,1.1
		c-0.5,0.1-0.7-0.3-0.8-1.2c-0.1-0.9-1.2-2.3-1.8-2.4c-1.2-0.3-2.1,0.4-2.8,1.6c-0.3,0.4-0.3,1.1,0,1.6c0.8,1.6,0.8,1.6,0.8,2.6
		c0,1.1-0.2,1.4-1.1,1.4c-0.8,0-1.6,0-2.1,1c0,0.1-0.3,0.1-0.3,0.1c-0.6-0.7-1.1-1.4-1.7-2.1c-0.5-0.7-1-1.6-2-1.3
		c-0.6-0.7-1.1-1.5-2-1.3c-0.1,0-0.3-0.3-0.3-0.4c-0.1-1-0.4-1.8-1-2.5c-0.4-0.4-0.7-0.8-1-1.3c-0.3-0.5-0.8-0.6-1.2-0.6
		c-0.5,0-1,0-1.4,0c-0.3,0-0.7,0-0.9-0.3c-0.8-0.9-1.6-2-2.4-3c-0.6-0.8-0.7,0.4-1,0.5c-0.1,0.1-0.2,0.2-0.4,0.3
		c-0.5,0.3-1.3-0.4-1.3-1.1c0-0.7-0.2-1.1-0.7-1.3c-0.3-0.1-0.7,0-0.9,0.2c-0.9,0.9-1.5,1.9-1.3,3.5c0.1,0.8-0.2,1-0.8,1.1
		c-0.3,0-0.6-0.1-1,0c-0.6,0.1-0.9-0.3-1.2-0.8c-0.4-0.8-1.2,0-1.7-0.8c-0.3-0.6-0.4-0.5-1.6-0.9c-0.1,0-0.3-0.3-0.3-0.4
		c0-0.3,0.2-0.6,0.5-0.7c0.3-0.1,0.6-0.1,1,0c0.7,0.1,1.2-0.4,1.6-1c0.2-0.3,0.5-0.5,0.6-0.9c0.1-0.3,0.1-0.8,0-1.2
		c-0.1-0.3-0.5-0.5-0.7-0.6c-0.3-0.1-0.6,0.1-0.9,0.3c-1.5,1.2-1.4,1.3-2.3,0.1c-0.1-0.1-0.2-0.4-0.3-0.4c-0.3-0.1-0.8-0.2-0.9,0
		c-0.6,0.8-1.6,1.3-1.5,2.8c0,0.6-0.6,0.7-1.1,0.8c-0.8,0.1-0.8,0.2-0.8,1.1c0,0.4,0,0.8,0,1.2c0.1,0.5,0,0.8-0.3,1
		c-0.3,0.3-0.9,0.3-1.3,0c-0.3-0.2-0.5-0.8-0.7-0.8c-1.1,0-1.8-0.8-2.3-1.8c-0.4-0.8-0.3-1.8-1-2.5c-0.5-0.5-0.9-1.1-1.4-1.7
		c-0.5-0.5-1.2-0.1-1.7-0.8c-0.4-0.6-0.9-1.2-1.4-1.7c-0.2-0.2-0.6-0.1-0.9-0.2c-0.6-0.2-0.9-1.3-0.5-1.9c0.3-0.5,0.6-0.9,0.8-1.4
		c0.1-0.3,0-0.8-0.1-1.1c-0.2-0.6-0.4-0.4-0.7,0c-0.7,1-1.4,2.2-2.6,2.1c-0.7,0.9-1.4,1.7-2,2.6c-0.1,0.1-0.2,0.3-0.2,0.5
		c0,0.6,0,1.4-0.5,1.5c-0.4,0-0.5-0.8-0.5-1.4c0-0.3-0.3-0.6-0.5-0.9c-0.2,0.3-0.3,0.6-0.4,1c-0.1,0.2,0,0.4,0,0.6
		c-0.1,0.6-0.5,0.9-1.1,0.8c-0.6-0.1-0.8-0.2-0.8-1.1c0-0.4,0-0.9-0.3-1c-0.4-0.2-0.9-0.2-1.3-0.5c-0.4-0.3-0.6-1-1.1-1
		c-0.8,0.1-1.2-0.6-1.5-1.1c-0.7-1-1.4-1.5-2.5-1.3c-1.4,0.2-2.9,0-4.3,0c-0.1,0-0.3-0.2-0.3-0.4c-0.1-0.1-0.1-0.3,0-0.4
		c0.7-1.2,1.6-1.9,2.8-1.6c0.3,0.1,0.5-0.3,0.8-0.5c0.9-0.8,1.1-1.8,1-3.1c-0.1-0.7-0.3-1.2-0.8-1.2c-0.2,0-0.3,0-0.5,0
		c-1.1,0.1-2.3-0.4-3,1.1c-0.1,0.1-0.3,0.1-0.4,0.1c-3,0-6.1,0-9.1,0c-0.2,0-0.5-0.5-0.6-0.8c-0.1-1.2-0.1-2.4,0-3.6
		c0.1-0.9-0.3-1.5-0.8-2c-0.4-0.4-0.7-0.8-1-1.3c-0.4-0.5-0.4-0.5-1.4,0.2c-0.8,0.6-1.5,0.2-1.6-1c0-0.4-0.1-0.7-0.4-1
		c-0.4-0.4-0.6-0.8-0.6-1.5c-0.1-1-0.3-1.1-0.8-1.1c-0.6,0-1.3,0-1.9,0c-0.4,0-0.6,0-0.9-0.4c-0.4-0.6-0.9-1.1-1.4-1.7
		c-0.1-0.1-0.3-0.4-0.4-0.3c-1,0.3-1.3-0.9-2-1.2c-0.4-0.2-0.9,0-1.2,0.5c-0.2,0.4-0.6,0.6-0.7,0.4c-0.6-1.4-2.2-0.6-2.7-2.1
		c-0.1-0.2-0.2-0.3-0.3-0.4c-0.4-0.7-0.9-1-1.6-0.9c-0.5,0.1-1,0-1.4,0c0,103.1,0,206.1,0,309.2c0,0.4,0,0.8,0,1.2c0,0,0.3,0,0.5,0
		c999.5,0,1999,0,2998.6,0c0.3,0,0.6,0,1,0C3000,450,3000,449.6,3000,449.4z M1750.4,86.2c-0.1,0.1-0.2,0.3-0.3,0.4
		C1750.2,86.5,1750.3,86.3,1750.4,86.2z M1680.4,81C1680.4,81,1680.4,81,1680.4,81C1680.4,81,1680.4,81,1680.4,81z M1680.3,80
		C1680.3,80,1680.3,80,1680.3,80C1680.3,80,1680.3,80,1680.3,80z M1632.4,110.3c-0.8-1.1-1.3-1.7-1.6-2.1c0.1,0.2,0.3,0.3,0.4,0.5
		c0.3,0.3,0.5,0.8,0.9,0.9c0.2,0.1,0.2,0,0.2,0C1632.4,109.6,1632.4,110,1632.4,110.3z M1630.6,107.7
		C1630.6,107.7,1630.6,107.7,1630.6,107.7C1630.6,107.7,1630.6,107.7,1630.6,107.7z M1630.5,107.5c0-0.1,0-0.1,0-0.2
		C1630.5,107.4,1630.5,107.5,1630.5,107.5z M1258.1,112.6c0-0.1,0-0.2,0-0.3C1258.1,112.4,1258.1,112.5,1258.1,112.6L1258.1,112.6z
		 M1060.5,60.1c-0.1-0.8,0.1-1.6,0-2.4c-0.2-1.4,0.1-6.8,0.1-6.8s1.4,3.2,1.7,3.7c0.5,0.8,4.7,6.8,4.8,6.8c1.4,0.8,4.9,5.6,5.6,6
		c1.1-0.4,4.7,3.7,5,3.6c0.6-0.1,3.4,2.5,4,2.4c0.8-0.1,0.9,1,1.5,1.2c0.5,0.1,0.9,0,1.3,0.6c0.2,0.3,0.5,0.6,0.7,0.6
		c1.4,0.1,2.9,0,4.3,0.1c0.3,0,0.5,0.4,0.8,0.6c-0.1,0.1-0.2,0.3-0.3,0.4c-0.3,0.4-0.7,0.7-0.7,1.5c0.1,2.4,0,4.8,0,7.2
		c0,0.7-0.4,1-0.7,1.4c-0.1,0.1-0.3,0.3-0.2,0.5c0.2,1.2-0.9,1.6-0.9,2.5c-0.1,1.3-0.5,1.7-1.5,1.6c-0.3,0.4-0.7,0.8-1,1.2
		c-0.7-0.2-1.2,0.2-1.6,0.9c-0.7,1.2-1.6,1.8-2.8,1.5c-0.3,0-0.6,0-1,0c-0.6,0-1.7-1.7-1.7-2.5c0-0.4,0-0.8,0-1.2
		c0-0.8-0.2-1.1-0.8-1.1c-0.3,0-0.6,0-1,0c-0.8,0.1-1-0.4-1.1-1.4c-0.2-1.1-1.2-2.2-1.9-2.2c-0.4,0-0.7,0-0.8-0.5
		c-0.2-0.9-0.4-1.8-1-2.5c-0.6-0.6-1.3-1.2-1.1-2.4c-0.4-0.6-0.9-1.1-1.3-1.7c-0.3-0.4-0.7-0.8-0.6-1.5c0.1-1.2,0-2.4,0-3.6
		c0-0.8-0.2-1-0.8-1.1c-0.6-0.1-1.2,0.2-1.8-0.3c-1.1-1-1.1-0.9-1.6-0.9c-0.5,0-1,0-1.4,0c-0.4,0-0.6-0.1-0.8-0.4
		c-0.5-0.7-1.3-5.3-1.1-6.2C1060.6,64.9,1060.5,60.8,1060.5,60.1z M1024,34.7c0-0.3,0.3-0.6,0.5-0.8c0.1,0.1,0.2,0.3,0.3,0.4
		c0.1,0.1,0.2,0.3,0.3,0.4c0.4,0.6,1.2,0.1,1.7,0.8c0.4,0.6,0.9,1.2,1.3,1.7c1.5,0,2.1,1.6,3,2.5c0.5,0.5,0.7,1.4,1.5,1.2
		c0.7-0.1,0.9,1.1,1.5,1.2c0.7,0,1.1,0.5,1.6,1c0.3,0.3,1,0.1,1.2,0.5c0.6,0.8,1.3,1.1,2.1,1c0.3,0,0.6,0.1,0.9,0.3
		c0.3,0.2,12.1,2.1,16.6,2.1c0.6,0,1,0.4,1,1c0,1.8,0,3.6,0,5.4c0,0.8,0,1.6,0,2.4c0,1.3,0.2,11.5,0,12.8c-0.1,0.4,0,0.8,0,1.2
		c0,0.7-0.3,1.2-0.7,1.2c-0.9,0-1.9-0.1-2.5,1.1c-0.2,0.4-1.1,0.1-1.3-0.1c-0.8-1-1.6-2-2.4-3c-0.8-0.9-1.4-2.1-2.4-2.8
		c-1.4,0.1-1.7-1.6-2.6-2.3c-0.1-0.1-0.3-0.1-0.5-0.1c-0.8,0.2-1-0.9-1.5-1.2c-0.4-0.2-0.9,0.1-1.3-0.5c-0.5-0.8-1.2-1.2-1.1-2.5
		c0.1-1,0-2,0-3c0-0.5,0-0.8-0.3-1.1c-1-1.3-2.1-2.5-3.1-3.8c-0.6-0.7-1.1-1.5-2-1.3c-0.6-1.2-1.5-1.3-2.5-1.2
		c-0.3,0-0.6-0.2-0.8-0.5c-0.2-0.3-0.5-0.6-0.7-0.6c-0.5-0.1-0.9-0.1-1.2-0.6c-0.2-0.3-0.5-0.6-0.7-0.6c-0.8,0.1-1.1-0.7-1.6-1.1
		c-0.4-0.3-1,0.1-1.3-0.5c-0.5-1-1.3-0.9-2.1-0.9c-0.6,0-1-0.4-1-0.9C1024,40.7,1024,37.7,1024,34.7z M1013.8,36.3
		c1.2-1.5,2.5-3.1,3.7-4.6c0.2-0.3,1.1-0.4,1.3-0.2c0.6,0.7,1.1,1.4,1.7,2.1c0.6,0.8,0.6,0.8,0.6,2.1c0,0.6,0,1.2,0,1.8
		c0,0.8,0,1.6,0,2.4c0,0.4-0.1,0.7-0.4,1c-0.7,0.8-1.3,1.7-2.1,2.5c-0.2,0.2-0.7,0.2-0.9,0c-0.8-0.9-1.6-1.9-2.4-2.9
		c0.2-1.4-0.7-2.1-1.3-2.9C1013.5,36.8,1013.4,36.8,1013.8,36.3z M974.1,47.1c0-1,0.2-1.2,1.2-1.3c0.5,0,0.9,0,1.4-0.2
		c0.4-0.1,0.5-0.5,0.3-1c0.9,0,12-2.4,12.9-2.4c0.1,0,9.9-2.4,11-2.4c0,0.2,0.1,0.5,0,0.6c-1.6,2-3.2,3.9-4.7,6
		c-0.5,0.7-1.1,0.5-1.7,0.8c-0.6,0.4-0.1,1.2-0.4,1.6c-0.7,1.1-1.6,2-2.3,3c-1.5-0.2-2.1,1.6-3,2.6c-1,1.1-1.8,2.2-2.7,3.4
		c-0.7,0.8-1.5,1.6-2,2.6c-0.6,1.1-1.7,0.9-2.3,1.7c-0.7,0.8-1.4,1.7-2,2.5c-0.7,0.8-1.3,1.7-2,2.5c-0.6,0.7-0.7-0.3-1-0.5
		c-0.6-0.5-1.2-0.2-1.8-0.3c-0.6-0.1-0.8-0.4-0.8-1.1c0-0.2,0-0.4,0-0.6C974.1,58.7,974.1,52.9,974.1,47.1z M212.6,205.7
		c-0.1,0-0.1,0-0.2,0C212.5,205.7,212.6,205.7,212.6,205.7z M210.3,205.4c-0.1-0.1-0.1-0.5-0.1-1.4
		C210.2,204.7,210.2,205.1,210.3,205.4z"/>
	<path class="st0" d="M39.7,156.5c-1-0.3-1.4,0.7-1.9,1.3c-0.7,0.8-0.5,2,0.3,2.2c0.4,0.1,0.9,0.1,1.2,0.6c0.4,0.6,0.9,1.1,1.3,1.7
		c0,0.1,0.2,0,0.3-0.1c1.3-0.9,1.3-0.9,2.1-0.9c0.8,0,1.1-0.3,1.1-1.4c0-1,0-2,0.1-2.9c0-0.1,0.3-0.4,0.3-0.4
		c0.2,0.2,0.5,0.4,0.7,0.6c0.3,0.6,0.9,0.6,1.3,0.4c0.5-0.2,0.6-0.8,0.5-1.5c0.2-1-0.1-1.9-0.8-2.5c-0.4-0.3-0.6-0.9-1.2-0.8
		c-0.9,0.1-1.9,0-2.8,0c-0.7,0-0.7,0.1-1,0.9C40.9,155.1,40.5,155.8,39.7,156.5z"/>
	<path class="st0" d="M245.2,205.7c0.6,0.5,0.6,1.3,0.5,2.1c-0.1,1.2,0.7,1.6,1.1,2.4c0.4,0.6,0.9,0.3,1.3,0.4c0.3,0,0.6-0.1,0.9,0
		c0.8,0.2,0.4-0.8,0.8-1.1c0.4-0.2,0.8-0.7,0.6-1.4c-0.1-0.4,0.1-0.7,0.4-1c0.2-0.2,0.5-0.6,0.5-0.8c-0.1-0.3-0.4-0.6-0.6-0.8
		c-0.3-0.4-0.5-1-1.1-0.9c-0.6,0.1-1.3,0-1.9,0c-0.8,0-1.6,0-2.4,0c-0.1,0-0.3,0.2-0.4,0.3C244.7,205.2,244.8,205.4,245.2,205.7z"/>
	<path class="st0" d="M29,151.7c0.7-0.1,1.1,0.1,1.5-0.4c0.6-0.9,1.4-1.7,2-2.6c0.2-0.2,0.1-0.8,0.1-1.1c-0.1-0.3-0.4-0.6-0.6-0.9
		c-0.5-1.4-2.1-0.7-2.7-2.1c0-0.1-0.3-0.1-0.4-0.2c-0.4-0.2-1.1,0.3-1.1,0.7c0,0.6,0,1.2,0,1.8c0,0.4-0.2,0.7-0.4,1
		c-0.9,1.4-0.8,1.5,0.2,2.9C28.1,151.5,28.6,151.9,29,151.7z"/>
	<path class="st0" d="M35.5,152.9c0.8-0.1,1.6-0.2,2.1,0.8c0.4,0.7,1.1,0.5,1.6-0.1c0.2-0.3,0.5-0.6,0.7-0.9
		c0.5-0.6,0.5-1.5,0.1-2.1c-0.6-0.9-1.3-1.8-2.4-1.4c-0.3,0-0.6,0-1,0c-0.5-0.1-0.9,0.3-1.2,0.7c-0.2,0.3-0.5,0.6-0.7,0.9
		c-0.3,0.4-0.3,1.1-0.1,1.6C34.9,152.9,35.1,152.9,35.5,152.9z"/>
	<path class="st0" d="M140.1,191.7c0,0.7,1.1,1.4,1.4,0.9c0.8-1.4,1.8-1.2,2.9-1.2c0.1,0,0.2-0.2,0.3-0.4c0.4-0.9,0-2-0.8-2
		c-0.2,0-0.3,0-0.5,0c-0.7,0.2-1.2-0.1-1.6-0.8c-0.3-0.6-0.9-0.4-1.3-0.3c-0.2,0.1-0.4,0.6-0.4,0.9c-0.1,0.4,0,0.8,0,1.2
		C140.1,190.5,140.1,191.1,140.1,191.7z"/>
	<path class="st0" d="M375,217.8c0.5,0,0.9,0,1.4,0c0.3,0,0.6,0,0.9,0c0.5,0,1.7-1.7,1.7-2.4c0-0.7-0.3-1.2-0.7-1.2
		c-0.3,0-0.6,0-0.9,0c-0.5,0-0.9,0-1.4,0c-0.5,0-1.7,1.7-1.7,2.4C374.2,217.3,374.6,217.8,375,217.8z"/>
	<path class="st0" d="M1710.4,66.2c0.3-0.1,0.6-0.3,0.7-0.6c0.1-0.3,0-0.8,0-1.2c0-0.2,0-0.4,0-0.6c0.1-0.4,0-0.8-0.3-1
		c-0.2-0.2-0.4,0-0.7,0.4c-0.3,0.4-0.7,0.8-0.9,1.3c-0.1,0.3-0.1,0.8,0,1.1C1709.3,66.1,1709.9,66.4,1710.4,66.2z"/>
	<path class="st0" d="M895.8,116.8c0.2-0.1,0.5-0.4,0.6-0.7c0.1-0.3,0-0.8,0-1.1c0-0.4,0-0.8,0-1.1c0-0.2,0-0.5,0-0.5
		c-0.3-0.2-0.6,0-0.8,0.4c-0.4,0.6-0.8,1.1-1.1,1.7c-0.1,0.2,0,0.7,0.1,1.1C894.6,116.7,895.4,117,895.8,116.8z"/>
</g>
</svg>
