<?xml version="1.0" encoding="utf-8"?>
<!-- Generator: Adobe Illustrator 26.0.0, SVG Export Plug-In . SVG Version: 6.00 Build 0)  -->
<svg version="1.1" id="Capa_1" xmlns="http://www.w3.org/2000/svg" xmlns:xlink="http://www.w3.org/1999/xlink" x="0px" y="0px"
	 viewBox="0 0 500 500" style="enable-background:new 0 0 500 500;" xml:space="preserve">
<style type="text/css">
	.st0{fill:#FFFFFF;}
</style>
<path class="st0" d="M249.1,436.5c-66.4,0-132.8,0-199.1,0c-25,0-37.2-12.2-37.2-37.4c0-94.5,0-189,0-283.5
	c0-25.3,12.1-37.5,37.1-37.5c133.5,0,267.1,0,400.6,0c24.2,0,36.6,12.3,36.6,36.9c0.1,95.3,0.1,190.6,0,285.8
	c0,23.3-12.9,35.7-36.6,35.7C383.4,436.5,316.3,436.5,249.1,436.5z M454.8,173.2c-137.3,0-409.7,154.2-409.7,231.6
	c136.8,0,272.9,0,409.7,0C454.8,327.5,454.8,250.8,454.8,173.2z M455.1,109.9c-137.3,0-273.4,0-410.1,0c0,14.2,0,27.6,0,41.6
	c136.9,0,273.3,0,410.1,0C455.1,137.4,455.1,124.2,455.1,109.9z"/>
<path class="st0" d="M94.2,141.9H64.5c-5,0-9.1-4.1-9.1-9.1v-4.3c0-5,4.1-9.1,9.1-9.1h29.6c5,0,9.1,4.1,9.1,9.1v4.3
	C103.3,137.8,99.2,141.9,94.2,141.9z"/>
<path class="st0" d="M146.8,141.9h-29.6c-5,0-9.1-4.1-9.1-9.1v-4.3c0-5,4.1-9.1,9.1-9.1h29.6c5,0,9.1,4.1,9.1,9.1v4.3
	C155.9,137.8,151.8,141.9,146.8,141.9z"/>
<path class="st0" d="M199.5,141.9h-29.6c-5,0-9.1-4.1-9.1-9.1v-4.3c0-5,4.1-9.1,9.1-9.1h29.6c5,0,9.1,4.1,9.1,9.1v4.3
	C208.5,137.8,204.5,141.9,199.5,141.9z"/>
</svg>
