<?xml version="1.0" encoding="utf-8"?>
<!-- Generator: Adobe Illustrator 26.0.0, SVG Export Plug-In . SVG Version: 6.00 Build 0)  -->
<svg version="1.1" id="Capa_1" xmlns="http://www.w3.org/2000/svg" xmlns:xlink="http://www.w3.org/1999/xlink" x="0px" y="0px"
	 viewBox="0 0 500 500" style="enable-background:new 0 0 500 500;" xml:space="preserve">
<style type="text/css">
	.st0{fill:#FFFFFF;}
</style>
<g>
	<path class="st0" d="M15.9,185.8c6.2-11.9,16.2-16.3,29.2-15c3.2,0.3,6.5-0.1,9.8,0.1c2.8,0.2,4.9-0.6,6.8-2.8
		c4.3-5,10.3-6.5,16.6-7.4c57.4-7.7,113-22.1,167.1-42.7c17.9-6.8,35.4-14.8,53-22.6c1.9-0.9,3.8-3,4.7-5c4.4-9.8,11.8-15,22.5-15.3
		c7.8-0.3,15.5-0.3,23.3,0c14.1,0.5,23.8,10.4,23.8,24.5c0.1,79,0.1,158,0,237.1c0,14.3-10,24.2-24.4,24.3c-7.8,0.1-15.5,0.1-23.3,0
		c-10.1-0.2-18.1-6-22-15.2c-0.8-1.9-2.5-4-4.3-4.8c-45.9-22.1-94-38.4-144-50.9c0.2,1.5,0.3,2.6,0.6,3.7
		c10.4,37.4,20.7,74.9,31.2,112.3c0.4,1.5,2.2,3.2,3.7,3.7c4.6,1.4,7.2,4,7,7.9c-0.2,4.1-3.3,7.2-8.2,7.3
		c-8.1,0.2-16.1,0.1-24.2,0.1c-8.1,0-16.1,0-24.2,0c-13.8-0.1-22.2-6.4-25.8-19.5c-11.6-41.6-23.1-83.2-34.6-124.9
		c-1-3.5-2.3-5-6.2-5.9c-4.4-1-8.3-4.3-12.6-6.5c-2.1-1.1-4.3-2.4-6.5-2.5c-6.2-0.4-12.4,0.1-18.6-0.4c-10-0.7-16.2-6.8-20.5-15.3
		C15.9,228.6,15.9,207.2,15.9,185.8z M301.8,325.3c0-2.5,0-4.4,0-6.2c0-51.7,0-103.4,0-155.1c0-5.7,2.6-8.8,7.2-9
		c4.8-0.1,7.8,3.1,7.9,8.9c0.1,4.3,0,8.7,0,13c0,52.6,0,105.3,0,157.9c0,8.7,2.6,11.2,11.4,11.2c5.6,0,11.2,0,16.8,0
		c10.3,0,12.5-2.2,12.5-12.6c0-76.8,0-153.7,0-230.5c0-1.1,0-2.2,0-3.3c-0.4-6.1-3.3-9.1-9.4-9.2c-7.3-0.1-14.6-0.1-21.9,0
		c-6.6,0.1-9.4,3.2-9.4,9.9c0,9.5,0,18.9,0,28.4c0,5.7-3,9.3-7.5,9.4c-4.6,0.1-7.5-3.4-7.5-9.2c0-5.8,0-11.6,0-17.9
		c-2,0.8-3.3,1.3-4.5,1.9c-14,5.9-27.8,12.1-42,17.6c-41.1,15.8-83.2,28.4-126.5,36.8c-16.3,3.2-32.7,5.7-49,8.4
		c-7.1,1.2-9.9,3.6-9.9,9.4c-0.1,22-0.1,44.1,0,66.1c0,5.3,2.8,8.2,8.1,9c7.8,1.2,15.6,2.4,23.4,3.6c58.5,9.6,115,25.8,169.8,48.3
		C281.3,316.3,291.2,320.7,301.8,325.3z M95.7,277.9c-0.1,0.9-0.1,1-0.1,1.2c11.4,41.3,22.9,82.7,34.3,124c1.3,4.7,4.6,6.7,9.4,6.7
		c9.6-0.1,19.3,0,28.9,0c1,0,2.1-0.3,3-0.4c0.1-0.6,0.2-0.9,0.1-1.2c-11.1-39.8-22.1-79.7-33.3-119.4c-0.4-1.3-2-2.8-3.3-3.1
		C121.9,282.9,109,280.5,95.7,277.9z M54.7,185.9c-5.7,0-11-0.2-16.2,0c-4.9,0.2-8.3,3.4-8.4,8.3c-0.2,16-0.1,31.9,0,47.9
		c0,3.9,2.1,7.4,6.1,7.8c6.1,0.6,12.2,0.2,18.5,0.2C54.7,228.6,54.7,207.5,54.7,185.9z"/>
	<path class="st0" d="M480.8,225.7c-24.2,0.2-48.4,0.1-72.7,0.1c-1.5,0-3.2,0.1-4.6-0.2c-4-1-6.1-3.6-6.1-7.7c0-3.9,3.1-6.9,7.2-7
		c5.9-0.2,11.8-0.1,17.7-0.1c19.9,0,39.8-0.1,59.6,0.1C485.2,210.9,484.5,225.7,480.8,225.7z"/>
	<path class="st0" d="M405.5,266.5c0.9,0.3,2.3,0.5,3.5,1.1c7.2,3.1,14.5,6.1,21.7,9.3c5,2.2,6.8,6.2,4.9,10.4
		c-1.8,3.9-6,5.5-10.6,3.6c-7.7-3.2-15.3-6.5-22.9-9.9c-3.7-1.6-5.4-4.6-4.5-8.6C398.6,268.4,401.2,266.7,405.5,266.5z"/>
	<path class="st0" d="M428.4,143.9c4.1,0.9,6.6,2.8,7.6,6.3c0.9,3.5,0,6.8-3.3,8.4c-8.5,4-17.2,7.7-26,11.1
		c-3.4,1.3-6.5-0.4-8.3-3.5c-1.8-3.1-1.8-7.2,1.2-8.8C409,152.4,418.8,148.3,428.4,143.9z"/>
	<path class="st0" d="M468.1,138.5c0,4.3-2.6,6.4-6.2,7.7c-4.6,1.7-9.1,5.7-14.2,1.3c-3.8-3.2-3.3-9.4,1.1-11.9
		c3.2-1.8,6.7-3.3,10.2-4.3C463.7,129.8,468,133.5,468.1,138.5z"/>
	<path class="st0" d="M461.2,306.5c-5.2-2.5-9.9-4.2-13.7-7.1c-1.6-1.3-2-5.4-1.4-7.9c0.7-3.2,3.9-5.2,7.3-4.3
		c4.2,1.2,8.7,2.7,12.1,5.3c1.8,1.4,2.6,5.7,1.9,8.2C466.8,302.8,463.6,304.3,461.2,306.5z"/>
</g>
</svg>
