<?xml version="1.0" encoding="utf-8"?>
<!-- Generator: Adobe Illustrator 21.0.0, SVG Export Plug-In . SVG Version: 6.00 Build 0)  -->
<svg version="1.1" id="Capa_1" focusable="false" xmlns="http://www.w3.org/2000/svg" xmlns:xlink="http://www.w3.org/1999/xlink"
	 x="0px" y="0px" viewBox="0 0 1024 512" style="enable-background:new 0 0 1024 512;" xml:space="preserve">
<style type="text/css">
	.st0{fill:none;stroke:#000000;stroke-width:10;stroke-miterlimit:10;}
	.st1{fill:#FFFFFF;stroke:#000000;stroke-width:10;stroke-miterlimit:10;}
</style>
<path d="M376.3,84.4H69.7C52.7,84.4,39,98.2,39,115.1v204.4c0,16.9,13.7,30.7,30.7,30.7h122.7l-10.2,45.7h-46
	c-8.5,0-15.3-1.2-15.3,7.3c0,8.5,6.8,8.3,15.3,8.3h173.8c8.5,0,15.3,0.2,15.3-8.3c0-8.5-6.8-7.3-15.3-7.3h-46l-10.2-45.7h122.7
	c16.9,0,30.7-13.7,30.7-30.7V115.1C407,98.2,393.3,84.4,376.3,84.4z M366.1,309.3H79.9v-184h286.2V309.3z"/>
<ellipse class="st0" cx="806.2" cy="244.4" rx="163.2" ry="159.2"/>
<circle class="st1" cx="790.3" cy="244.4" r="160"/>
<path d="M829.7,331.2c0,21.7-17.7,39.4-39.4,39.4c-21.7,0-39.4-17.7-39.4-39.4s17.7-39.4,39.4-39.4
	C812,291.8,829.7,309.5,829.7,331.2z M755.4,130.7l6.7,134.1c0.3,6.3,5.5,11.2,11.8,11.2h32.7c6.3,0,11.5-4.9,11.8-11.2l6.7-134.1
	c0.3-6.8-5.1-12.4-11.8-12.4h-46.1C760.5,118.2,755.1,123.9,755.4,130.7z"/>
<rect x="57" y="102" class="st1" width="332" height="223"/>
<line class="st1" x1="567.1" y1="84.4" x2="478.6" y2="404.4"/>
</svg>
