<?xml version="1.0" encoding="utf-8"?>
<!-- Generator: Adobe Illustrator 21.0.0, SVG Export Plug-In . SVG Version: 6.00 Build 0)  -->
<svg version="1.1" id="Capa_1" focusable="false" xmlns="http://www.w3.org/2000/svg" xmlns:xlink="http://www.w3.org/1999/xlink"
	 x="0px" y="0px" viewBox="0 0 448 512" style="enable-background:new 0 0 448 512;" xml:space="preserve">
<style type="text/css">
	.st0{fill:#FFFFFF;stroke:#000000;stroke-width:10;stroke-miterlimit:10;}
</style>
<path class="st0" d="M336.5,199.9c-16.3-22-55.8-17.2-67-6C247,178,232.3,182.3,211,195c-7.7-7-6-106.9-6-106.9
	c1-43.5-7.8-69.5-38.5-69.5c-30.6,0-36,20.7-34.6,69.5l7,192.5c-17.9-38.8-66.3-49.9-82-37.5c-24.6,19.4-11.7,47.2,6.1,73.6
	l75.7,141.9c10.4,15.5,27.3,24.7,45.1,24.7h149.5c25.8,0,40.3-19.1,46.1-46c0,0,17.7-54.1,21.4-103.2s1-78.6,1-78.6
	C401.8,214,372.7,185.1,336.5,199.9z"/>
</svg>
