<?xml version="1.0" encoding="utf-8"?>
<!-- Generator: Adobe Illustrator 21.0.0, SVG Export Plug-In . SVG Version: 6.00 Build 0)  -->
<svg version="1.1" id="Capa_1" focusable="false" xmlns="http://www.w3.org/2000/svg" xmlns:xlink="http://www.w3.org/1999/xlink"
	 x="0px" y="0px" viewBox="0 0 512 512" style="enable-background:new 0 0 512 512;" xml:space="preserve">
<path d="M336,32H176c-26.5,0-48,21.5-48,48v400h256V80C384,53.5,362.5,32,336,32z M320,128H192V96h128V128z"/>
<path d="M512,176v256c0,26.5-21.5,48-48,48h-48V128h48C490.5,128,512,149.5,512,176z"/>
<path d="M96,480H48c-26.5,0-48-21.5-48-48V176c0-26.5,21.5-48,48-48h48V480z"/>
</svg>
